<svg xmlns="http://www.w3.org/2000/svg" viewBox="0 0 667.3 329.96"><defs><style>.cls-1{fill:#eb5b2e;}.cls-2{fill:#009c6b;}.cls-3{fill:#4d2450;}.cls-4{fill:#4a2d60;}.cls-5{fill:#f0f0f0;}.cls-6{fill:#69c5dc;}.cls-7{fill:#69c5db;}.cls-8{fill:#47a0d9;}.cls-9{fill:#69ba7f;}.cls-10{fill:#fedb01;}.cls-11{fill:#4b2c61;}.cls-12{fill:#f8f8f7;}.cls-13{fill:#fcbe2e;}.cls-14{fill:#ef7736;}.cls-15{fill:#dbdbdb;}.cls-16{fill:#297dc1;}.cls-17{fill:#fff;}.cls-18{fill:#f8bc38;}.cls-19{fill:#79cade;}.cls-20{fill:#87c7d7;}.cls-21{fill:#f4a090;}.cls-22{fill:#c95169;}</style></defs><g id="Layer_6" data-name="Layer 6"><rect class="cls-1" width="667.3" height="201.54"/><rect class="cls-2" y="201.54" width="667.3" height="127.7"/></g><g id="Layer_9" data-name="Layer 9"><path class="cls-3" d="M131,516.18c.23.65.81.75,1.42.63.4-.08.78-.2,1.05.21l.7-.92a3.84,3.84,0,0,0-1.66-.38,4,4,0,0,0-.69.14,1.43,1.43,0,0,0-.28.07c-.15.08-.12-.12,0,.11a.63.63,0,0,0-1.14.15.92.92,0,0,0,.7,1.15,1.43,1.43,0,0,0,.74-.06c.24-.07.27,0,.51.07a2.19,2.19,0,0,0,1.38.18c.17,0,.69-.23.81-.11a.63.63,0,0,0,1-.76,1.21,1.21,0,0,0-1.13-.56c-.41,0-.83.39-1.24.31a2.32,2.32,0,0,1-1-.55c-.13-.12-.11-.16-.15-.3h0c0,.09-.13,0,.06,0,.48.14,1,.18,1.48.29s1,.26,1.45.41a20,20,0,0,1,2.87,1.21c.71.37,1.34-.71.63-1.08A20.9,20.9,0,0,0,135,515c-.59-.18-1.18-.33-1.78-.45a2.72,2.72,0,0,0-1.8,0,1.28,1.28,0,0,0-.61,1.24,1.78,1.78,0,0,0,.88,1.31,3.17,3.17,0,0,0,1.56.63,1.88,1.88,0,0,0,.9-.2l.39-.13s.05.09,0-.05l1-.76c-.63-.63-1.33-.26-2.07-.2-.32,0-.58-.19-.87-.28a1.43,1.43,0,0,0-.71,0,2.44,2.44,0,0,0-.26.06l-.11,0c-.12,0-.06.08.18.16v.33l0-.08-1.15.15a1.31,1.31,0,0,0,1.56.42,1.92,1.92,0,0,1,.79-.11,4.43,4.43,0,0,1,1,.33c.51.21,1-.49.7-.92a1.93,1.93,0,0,0-1.3-.9,2.2,2.2,0,0,0-.81,0,3.38,3.38,0,0,1-.34.08.1.1,0,0,1-.1,0c-.19,0-.12.06.21.23a.63.63,0,0,0-.77-.43.62.62,0,0,0-.43.76Z" transform="translate(25.69 -272.76)"/><path class="cls-3" d="M95.69,517.23A142.38,142.38,0,0,1,117.14,516q5.27.06,10.51.47c1.79.14,3.58.31,5.36.51.81.09,1.63.19,2.43.3.42.05,2.81.07,2.9.69l.43-.77a17,17,0,0,1-5.4,1c-1.89.14-3.78.24-5.67.31-3.7.14-7.41.16-11.11.11s-7.41-.18-11.12-.33L100,518a24.11,24.11,0,0,1-5.56-.61v1.2l2.21-.42-.33-1.2a3.43,3.43,0,0,1-1.39.15v1.25l2.59-.32a.63.63,0,0,0,0-1.25l-3.44-.37v1.25a72.8,72.8,0,0,0,7.53-.18c.79-.06.81-1.29,0-1.25l-4.32.19a.63.63,0,0,0,0,1.25,40.53,40.53,0,0,0,4.54.1v-1.25l-2.36.2a.63.63,0,0,0-.16,1.23,5.25,5.25,0,0,0,2.49.2c.75-.1.48-1.16-.16-1.23a16.25,16.25,0,0,0-4.35.17c-.71.12-.52,1.23.17,1.23l5.31,0a.63.63,0,0,0,0-1.25l-3.6-.28v1.25l5.93-.05a.63.63,0,0,0,0-1.25,40,40,0,0,0-4.24-.26v1.25l5.26,0a.63.63,0,0,0,0-1.25l-2.27-.23v1.25l6.59-.06a.63.63,0,0,0,0-1.25,58.94,58.94,0,0,0-6.9-.25.63.63,0,0,0,0,1.25l6.08,0a.63.63,0,0,0,0-1.25,38.93,38.93,0,0,0-7.24.36c-.71.1-.52,1.22.17,1.23h2.91l-.31-1.17-1.76.81a.63.63,0,0,0,.15,1.14l1.77.27.17-1.23a4.92,4.92,0,0,1-1.53,0l-.17,1.23,4.13-.08a.63.63,0,0,0,0-1.25l-3.67-.4v1.25h4l-.6-.79,0,.1.6-.46.31.24-.16.61c.28-.28,2.11.21,2.55.27l2.85.33v-1.25h-4a.63.63,0,0,0,0,1.25l5.89.24c.8,0,.8-1.22,0-1.25a66.06,66.06,0,0,0-10.24.3.63.63,0,0,0,0,1.25,61.14,61.14,0,0,0,9.17-.49.63.63,0,0,0,0-1.25l-3.38-.08v1.25l2.17-.26a.63.63,0,0,0,0-1.25l-2.17-.06V518l7.11-.26c.67,0,.89-1.1.16-1.23a16.68,16.68,0,0,0-4-.26v1.25l3.36-.22c.65,0,.9-1.1.16-1.23l-3.14-.56-.17,1.23,3-.2a.63.63,0,0,0,0-1.25,25.89,25.89,0,0,0-8.3,1,.63.63,0,0,0,.17,1.23l13-.16v-1.25l-3.62.24a.63.63,0,0,0,0,1.25l3.12.16-.17-1.23a10.88,10.88,0,0,1-2,.14V518h3.59v-1.25l-5.31.44c-.79.07-.82,1.28,0,1.25l1.63-.06a.63.63,0,0,0,0-1.25,15.46,15.46,0,0,0-3.33.07c-.63.08-.93,1.08-.17,1.22l1.44.28v-1.2l-1.41.28c-.69.13-.53,1.24.17,1.22l8-.15v-1.25l-1,0,.17,1.23a21.66,21.66,0,0,1,4.69-.33c.8,0,.79-1.21,0-1.25l-1.2-.07v1.25l2.14-.18a.63.63,0,0,0,0-1.25l-3.33-.15c-.8,0-.8,1.22,0,1.25a6.16,6.16,0,0,0,1.77-.17c.73-.16.51-1.17-.16-1.22l-3.77-.29v1.25h6.34V516.4l-2.27.27c-.63.07-.93,1.1-.16,1.22a11.48,11.48,0,0,0,2.19.16c.67,0,.89-1.13.17-1.22l-.87-.12-.17,1.23h1.81l-.16-1.23-1.76.27.33,1.2,1.38-.29c.68-.14.54-1.3-.16-1.22l-3,.33a.63.63,0,0,0,0,1.25,14.49,14.49,0,0,0,4.41-.1c.79-.13.45-1.32-.34-1.2l-6.66,1c-.7.11-.54,1.27.16,1.23,3.07-.18,6.14-.45,9.19-.82.63-.08.93-1.1.17-1.23a13.62,13.62,0,0,0-2.92-.19c-.66,0-.89,1.13-.16,1.23a17,17,0,0,0,6-.23c.78-.18.45-1.38-.33-1.21a15,15,0,0,1-5.34.23l-.17,1.23a11.7,11.7,0,0,1,2.58.15l.17-1.23c-3.05.37-6.12.64-9.19.82l.17,1.23,6.67-1-.34-1.2a13.54,13.54,0,0,1-4.07,0v1.25l3-.33-.17-1.23-1.38.29c-.8.17-.44,1.32.33,1.2l1.76-.27c.71-.11.52-1.22-.17-1.22H129c-.68,0-.88,1.13-.16,1.22l.87.12.16-1.23a9.68,9.68,0,0,1-1.86-.11l-.17,1.23,2.27-.27c.78-.09.83-1.25,0-1.25h-6.34a.63.63,0,0,0,0,1.25l3.77.29-.17-1.23a5,5,0,0,1-1.44.12v1.25l3.33.15V517l-2.14.18a.63.63,0,0,0,0,1.25l1.2.07v-1.25a22.92,22.92,0,0,0-5,.38c-.69.12-.53,1.26.17,1.22l1,0a.63.63,0,0,0,0-1.25l-8,.15.16,1.23,1.41-.28a.63.63,0,0,0,0-1.2l-1.44-.28-.16,1.23a15.46,15.46,0,0,1,3.33-.07v-1.25l-1.63.06v1.25l5.31-.44c.79-.07.82-1.26,0-1.25h-3.59a.63.63,0,0,0,0,1.25,13.56,13.56,0,0,0,2.38-.18c.73-.12.51-1.19-.16-1.23l-3.12-.16v1.25l3.62-.24a.63.63,0,0,0,0-1.25l-13,.16.16,1.23a24.72,24.72,0,0,1,8-1v-1.25l-3,.2c-.66,0-.9,1.09-.17,1.22l3.15.57.17-1.23-3.36.22c-.8.05-.81,1.3,0,1.25a15.47,15.47,0,0,1,3.66.21l.17-1.22-7.11.26a.63.63,0,0,0,0,1.25l2.17.06v-1.25l-2.17.26a.63.63,0,0,0,0,1.25l3.38.08v-1.25a61.14,61.14,0,0,1-9.17.49v1.25a66.06,66.06,0,0,1,10.24-.3v-1.25l-5.89-.24v1.25h4c.82,0,.77-1.16,0-1.25l-3.32-.39c-.74-.09-1.9-.48-2.61-.13a.82.82,0,0,0,.38,1.57.63.63,0,0,0,.6-.45l0-.11a.63.63,0,0,0-.61-.79h-4a.63.63,0,0,0,0,1.25l3.67.4v-1.25l-4.13.08c-.68,0-.88,1.1-.17,1.23a6.53,6.53,0,0,0,1.87.08c.64-.06.92-1.11.17-1.22l-1.78-.27.15,1.14,1.76-.81c.59-.27.27-1.16-.32-1.16h-2.91l.16,1.22a37.13,37.13,0,0,1,6.91-.31v-1.25l-6.08,0v1.25a58.94,58.94,0,0,1,6.9.25v-1.25l-6.59.06a.63.63,0,0,0,0,1.25l2.27.23v-1.25l-5.26,0a.63.63,0,0,0,0,1.25,40,40,0,0,1,4.24.26v-1.25l-5.93.05a.63.63,0,0,0,0,1.25l3.6.28v-1.25l-5.31,0,.16,1.23a15,15,0,0,1,4-.13l-.17-1.22a3.79,3.79,0,0,1-1.83-.21L99.51,518l2.36-.2c.79-.07.82-1.28,0-1.25a40.53,40.53,0,0,1-4.54-.1v1.25l4.32-.19v-1.25a72.8,72.8,0,0,1-7.53.18c-.82,0-.79,1.16,0,1.25l3.44.37v-1.25l-2.59.32a.63.63,0,0,0,0,1.25,4.18,4.18,0,0,0,1.72-.2.62.62,0,0,0-.33-1.2l-2.22.42c-.62.12-.56,1,0,1.2,3.43,1,7.31.73,10.84.88,3.87.16,7.74.3,11.61.35s7.74,0,11.61-.13c2-.08,3.94-.19,5.91-.35a15.66,15.66,0,0,0,5-1,.65.65,0,0,0,.44-.77c-.18-1.36-2-1.33-3-1.47q-2.83-.37-5.68-.66-6-.59-12-.72A145.25,145.25,0,0,0,95.36,516c-.79.11-.45,1.32.33,1.2Z" transform="translate(25.69 -272.76)"/><path class="cls-4" d="M203.17,537.66c.07-7.83,198.55-18.59,200.91-1.88.21,1.48-1.15,3-2.72,4.19a529,529,0,0,0-89.15,2.51c-16.91,1.94-54.12,7.1-99-1.68C205,539.2,203.16,538.42,203.17,537.66Z" transform="translate(25.69 -272.76)"/><path class="cls-5" d="M249,495.6a20.36,20.36,0,0,1,5.65,10.46c1.81,9.41-4.19,16.61-5,17.58-4.83,5.61-12.11,7.89-16.32,9.21-5.95,1.86-11.55,2.31-12.35,5.44a4,4,0,0,0,.42,2.72c11.89.57,27.42,1.17,45.62,1.47,20.2.33,20.9-.08,57.34-.21,38.72-.15,59.1.23,59.65-3.56.21-1.46-2.75-2-9-7.12-5.15-4.22-13.71-11.22-14.86-19.46-1.29-9.29,7.68-14.05,6.7-18.21C365.2,487,336.93,484.89,249,495.6Z" transform="translate(25.69 -272.76)"/><path class="cls-6" d="M223,542c19.36.26,38.71.55,58.07.75s38.74.23,58.1-.46c10.8-.39,21.62-1.32,32.43-.86,3.22.14,3.21-4.86,0-5-9.57-.41-19.14.33-28.69.71s-19.28.6-28.92.68c-19.37.18-38.74-.13-58.11-.38L223,537c-3.22,0-3.22,5,0,5Z" transform="translate(25.69 -272.76)"/><path class="cls-4" d="M254.71,501.06l41.78,1.3c13.94.44,27.94,1.32,41.88.54,7.76-.44,15.52-1.09,23.3-.8l-2.16-3.76a19.92,19.92,0,0,0-3.65,10.72l3.17-2.42c-12.65-2.95-25.63-4.07-38.55-5.11l-39.64-3.15-22.19-1.77v5l75.84,2.93,21.45.83-2.41-3.17-.73,3.32c-.7,3.13,4.12,4.47,4.82,1.33l.73-3.32a2.53,2.53,0,0,0-2.41-3.16l-75.84-2.93-21.45-.83a2.5,2.5,0,0,0,0,5l39.46,3.14c12.81,1,25.66,1.84,38.44,3.23a178,178,0,0,1,21.15,3.49,2.54,2.54,0,0,0,3.16-2.41,15.25,15.25,0,0,1,3-8.2c1.17-1.62-.43-3.69-2.16-3.76-6.88-.25-13.74.22-20.61.64s-13.78.57-20.7.37c-14-.41-28-.88-42-1.31l-23.63-.74c-3.22-.1-3.21,4.9,0,5Z" transform="translate(25.69 -272.76)"/><path class="cls-7" d="M79.14,464.82a94.33,94.33,0,0,0,0,11.77A41.75,41.75,0,0,0,81,487.64c1.25,3.5,4.07,5.14,7.52,6a68.52,68.52,0,0,0,11.92,1.73c7.6.5,15.24.09,22.85-.14a97.45,97.45,0,0,0,11.94-.9,32.1,32.1,0,0,0,5-1.09c2.31-.75,3.1-2.26,3.45-4.54a102.74,102.74,0,0,0,.52-26.91,2.56,2.56,0,0,0-2.5-2.5l-52.95.43c-2.23,0-4.79-.27-6.9.59A4.93,4.93,0,0,0,78.79,466a2.5,2.5,0,0,0,4.82-1.33c.14.69-.14.2.17.26a7.72,7.72,0,0,0,1-.15c1.25-.06,2.52,0,3.77,0l7.46-.06,15.16-.12,30.58-.25-2.5-2.5a100.77,100.77,0,0,1,.63,14.11q-.09,3.42-.41,6.81c-.11,1.13-.23,2.27-.38,3.39-.12.87-.07,2.24-.58,2.94l.9-.9a8.28,8.28,0,0,1-3.19,1c-1.32.27-2.64.48-4,.62-2.5.27-5,.39-7.53.47-5.23.17-10.46.36-15.69.39a86.42,86.42,0,0,1-15.67-1c-2-.36-4.58-.62-6.34-1.77s-1.85-3.78-2.18-5.57a73.33,73.33,0,0,1-.7-17.39c.17-3.21-4.84-3.2-5,0Z" transform="translate(25.69 -272.76)"/><path class="cls-7" d="M81.85,465.09a57.7,57.7,0,0,0,.11,6.17,2.52,2.52,0,0,0,4.66,1.26A15.61,15.61,0,0,0,88.73,467l-4.83-1.33-2.15,14.24A2.58,2.58,0,0,0,83.5,483a2.53,2.53,0,0,0,3.07-1.75l4.16-15.45c.84-3.12-3.88-4.4-4.82-1.33-1.64,5.35-3.54,10.7-4.55,16.22a2.54,2.54,0,0,0,3.08,3.08A4,4,0,0,0,87.07,481c.54-1.39,1-2.8,1.54-4.2l3.08-8.39H86.87A19.2,19.2,0,0,1,86,475.7a41.06,41.06,0,0,0-1.38,8c-.1,2.58,3.39,3.27,4.66,1.26,3.55-5.63,4.7-12.38,8.25-18L93,465a143.65,143.65,0,0,0-5.66,18.28,2.52,2.52,0,0,0,4.18,2.43c1.79-1.66,2.44-4.14,3.25-6.36l2.76-7.51c1-2.66-3.27-4.42-4.57-1.92a42.06,42.06,0,0,0-3.49,9.09A2.51,2.51,0,0,0,90.92,482,2.48,2.48,0,0,0,94,481a39.43,39.43,0,0,0,3.18-11.61,4.38,4.38,0,0,0-2.2-4.57c-2-1-4.14.17-5.6,1.62a2.52,2.52,0,0,0,1.1,4.18,23.89,23.89,0,0,0,9.34.32c2.43-.37,2.34-4.37,0-4.82l-7.58-1.47-.67,4.91a186.63,186.63,0,0,1,25-1v-5a114.74,114.74,0,0,1-20.88-1l-.67,4.91,38.1.75v-5a125.81,125.81,0,0,1-13.17.45v5l6.64-.63a2.57,2.57,0,0,0,2.5-2.5,2.51,2.51,0,0,0-2.5-2.5l-7,.6a2.57,2.57,0,0,0-2.5,2.5,2.53,2.53,0,0,0,2.5,2.5l18.93-.12v-5l-4.89.55.66,4.91a34.4,34.4,0,0,0,4.49-.93c3.1-.87,1.8-5.59-1.33-4.82l-4.65,1.14,1.33,4.82,3.55-.94a2.53,2.53,0,0,0,1.74-3.07,2.56,2.56,0,0,0-3.07-1.75c-5.15.83-10.32,1.59-15.49,2.23s-10.34,1.57-15.48,1.36l1.27,4.66a5.2,5.2,0,0,1,1.74-.63l-1.32-4.82A33.33,33.33,0,0,0,99,470.32a2.56,2.56,0,0,0-.9,3.42,2.52,2.52,0,0,0,3.42.89l3.86-2.35-3-3.92-8,7.61,3.54,3.53a20.37,20.37,0,0,0,3.08-4.94,2.54,2.54,0,0,0-.65-3.22,2.48,2.48,0,0,0-3.28.2q-3.66,4-7.08,8.18a2.57,2.57,0,0,0,0,3.53,2.51,2.51,0,0,0,3.53,0,75.29,75.29,0,0,0,5.4-6.43l-4.32-2.52-4.7,6.56,4.32,2.52a45.1,45.1,0,0,0,5.5-11.58c.83-2.65-3.36-4.53-4.57-1.93q-3.26,7-6,14.18c-.76,2,1.94,4,3.68,2.82A31,31,0,0,0,98,482.5a4.06,4.06,0,0,0,1.36-3A3.06,3.06,0,0,0,97,476.65a2.45,2.45,0,0,0-2.43.64l-5.34,6.14,3.93.51a11.93,11.93,0,0,0-2.84-3.44,2.61,2.61,0,0,0-3-.4,6.45,6.45,0,0,0-2.39,2.25,2.41,2.41,0,0,0,0,2.52,11.39,11.39,0,0,0,2.47,2.48,2.49,2.49,0,0,0,3.23-.64,2.55,2.55,0,0,0-.2-3.29,4.47,4.47,0,0,0-3.32-1.5,2.55,2.55,0,0,0-2.5,2.5,6.18,6.18,0,0,0,4.85,6.46,2.52,2.52,0,0,0,2.43-4.18,14.61,14.61,0,0,0-2.69-2.2l-2.53,4.32a37.56,37.56,0,0,0,7,3,2.52,2.52,0,0,0,2.82-1.14,2.6,2.6,0,0,0-.39-3,5.56,5.56,0,0,0-5.93-1.68l1.33,4.82,13.82-4.86c2-.72,4.5-1.25,6.27-2.53a4.5,4.5,0,0,0,1.41-6,2.52,2.52,0,0,0-3.42-.89,63.05,63.05,0,0,0-7.7,6.12l3.93,3,2-3.42a2.54,2.54,0,0,0-1.5-3.67c-1.91-.73-3.75.52-5.27,1.56a32.1,32.1,0,0,0-4.28,3.51l3.92,3,3.26-7a2.51,2.51,0,0,0-.64-3.22,2.49,2.49,0,0,0-3.28.19,75.4,75.4,0,0,0-5.37,6.73l4.32,2.53,7.6-14.28L102,469.61a50.35,50.35,0,0,0-2.69,8.73,2.6,2.6,0,0,0,1.15,2.83,2.52,2.52,0,0,0,3-.39l4.69-6L104,472.36l-5.15,14.43c-.94,2.63,3.46,4.54,4.57,1.92L109.61,474,105,472.1l-3.63,11.17c-.86,2.67,3.3,4.48,4.57,1.93l8-15.92-4.57-1.92a94.72,94.72,0,0,1-4.84,15.79,2.48,2.48,0,0,0,1.45,3,2.52,2.52,0,0,0,3.12-1l10.16-16.38-4.56-1.92q-3.16,8.91-6.68,17.68c-1.05,2.63,3.28,4.42,4.57,1.93l5.12-9.92a2.5,2.5,0,0,0-4.32-2.52,36.75,36.75,0,0,1-3.28,4.38l4.18,2.43q1.77-4.62,3.76-9.14l-4.57-1.93a8.78,8.78,0,0,0-.27,4.95,2.52,2.52,0,0,0,3.67,1.49l4.21-2.48-3.68-2.82-.87,5.52a2.51,2.51,0,0,0,4.56,1.93,76.65,76.65,0,0,0,4.43-7.16l-4.32-2.53q-3.09,7-6.72,13.65l4.32,2.52,5.63-12.44a2.58,2.58,0,0,0-.89-3.42,2.54,2.54,0,0,0-3.43.9q-3,6.4-5.54,13c-1,2.66,3.23,4.38,4.57,1.93a36.18,36.18,0,0,1,4.49-6.48l-4.18-1.1a11.45,11.45,0,0,1,.26,6,2.51,2.51,0,0,0,4.57,1.93l4.85-7-4.57-1.93-.41,2.94a2.5,2.5,0,0,0,4.82,1.33l2.72-6.61-4.83-1.33-2.4,7.69,4.82,1.33q1.14-6.24,2.62-12.41c.56-2.37-2.39-4.28-4.18-2.44L124,470.41l3.92,3a8.62,8.62,0,0,1,1.62-1.63L125.86,469a58.9,58.9,0,0,1-2.43,6.14,2.5,2.5,0,0,0,4.32,2.52l5.46-7.5-4.32-2.53a11.77,11.77,0,0,0-2,7.57c.18,1.95,2.74,3.57,4.27,1.77l2.93-3.43h-3.53l.89.86c1.07,1,3.23,1,3.93-.51a70,70,0,0,0,2.81-7l-4.82-1.33-3,12.34c-.76,3.18,3.71,4.31,4.83,1.33l4.67-12.43h-4.82c.72,2.89.24,5.87-.25,8.75A2.52,2.52,0,0,0,139,478l.86-.75-4.27-1.77a51.7,51.7,0,0,1,0,6,2.5,2.5,0,0,0,5,0l1.1-13.19h-5l-.43,7.79-.21,3.89c0,.39.09,1.17-.12,1.51.19-.31,0-.06-.4,0a33.67,33.67,0,0,1-7.09.5,53.42,53.42,0,0,1-7.69-.52l-.66,4.91,9.21-.46,4.36-.22c1-.05,2.8-.47,3.78,0l.6-4.57A88.42,88.42,0,0,1,125,483.82l.67,4.91,9.88-1.5-1.33-4.82a94.78,94.78,0,0,1-9.65,2.61c-2.39.51-2.38,4.3,0,4.82,4.53,1,9,1.67,13.39-.25,2.2-1,1.16-5-1.26-4.66-11.34,1.5-23.1,3.06-34.31-.05l-.66,4.91,11.62-1.56a2.58,2.58,0,0,0,2.5-2.5,2.52,2.52,0,0,0-2.5-2.5l-8.77.93a2.54,2.54,0,0,0-2.46,2.17,2.5,2.5,0,0,0,1.79,2.74,18.92,18.92,0,0,0,7.57.11c2.67-.35,5.32-.79,8-1.29,4.18-.78,9.55-1.17,12.45-4.7a2.58,2.58,0,0,0,0-3.54,2.53,2.53,0,0,0-3.54,0,19.66,19.66,0,0,1-2.62,2.62l3.93,3,1.65-2.61c.26-.4.51-.8.76-1.2.64-1,.14,0-.54-.23l-1.1-.65.22.19-.64-2.43-1.44,3.43a2.52,2.52,0,0,0,1.15,2.82,2.59,2.59,0,0,0,3-.39l2.54-2.18L131,480.28l0,1.08.35-1.26-1.33,2,4.32,2.52,2.38-3.61c1.58-2.4-1.94-5-3.93-3-.81.82-2.32,1-3.59,1.44a7.6,7.6,0,0,0-4.32,3.06c-1.29,2,.84,4,2.83,3.67a11.59,11.59,0,0,1,3.67.1c1.1.17,2.38.18,3.2,1a4,4,0,0,0,3.85,1.28,3.2,3.2,0,0,0,2.47-3.2,2.55,2.55,0,0,0-3.77-2.16c-1.56.67-3.11,1.38-4.7,2a8.94,8.94,0,0,1-4,.55c-3.46-.14-6.92-.07-10.39.09-6.86.32-13.74.86-20.59,0-2.77-.35-3.44,4.44-.66,4.91a63.86,63.86,0,0,0,8.95.9c3.22.08,3.21-4.92,0-5a54,54,0,0,1-7.62-.72l-.67,4.91c7.17.9,14.38.26,21.56,0,3.52-.16,7,0,10.52,0s6.92-1.88,10.17-3.27l-3.76-2.16v.25l.34-1.26c1.93.15,2.51-.1,1.73-.74a4,4,0,0,0-.56-.53,4.87,4.87,0,0,0-1.18-.74,12.47,12.47,0,0,0-3.07-.78,19.61,19.61,0,0,0-6.79-.17l2.82,3.67a2.5,2.5,0,0,1,.76-.56,16.52,16.52,0,0,1,2.07-.64,9.82,9.82,0,0,0,4.3-2.29l-3.93-3L130,482.09c-1.78,2.7,2.55,5.19,4.32,2.52.43-.65,1-1.3,1.32-2a4.91,4.91,0,0,0,.36-2.34c0-2.3-2.69-3.12-4.27-1.77l-2.53,2.19,4.18,2.43,1.43-3.43a2.41,2.41,0,0,0-.64-2.43,3.81,3.81,0,0,0-5.48.36,38.22,38.22,0,0,0-3.37,5.14A2.51,2.51,0,0,0,126,486a2.55,2.55,0,0,0,3.29-.2,20.84,20.84,0,0,0,2.62-2.61l-3.54-3.54a6.84,6.84,0,0,1-4,2.16c-2.07.51-4.19.87-6.29,1.26s-4.31.79-6.49,1.09-4.31.66-6.38.09l-.66,4.91,8.77-.93v-5l-11.62,1.56A2.54,2.54,0,0,0,99.28,487a2.51,2.51,0,0,0,1.79,2.74c11.68,3.24,23.82,1.79,35.64.23l-1.26-4.66c-3,1.3-6.54.41-9.54-.25v4.82a94.78,94.78,0,0,0,9.65-2.61c3.12-1,1.8-5.3-1.33-4.82l-9.88,1.5c-2.76.41-2.14,5.27.66,4.91a96.88,96.88,0,0,0,14.41-2.94c1.88-.55,2.66-3.67.6-4.57-3-1.32-6.53-.63-9.71-.47l-10.17.51a2.51,2.51,0,0,0-2.46,2.17,2.47,2.47,0,0,0,1.79,2.74,61,61,0,0,0,9.74.69c1.51,0,3-.1,4.54-.25a14.71,14.71,0,0,0,4.27-.78c3.26-1.39,3-4.93,3.18-7.93l.54-9.73a2.52,2.52,0,0,0-2.5-2.5,2.55,2.55,0,0,0-2.5,2.5l-1.1,13.19h5a51.7,51.7,0,0,0,0-6,2.54,2.54,0,0,0-4.27-1.77l-.86.76,4.18,2.43c.64-3.8,1.2-7.6.25-11.41-.64-2.57-4-2.16-4.82,0l-4.68,12.43,4.83,1.33,3-12.34a2.5,2.5,0,0,0-4.82-1.33,57.52,57.52,0,0,1-2.31,5.78l3.93-.51-.9-.86a2.52,2.52,0,0,0-3.53,0l-2.93,3.43,4.26,1.77a7.36,7.36,0,0,1,1.3-5,2.52,2.52,0,0,0-.9-3.42,2.56,2.56,0,0,0-3.42.89l-5.46,7.51,4.32,2.52a69.1,69.1,0,0,0,2.93-7.33c.64-1.94-1.92-4.15-3.67-2.83a16.55,16.55,0,0,0-3.41,3.43c-1.72,2.3,2,5,3.92,3l3.73-3.84-4.18-2.43q-1.47,6.17-2.61,12.41c-.57,3.13,3.85,4.44,4.82,1.33l2.41-7.69a2.53,2.53,0,0,0-1.75-3.07,2.57,2.57,0,0,0-3.08,1.74L124.15,479l4.82,1.33.42-2.94c.38-2.75-2.88-4.38-4.57-1.93l-4.85,7,4.57,1.93a16.88,16.88,0,0,0-.27-8.64c-.51-1.7-2.89-2.58-4.18-1.11a43.07,43.07,0,0,0-5.27,7.5l4.57,1.92q2.34-6,5-11.79l-4.32-2.52-5.63,12.44a2.58,2.58,0,0,0,.9,3.42,2.52,2.52,0,0,0,3.42-.9q3.61-6.69,6.72-13.64a2.58,2.58,0,0,0-.89-3.42,2.53,2.53,0,0,0-3.43.89,77.52,77.52,0,0,1-4.42,7.17l4.57,1.92.87-5.52c.33-2-1.63-4-3.67-2.83l-4.2,2.49L118,473.3a3.86,3.86,0,0,1,.28-2.29c1-2.62-3.42-4.52-4.57-1.92q-2.28,5.1-4.27,10.33c-.88,2.33,2.59,4.27,4.18,2.44a48.21,48.21,0,0,0,4.06-5.4l-4.32-2.52-5.11,9.91,4.57,1.93q3.5-8.77,6.67-17.68c1-2.75-3.12-4.26-4.57-1.93l-10.17,16.38,4.57,1.93a94.08,94.08,0,0,0,4.84-15.79,2.5,2.5,0,0,0-4.57-1.93l-7.94,15.92,4.57,1.92,3.62-11.17c.86-2.64-3.46-4.56-4.57-1.93l-6.21,14.69,4.57,1.93,5.15-14.43c.81-2.27-2.64-4.4-4.18-2.43l-4.69,6,4.18,2.43a49.47,49.47,0,0,1,2.68-8.73c1.08-2.63-3.25-4.39-4.57-1.92l-7.6,14.27c-1.53,2.88,2.48,5.13,4.32,2.53a64.8,64.8,0,0,1,4.58-5.72l-3.92-3-3.26,7c-1.15,2.47,1.78,5.12,3.92,3a25.93,25.93,0,0,1,2.57-2.24q.69-.51,1.41-1a5.82,5.82,0,0,0,.72-.45c.33-.3.31,0,0-.14l-1.49-3.67-2,3.42c-1.45,2.49,1.86,4.95,3.93,3a54.56,54.56,0,0,1,6.68-5.35l-3.42-.89s0-.79.14-.68-.74.45-.7.44c-.65.29-1.38.48-2.06.72l-5.3,1.86-10.59,3.73A2.57,2.57,0,0,0,88.4,489a2.53,2.53,0,0,0,3.08,1.74c.56-.18.69-.08,1.07.39L95,487a30.29,30.29,0,0,1-5.77-2.47c-2.83-1.56-5.23,2.58-2.53,4.32a9.51,9.51,0,0,1,1.69,1.41l2.43-4.17a1.3,1.3,0,0,1-1.18-1.64l-2.5,2.5c-.52-.34-.59-.33-.21,0l3-3.93a3.42,3.42,0,0,1-.69-.68v2.52a1.35,1.35,0,0,1,.6-.45l-3-.39a8.28,8.28,0,0,1,2.06,2.43,2.52,2.52,0,0,0,3.93.51l5.33-6.15-2.43.65.22.06-1.1-.65-.12-.11-.35-1.27c.39-.77.37-.9,0-.38l-.6.6c-.35.35-.71.69-1.08,1a23.15,23.15,0,0,1-2.36,1.82L94,485.38q2.52-6.58,5.5-13l-4.57-1.93a40.16,40.16,0,0,1-5,10.39,2.5,2.5,0,1,0,4.32,2.52l4.7-6.56a2.52,2.52,0,0,0-.9-3.42,2.56,2.56,0,0,0-3.42.9A66,66,0,0,1,90,479.72l3.53,3.53q3.42-4.2,7.09-8.18l-3.93-3a16.14,16.14,0,0,1-2.3,3.93c-2,2.44,1.16,5.79,3.54,3.53l8-7.61c2.06-1.95-.59-5.41-3-3.93L99,470.32l2.52,4.31a29,29,0,0,1,6.86-3.66,2.5,2.5,0,0,0-1.32-4.82,9.45,9.45,0,0,0-3,1.13,2.52,2.52,0,0,0,1.26,4.66c5.3.22,10.72-.76,16-1.42q8.19-1,16.34-2.35l-1.33-4.82-3.55.94c-3.12.82-1.8,5.59,1.33,4.82L138.8,468l-1.33-4.82a34.4,34.4,0,0,1-4.49.93c-2.76.39-2.13,5.23.67,4.91l4.89-.55a2.58,2.58,0,0,0,2.5-2.5,2.53,2.53,0,0,0-2.5-2.5l-18.93.12v5l7-.6v-5l-6.64.63a2.57,2.57,0,0,0-2.5,2.5,2.53,2.53,0,0,0,2.5,2.5,125.81,125.81,0,0,0,13.17-.45c3.16-.27,3.27-4.93,0-5l-38.1-.75a2.49,2.49,0,0,0-2.45,2.17,2.45,2.45,0,0,0,1.79,2.74,121.32,121.32,0,0,0,22.21,1.23,2.5,2.5,0,0,0,0-5,186.63,186.63,0,0,0-25,1,2.52,2.52,0,0,0-2.45,2.17A2.48,2.48,0,0,0,91,469.44l7.58,1.47v-4.82a17.49,17.49,0,0,1-6.68-.32L93,470c.47-.48,1.83-1.2-.61-1.13q-.15-.65-.09,0l0,.34a23.14,23.14,0,0,1-.56,3.08,36.38,36.38,0,0,1-2,6.18l4.57,1.93a36.41,36.41,0,0,1,3-7.9l-4.57-1.93-2.43,6.6c-.58,1.6-1,3.86-2.29,5.07l4.17,2.43a143.65,143.65,0,0,1,5.66-18.28c1.06-2.74-3.11-4.23-4.56-1.93-3.56,5.63-4.71,12.38-8.26,18l4.66,1.26a43.43,43.43,0,0,1,1.51-8,23,23,0,0,0,.52-8.62,2.51,2.51,0,0,0-2.41-1.84,2.59,2.59,0,0,0-2.41,1.84l-2.48,6.76-1.2,3.27a12.52,12.52,0,0,1-1.11,2.72l.9-.9.13,0L86.19,482c1-5.52,2.9-10.87,4.54-16.22l-4.82-1.33-4.16,15.45,4.82,1.33L88.73,467A2.58,2.58,0,0,0,87,463.94a2.52,2.52,0,0,0-3.08,1.74A11.52,11.52,0,0,1,82.3,470L87,471.26a57.7,57.7,0,0,1-.11-6.17c.12-3.22-4.88-3.21-5,0Z" transform="translate(25.69 -272.76)"/><path class="cls-8" d="M81.27,490.82c1.18,4.79,2.44,9.71,5.19,13.87A27.16,27.16,0,0,0,96,513.53c4.36,2.37,9,3.16,13.94,3.44a78.73,78.73,0,0,0,16.17-.2,25,25,0,0,0,7.47-2.19,24.2,24.2,0,0,0,5.77-4.29,46.54,46.54,0,0,0,9.19-11.63c1.28-2.44.56-5.3-2.2-6.21-2.19-.71-4.81-.21-7.06-.13q-8.32.31-16.66.43-9.33.12-18.66,0-4.73-.08-9.45-.21c-2.53-.07-5.15-.15-7.4-1.45-2.79-1.61-5.31,2.71-2.52,4.32,4.1,2.37,9.07,2.12,13.65,2.23q7.59.17,15.17.18c10.13,0,20.23-.44,30.34-.67.19,0,.86,0,.84,0s.26.05.24.06c-.17.17-.59-1-.6-1-.27,0-1.42,2.24-1.71,2.67a44.82,44.82,0,0,1-3.85,4.94c-2.86,3.21-6,6.23-10.22,7.4-4.61,1.27-9.48,1.2-14.22,1-4.45-.2-9-.25-13.22-1.83a21.7,21.7,0,0,1-9.62-7.27c-3-4-4.17-8.85-5.34-13.61-.77-3.12-5.59-1.8-4.82,1.33Z" transform="translate(25.69 -272.76)"/><path class="cls-8" d="M83.51,492c3.57,2.8,7.82,3.27,12.2,3.7q7.13.69,14.29.92a224.23,224.23,0,0,0,29.09-1l-2.16-1.24c.52.68,0,0,.09,0s-.15.14-.21.14-.59.31-.8.39c-.47.2-1,.34-1.45.49a51.62,51.62,0,0,1-5.31,1.35A78.9,78.9,0,0,1,118.32,498c-7.54.44-15.11.34-22.62,1.28a2.59,2.59,0,0,0-2.5,2.5,2.53,2.53,0,0,0,2.5,2.5L125,503l-.66-4.91-3.64.57c-2.76.44-2.14,5.19.67,4.91a29.14,29.14,0,0,0,5.41-1,23.75,23.75,0,0,0,2.49-.89c.47-.19.94-.41,1.41-.61a1.7,1.7,0,0,1,.58-.22c-.66-1.65-1-2.1-1.14-1.35a2.79,2.79,0,0,0,.76,2.84,2.72,2.72,0,0,0,3,.56,40.37,40.37,0,0,0,5.14-2.85l-3.67-2.82-.65,2.59a2.52,2.52,0,0,0,3.67,2.82l3.19-1.91-3-3.92-1.11,1.4a2.57,2.57,0,0,0,0,3.53,2.51,2.51,0,0,0,3.53,0l1-1-3.92-3-.76,1.33a2.51,2.51,0,0,0,3.93,3,18.27,18.27,0,0,0,2.52-3.1L139,497.7c.12,1.25-.78,1.91-1.77,2.51-1.37.82-2.82,1.53-4.23,2.29L124,507.27c-2.44,1.31-.75,5.64,1.92,4.57l7.16-2.85-2.43-4.17-4.45,4c-1.89,1.7.11,4.84,2.44,4.18a13.79,13.79,0,0,0,8.6-7,2.5,2.5,0,0,0-.64-3.22,2.48,2.48,0,0,0-3.28.19,9.35,9.35,0,0,1-3.2,2.37,2.52,2.52,0,0,0-.89,3.42,2.55,2.55,0,0,0,3.42.9,12.76,12.76,0,0,0,4.2-3.15l-3.92-3a8.91,8.91,0,0,1-5.62,4.74l2.43,4.18,4.44-4c1.79-1.6-.09-5.11-2.43-4.18L124.59,507l1.93,4.57,10.65-5.68c3.22-1.72,7.19-3.92,6.78-8.21a2.52,2.52,0,0,0-4.66-1.26,12.25,12.25,0,0,1-1.73,2.08l3.92,3,.75-1.33c1.37-2.41-1.95-5.17-3.92-3l-.95,1,3.53,3.53,1.12-1.4a2.53,2.53,0,0,0,.19-3.28,2.48,2.48,0,0,0-3.22-.64l-3.19,1.91,3.67,2.82.65-2.59a2.53,2.53,0,0,0-3.67-2.82l-4.85,2.72,1.26-.34-.18,0,1.77.73-.15-.13.64,1.11-.07-.2V501c.32-1.64.29-3-1.06-4.17a4.39,4.39,0,0,0-4.62-.52,28.37,28.37,0,0,1-7.86,2.28l.66,4.91,3.64-.57c2.78-.44,2.12-5-.67-4.91L95.7,499.31v5c13.67-1.71,28.06.17,41.28-4.46a7.91,7.91,0,0,0,4.12-2.65,4.68,4.68,0,0,0,.49-4.75c-1.1-2.16-2.93-1.75-5-1.57s-3.94.31-5.91.43q-10.84.66-21.72.26-6.17-.22-12.32-.8c-3.09-.28-7.07-.31-9.64-2.33a2.59,2.59,0,0,0-3.54,0,2.54,2.54,0,0,0,0,3.54Z" transform="translate(25.69 -272.76)"/><path class="cls-8" d="M126.39,500.64a8.06,8.06,0,0,1-2.9,2.32l3,3.93a10.61,10.61,0,0,1,1.93-2l-3-3.92a15,15,0,0,1-4.53,3.83l2.53,4.32a47.55,47.55,0,0,1,7.58-4l-2.82-3.68-1.51,2.35c-1.59,2.49,1.88,4.86,3.93,3l4-3.54L131,499.67c-.53.62-1.25,1.6-2.12,1.74a5.48,5.48,0,0,1-.67-.11s.23.22.13.35v-.31a.63.63,0,0,1-.4.63l-3-3.92a7.05,7.05,0,0,1-3.6,1.64c-.63.16-2.47.81-2.88.11l-2.16,3.77c4.19-.08,8.38-.29,12.56-.66,3.59-.31,8.27-.12,11-2.89,1.44-1.48.46-4.39-1.77-4.27a6.17,6.17,0,0,0-5.23,3.16,2.53,2.53,0,0,0,2.82,3.67,23.75,23.75,0,0,0,4.66-1.6l-3.42-3.42a18.43,18.43,0,0,1-7.79,7.23c-1.87.93-3.73,1.34-5.27,2.86a1.1,1.1,0,0,1-1.34.41,9.06,9.06,0,0,1-2.58-1.15,55.14,55.14,0,0,0-5.36-3,30.39,30.39,0,0,0-6.44-1.62,69.09,69.09,0,0,1-13.2-4.39l-.66,4.91a76.33,76.33,0,0,0,21.94-1.67l-1.93-4.57a8.66,8.66,0,0,1-4.55,1.42,2.5,2.5,0,0,0,0,5q9.39.25,18.78-.4c2.95-.21,3.22-3.84.66-4.91-3-1.27-6.49-.83-9.7-.78-3.49,0-7,0-10.47-.17a176.46,176.46,0,0,1-20.65-2.15,2.51,2.51,0,0,0-1.93,4.57l7,5.32,2.53-4.32a21.25,21.25,0,0,1-3.32-2.48c-2.42-2.23-5.52,1.06-3.54,3.53a20.29,20.29,0,0,0,5.63,5.22,16.17,16.17,0,0,0,8,1.89,39,39,0,0,0,8-1c1.4-.3,2.8-.62,4.19-1,.77-.2,1.54-.41,2.3-.63a2.53,2.53,0,0,0,.73-.19.58.58,0,0,1-.39,0l-.9-.89-.07-.18,1.15-2.82a32.45,32.45,0,0,1-15.43,2.72,2.53,2.53,0,0,0-2.5,2.5,2.55,2.55,0,0,0,2.5,2.5,98.48,98.48,0,0,0,16.11.08l-2.41-3.17-.08.34c.17-.27.18-.3,0-.11a2.12,2.12,0,0,1-.21.2,5.17,5.17,0,0,1-1.74.25c-1.46,0-2.93-.08-4.38-.2a35.9,35.9,0,0,1-8.39-1.69,2.5,2.5,0,0,0-3,1.45,2.56,2.56,0,0,0,1,3.12,17.13,17.13,0,0,0,6.58,3.07l1.33-4.82a30.23,30.23,0,0,1-10.45-3.5c-2.82-1.59-5.21,2.57-2.52,4.32A33.2,33.2,0,0,0,106,513.38a35.16,35.16,0,0,0,6.55.6c1,0,2-.07,2.94-.17.64-.07,1.28-.18,1.92-.26.18,0,1.11,0,.8-.1a2.58,2.58,0,0,0,3.42-.89,2.52,2.52,0,0,0-.89-3.43c-2.2-1-4.22-.36-6.51-.21a28.56,28.56,0,0,1-6.06-.22,29,29,0,0,1-11.53-4.4l-2.52,4.32a33.69,33.69,0,0,0,11.64,4,2.59,2.59,0,0,0,3.08-1.75,2.53,2.53,0,0,0-1.75-3.07,13.87,13.87,0,0,1-5.38-2.56l-1.93,4.57a44.12,44.12,0,0,0,11.57,2c3.62.19,8.3,0,9.37-4.27a2.52,2.52,0,0,0-2.41-3.16,98.48,98.48,0,0,1-16.11-.08v5a37.65,37.65,0,0,0,18-3.4,2.53,2.53,0,0,0,1.14-2.83c-.83-3.51-4.7-2.41-7.13-1.76a69.6,69.6,0,0,1-8.46,1.82,15.78,15.78,0,0,1-7.48-.49c-2.42-.91-4.12-3-5.69-4.95L89,501.2a28,28,0,0,0,4.33,3.27,2.53,2.53,0,0,0,3.42-.89,2.57,2.57,0,0,0-.89-3.43l-7-5.32L87,499.4a185.15,185.15,0,0,0,21,2.28c3.41.18,6.82.25,10.23.23,3.12,0,6.65-.65,9.59.59l.67-4.91q-9.38.66-18.78.4v5a13.87,13.87,0,0,0,7.08-2.1,2.51,2.51,0,0,0-1.93-4.57,71.7,71.7,0,0,1-20.61,1.49A2.47,2.47,0,0,0,91.79,500a2.55,2.55,0,0,0,1.79,2.74,69.31,69.31,0,0,0,14.3,4.59,18.73,18.73,0,0,1,6.41,2.05,42.8,42.8,0,0,0,5.95,3.23,6.35,6.35,0,0,0,6.56-.86,6.91,6.91,0,0,1,2.09-1.46c1-.41,2.09-.82,3.08-1.33a23.41,23.41,0,0,0,9.24-8.85,2.55,2.55,0,0,0-.39-3,2.61,2.61,0,0,0-3-.39,18.16,18.16,0,0,1-3.47,1.09l2.83,3.67a1,1,0,0,1,.91-.68l-1.76-4.27c-.84.86-2.23.9-3.36,1q-2.76.3-5.54.53c-3.69.29-7.4.46-11.11.53a2.52,2.52,0,0,0-2.16,3.76c1.56,2.66,4.56,3,7.33,2.46,2.54-.51,5.17-1.29,7-3.21a2.5,2.5,0,0,0-3-3.93,4.64,4.64,0,0,0-2,4.15,4.79,4.79,0,0,0,2.61,4c3.13,1.62,6.49-.11,8.55-2.58a2.5,2.5,0,0,0-3.53-3.53l-4,3.54,3.93,3,1.51-2.35c1.09-1.7-.77-4.53-2.83-3.67a54.92,54.92,0,0,0-8.78,4.55c-2.69,1.74-.31,5.88,2.53,4.32a18.68,18.68,0,0,0,5.54-4.62,2.54,2.54,0,0,0,.19-3.28,2.46,2.46,0,0,0-3.22-.64,14.78,14.78,0,0,0-3,2.8c-1.71,2.21.35,5.23,3,3.93a11.35,11.35,0,0,0,3.91-3.1,2.57,2.57,0,0,0,0-3.54,2.51,2.51,0,0,0-3.53,0Z" transform="translate(25.69 -272.76)"/><path class="cls-9" d="M108.85,459.23c-.79-5.75-1.55-11.57-.77-17.36.37-2.75,1-5.47,1.59-8.16a35.41,35.41,0,0,1,1-3.67,12.92,12.92,0,0,1,2.14-3.54c1.47-1.95,2.51-4.38,4.93-5.34a6.18,6.18,0,0,1,3.35-.36c1.62.3,2.36,1.29,3.15,2.63a15.11,15.11,0,0,1,2.16,7.37c.13,2.76.1,5.53,0,8.29-.3,6.49-1.17,12.94-2,19.37l.92-.37-.58-.51c-.47-.64-1.56,0-1.08.63a3.49,3.49,0,0,0,1,1,.63.63,0,0,0,.92-.37c.86-6.39,1.73-12.78,2.06-19.22a77.68,77.68,0,0,0,0-9.65,16.27,16.27,0,0,0-2.5-7.49,5.55,5.55,0,0,0-5.52-3,7.58,7.58,0,0,0-5.54,3c-.82,1.08-1.49,2.26-2.31,3.35a14.14,14.14,0,0,0-2.11,3.44,50.4,50.4,0,0,0-2.19,9,46.73,46.73,0,0,0-.89,10.29,106.24,106.24,0,0,0,1.12,11c.11.79,1.31.45,1.21-.34Z" transform="translate(25.69 -272.76)"/><path class="cls-9" d="M116.89,427.16a25.78,25.78,0,0,0-.15,7.18,35,35,0,0,1-.41,8.05,44,44,0,0,0-.37,7.95c.07,1.3.17,2.6.25,3.9,0,.73.08,1.46.09,2.19,0,.31-.14,1.89.28,1.73l.77.44v-.05c-.12-.8-1.33-.46-1.2.33v.05a.63.63,0,0,0,.77.44c.76-.3.65-1,.65-1.73,0-1.46-.07-2.92-.17-4.38a51.83,51.83,0,0,1-.07-8.72,68.79,68.79,0,0,0,.79-8.34c-.06-3-.56-5.74,0-8.71.15-.78-1.06-1.12-1.2-.33Z" transform="translate(25.69 -272.76)"/><path class="cls-9" d="M90.29,437.58c.5,2.11,1,4.22,1.62,6.31a35,35,0,0,0,1.7,5.29,40.57,40.57,0,0,0,3,4.43,36.23,36.23,0,0,1,2.8,5.21c.32.73,1.4.1,1.08-.63a37,37,0,0,0-2.6-4.9c-1-1.49-2.18-2.85-3-4.42A29.72,29.72,0,0,1,93,443.16q-.81-2.94-1.51-5.91c-.19-.78-1.4-.45-1.21.33Z" transform="translate(25.69 -272.76)"/><path class="cls-9" d="M88,458.8a26.78,26.78,0,0,1-2.48-6.4c-.46-2.25-.08-4.55-.44-6.82a43.71,43.71,0,0,1-.55-7.41,15.88,15.88,0,0,1,1.17-6.85,6.2,6.2,0,0,1,5-3.78c2.37-.12,4.13,1.76,5.4,3.54A22,22,0,0,1,99,437.16a42.51,42.51,0,0,0,2.67,5.82,53.25,53.25,0,0,1,3.06,7.47c.37,1.16.7,2.34,1,3.53.16.65.31,1.3.45,2,.07.3.58,1.6.45,1.81l.71-.29-.09,0,.44.43,0-.11-.44.77.07,0a.62.62,0,0,0-.33-1.2l-.07,0a.65.65,0,0,0-.44.77l0,.11a.63.63,0,0,0,.44.43l.09,0a.63.63,0,0,0,.7-.29c.45-.74-.11-1.79-.28-2.56-.29-1.32-.59-2.64-1-3.95a53.12,53.12,0,0,0-2.73-7.45c-1.15-2.55-2.65-4.92-3.53-7.59A23,23,0,0,0,97,430.11c-1.24-1.67-2.84-3.32-5-3.73a6.5,6.5,0,0,0-5.43,1.67c-3.75,3.33-3.5,9.36-3.26,13.92.08,1.59.49,3.13.66,4.72s0,3.06.11,4.59c.28,2.9,1.57,5.56,2.83,8.15.36.72,1.43.09,1.08-.63Z" transform="translate(25.69 -272.76)"/><path class="cls-9" d="M97.67,430.74a13.18,13.18,0,0,1,.65-4.41,6.49,6.49,0,0,1,3.4-3.2c1.4-.71,3.25-1.36,4.71-.45a9.69,9.69,0,0,1,1.84,1.78l1.9,2.05c.55.59,1.43-.29.88-.88l-2.24-2.43a7.26,7.26,0,0,0-2.14-1.8c-1.74-.83-3.73-.25-5.37.55a7.8,7.8,0,0,0-4,3.62,13.59,13.59,0,0,0-.87,5.17c0,.81,1.22.81,1.25,0Z" transform="translate(25.69 -272.76)"/><path class="cls-9" d="M128.09,433a3.38,3.38,0,0,1,1.91-1.24c.7-.2,1.79-.54,2.43-.06a15.81,15.81,0,0,1,2,1.84,7.16,7.16,0,0,1,1.55,2.32c.28.74,1.49.42,1.2-.34a8.63,8.63,0,0,0-1.87-2.87q-.59-.62-1.23-1.17a6.35,6.35,0,0,0-1.36-1.07,2.83,2.83,0,0,0-1.68-.12,7.84,7.84,0,0,0-1.5.31,4.61,4.61,0,0,0-2.53,1.77c-.45.66.63,1.29,1.08.63Z" transform="translate(25.69 -272.76)"/><path class="cls-9" d="M127.34,452.7a7.61,7.61,0,0,1,1.72-4.87,36.76,36.76,0,0,0,2.68-4.41c.35-.72.67-1.46.95-2.21a13.38,13.38,0,0,1,.93-2.32c.9-1.4,3.19-2,4.69-2.38a.63.63,0,0,0-.34-1.21,11.61,11.61,0,0,0-4.82,2.21,5.26,5.26,0,0,0-1.23,2.15c-.35,1-.69,1.93-1.13,2.86a39.68,39.68,0,0,1-3,4.92,8.34,8.34,0,0,0-1.73,5.26c.06.8,1.31.81,1.25,0Z" transform="translate(25.69 -272.76)"/><path class="cls-9" d="M137.82,445.63a27.31,27.31,0,0,0-.71,3.2c-.15,1.05-.17,2.11-.33,3.16a24.94,24.94,0,0,1-2.12,6.27c-.32.73.76,1.37,1.08.63a27.5,27.5,0,0,0,2.21-6.33c.18-1.07.22-2.15.34-3.22A25.94,25.94,0,0,1,139,446a.62.62,0,0,0-1.2-.34Z" transform="translate(25.69 -272.76)"/><path class="cls-9" d="M83.23,440.88c-2-2.72-5.39-2.48-8.38-2.32-1.35.07-2.5.3-3.08,1.67a6.63,6.63,0,0,0-.06,4.2c.88,3.25,3.4,5.74,5.4,8.34a33.24,33.24,0,0,0,6.57,7.08c.66.47,1.28-.62.63-1.08A27.93,27.93,0,0,1,78.8,453a72.63,72.63,0,0,1-4.67-6.15A9.2,9.2,0,0,1,72.7,443a5,5,0,0,1,.12-2c.29-.88.86-1.09,1.72-1.16,2.47-.18,5.95-.62,7.61,1.7.47.64,1.55,0,1.08-.64Z" transform="translate(25.69 -272.76)"/><path class="cls-10" d="M19.26,330.1q30.93.5,61.85.53,8.82,0,17.64,0a5,5,0,0,0,0-10q-30.93.09-61.85-.26-8.82-.11-17.64-.25a5,5,0,1,0,0,10Z" transform="translate(25.69 -272.76)"/><path class="cls-10" d="M14.37,328.23c-.12-.86,0,0,0,.12,0,.32.07.64.1,1,.06.57.1,1.13.14,1.69q.14,1.94.15,3.87c0,2.42-.08,4.84-.27,7.26s-.46,5-.78,7.51l-.21,1.7c0,.13-.15,1.13-.08.55s0,.27,0,.3c-.17,1.3-.35,2.59-.53,3.88a217.12,217.12,0,0,0-2.21,30.67q.07,8.61.91,17.18c.25,2.59,2.12,5.12,5,5,2.49-.12,5.27-2.22,5-5A191,191,0,0,1,21,373.48q.23-3.8.62-7.59c.13-1.22.26-2.43.41-3.65.07-.57.14-1.13.22-1.69l.12-1c0-.17.17-1.26.05-.37.72-5.28,1.51-10.56,2-15.87a78.82,78.82,0,0,0-.4-17.77c-.36-2.6-3.81-4.24-6.15-3.49-2.85.93-3.88,3.37-3.49,6.15Z" transform="translate(25.69 -272.76)"/><path class="cls-10" d="M16.77,408.91c23.13-2.25,46,3.58,69.07,3.53A108.6,108.6,0,0,0,106,410.59c2.58-.49,4.28-3.73,3.5-6.15a5.14,5.14,0,0,0-6.15-3.5q-2.06.39-4.11.69c-1,.15-.25,0,0,0l-1.15.14-2.29.23c-2.82.25-5.66.38-8.49.42-5.71.07-11.42-.24-17.1-.71-11.31-.94-22.56-2.53-33.9-3.11a130.32,130.32,0,0,0-19.46.3c-2.59.25-5.13,2.12-5,5,.11,2.49,2.22,5.27,5,5Z" transform="translate(25.69 -272.76)"/><path class="cls-10" d="M97.68,328.87a345.67,345.67,0,0,0-2.79,57.43q.28,8.11,1,16.2c.21,2.6,2.15,5.13,5,5,2.53-.11,5.23-2.21,5-5a346,346,0,0,1,.08-57.49q.69-8.08,1.76-16.14c.34-2.6-2.55-5.11-5-5-3,.14-4.63,2.21-5,5Z" transform="translate(25.69 -272.76)"/><path class="cls-10" d="M99.74,328.66a4.4,4.4,0,0,1,.81,0l-1.33-.18a4.57,4.57,0,0,1,1.08.3l-1.19-.5a4.94,4.94,0,0,1,1.1.66l-1-.79a5.35,5.35,0,0,1,1,1l-.78-1a6.19,6.19,0,0,1,.7,1.19l-.51-1.19a5.3,5.3,0,0,1,.34,1.24l-.18-1.33a5.24,5.24,0,0,1,0,1.12l.18-1.32a4.8,4.8,0,0,1-.15.63,3.85,3.85,0,0,0-.08,2,3.65,3.65,0,0,0,.59,1.86,5.54,5.54,0,0,0,3,2.3,5.07,5.07,0,0,0,3.85-.5,5.37,5.37,0,0,0,2.3-3,9.24,9.24,0,0,0,.35-2.45,4.64,4.64,0,0,0,0-.64,15.63,15.63,0,0,0-.27-1.8,9.88,9.88,0,0,0-2.25-4.2,6.05,6.05,0,0,0-.82-.86,11.35,11.35,0,0,0-2-1.4,9.48,9.48,0,0,0-4.71-1.16,5.52,5.52,0,0,0-3.54,1.47,3.78,3.78,0,0,0-1,1.61,3.74,3.74,0,0,0-.43,1.92,5,5,0,0,0,5,5Z" transform="translate(25.69 -272.76)"/></g><g id="Layer_10" data-name="Layer 10"><path class="cls-7" d="M438.82,286.71c4.47,3.21,16.92,11.22,32.89,9.64,4.25-.42,12.29-1.32,19-7.31,1.77-1.57,8-7.15,8.33-15.05,0-.51,0-.94,0-1.23h-8a14.06,14.06,0,0,1-1.21,3.61C481.75,292.56,443.44,287.37,438.82,286.71Z" transform="translate(25.69 -272.76)"/><path class="cls-7" d="M536.94,482.45a254.85,254.85,0,0,0-37.75,2.17c-6.23.83-12.46,1.84-18.61,3.16a14.18,14.18,0,0,0-7.12,3.21,8.66,8.66,0,0,0-2.52,6.17,9.69,9.69,0,0,0,1.87,5.84,9.17,9.17,0,0,0,6.63,3.51c6.33.79,12.8.91,19.17,1.27q19.08,1.08,38.2,1.58,21.6.56,43.2.37a2.54,2.54,0,0,0,2.5-2.5,179.63,179.63,0,0,0-.93-20.48,2.56,2.56,0,0,0-2.5-2.5l-36.83-.74v5q13.41-.4,26.84.11c8.54.34,17.15.81,25.62,1.94,7.55,1,15.19,2.76,21.92,6.42.44.24.87.49,1.31.75.28.16.75.6,1.06.65s-.22-.93-.08-.92c0,0-.45.31-.57.37a21.07,21.07,0,0,1-5.42,1.5c-4.15.83-8.39,1.14-12.59,1.55q-15,1.47-29.94,2.9a2.53,2.53,0,0,0-2.46,2.16,2.5,2.5,0,0,0,1.79,2.75,37.25,37.25,0,0,0,18.89-1,2.5,2.5,0,0,0,1.79-2.74,2.46,2.46,0,0,0-2.45-2.17l-11,1.36a2.57,2.57,0,0,0-2.5,2.5,2.54,2.54,0,0,0,2.5,2.5,86.07,86.07,0,0,0,39.13-9.55l-3.42-.89c-.29-.49.13-.42,0-.63s.24,0-.09,0a11.73,11.73,0,0,0-2.07.43l-4.91.81-9.81,1.6-19.63,3.22c-2.77.45-2.14,5.09.67,4.91l15.56-1-.67-4.91A73.35,73.35,0,0,1,577.78,505c-3.21.11-3.23,5.06,0,5,9.24-.18,18.48-.36,27.69-1a120.6,120.6,0,0,0,13.68-1.44,4.83,4.83,0,0,0,4.06-4.07,9.1,9.1,0,0,0-.14-2.8,6.59,6.59,0,0,1-.22-2H618a10.66,10.66,0,0,1,.71,3.95h5l-.09-4.06L619,499.81a3,3,0,0,1-.13,3.24c-1.71,2.74,2.62,5.25,4.32,2.53a8.11,8.11,0,0,0,.13-8.29,2.52,2.52,0,0,0-4.66,1.26l.09,4.06c.07,3.21,5,3.22,5,0a14.58,14.58,0,0,0-.89-5.28,2.59,2.59,0,0,0-2.41-1.84,2.5,2.5,0,0,0-2.41,1.84,17.71,17.71,0,0,0,.24,4.82s0,.83,0,.58.37-.15-.08-.13c-.88,0-1.84.28-2.73.39-4.13.5-8.29.86-12.44,1.12-8.41.54-16.83.7-25.25.87v5A80,80,0,0,0,593,508c2.71-.63,2.17-5.09-.66-4.91l-15.56,1,.66,4.91,23.06-3.78,11.29-1.85c1.74-.28,3.45-.68,4.64-2.09a4.35,4.35,0,0,0,.49-5.05,2.57,2.57,0,0,0-3.42-.9,80.52,80.52,0,0,1-36.61,8.87v5l11-1.36-.67-4.91a31.94,31.94,0,0,1-16.23,1l-.66,4.91,29-2.8c4.68-.46,9.38-.81,14-1.65,3.47-.63,9.59-1.48,10.41-5.74.51-2.59-1.51-4.13-3.49-5.29a49,49,0,0,0-5.77-2.84,63.6,63.6,0,0,0-12.14-3.66c-8.88-1.8-18-2.38-27.06-2.88-11-.61-22-.74-33-.41-3.22.09-3.23,4.93,0,5l36.83.74-2.5-2.5a179.63,179.63,0,0,1,.93,20.48l2.5-2.5q-36,.3-72-1.45-9-.45-18.1-1c-3-.19-6.08-.37-9.12-.61a7.64,7.64,0,0,1-2.84-.6,3.31,3.31,0,0,1-1.48-1.52,4.71,4.71,0,0,1-.24-4c.54-1.32,2.43-2.17,4.12-2.62a151.76,151.76,0,0,1,16.83-3.05,250.36,250.36,0,0,1,39.74-2.45c3.22.05,3.22-4.95,0-5Z" transform="translate(25.69 -272.76)"/><path class="cls-7" d="M561.67,496.87a106,106,0,0,1-12.22-.19l1.26,4.66c1.78-1.17,4.45-.8,6.49-.88l8.12-.33,16.24-.65c3.2-.13,3.23-5,0-5l-35.14-.26c-3.22,0-3.21,4.93,0,5l20.26.43v-5l-44.52,1.56c-3.2.11-3.23,5,0,5q9.68,0,19.33-.47v-5l-10,.94a2.57,2.57,0,0,0-2.5,2.5,2.52,2.52,0,0,0,2.5,2.5q9.18-.65,18.37-.58v-5q-18.45.72-36.91,0v5l6.07,0v-5q-11.12.46-22.24-.11c-3.21-.17-3.21,4.83,0,5q11.11.57,22.24.11c3.2-.13,3.23-5,0-5l-6.07,0c-3.23,0-3.21,4.87,0,5q18.45.75,36.91,0c3.2-.12,3.23-5,0-5q-9.19-.06-18.37.58v5l10-.94a2.57,2.57,0,0,0,2.5-2.5,2.52,2.52,0,0,0-2.5-2.5q-9.66.47-19.33.47v5l44.52-1.56c3.21-.11,3.22-4.93,0-5l-20.26-.43v5l35.14.26v-5l-17.23.69-8.36.34c-2.64.11-5.48,0-7.79,1.51a2.52,2.52,0,0,0,1.27,4.66,106,106,0,0,0,12.22.19c3.21-.14,3.23-5.14,0-5Z" transform="translate(25.69 -272.76)"/><path class="cls-7" d="M538.23,499.51l38.51-4.57a2.58,2.58,0,0,0,2.5-2.5,2.53,2.53,0,0,0-2.5-2.5H521v5l27.43-1.19a2.5,2.5,0,0,0,0-5q-16.1-.89-32.21-1.23v5A189.38,189.38,0,0,0,541,490.46c2.78-.41,2.13-5.06-.67-4.91l-9,.49v5l9.78-.78c3.17-.25,3.26-5,0-5l-8.21-.11.66,4.91a58.41,58.41,0,0,1,7.74-1.6,2.57,2.57,0,0,0,2.5-2.5,2.54,2.54,0,0,0-2.5-2.5l-7.91-.16v5l6.48-.55v-5l-4.76.52v5a207,207,0,0,1,32-1.51A167.44,167.44,0,0,1,598,490.13c4,.88,8.47,2.26,10.92,5.79l2.16-3.76a250,250,0,0,1-40.31-.74v5l19.8-2.22a2.59,2.59,0,0,0,2.5-2.5,2.53,2.53,0,0,0-2.5-2.5l-30.16-.59c-3.23-.06-3.2,4.82,0,5L592,495.33c3.22.18,3.2-4.82,0-5L550.75,488a2.52,2.52,0,0,0-2.5,2.5,2.55,2.55,0,0,0,2.5,2.5l15.47,1.1v-5l-18.42-.59c-3.23-.1-3.2,4.84,0,5q15.56.78,31.14.45c3.24-.07,3.2-4.81,0-5-5.33-.33-10.68-.41-16-.26-3.21.1-3.23,5,0,5q20,.19,40,.71l-.67-4.92L593,490.87a2.5,2.5,0,0,0-1.83,2.41,2.6,2.6,0,0,0,1.83,2.41,13.82,13.82,0,0,0,6.3.26,18.82,18.82,0,0,1,2.8-.19,1.94,1.94,0,0,1,1.59.66l.51-3.93a63.59,63.59,0,0,1-17.47,5.29,2.48,2.48,0,0,0-1.8,2.75,2.53,2.53,0,0,0,2.46,2.17c5.74.29,11.08-1.92,16.26-4.11l-3-3.93a9.57,9.57,0,0,1-5,2.26c-2.78.44-2.14,5.09.66,4.91a63.24,63.24,0,0,0,12.46-2l-1.93-4.57c-6.54,4.93-15.59,4.69-23.39,5q-14.35.54-28.71-.26l.66,4.91q14.73-2.67,29.61-4.37a2.58,2.58,0,0,0,2.5-2.5,2.52,2.52,0,0,0-2.5-2.5q-14.34,1.07-28.59,2.92a2.59,2.59,0,0,0-2.5,2.5,2.53,2.53,0,0,0,2.5,2.5l3.4-.07c3.22-.07,3.23-5.05,0-5l-31.41.47v5l11.32-.55c3.21-.15,3.24-4.93,0-5l-28.42-.6c-2.35-.05-3.58,3.61-1.26,4.66a2.8,2.8,0,0,0,3.76-.91,2.83,2.83,0,0,0-.5-3.64c-1-1-2.53-.89-3.85-1l-4-.29-15.83-1.17,1.26,4.66c5.2-4,12-3.78,18.21-3.57v-5l-18.75,1.21.66,4.91q11.49-1.68,23-2.75a2.55,2.55,0,0,0,2.5-2.5,2.53,2.53,0,0,0-2.5-2.5l-13.57.33.66,4.91a43.82,43.82,0,0,1,10.54-2.77,2.57,2.57,0,0,0,2.5-2.5,2.52,2.52,0,0,0-2.5-2.5l-18.86,1.48.67,4.91a188,188,0,0,1,20.88-2.81l-.66-4.91a23.28,23.28,0,0,1-4.19,1c-2.81.41-2.09,4.95.67,4.91l11.21-.17-1.26-4.66a18.93,18.93,0,0,1-3.95,1.33,2.53,2.53,0,0,0,0,4.83,93.74,93.74,0,0,0,12.68,2v-5a114.63,114.63,0,0,0-18.39,1.85c-2.85.52-2.06,4.84.67,4.91l22.22.59v-5l-15.72-.09c-3.24,0-3.18,4.79,0,5l10.32.68v-5a74.57,74.57,0,0,0-11.86.57,2.5,2.5,0,0,0,0,5q6.25.74,12.55.85l-1.26-4.66a4.24,4.24,0,0,1-2.5.94,2.51,2.51,0,0,0-2.46,2.17,2.47,2.47,0,0,0,1.79,2.74q8.87,1.36,17.79,2.36v-5l-6.3.53a2.51,2.51,0,0,0-.66,4.91,26.15,26.15,0,0,0,10.86,1.76v-5a122.08,122.08,0,0,1-13.79.39v5l18.36-.27-1.27-4.66a19.51,19.51,0,0,1-4.94,1.27,2.47,2.47,0,0,0-1.79,2.74A2.53,2.53,0,0,0,545,507l3.32.17c2.77.14,3.47-4.43.66-4.91q-8.73-1.51-17.39-3.37l1.83,2.41a8.82,8.82,0,0,1,.33-2,3.16,3.16,0,0,1,.25-.6c.17-.31,0-.16.2-.27s0,0,.3-.11c-.11,0,.11.14,0,0-.31-.42-.75-.88-.08-1.35l3,3.93a3.71,3.71,0,0,0-.82-5.9l-1.93,4.57c3.33.92,6.67,1.82,10,2.77,2.71.77,5.57,1.62,7.81,3.41l1.77-4.27-27.09.16c-8.68.05-17.45.11-26-1.79l-.67,4.91,6.25-.53a2.57,2.57,0,0,0,2.5-2.5,2.54,2.54,0,0,0-2.5-2.5c-8.11.09-16.73.23-24.15-3.55l.51,3.93a15.53,15.53,0,0,1,7.68-4c2.3-.48,2.46-4.48,0-4.82a23.79,23.79,0,0,0-7.39,0,17.38,17.38,0,0,0-6.56,2.34c-2.42,1.66-2.27,4.68-.09,6.47a12.93,12.93,0,0,0,6.87,2.68v-5a16.22,16.22,0,0,1-5.69-1.62l1.15,2.83.33-1.31L474.6,496a15.64,15.64,0,0,0-.47,3.67,2.57,2.57,0,0,0,2.5,2.5q7.74.83,15.53,1.08a2.52,2.52,0,0,0,2.16-3.76,9.36,9.36,0,0,0-4.3-4.09v4.31A132.11,132.11,0,0,1,543.14,489c3.22,0,3.22-5,0-5l-10.83-.09,1.76,4.27a7.22,7.22,0,0,1,4.12-1.59c2.09-.25,4.22-.26,6.32-.35,4.52-.21,9-.38,13.58-.43a133.74,133.74,0,0,1,27.25,2,2.55,2.55,0,0,0,3.07-1.74,2.52,2.52,0,0,0-1.74-3.08,142.78,142.78,0,0,0-29.55-2.21c-4.85.07-9.7.28-14.55.51-4.24.2-8.74.24-12,3.32a2.52,2.52,0,0,0,1.77,4.26l10.83.09v-5a138.16,138.16,0,0,0-55.65,11.38c-1.66.71-1.6,3.57,0,4.31A5,5,0,0,1,490,502l2.16-3.77q-7.79-.25-15.53-1.08l2.5,2.5a10.27,10.27,0,0,1,.29-2.34c.76-3.12-4-4.45-4.82-1.33l-.33,1.31a2.54,2.54,0,0,0,1.15,2.82,23.11,23.11,0,0,0,8.21,2.3,2.51,2.51,0,0,0,2.5-2.5,2.56,2.56,0,0,0-2.5-2.5,7.56,7.56,0,0,1-3.32-1.25s-.65-.45-.56-.45l-.08,1.68.32-.17a10.15,10.15,0,0,0,1.81-.74,16.92,16.92,0,0,1,7.67-.79v-4.82a20.3,20.3,0,0,0-9.88,5.26,2.51,2.51,0,0,0,.5,3.92c8.27,4.21,17.6,4.33,26.67,4.23v-5l-6.25.53a2.51,2.51,0,0,0-2.45,2.17,2.49,2.49,0,0,0,1.79,2.74c8.81,2,17.84,2,26.83,2l27.56-.16c2,0,3.53-2.85,1.77-4.26a26,26,0,0,0-9.22-4.47c-3.58-1.06-7.19-2-10.79-3-2.66-.73-4.53,3.29-1.93,4.57a1.37,1.37,0,0,1-.18-2c-2,1.94.65,5.59,3,3.93a4.35,4.35,0,0,0,1.68-5.53,4.55,4.55,0,0,0-4.13-2.43c-4.43,0-5.77,4.29-6.1,7.93a2.5,2.5,0,0,0,1.84,2.41q8.67,1.86,17.39,3.37l.67-4.91L545,502l.66,4.91a23.87,23.87,0,0,0,6.14-1.77c2.36-1,1-4.69-1.26-4.66l-18.36.27c-3.22.05-3.22,4.91,0,5a122.08,122.08,0,0,0,13.79-.39,2.56,2.56,0,0,0,2.5-2.5,2.52,2.52,0,0,0-2.5-2.5,22.52,22.52,0,0,1-9.53-1.58l-.67,4.91,6.3-.53a2.5,2.5,0,0,0,0-5q-8.25-.91-16.46-2.18l-.66,4.91a8.88,8.88,0,0,0,5-1.62c1.92-1.41,1.38-4.61-1.27-4.66q-6.28-.12-12.55-.85v5a74.57,74.57,0,0,1,11.86-.57c3.23.1,3.18-4.79,0-5l-10.32-.68v5l15.72.09c3.22,0,3.21-4.91,0-5L511.15,492l.66,4.91a106.24,106.24,0,0,1,17.06-1.67c3.27-.06,3.17-4.72,0-5a82.35,82.35,0,0,1-11.35-1.85v4.83a25.19,25.19,0,0,0,5.14-1.84c2.3-1.08,1.11-4.69-1.26-4.66l-11.21.17.66,4.91a23.28,23.28,0,0,0,4.19-1,2.5,2.5,0,0,0-.67-4.91,202.47,202.47,0,0,0-22.21,3c-2.74.53-2.15,5.13.66,4.92l18.86-1.48v-5a49.12,49.12,0,0,0-11.87,2.94A2.55,2.55,0,0,0,498,493a2.5,2.5,0,0,0,2.46,2.17l13.57-.33v-5q-12.22,1.14-24.38,2.93c-2.77.4-2.13,5.09.67,4.91l18.75-1.21c3.19-.21,3.24-4.9,0-5-7-.24-14.87-.24-20.73,4.25-1.95,1.5-1.36,4.47,1.26,4.66l10.89.8,5.44.4c1.48.11,3.7,0,4.88.42l-1.1-.65.2.21-.73-1.77,0,.21.34-1.26-.11.19.89-.89-.17.09h2.52l-.17-.08-1.26,4.66,28.42.6v-5l-11.32.55c-3.19.15-3.23,5.05,0,5l31.41-.47v-5l-3.4.07v5q14.25-1.85,28.59-2.92v-5q-15.54,1.77-30.94,4.55a2.48,2.48,0,0,0-1.79,2.74,2.52,2.52,0,0,0,2.46,2.17q14.84.82,29.69.22c8.37-.35,17.93-.36,24.94-5.63a2.54,2.54,0,0,0,1-3.12,2.5,2.5,0,0,0-3-1.45,56,56,0,0,1-11.13,1.83l.66,4.91a14.14,14.14,0,0,0,7.24-3.55,2.5,2.5,0,0,0,.19-3.28,2.56,2.56,0,0,0-3.22-.64c-4.38,1.85-8.91,3.67-13.74,3.43l.66,4.91a68.28,68.28,0,0,0,18.67-5.8,2.53,2.53,0,0,0,.51-3.93c-1.73-1.83-4.16-2.27-6.58-2.08-2.09.17-4.34.78-6.32.07v4.82l9.28-1.35a2.5,2.5,0,0,0-.66-4.91q-20-.53-40-.71v5c5.34-.15,10.69-.07,16,.26v-5q-15.57.33-31.14-.45v5l18.42.59a2.5,2.5,0,0,0,0-5L550.75,488v5L592,495.33v-5l-31.57-1.72v5l30.16.59v-5l-19.8,2.22a2.5,2.5,0,0,0,0,5,250,250,0,0,0,40.31.74c1.74-.11,3.32-2.09,2.16-3.76-5.56-8-16.71-8.81-25.55-10A205.85,205.85,0,0,0,554,481.77q-9.46.32-18.86,1.5a2.58,2.58,0,0,0-2.5,2.5,2.51,2.51,0,0,0,2.5,2.5l4.76-.52a2.57,2.57,0,0,0,2.5-2.5,2.52,2.52,0,0,0-2.5-2.5l-6.48.55c-3.17.27-3.27,4.94,0,5l7.91.16v-5a66.39,66.39,0,0,0-9.07,1.78,2.51,2.51,0,0,0,.67,4.91l8.21.11v-5l-9.78.78a2.56,2.56,0,0,0-2.5,2.5,2.53,2.53,0,0,0,2.5,2.5l9-.49-.66-4.91a179.36,179.36,0,0,1-23.49,1.87c-3.22.05-3.22,4.93,0,5q16.13.35,32.21,1.23v-5L521,489.93c-3.2.14-3.23,5,0,5h55.79v-5l-38.51,4.57a2.58,2.58,0,0,0-2.5,2.5,2.51,2.51,0,0,0,2.5,2.5Z" transform="translate(25.69 -272.76)"/><path class="cls-7" d="M543.08,484.88c3.22,0,3.22-5,0-5s-3.22,5,0,5Z" transform="translate(25.69 -272.76)"/><path class="cls-7" d="M545.79,483.66l7.63-11a2.51,2.51,0,0,0-.9-3.42,2.57,2.57,0,0,0-3.42.9l-7.63,11a2.52,2.52,0,0,0,.9,3.42,2.57,2.57,0,0,0,3.42-.9Z" transform="translate(25.69 -272.76)"/><path class="cls-7" d="M546.43,480.41a33.65,33.65,0,0,1,1.09-3.54l.33-.86c.07-.18.12-.28,0,0l.18-.43c.27-.6.56-1.19.86-1.77a31,31,0,0,1,1.9-3.18l.53-.76.27-.37s.3-.4.15-.21l.16-.2.3-.36.67-.8a2.5,2.5,0,0,0-3.54-3.53,35.49,35.49,0,0,0-7.74,14.72,2.5,2.5,0,1,0,4.82,1.33Z" transform="translate(25.69 -272.76)"/><path class="cls-7" d="M547.85,484c.65-1.73,1.31-3.44,2-5.14l.45-1.11c0-.06.64-1.51.24-.58.41-1,.82-1.91,1.24-2.86,1.48-3.37,3-6.7,4.63-10,3.27-6.82,6.64-13.59,10-20.38C573,430.43,579.6,417,586.44,403.6q5.79-11.31,11.86-22.49a5,5,0,1,0-8.64-5c-14.5,26.61-27.74,53.94-40.94,81.22-3.81,7.87-7.45,15.84-10.51,24-.91,2.45,1,5.58,3.49,6.15a5.14,5.14,0,0,0,6.15-3.49Z" transform="translate(25.69 -272.76)"/><path class="cls-7" d="M562,321.16c.5.28,1,.57,1.47.88.27.18,1.74,1,.66.44a12.94,12.94,0,0,1,2.51,2.29c.8.81,1.56,1.67,2.29,2.55.33.39.65.79,1,1.19l.48.61c.12.14,1,1.13.17.21,1.7,2,3.16,4.19,4.83,6.2a57.22,57.22,0,0,0,5.35,5.55c4,3.7,8,7.36,11.58,11.42.88,1,1.73,2,2.57,3,.45.53.89,1.06,1.33,1.6l.72.9c.66.83-.25-.39,0,.06l.09.14a2.65,2.65,0,0,1-.31-2c0,.15-.3,1,.05,0-.23.62-.54,1.21-.81,1.81L594,362.33l-8.23,18.38c-1.06,2.38-.77,5.49,1.8,6.84,2.18,1.16,5.7.76,6.84-1.79l7.82-17.47,1.83-4.08a44.9,44.9,0,0,0,2.22-5.15,7.54,7.54,0,0,0-.72-6.08,34.33,34.33,0,0,0-3.18-4.05,126.73,126.73,0,0,0-12.27-12.79c-2.11-1.92-4.25-3.82-6.17-5.93-.78-.86-1.52-1.74-2.24-2.65l-.48-.6s-.8-1-.33-.41-.3-.4-.31-.42l-.71-.93c-3.68-4.82-7.43-9.67-12.84-12.67a5,5,0,0,0-5,8.63Z" transform="translate(25.69 -272.76)"/><path class="cls-7" d="M583,343.59c2.89,4,6.8,6.48,10.76,9.27a5.63,5.63,0,0,1,1.24.9c-.07-.09-.85-.7-.11-.08l.58.49c.39.33.77.68,1.13,1.05.2.19.38.39.56.59.61.66-.12-.36.08.13.06.15.55.87.22.29s0,.2.09.35c.26.56.1-.7,0-.06,0,.15,0,1.07,0,.42s-.06.25-.1.41-.1.43-.16.64c-.2.74-.44,1.46-.66,2.19-.39,1.22-.77,2.44-1.19,3.65-.21.61-.43,1.21-.66,1.81-.12.29-.23.59-.35.89.26-.64,0,.05-.15.33a55.37,55.37,0,0,1-3.5,6.36c-2.59,4.11-5.53,8-8,12.19a63.64,63.64,0,0,0-6.64,16.29,5,5,0,0,0,9.64,2.66,57.73,57.73,0,0,1,2.37-7.35c.11-.28.22-.56.34-.84-.35.82,0,.09,0-.06.29-.62.57-1.24.87-1.85q.84-1.74,1.8-3.42c2.49-4.35,5.53-8.34,8.2-12.58a63.07,63.07,0,0,0,6.72-15c1-3.06,1.87-6.16,1.06-9.38a14.07,14.07,0,0,0-4.8-6.95c-2.08-1.76-4.35-3.25-6.59-4.8l-1.39-1c-.79-.57,0,.06.11.09a4.27,4.27,0,0,1-.88-.72c-.47-.41-.92-.83-1.36-1.28-.17-.18-.33-.37-.5-.56-.71-.75.51.74-.15-.17-1.53-2.11-4.42-3.35-6.84-1.79-2.09,1.35-3.44,4.58-1.8,6.84Z" transform="translate(25.69 -272.76)"/><path class="cls-7" d="M533.72,289.06c7.8,6.24,12.66,15.31,20,22.08a56.75,56.75,0,0,1,5.71,5.79c-.13-.16-.51-.69.08.1.18.24.37.49.55.75l1.1,1.51q1.49,2.06,3.06,4a149.44,149.44,0,0,0,10.52,11.42c2,2,4,4.1,6,6.22,1,1.06,1.92,2.14,2.83,3.25l.55.66c.09.11.9,1.13.54.67l.27.35.88,1.22c1.52,2.12,4.43,3.35,6.85,1.79,2.1-1.35,3.42-4.56,1.79-6.84-6.27-8.75-14.53-15.66-21.48-23.82-.42-.49-.83-1-1.24-1.49-.15-.18-1.17-1.5-.55-.68-.93-1.23-1.81-2.5-2.73-3.74a49.2,49.2,0,0,0-6-6.76,96.81,96.81,0,0,1-10.33-11.19c-3.47-4.41-6.9-8.89-11.3-12.41-2-1.63-5.11-2.14-7.07,0-1.67,1.81-2.18,5.32,0,7.07Z" transform="translate(25.69 -272.76)"/><path class="cls-7" d="M525.93,282.24c.32.22.63.45.94.68l-1-.78a17.32,17.32,0,0,1,3.06,3.05l-.78-1a42.87,42.87,0,0,0,3,3.8,22.88,22.88,0,0,0,4.52,3.5,5.15,5.15,0,0,0,3.86.51,5.09,5.09,0,0,0,3-2.3,5,5,0,0,0,.51-3.85,5.33,5.33,0,0,0-2.3-3,18.53,18.53,0,0,1-1.89-1.29l1,.79a16.78,16.78,0,0,1-2.82-2.83l.79,1a46.3,46.3,0,0,0-3-3.72,24.2,24.2,0,0,0-3.92-3.21,5,5,0,0,0-7.34,5.64,5.52,5.52,0,0,0,2.3,3Z" transform="translate(25.69 -272.76)"/><path class="cls-7" d="M522.14,274.24a36.13,36.13,0,0,0,4.16.12.63.63,0,0,0,0-1.25c-1.39-.15-2.78-.25-4.18-.3-.82,0-.77,1.15,0,1.25a21,21,0,0,0,5.13.06c.78-.09.82-1.25,0-1.25h-4.11a.63.63,0,0,0-.54.94,4.32,4.32,0,0,0,1.71,2l.63-1.08-1.31-.61c-.49-.23-1.27.3-.85.86a3.91,3.91,0,0,0,.89.88.64.64,0,0,0,.86-.23,1.07,1.07,0,0,0,.1-.84l-.6.8a2,2,0,0,1,.8.1.63.63,0,0,0,.7-.92c-.94-1.45-2.38-.61-3.74-1.07-.7-.24-1,.76-.48,1.14a19.56,19.56,0,0,1,2.52,2l.76-1a10.4,10.4,0,0,1-1.51-1c-.5-.39-1.41.12-1,.76l1.11,1.65,1-.76a8.92,8.92,0,0,1-1.18-1.2c-.43-.53-1.16.06-1,.61a5.39,5.39,0,0,0,1.73,3,.63.63,0,0,0,.88-.89l-1.38-1.63c-.53-.62-1.37.26-.88.88l2.19,2.81.88-.88a49.23,49.23,0,0,0-6.15-6.27l-.44,1.07c1.08,0,2.16.12,3.23.24v-1.25l-2.42-.23v1.25a12.16,12.16,0,0,1,1.81,0l-.32-1.17-.55.26a.63.63,0,0,0-.22.85,4.42,4.42,0,0,0,1.16,1.55l.76-1-.56-.27a.63.63,0,0,0-.76,1c2.83,2.89,5.88,5.54,8.73,8.41a93.53,93.53,0,0,1,7.82,8.94l1-.76c-1.07-1-2.12-2-3.15-3l-.88.89c3.31,2.78,5.36,6.79,9,9.25.67.45,1.29-.63.63-1.08-3.52-2.39-5.51-6.34-8.74-9.06-.61-.51-1.47.31-.88.89q1.55,1.53,3.15,3c.49.45,1.43-.17,1-.76a97,97,0,0,0-7.7-8.88c-2.94-3-6.11-5.73-9-8.72l-.76,1,.55.27c.6.29,1.33-.48.76-1a3.73,3.73,0,0,1-1-1.3l-.23.86.56-.26c.61-.28.23-1.11-.32-1.16a12.16,12.16,0,0,0-1.81,0,.63.63,0,0,0,0,1.25l2.42.23c.81.08.79-1.15,0-1.25-1.07-.12-2.15-.21-3.23-.24a.62.62,0,0,0-.44,1.06,49.23,49.23,0,0,1,6.15,6.27c.51.63,1.37-.26.88-.88l-2.19-2.81-.88.88,1.38,1.64.88-.89a4.2,4.2,0,0,1-1.4-2.47l-1,.61a9,9,0,0,0,1.19,1.2c.5.43,1.41-.12,1-.75L523.18,275l-1,.76a12.1,12.1,0,0,0,1.76,1.15c.61.32,1.29-.48.76-1a21.14,21.14,0,0,0-2.78-2.22l-.48,1.14c.75.26,2.53-.23,3,.5l.7-.92a4.73,4.73,0,0,0-1.13-.14.63.63,0,0,0-.6.79l0-.13.86-.22-.45-.43-.86.85,1.31.61a.63.63,0,0,0,.63-1.08,3.23,3.23,0,0,1-1.26-1.52l-.54.94h4.11v-1.25a21,21,0,0,1-5.13-.06v1.25c1.4.05,2.79.15,4.18.3v-1.25a36.13,36.13,0,0,1-4.16-.12c-.8-.08-.8,1.17,0,1.25Z" transform="translate(25.69 -272.76)"/><path class="cls-11" d="M414,276.56a16.14,16.14,0,0,0,3.59,5.39,43.46,43.46,0,0,0,10.92,7.88,64.16,64.16,0,0,0,17.79,5.62,56.91,56.91,0,0,0,23.1-.32c4.37-1,9.1-2.18,13.89-5.93a33.93,33.93,0,0,0,8-9.2,37.17,37.17,0,0,0,3.43-7.24H413A15.09,15.09,0,0,0,414,276.56Z" transform="translate(25.69 -272.76)"/><path class="cls-7" d="M449.34,292.41" transform="translate(25.69 -272.76)"/></g><g id="Layer_7" data-name="Layer 7"><polygon class="cls-12" points="90.41 329.24 176.14 282.56 303.12 280.55 413.73 280.94 433.58 329.24 90.41 329.24"/></g><g id="Layer_4" data-name="Layer 4"><path class="cls-13" d="M172.36,498.39c1,1.9.13,4.84-.2,6.84a47.94,47.94,0,0,1-2,8.51c-1.58,4.41-4.44,8.39-8.76,10.41-2.37,1.11-1.05,4.6,1.26,4.66q15.23.41,30.44-.34c2.56-.13,5.11-.27,7.66-.46a6.39,6.39,0,0,0,3.62-1,12,12,0,0,0,2.27-2.7A36.68,36.68,0,0,0,212,512.42c1.23-4.78,2-10.63.31-15.39a2.55,2.55,0,0,0-3.07-1.74,2.52,2.52,0,0,0-1.75,3.07c1.24,3.58.77,7.86,0,11.5a32.67,32.67,0,0,1-4.39,10.66,18.87,18.87,0,0,1-1.53,2.21c-.31.36-.05.17-.36.24a11.91,11.91,0,0,1-2,.14c-2.31.15-4.61.28-6.92.4q-6.93.33-13.86.42c-5.28.07-10.56,0-15.84-.12l1.26,4.66c5.49-2.57,9.07-7.84,11.06-13.4a51.46,51.46,0,0,0,2.22-9.66c.49-3.23,1.13-6.52-.49-9.55-1.51-2.84-5.83-.31-4.31,2.53Z" transform="translate(25.69 -272.76)"/><path class="cls-13" d="M176.49,519l1.69-2.29-4.57-1.92a15.42,15.42,0,0,1-2.79,6.15l4.31,2.52a4.64,4.64,0,0,1,1-1.32c2.38-2.18-1.14-5.66-3.53-3.53a12.25,12.25,0,0,1-1.7,1.26l3,3.93,1.3-1.24-3.93-3-1.09,2c-1.3,2.31,1.23,4.43,3.42,3.42a54.66,54.66,0,0,1,12.25-4.47L184,515.84a21.38,21.38,0,0,1-3.38,1.7,9.1,9.1,0,0,1-3.2.92l1.26.34-.19-.09.9.9-.1-.18.25,1.93a19.49,19.49,0,0,1,2.18-5,49.21,49.21,0,0,1,3.09-5.11,47.26,47.26,0,0,1,7.69-8.54c2.16-1.9-.62-5.34-3-3.93q-2.19,1.29-4.44,2.46l3.42,3.42c.62-1.31,1.28-2.6,2-3.86,1.11-2-1.29-5-3.42-3.42l-6.09,4.41,3.67,2.82,1.91-4.61A2.48,2.48,0,0,0,185,497.1a2.54,2.54,0,0,0-3.13,1,33.16,33.16,0,0,1-5,5.77l3.93,3a54.82,54.82,0,0,0,3.24-8.76c.73-2.65-3.36-4.58-4.57-1.93a83.09,83.09,0,0,1-3.8,7.39l4.57,1.92,1.25-4.29c.78-2.66-3.3-4.51-4.57-1.93a54.19,54.19,0,0,0-3.27,8.39c-.91,3.1,3.89,4.41,4.82,1.33l1.75-5.75-4.91-.67a28.68,28.68,0,0,1-.8,5.13,17.13,17.13,0,0,0-.23,5.8c.3,2.06,3.74,2.5,4.57.6l2.59-5.95-4.57-1.93-2.7,10.83a2.5,2.5,0,0,0,4.82,1.33l3.42-8.64-4.82-1.32a13.72,13.72,0,0,1-2.32,4.84l4.57,1.92a8.83,8.83,0,0,1,1.06-2.29L176.34,511,175,515c-.93,2.67,3.26,4.43,4.57,1.92l4-7.68c1.49-2.84-2.71-5.33-4.32-2.52l-1.77,3.1,4.57,1.93c.61-1.57,1.14-3.15,1.6-4.76.66-2.33-2.48-4.32-4.18-2.44a16.71,16.71,0,0,0-2.72,4.36,18.33,18.33,0,0,1-2.2,4.15c-1.2,1.48-2.76,2.57-3.81,4.19a7.08,7.08,0,0,0-1,5.6l2.41-3.17a4.71,4.71,0,0,0-4.52,3.53c-.37,1.41.74,3.36,2.41,3.16a32.3,32.3,0,0,0,8.18-2.22c1.36-.54,2.72-1.1,4.1-1.59s2.64-.74,3.94-1.18c3-1,4.26-3.46,5.76-6s3.05-5.41,4.45-8.18c1.2-2.4-1.94-5.27-3.93-3q-6.21,7-13,13.39l3.93,3c3.27-5.22,6.54-10.44,9.48-15.85,1.33-2.45-1.89-5.11-3.93-3a75.38,75.38,0,0,0-6.7,7.9c-1.68,2.27,2.08,5.18,3.92,3a20.14,20.14,0,0,1,5.05-4.7l-3.42-3.42q-3,4.37-6.37,8.43c-2,2.43,1.22,5.85,3.53,3.53q6.22-6.21,12.37-12.52l-3.93-3a65.33,65.33,0,0,1-4.48,7.56l4.57,1.93.92-3.16a12.22,12.22,0,0,0,.81-3.17c0-2.69-3.71-3.94-5.07-1.43a2.53,2.53,0,0,0,2.16,3.76,10.46,10.46,0,0,0,3.76-.59c1.66-.6,2.6-2.83,1.1-4.18-.32-.29-.61-.59-.91-.9a1.8,1.8,0,0,1-.25-.4c.08.32.12.25.11-.18l-2.5,2.5,6-.25c3.26-.14,3.18-4.73,0-5l-9.65-.84v5l7.47.51,3.62.24,1.93.13,1,.06c.52,0,.64,0,.37.08l-1.1-.64.18.19a2.52,2.52,0,0,0,3.93-.51l.66-1.25-4.57-1.92a6.23,6.23,0,0,0,.18,3.7c.71,1.8,3.52,2.71,4.57.6l.87-1.77-4.66-1.26a19.35,19.35,0,0,0,.19,4.62c.32,2.27,3.53,2.23,4.56.59l1-1.5-4.57-1.92-2.89,10.56c-.85,3.13,3.81,4.37,4.82,1.33l.92-2.78-4.82-1.33a12.83,12.83,0,0,1-1.82,4l4.57,1.93c.45-2.47,1.33-5.21,1.05-7.74a2.53,2.53,0,0,0-4.66-1.26q-3.3,4.56-6.69,9.06l4.66,1.26a5.38,5.38,0,0,1,.5-2.35l.83-2.62,1.65-5.24c.86-2.73-3.15-4.34-4.57-1.93-.64,1.08-1.31,2.13-2,3.15-.48.66-1.23,2.06-1.91,2.43l1.26-.34-.34,0,1.77.74-.06,0,.35,1.26a7.55,7.55,0,0,1,.58-2.21l.82-2.73c.85-2.82-3-4.19-4.57-1.92l-3.86,5.72a2.51,2.51,0,0,0,.9,3.42,2.56,2.56,0,0,0,3.42-.9l4.07-5.53-4.32-2.52c-1.22,2.23-2.52,4.42-3.91,6.55l4.32,2.53a21.2,21.2,0,0,1,4.49-5.49c.92-.86,2-1.72,2-3.12S201,503,200.12,502l.39,3,.16-.23-.89.9c-.14.1-.17-.06.14,0s.6,0,.89.1c.71.15,1.17.7,1.86.91a2.88,2.88,0,0,0,3.64-3.55,2.53,2.53,0,0,0-4.57-.59,7.69,7.69,0,0,0-1,2.32c-.72,2.72,3.15,4.43,4.57,1.93l.68-1.2-4.57-1.92a28.26,28.26,0,0,1-1.55,3.94c-.6,1.48-1.12,3-1.59,4.52a40.66,40.66,0,0,0-1.23,4.31,10.14,10.14,0,0,0-.22,2.39A7.79,7.79,0,0,1,197,521c-.69,2.7,3.15,4.44,4.57,1.92l1.48-2.61L198.37,519a1.69,1.69,0,0,1-.23,1,2.52,2.52,0,0,0,.65,3.23,2.48,2.48,0,0,0,3.28-.2c.28-.35,0-.17.38-.35l-1.26.35h-.1l-1.1-.65.19.2-.64-1.1.05.27c.41,2.12,3.58,2.4,4.57.59l2.49-4.55-4.31-2.52-1.05,2c-1.47,2.85,2.67,5.31,4.31,2.52l1.4-2.36-4.32-2.53c-.28.59-2.21,1-2.91,1.28-1.54.58-3.1,1.13-4.66,1.65l-1.11.37c-.13,0-1.34.47-.67.37.29.11.31.1.07,0s-.33-.21-.49-.32a7.27,7.27,0,0,0-1.1-.5,6.26,6.26,0,0,0-4.39,0l3.16,2.41v.06l-.64,1.1.22-.21a2.51,2.51,0,0,0,.2-3.29,2.48,2.48,0,0,0-3.23-.64l-2.83,2.17,3,3.93c.4-.51.82-1,1.26-1.48.19-.2.59-.74.81-.79h-1.33l0,0-.89-.89.18.26-.34-1.26,0,.32a2.54,2.54,0,0,0,4.27,1.76q3.24-2.66,6.28-5.53l-3.54-3.53a8.48,8.48,0,0,1-1.39,1.42l4.26,1.76a.62.62,0,0,0-.21.46l-3.54-3.53-2.76,2.64c-2.11,2,.57,5.2,3,3.92a2.34,2.34,0,0,1,.7-.19l-2.44-4.18a3.75,3.75,0,0,0,1.56,6.17l-1.49-3.67c-.35.67-1,.87-1.56,1.42a3.09,3.09,0,0,0-.78,3.06l1.74-3.08a49.61,49.61,0,0,1-11.36,1.9,2.57,2.57,0,0,0-2.5,2.5,2.52,2.52,0,0,0,2.5,2.5q4.46,0,8.9-.4a40.59,40.59,0,0,1,8.74-.31A2.51,2.51,0,0,0,200,522a2.55,2.55,0,0,0-2.5-2.5,40.59,40.59,0,0,0-8.74.31q-4.44.38-8.9.4v5a55.61,55.61,0,0,0,12.69-2.08,2.55,2.55,0,0,0,1.75-3.07l-.07-.26v1.32l.1-.25-.64,1.11c.28-.31.88-.63,1.24-1a5.88,5.88,0,0,0,1.21-1.59,2.54,2.54,0,0,0-1.5-3.67c1.07.46,1.29,1.19.65,2.19a2.52,2.52,0,0,0-2.43-4.18,6.43,6.43,0,0,0-1.89.7l3,3.92,2.76-2.64c2.34-2.24-1.15-5.65-3.54-3.53a3.7,3.7,0,0,0-1.25,3.07,2.54,2.54,0,0,0,4.27,1.77,8.18,8.18,0,0,0,1.4-1.42,2.57,2.57,0,0,0,0-3.53,2.55,2.55,0,0,0-3.54,0c-2,1.91-4.12,3.76-6.28,5.53l4.27,1.77a3.32,3.32,0,0,0-4.32-3.14c-1.65.49-2.94,2.18-3.95,3.47a2.55,2.55,0,0,0-.2,3.29,2.48,2.48,0,0,0,3.23.64l2.83-2.17-3-3.93a3.33,3.33,0,0,0-1.06,2.59c.07,1.46,1.57,3,3.17,2.41s2.16.57,3.6.87c1.74.37,3.81-.69,5.43-1.25s3.39-1.22,5.07-1.88,3.34-1.23,4.15-2.89c1.4-2.87-2.66-5.33-4.32-2.53l-1.39,2.37,4.31,2.52,1.05-2c1.47-2.85-2.76-5.36-4.31-2.52l-2.5,4.55,4.57.6c-.57-2.95-4.28-2.94-5.87-.93l3.92,3a7.35,7.35,0,0,0,.91-3.49,2.52,2.52,0,0,0-4.66-1.26l-1.47,2.61,4.57,1.93c.37-1.48-.18-2.81,0-4.26a25.63,25.63,0,0,1,1.27-4.53c.45-1.45.93-2.9,1.51-4.31A30,30,0,0,0,206.2,505c.68-2.71-3.13-4.44-4.57-1.93l-.68,1.2,4.57,1.92a3.56,3.56,0,0,1,.54-1.13l-4.57-.6.07.22.25-1.93-.13.22,1.49-1.15-.25.1h1.33c.33.08-.42-.31-.43-.32a6.56,6.56,0,0,0-1.12-.49,9.66,9.66,0,0,0-2.39-.42,4.26,4.26,0,0,0-4.11,1.8,2.51,2.51,0,0,0,.39,3c.42.44.87.88,1.26,1.35l-.65-1.1.06.21v-1.33l-.07.19.64-1.1c-2.33,2.49-4.88,4.56-6.5,7.65a2.5,2.5,0,0,0,4.32,2.53c1.38-2.14,2.69-4.32,3.91-6.56a2.5,2.5,0,1,0-4.32-2.52l-4.07,5.53,4.32,2.52,3.86-5.72-4.57-1.93c-.5,1.67-1.15,3.36-1.49,5.07a3.38,3.38,0,0,0,3.19,4.29c1.87,0,3.05-2,4.05-3.33a42.92,42.92,0,0,0,2.94-4.38L198.9,505l-1.8,5.71c-.56,1.8-1.6,3.92-1.35,5.83a2.52,2.52,0,0,0,4.65,1.26q3.4-4.49,6.7-9.06l-4.66-1.26c.23,2.1-.5,4.36-.87,6.41a2.51,2.51,0,0,0,4.56,1.93,16.91,16.91,0,0,0,2.33-5.2c.83-3.13-3.81-4.36-4.82-1.33l-.92,2.78,4.82,1.33,2.9-10.56c.76-2.78-3.07-4.31-4.57-1.93l-1,1.5,4.57.6a13.93,13.93,0,0,1,0-3.29c.23-2.45-3.59-3.43-4.66-1.26l-.87,1.76,4.57.6a1.6,1.6,0,0,1-.18-1c.59-2.66-3.2-4.55-4.57-1.93l-.66,1.25,3.93-.51c-1.07-1.11-2.52-1-3.95-1.15l-4.34-.29-8.68-.59a2.5,2.5,0,0,0,0,5l9.65.84v-5l-6,.25a2.57,2.57,0,0,0-2.5,2.5c-.21,2,1.09,3.72,2.52,5l1.1-4.18a6.51,6.51,0,0,1-2.43.41l2.15,3.76.07-.12-1.49,1.15.15,0-1.93-.26.14.08-1.15-1.49.06.23V503.4c-.4,1.91-1.1,3.8-1.64,5.67-.84,2.84,3,4.18,4.56,1.92a63.76,63.76,0,0,0,4.49-7.56c1.23-2.44-1.86-5.15-3.93-3q-6.14,6.32-12.36,12.53l3.53,3.53q3.79-4.55,7.16-9.43c1.47-2.14-1.36-4.6-3.42-3.43a23.83,23.83,0,0,0-6.06,5.49l3.93,3a66.81,66.81,0,0,1,5.92-6.89l-3.93-3c-2.94,5.42-6.21,10.64-9.48,15.85-1.54,2.46,1.9,5,3.93,3q6.78-6.41,13-13.38l-3.93-3c-1.22,2.41-2.49,4.8-3.84,7.14-.67,1.16-1.34,2.31-2,3.44a2.89,2.89,0,0,1-2.15,1.54c-4.72,1.27-9.18,4-14.07,4.58l2.41,3.17c0-.07-.25.14-.3.14a2.53,2.53,0,0,0,2.41-3.16c-.27-1.08.74-2.1,1.43-2.81a25.75,25.75,0,0,0,3.2-3.56c1.48-2.21,2-5.06,3.82-7.06l-4.18-2.43c-.46,1.61-1,3.19-1.6,4.76-1,2.67,3.19,4.33,4.57,1.92l1.77-3.1-4.32-2.52-4,7.68,4.57,1.93,1.37-4c1-2.76-3.1-4.23-4.57-1.92a14,14,0,0,0-1.56,3.48,2.49,2.49,0,0,0,1.45,3,2.54,2.54,0,0,0,3.12-1,17.32,17.32,0,0,0,2.82-6,2.5,2.5,0,1,0-4.82-1.32l-3.42,8.63,4.82,1.33,2.7-10.83a2.51,2.51,0,0,0-1.44-2.95,2.48,2.48,0,0,0-3.13,1l-2.59,5.95,4.57.59a12.75,12.75,0,0,1,.5-4.42,26.69,26.69,0,0,0,.71-5.18c0-2.85-4.1-3.34-4.91-.66l-1.75,5.75,4.82,1.33a46,46,0,0,1,2.77-7.19l-4.57-1.93-1.26,4.29c-.79,2.73,3.15,4.38,4.57,1.93s2.66-4.86,3.81-7.39l-4.57-1.92a47.42,47.42,0,0,1-2.74,7.56,2.51,2.51,0,0,0,3.93,3,39.09,39.09,0,0,0,5.79-6.78l-4.57-1.93-1.91,4.62c-.81,2,2,4.05,3.68,2.82l6.08-4.42-3.42-3.42q-1,1.9-2,3.87a2.52,2.52,0,0,0,3.42,3.42q2.25-1.17,4.44-2.46l-3-3.93a51.58,51.58,0,0,0-11.75,15c-1.19,2.31-4.68,8-.46,9.12,1.5.41,3.39-.35,4.79-.86a27.32,27.32,0,0,0,5-2.36c2.5-1.51.81-5.12-1.92-4.57-4.72.95-9.1,3-13.44,5l3.42,3.42,1.09-1.94a2.51,2.51,0,0,0-3.92-3l-1.31,1.23c-2.05,1.94.61,5.44,3,3.93a19.88,19.88,0,0,0,2.71-2l-3.53-3.53a8.15,8.15,0,0,0-1.79,2.33c-1.53,2.91,2.42,5.05,4.31,2.52a18.63,18.63,0,0,0,3.3-7.34,2.51,2.51,0,0,0-4.57-1.93l-1.69,2.29a2.52,2.52,0,0,0,.9,3.42,2.56,2.56,0,0,0,3.42-.9Z" transform="translate(25.69 -272.76)"/><path class="cls-14" d="M177.87,504.37a3.33,3.33,0,0,0-2.29,1.12,3.49,3.49,0,0,0-1.1,2.37,3,3,0,0,0,.94,2.1,2.72,2.72,0,0,0,2.28.68,2.82,2.82,0,0,0,2.06-1.41.63.63,0,0,0-1.08-.63,1.47,1.47,0,0,1-.63.63,1.65,1.65,0,0,1-.78.2h-.17l-.27-.06s-.17-.06-.11,0l-.24-.13a1.6,1.6,0,0,1-.58-.67,1.5,1.5,0,0,1-.16-.85,2.2,2.2,0,0,1,.4-.94,2.48,2.48,0,0,1,1.73-1.13.63.63,0,0,0,0-1.25Z" transform="translate(25.69 -272.76)"/><path class="cls-14" d="M179.51,506.87a3.38,3.38,0,0,0,.57,2.3,2.18,2.18,0,0,0,1.93.73,1.73,1.73,0,0,0,1.07-.5,2,2,0,0,0,.34-1.37,5.17,5.17,0,0,0-.19-1.3,1.42,1.42,0,0,0-.86-1.1,1.89,1.89,0,0,0-1.32.1,2.53,2.53,0,0,0-1.13.89.61.61,0,0,0,.22.85.63.63,0,0,0,.85-.22c-.09.13,0,0,.06-.06l.14-.13c.06-.06-.13.09,0,0l.08-.05a.93.93,0,0,1,.19-.11s.07-.07,0,0l.08,0,.17-.05.09,0c.12,0,0,0,0,0s.18,0,.23,0h0c.14,0-.07-.05,0,0s-.09-.07,0,0-.05-.11,0,0,.06.08.05.09-.05-.14,0,0l.08.24a3.29,3.29,0,0,1,.09.43s0,.07,0,.11c0-.13,0,0,0,0a2.45,2.45,0,0,1,0,.27,3.69,3.69,0,0,1,0,.47s0,.21,0,.24,0-.16,0,0-.06.17,0,0c0,0-.06.1,0,0-.06.09,0,0,0,0s-.15.05-.15.08.12-.05,0,0l-.1,0a.53.53,0,0,0-.17,0c.08-.05.12,0,0,0h-.08a1.15,1.15,0,0,0-.18,0h.05l-.07,0-.19,0c-.09,0,0,0,0,0l-.08,0-.13-.07-.07-.05s.11.1,0,0l-.12-.12c-.1-.09,0,.09,0,0a.86.86,0,0,1-.07-.1l0-.08,0-.08,0,.06s-.06-.2-.07-.22,0-.16-.05-.23,0,0,0,0v-.15a1.93,1.93,0,0,1,0-.24,3.84,3.84,0,0,1,0-.48.63.63,0,1,0-1.25,0Z" transform="translate(25.69 -272.76)"/><path class="cls-14" d="M184.27,506c0,.1-.2.11-.21.13a4.69,4.69,0,0,0,.22.46,4.09,4.09,0,0,1,.22,1.34h1.25a7,7,0,0,1,.06-1.3c0-.22.06-.44.1-.66a2.27,2.27,0,0,1,.06-.25.11.11,0,0,1,0-.08c0-.06,0-.06,0,0s-.24.06-.2,0a1.86,1.86,0,0,1,.12.18,3.23,3.23,0,0,1,.31.58,4.27,4.27,0,0,1,.29,1.06.64.64,0,0,0,.62.62.63.63,0,0,0,.63-.62c-.06-1-.16-2.12.69-2.79l-.61.16c.36.05.34.53.36.83a3.17,3.17,0,0,0,.36,1.51c.26.44.7.95,1.27.78a1.61,1.61,0,0,0,.91-1.24.65.65,0,0,0-.44-.77.64.64,0,0,0-.77.44.71.71,0,0,1-.06.25c0,.07-.13.14-.07.13h.33l-.07,0,.27.16c-.55-.47-.44-1.15-.53-1.8a1.63,1.63,0,0,0-1.23-1.46c-.75-.13-1.27.86-1.48,1.45a6,6,0,0,0-.18,2.38h1.25a6.14,6.14,0,0,0-.55-1.89c-.28-.56-.68-1.19-1.38-1.14s-1,.73-1.14,1.35a10,10,0,0,0-.19,2.18.63.63,0,0,0,1.25,0,4.24,4.24,0,0,0-.7-2.55,1.19,1.19,0,0,0-1.05-.49,1,1,0,0,0-.94.78.63.63,0,1,0,1.21.33Z" transform="translate(25.69 -272.76)"/><path class="cls-14" d="M190.56,504.66a2.92,2.92,0,0,1,.43,1.44,3.41,3.41,0,0,0,.52,1.49.63.63,0,0,0,1.14-.48,6.5,6.5,0,0,1-.12-1.76,5.34,5.34,0,0,1,.13-.88c.05-.23.19-.36-.15-.15s-.19.11,0,.3a1.2,1.2,0,0,1,.29,1c0,.23-.47,1-.72.61a.63.63,0,0,0-1.17.31,31.37,31.37,0,0,0,0,8.1c.1.77,1.28.83,1.25,0v-.28c0-.81-1.28-.81-1.25,0v.28h1.25a31.37,31.37,0,0,1,0-8.1l-1.16.32a1.55,1.55,0,0,0,2.57,0,2.37,2.37,0,0,0,.19-2.6c-.39-.74-1.69-1.66-2.17-.5a6.74,6.74,0,0,0-.11,3.7l1.14-.48a3.65,3.65,0,0,1-.46-1.62,3,3,0,0,0-.69-1.56c-.53-.6-1.41.28-.88.88Z" transform="translate(25.69 -272.76)"/><path class="cls-14" d="M194.43,502.34a1.08,1.08,0,0,1,.07.83,9.11,9.11,0,0,0-.14,1.28,7.28,7.28,0,0,0,.33,2.32,8.22,8.22,0,0,0,.46,1.1,2.36,2.36,0,0,0,.7,1,1.32,1.32,0,0,0,1.19,0,6.24,6.24,0,0,0,1.27-.47c.67-.42.77-1.51.79-2.23s-.2-2-1.15-1.76a1.83,1.83,0,0,0-1,1.84,3.64,3.64,0,0,0,.95,2.05,1.66,1.66,0,0,0,1,.68,9.49,9.49,0,0,0,1.51.07,4.84,4.84,0,0,0,1.37,0,.91.91,0,0,0,.66-1.13.62.62,0,0,0-1.2.33h0l.08-.32c.15-.05.19-.07.11-.07h-.17l-.45,0-.78,0a4,4,0,0,1-.85,0,.68.68,0,0,1-.35-.3,2.7,2.7,0,0,1-.61-1.11.78.78,0,0,1,.27-.8l-.32.09h.07l-.32-.09.06,0-.23-.23a2.35,2.35,0,0,1,0,1.71,1.41,1.41,0,0,1-.06.22c0,.13.07,0,0,0a1.31,1.31,0,0,1-.43.16,3,3,0,0,1-.95.29l.32.09-.18-.27-.19-.35a5.86,5.86,0,0,1-.3-.75,6.17,6.17,0,0,1-.29-1.53,7.79,7.79,0,0,1,.12-1.52,2.2,2.2,0,0,0-.23-1.68.64.64,0,0,0-.85-.22.62.62,0,0,0-.22.85Z" transform="translate(25.69 -272.76)"/><path class="cls-14" d="M200.31,502.71l.69,2.12.33,1a2.54,2.54,0,0,0,.48.94,2.26,2.26,0,0,0,1.79.53,1,1,0,0,0,.65-.26,1.36,1.36,0,0,0,.29-.49l.05-.1s.13-.17.07-.1a.8.8,0,0,1,.13-.13c.06-.05.06-.06,0,0l.1-.06a.63.63,0,1,0-.63-1.08,2.15,2.15,0,0,0-.68.63,1.69,1.69,0,0,0-.17.29l-.07.18c0,.06,0,.08,0,0a.81.81,0,0,0,.15-.13c.07,0,.07,0,0,0h-.25l-.19,0c.12,0-.07,0-.08,0a.64.64,0,0,1-.17,0l0,0s0,0,0,0l-.06-.07h0a.22.22,0,0,1,0-.08s-.06-.13,0-.05a1.46,1.46,0,0,1-.07-.19c-.05-.15-.1-.3-.14-.45l-.3-.9-.6-1.84a.64.64,0,0,0-.77-.44.63.63,0,0,0-.43.77Z" transform="translate(25.69 -272.76)"/><path class="cls-14" d="M200.27,505.58a16.74,16.74,0,0,0,3.56-.9.63.63,0,1,0-.33-1.21,16.74,16.74,0,0,1-3.56.9.64.64,0,0,0-.44.77.65.65,0,0,0,.77.44Z" transform="translate(25.69 -272.76)"/><path class="cls-14" d="M206.2,505.78a2.43,2.43,0,0,0,1.24-.64,1.49,1.49,0,0,0,.38-1.42,1.25,1.25,0,0,0-1.15-.87,1.44,1.44,0,0,0-1.18.82,3.83,3.83,0,0,0-.55,2.36,4.15,4.15,0,0,0,.33,1.3c.19.43.47.91,1,1a3.41,3.41,0,0,0,1.53-.28,6.25,6.25,0,0,0,1.42-.7.64.64,0,0,0,.22-.86.63.63,0,0,0-.85-.22,5.2,5.2,0,0,1-1.65.74c-.16,0-.31.07-.47.09h0s-.14,0,0,0l.11,0s0,.05,0,0a2.64,2.64,0,0,1-.2-.37c0-.06,0,0,0,0a.36.36,0,0,0,0-.09l-.06-.21-.06-.22a.29.29,0,0,0,0-.09s0-.1,0,0v-.05a.28.28,0,0,0,0-.09c0-.08,0-.15,0-.23a2.93,2.93,0,0,1,0-.41c0-.07,0,0,0,0a.36.36,0,0,0,0-.1c0-.07,0-.14,0-.21s.09-.31.11-.35l.06-.13a1.59,1.59,0,0,1,.13-.22.86.86,0,0,1,.1-.16c0-.06,0,0,0,0l.06-.07c.05-.06,0,0,0,0s.08,0,0,0l-.07,0h-.06l0,0s0-.06,0,0l0-.05c0-.07,0,.07,0,0s0,0,0,0,0,0,0,0,0,.05,0,0l-.06.11c.05-.07-.09.07-.07,0l-.17.1,0,0-.13,0-.26.07a.63.63,0,0,0,.33,1.21Z" transform="translate(25.69 -272.76)"/><path class="cls-14" d="M171.39,524.72c1-.09,1.61-1.14,2.06-1.9a10.35,10.35,0,0,0,1.1-2.74,45.27,45.27,0,0,0,.77-6.77h-1.25a32.66,32.66,0,0,0,.47,3.82,11.6,11.6,0,0,0,.94,3.4,2.34,2.34,0,0,0,2.45,1.2,2.29,2.29,0,0,0,1.85-2.15c.08-.8-1.17-.79-1.25,0a1,1,0,0,1-1.43.86c-.66-.29-.8-1.22-1-1.83a28.79,28.79,0,0,1-.82-5.3.63.63,0,0,0-1.25,0c-.2,1.94-.19,3.92-.58,5.83a10.81,10.81,0,0,1-.75,2.36,10,10,0,0,1-.6,1.06,5.85,5.85,0,0,1-.38.49c0,.06-.31.42-.37.42-.79.08-.8,1.33,0,1.25Z" transform="translate(25.69 -272.76)"/><path class="cls-14" d="M171.08,519.41a1.65,1.65,0,0,0,2.13.56,16.35,16.35,0,0,0,2.09-1.46,23.87,23.87,0,0,0,1.9-1.59,2.7,2.7,0,0,1,1.76-1,.63.63,0,0,0,0-1.25c-1.52,0-2.51,1.32-3.57,2.21-.59.49-1.2.93-1.82,1.37a6.38,6.38,0,0,1-1,.67c-.27.1-.45-.19-.61-.37-.54-.61-1.42.28-.89.88Z" transform="translate(25.69 -272.76)"/><path class="cls-14" d="M180.4,516.25a1.85,1.85,0,0,0-.36,2.1,1.28,1.28,0,0,0,1.13.6l.48,0h.26a1.89,1.89,0,0,1,.36.1c-.15-.06,0,0,.07,0s0,0,0,0l.07.06,0,0a.35.35,0,0,1,0,.08c0-.08,0-.08,0,0s0,.07,0,0a.2.2,0,0,1,0,.11c0-.08,0-.08,0,0a.49.49,0,0,1,0,.11c0-.06,0-.07,0,0s-.13.18,0,.08-.18.17-.08.09a1.27,1.27,0,0,1-.22.13h0l-.12,0a3.1,3.1,0,0,1-.51.11h-.06a.42.42,0,0,1,.28.27.62.62,0,0,0-.77-.43.63.63,0,0,0-.43.76c.17.83,1.24.68,1.82.5a2,2,0,0,0,1.41-1.33,1.45,1.45,0,0,0-.75-1.63,2.58,2.58,0,0,0-.89-.25,6.77,6.77,0,0,0-.78,0h-.1c.07,0,0,0,0,0s0,0,0,0l.05,0,0,0s.11.1,0,0,0,.08,0,0a.19.19,0,0,0,0-.08c0-.07,0,.1,0,0s0-.1,0,0,0-.09,0-.1,0-.1,0,0,0-.07,0-.08a2.91,2.91,0,0,1,.32-.46.63.63,0,0,0-.23-.86.64.64,0,0,0-.85.23Z" transform="translate(25.69 -272.76)"/><path class="cls-14" d="M183.91,515.47a2.71,2.71,0,0,0-.81,1.82,1.06,1.06,0,0,0,.53.91,1.14,1.14,0,0,0,.73.07,2.33,2.33,0,0,1,.25-.07c-.12,0,.07,0,.1,0h0l.11,0,.11,0c-.06,0,0,0,0,0l.16.1s.2.14.13.08q.16.13.33.3l.17.17h0a.23.23,0,0,1,0-.12c0-.14,0-.09,0,0a1.37,1.37,0,0,1-.13.2c.07-.09,0,0-.06.06l-.08.08c.05,0,0,0,0,0l-.1.06c.06,0,.06,0,0,0s-.2,0-.07,0c0,0-.24,0-.13,0l-.11,0c.06,0,.06,0,0,0a.63.63,0,0,0-.63,1.08,1.72,1.72,0,0,0,2.17-.46,1.48,1.48,0,0,0,.43-1.27,2,2,0,0,0-.69-.87,2.22,2.22,0,0,0-2.12-.64h0a.37.37,0,0,1,.23.1q.08.12,0,0c0,.09,0,.1,0,0,0,.18,0,0,0-.06,0,.16,0,0,0-.06l0-.11s0,0,0,0l.12-.24.15-.22c0-.06.05-.08,0,0l.09-.1a.63.63,0,0,0-.89-.88Z" transform="translate(25.69 -272.76)"/><path class="cls-14" d="M187,515.68a4,4,0,0,0-.08,2.18,2.74,2.74,0,0,0,.47,1.06.91.91,0,0,0,1.35.08.62.62,0,1,0-.88-.88.35.35,0,0,1,.35-.09l.06,0c.07.06.08.06,0,0,.11.11,0,0,0-.06s0,0,0,0l0-.09a3,3,0,0,1-.11-.32,1.16,1.16,0,0,1-.07-.37c0,.17,0,0,0-.08s0-.12,0-.19,0-.22,0-.33,0-.25,0-.08a1.29,1.29,0,0,1,0-.19,2.49,2.49,0,0,1,.09-.37.63.63,0,0,0-.43-.77.65.65,0,0,0-.77.44Z" transform="translate(25.69 -272.76)"/><path class="cls-14" d="M186.87,513.07a1.16,1.16,0,0,0,.33,1.23,1.3,1.3,0,0,0,1.32.25,1.64,1.64,0,0,0,.61-.39,1.73,1.73,0,0,0,.36-.61,1.43,1.43,0,0,0-.14-1.24,1.39,1.39,0,0,0-.55-.47,1.33,1.33,0,0,0-.88-.1.62.62,0,0,0-.43.76.63.63,0,0,0,.77.44h.06l-.16,0h.15l-.16,0,.17.05-.15-.06a.81.81,0,0,1,.18.1l-.13-.1.13.13-.1-.13a1.4,1.4,0,0,1,.1.16l-.07-.15a.59.59,0,0,1,.05.19l0-.17a1,1,0,0,1,0,.24l0-.17a.94.94,0,0,1-.06.24l.06-.15a1,1,0,0,1-.13.23l.09-.12-.15.15.12-.1a1.07,1.07,0,0,1-.21.13l.15-.06-.21,0,.17,0H188l.17,0-.16,0,.15.06a.57.57,0,0,1-.13-.08l.12.1a.52.52,0,0,1-.1-.11l.09.13a.71.71,0,0,1-.08-.15l.06.15a.74.74,0,0,1,0-.14l0,.16v-.12l0,.17a.5.5,0,0,1,0-.13.67.67,0,0,0-.07-.48.64.64,0,0,0-.37-.29.67.67,0,0,0-.48.07l-.13.1a.53.53,0,0,0-.16.27Z" transform="translate(25.69 -272.76)"/><path class="cls-14" d="M191.06,514a2.11,2.11,0,0,0-1.27,1.38,1.81,1.81,0,0,0,.16,2,1.24,1.24,0,0,0,1.78,0c.58-.56.48-1.32.71-2l-1.2-.33a12.43,12.43,0,0,0-.46,3.15c0,.53,0,1.06,0,1.59a2.8,2.8,0,0,1-.18,1.38.81.81,0,0,1-.75.36c-.4-.06-.52-.4-.54-.76s-.06-.78.22-1a1.88,1.88,0,0,1,1.38-.14.65.65,0,0,0,.77-.44.62.62,0,0,0-.44-.76,3.58,3.58,0,0,0-2.15.15,1.86,1.86,0,0,0-1,1.61,2.71,2.71,0,0,0,.34,1.81,1.85,1.85,0,0,0,1.73.75,2.07,2.07,0,0,0,1.53-1,4.1,4.1,0,0,0,.35-2.08,15.82,15.82,0,0,1,.44-4.34c.24-.77-.95-1.09-1.2-.33-.13.37-.12.76-.22,1.14a1.06,1.06,0,0,1-.18.33s0,0,0,0a.87.87,0,0,1,.1-.73c.09-.21.21-.57.45-.63.78-.19.45-1.4-.34-1.2Z" transform="translate(25.69 -272.76)"/><path class="cls-14" d="M192.6,514.72a3.68,3.68,0,0,1,.22.69c0,.07,0,.13,0,.19s0,.14,0,0l0,.38a14.42,14.42,0,0,1,0,1.47l1.22-.16c0,.1,0-.14,0-.16s0-.17,0-.26a4.67,4.67,0,0,1,0-.52c0-.07,0-.08,0,0l0-.13a1.84,1.84,0,0,1,0-.25c0-.15.09-.29.13-.44s0-.06,0,0a.41.41,0,0,1,0-.09s.14-.18,0-.08l.07-.07c-.06,0-.06,0,0,0s-.09,0,0,0a.26.26,0,0,1-.15,0c.15,0-.07,0-.05,0l.07.07c-.05,0-.05,0,0,0s.07.13.11.2,0,.08,0,0l0,.12c.1.29.13.58.21.87a1.24,1.24,0,0,0,.8.9,1.67,1.67,0,0,0,1.86-.93.63.63,0,0,0-.22-.86.64.64,0,0,0-.86.23l-.09.14,0,0,0,0-.12.13c.09-.09-.12.07,0,0s-.07,0-.1,0h0s-.1,0,0,0,0,0,0,0h0l0,0c-.06-.07.05.08,0,0s0,0,0,0a.19.19,0,0,0,0-.07,1.24,1.24,0,0,1,0-.16c0-.12,0-.25-.07-.37a3.74,3.74,0,0,0-.3-.85,1.19,1.19,0,0,0-1.6-.69,2,2,0,0,0-.88,1.36,5.35,5.35,0,0,0-.1,2.07.62.62,0,0,0,.69.45.64.64,0,0,0,.54-.62,7.12,7.12,0,0,0-.33-3.11A.65.65,0,0,0,193,514a.64.64,0,0,0-.44.77Z" transform="translate(25.69 -272.76)"/><path class="cls-14" d="M197.14,514.06c1.16-.3,1.59,1.17,1.64,2a.63.63,0,0,0,1.25,0,2.9,2.9,0,0,0-.07-.93c0-.15-.08-.3-.11-.45a2.38,2.38,0,0,0,0-.38.36.36,0,0,1,0-.11c-.31-.11-.4-.11-.26,0a2.6,2.6,0,0,0,.26.32,2.43,2.43,0,0,1,.35.85l1.2-.33a6.05,6.05,0,0,1-.2-.73c0-.22,0-.47-.05-.69s.08,0-.06-.07.07.12.06.1a2.78,2.78,0,0,1,.21.27c.4.62.71,1.33,1.48,1.55a1.86,1.86,0,0,0,2.05-.85,2.12,2.12,0,0,0-.36-2.43.64.64,0,0,0-1,.28,2.74,2.74,0,0,0,.3,2.2c.47.7,1.53.57,2.28.63a.64.64,0,0,0,.6-.46l.07-.28a.63.63,0,0,0-1.21-.33l-.07.28.61-.46-.7-.06a2.14,2.14,0,0,1-.56,0c-.27-.22-.19-.86-.11-1.14l-1,.28a.85.85,0,0,1,.19.87.57.57,0,0,1-.7.29c-.23-.1-.37-.4-.49-.61a4.05,4.05,0,0,0-.58-.84,1.26,1.26,0,0,0-1.92,0,3.12,3.12,0,0,0,.06,2.57.62.62,0,0,0,1.2-.33c-.18-.83-1-2.58-2.15-2a1.51,1.51,0,0,0-.68,1.29c0,.59.27,1.13.2,1.72H200a3.9,3.9,0,0,0-.91-2.54,2.38,2.38,0,0,0-2.31-.68.62.62,0,0,0,.33,1.2Z" transform="translate(25.69 -272.76)"/><path class="cls-14" d="M205.29,511.86a18.11,18.11,0,0,0,.61,2.62.62.62,0,0,0,.68.45.63.63,0,0,0,.55-.61l.06-1.8c0-.13,0-.27,0-.41s0-.05,0,0c-.37.37-.64.43-.79.17l.09.14c0,.07,0,.06,0,0l0,.08a.93.93,0,0,1,0,.13c0,.11.05.23.08.34a1.72,1.72,0,0,0,1.11,1.28,1.41,1.41,0,0,0,1.66-.68.64.64,0,0,0-.23-.86.62.62,0,0,0-.85.23l0,.07c0,.06,0,.05,0,0l-.06.06c.07-.05.07-.06,0,0l-.08,0c.09,0,.09,0,0,0l-.08,0c.09,0,.1,0,0,0h-.05l-.08,0c.08,0,.09,0,0,0l-.07,0,0,0-.06-.06c0-.05,0-.05,0,0a.28.28,0,0,1-.08-.15c0,.08,0,.09,0,0l0-.08c0-.1-.05-.2-.07-.3a2.6,2.6,0,0,0-.29-.76,1,1,0,0,0-.53-.44.76.76,0,0,0-.77.17,1.35,1.35,0,0,0-.26,1l-.06,1.86,1.22-.17a19.67,19.67,0,0,1-.61-2.63.62.62,0,0,0-.77-.43.63.63,0,0,0-.43.77Z" transform="translate(25.69 -272.76)"/><path class="cls-14" d="M208.77,509a12.07,12.07,0,0,0,.34,2.68,1.9,1.9,0,0,0,.72,1.14,1.21,1.21,0,0,0,1.34,0,.64.64,0,0,0,.22-.86.63.63,0,0,0-.86-.22l-.07.05s.13,0,0,0h0c-.14-.06.09,0,0,0s-.1-.06,0,0,0,0,0,0,.06.06,0,0-.08-.09,0,0l0-.05-.06-.11c0,.05,0,.06,0,0a.42.42,0,0,1,0-.1c0-.16-.08-.32-.11-.47l-.09-.5c0-.05,0-.09,0-.13v-.07c0,.07,0-.09,0-.11s0-.08,0-.12c0-.36-.06-.72-.07-1.08a.62.62,0,0,0-.62-.62.63.63,0,0,0-.63.62Z" transform="translate(25.69 -272.76)"/><path class="cls-14" d="M208.06,511.54l2.71-.75a.63.63,0,1,0-.33-1.21l-2.71.76a.62.62,0,0,0-.43.76.63.63,0,0,0,.76.44Z" transform="translate(25.69 -272.76)"/></g><g id="Layer_2" data-name="Layer 2"><rect class="cls-15" x="164.74" y="27.97" width="319.14" height="198.79" rx="12"/><rect class="cls-11" x="173.55" y="36.38" width="303.05" height="181.05" rx="5.67"/><rect class="cls-10" x="173.47" y="157.82" width="303.13" height="61.98"/><rect class="cls-8" x="173.55" y="66.74" width="303.05" height="91.08"/><rect class="cls-16" x="173.47" y="43.34" width="303.13" height="23.4"/></g><g id="Layer_3" data-name="Layer 3"><path class="cls-17" d="M167.84,328.6l41.95.62c3.22,0,3.22-5,0-5l-41.95-.62c-3.22,0-3.22,5,0,5Z" transform="translate(25.69 -272.76)"/><path class="cls-17" d="M238.12,387l61.05.51c10.17.09,20.4-.11,30.55.76,5,.42,9.92,1.06,14.89,1.37a106.77,106.77,0,0,0,14.64-.21c10.76-.8,21.73-2.56,32.47-.59a2.58,2.58,0,0,0,3.08-1.75,2.54,2.54,0,0,0-1.75-3.08c-9.81-1.79-19.67-.8-29.51.07a141.09,141.09,0,0,1-14.53.73c-5.06-.07-10.1-.64-15.14-1.15-10.14-1-20.29-1-30.47-1.11l-30.65-.26L238.12,382c-3.22,0-3.22,5,0,5Z" transform="translate(25.69 -272.76)"/><path class="cls-17" d="M238.12,397.77l62,2.21,30.64,1.09c10.26.37,20.53.95,30.79.29,5.65-.37,11.29-.73,17-.61a134.51,134.51,0,0,1,17.24,1.44,2.58,2.58,0,0,0,3.07-1.74,2.52,2.52,0,0,0-1.74-3.08A146,146,0,0,0,366,396.06c-5.08.33-10.14.68-15.24.64s-10.2-.28-15.29-.46L273.24,394l-35.12-1.25c-3.22-.12-3.22,4.88,0,5Z" transform="translate(25.69 -272.76)"/><path class="cls-17" d="M237.85,412.45l27.3-.7c4.54-.11,9.08-.28,13.62-.2A122.44,122.44,0,0,1,292,412.66c8.94,1.14,17.88,1.15,26.87,1.22l27.41.23a46.42,46.42,0,0,0,7.36-.35,16.64,16.64,0,0,0,3.47-.94c.82-.32,1.56-.78,2.43-.46a16.58,16.58,0,0,0,3.51,1.08,12.08,12.08,0,0,0,3.55-.12,25.59,25.59,0,0,0,6.85-2.54,2.52,2.52,0,0,0,.9-3.42,2.56,2.56,0,0,0-3.42-.9,19.73,19.73,0,0,1-5.45,2,6.19,6.19,0,0,1-2.27,0c-1-.23-1.87-.8-2.86-1-2.29-.55-4.13.62-6.26,1.19a23,23,0,0,1-5.92.55c-9,0-18-.15-27.05-.22-8.82-.07-17.7.12-26.47-.91-4.41-.52-8.8-1.17-13.24-1.36s-8.7-.07-13.05,0l-30.53.78c-3.21.08-3.22,5.08,0,5Z" transform="translate(25.69 -272.76)"/><path class="cls-17" d="M377.72,413l1.47-.22h-.09l.34,0,.68-.08c.95-.12,1.9-.21,2.85-.28,1.91-.15,3.82-.22,5.73-.23a2.5,2.5,0,0,0,0-5,80.59,80.59,0,0,0-12.31,1,2.5,2.5,0,0,0-1.74,3.07,2.56,2.56,0,0,0,3.07,1.75Z" transform="translate(25.69 -272.76)"/><path class="cls-17" d="M239.1,366.26q42.53,1.37,85.08.91,11.94-.12,23.88-.4l-2.41-1.84a19,19,0,0,1,1,5.69l2.5-2.5q-44.92,1.22-89.89.64-6.24-.08-12.49-.2l-3.49-.06a12.72,12.72,0,0,0-1.58,0l.41.6c0,.17,0,.09,0-.25a4.93,4.93,0,0,0-1.15-3.72,2.49,2.49,0,0,0-2.73-.51,2.58,2.58,0,0,0-1.53,2.28,16.85,16.85,0,0,0,.34,5.92l4.82-1.33c-.28-.74-.07.06-.06.05.19-.05.38-.15.58-.19a16.1,16.1,0,0,1,3.11-.13l7.05-.15c3.21-.07,3.22-5,0-5l-6.5,0v5q45.35-1.59,90.7.5l5.22.26a23.25,23.25,0,0,0,5.14,0c3-.51,5.44-3.56,3.59-6.48-1.76-2.77-5.46-2.43-8.28-2.34l-11.21.39-45.34,1.54c-8.44.29-16.89.47-25.32.95-4.14.23-8.29.56-12.41,1.1-3.57.48-6.85,1.4-9.11,4.4-1.15,1.54.42,3.81,2.16,3.76q20.88-.56,41.67-2.66a2.57,2.57,0,0,0,2.5-2.5,2.53,2.53,0,0,0-2.5-2.5q-20.77,2.1-41.67,2.66l2.16,3.77c1.31-1.75,4.41-1.89,6.37-2.12,3.52-.42,7.05-.7,10.59-.9,6.93-.4,13.88-.56,20.83-.8l42.35-1.44c7-.24,14-.5,20.92-.71a9.65,9.65,0,0,1,1.46,0,2.05,2.05,0,0,1,.81.26c0-.15-.36-.41-.37-.66,0,.54.15-.9.26-.74a3.86,3.86,0,0,1-.89.16c-1.55.07-3.15-.13-4.71-.21l-5.46-.26q-21-1-42-1.11-23.75-.18-47.47.66c-3.2.11-3.23,5,0,5l6.5,0v-5c-3.37.07-6.86-.1-10.21.27a6.39,6.39,0,0,0-4.29,1.92,4.61,4.61,0,0,0-1,4.56c1.12,3,5.55,1.86,4.82-1.33a12.87,12.87,0,0,1-.16-4.59l-4.27,1.77c-.57-.63-.3-1-.31-.14a7.35,7.35,0,0,0,0,.94,4.21,4.21,0,0,0,.88,2.34c1.12,1.39,2.82,1.66,4.51,1.7,3.83.1,7.66.15,11.49.21q11.61.17,23.22.23,23,.1,46-.25,13-.19,26-.55a2.54,2.54,0,0,0,2.5-2.5,23.94,23.94,0,0,0-1.15-7,2.55,2.55,0,0,0-2.41-1.83q-42.53,1-85.08.11-11.94-.24-23.88-.62c-3.22-.11-3.22,4.89,0,5Z" transform="translate(25.69 -272.76)"/><path class="cls-10" d="M354.93,365.74a7.74,7.74,0,0,1,.7,1.3c-.16-.41.08.24.1.32.09.28.16.56.23.84,0,.09.13.74.1.52s0,.44,0,.53a9.59,9.59,0,0,1-.08,1.6,2.51,2.51,0,0,0,2.5,2.5,53.73,53.73,0,0,1,6.59-.29c1.06,0,2.11.06,3.16.14l1.71.15.86.1.28,0c-.19,0-.12,0,.19,0a2.63,2.63,0,0,0,2.43-.64,2.59,2.59,0,0,0,.65-2.43l-.77-4.33a4.22,4.22,0,0,0-1-2.47,3.62,3.62,0,0,0-2.74-.85l-8.85,0a2.51,2.51,0,0,0-2.46,2.17,2.46,2.46,0,0,0,1.79,2.74,19.83,19.83,0,0,1,2.65.57c.39.11.77.24,1.16.37l.63.24a2.5,2.5,0,0,1,.4.17l.59-4.57c-.35.1-.71.18-1.07.25-.08,0-.42.08-.15,0l-.69.06a14.07,14.07,0,0,1-2.34-.05,2.51,2.51,0,0,0-2.5,2.5,2.58,2.58,0,0,0,2.5,2.5,8.63,8.63,0,0,0,2.32-.14,2.51,2.51,0,0,0,1.74-3.08,2.56,2.56,0,0,0-3.07-1.74c.31-.06-.19,0-.3,0s-.46,0-.69,0v5a15.44,15.44,0,0,0,5.58-.48,2.48,2.48,0,0,0,1.79-2.08,2.44,2.44,0,0,0-1.19-2.49,23.14,23.14,0,0,0-6-1.85l-.66,4.91,4.79,0,2.32,0h2c.55,0,.22-.14-1-.46l-.64-1.11a15,15,0,0,1,.51,2.67l.52,2.89,3.07-3.08a58,58,0,0,0-14.12-.34l2.5,2.5a11.81,11.81,0,0,0-1.76-7.64,2.5,2.5,0,1,0-4.32,2.53Z" transform="translate(25.69 -272.76)"/><path class="cls-10" d="M359.3,366.83c2.28,0,4.57,0,6.84.16,1.18.08,2.36.18,3.53.32.23,0,.47,0,.7.08-.84-.05-1.35-.65-1.52-1.8V366c0,.56,0,1.12,0,1.68,0,.15,0,.29,0,.44a.85.85,0,0,1,.24-.6,1.22,1.22,0,0,1,.91-.74,1.63,1.63,0,0,1-.3.07c.4-.05.46-.06.19,0l-.47,0-.71,0-3.53.21-.67,0c-.14,0-1-.1-.44,0-.08,0-.78-.26-.45-.1s-.29-.19-.35-.22c-.22-.16-.2-.14.06.05l-.28-.25a5,5,0,0,1-.4-.4c-.35-.37-.67-.77-1-1.17a2.52,2.52,0,0,0-3.54,0,2.58,2.58,0,0,0,0,3.54c1.47,1.85,3.16,3.28,5.6,3.51a21.49,21.49,0,0,0,3.21-.11c1.09-.07,2.19-.09,3.26-.2a3.74,3.74,0,0,0,3.51-2.62,7.64,7.64,0,0,0,.15-2c0-.53,0-1.06,0-1.59a3.21,3.21,0,0,0-1-2.3,4.31,4.31,0,0,0-2.62-.91c-1.09-.14-2.19-.25-3.28-.33q-3.83-.3-7.67-.22a2.5,2.5,0,0,0,0,5Z" transform="translate(25.69 -272.76)"/><path class="cls-18" d="M163.84,375.34a33.78,33.78,0,0,0-.7,17.51,30.37,30.37,0,0,0,1.13,3.82c.55,1.48,1.15,2.94,2.8,3.43a18.7,18.7,0,0,0,4.3.35c1.65.09,3.3.16,4.95.23q19.08.78,38.17.08c1.57-.05,3.14-.12,4.71-.19a23,23,0,0,0,4.77-.36c3-.83,3.75-4.75,4.48-7.37.8-2.88,1.72-5.9,1.66-8.92a24.05,24.05,0,0,0-2.23-8.64c-1.15-2.76-2.26-5.63-4.22-7.93-2.15-2.51-5.16-2.46-8.14-1.87a41.85,41.85,0,0,1-8.37.5l-9.42-.06-21.31-.13-5.46,0c-1.89,0-3.7.08-4.91,1.75-1.9,2.65-2.42,6.72-2.62,9.88-.16,2.53,3.46,3.32,4.66,1.26a9.22,9.22,0,0,1,6.18-4.46l-2.82-3.67a2.24,2.24,0,0,1-.79.71l3.67,1.49-.05-.32-.25,1.93.16-.28L172,375.29c3.64.27,7.28-.34,10.88-.77l10.87-1.31-1.26-4.66a66.32,66.32,0,0,1-16.15,6.56l1.33,4.82,3.25-1a2.51,2.51,0,0,0-.67-4.91,46.21,46.21,0,0,0-6.76-.05v5A135.09,135.09,0,0,1,192,379v-5q-7.62.63-15.23,1.39a2.6,2.6,0,0,0-2.41,1.83,2.52,2.52,0,0,0,1.15,2.82,10.31,10.31,0,0,0,3.47,1.24v-4.82a15.06,15.06,0,0,1-5.33.71v5a4.8,4.8,0,0,1,2,.17l-1.5-3.67c-.52.7-1.15-.3-1.31-.68L170,381.64a54.15,54.15,0,0,1,7.32,2.75l.6-4.56a32.67,32.67,0,0,1-4.53.48l.67,4.92a7.2,7.2,0,0,1,3.7.4l-1.84-2.41a14.86,14.86,0,0,1-.1,2.83l2.41-1.84a16.57,16.57,0,0,1-6.05-.91c-2.65-.9-4.52,3.39-1.93,4.57a2.21,2.21,0,0,1,1.3,1.19l3.42-3.42a36.5,36.5,0,0,1-6.69-4L167,386.31c1.54,0,3.09.1,4.63.22a16.15,16.15,0,0,1,1.69.18c.84.15.59.37.59-.08l4.66-1.27a29.71,29.71,0,0,1-2.89-4.85l-1.49,3.67a5.28,5.28,0,0,1,2,.11l-1.1-4.18a27.81,27.81,0,0,1-4.46,3.07l3.42.9a15.88,15.88,0,0,1-2.26-3.91l-4.18,2.44,1.4,1.28v-3.54s0,0,0,0l3.07,1.75a2.33,2.33,0,0,1,0-1.05l-4.18,1.1c.63.49.6.87-.24.79l2.41,3.17q.87-3.12,1.75-6.23l-3.68,1.49a9.89,9.89,0,0,1,4.24,3.65l2.82-3.67-4.91-1.95,1.84,2.41a10,10,0,0,1,.52-4.76h-4.82c.51,2.6,1,5.21,1.54,7.81a7.32,7.32,0,0,1,.18,3.22,10.19,10.19,0,0,1-1.68,2.95l4.57,1.93c.11-.27.23-.53.34-.79a2.61,2.61,0,0,0-.39-3,2.51,2.51,0,0,0-3-.39l-1.45,1,3.67,2.83c.11-.56.23-1.1.38-1.64.08-.27.16-.54.25-.81s0-.1-.26.29l-1.26.34h.22l-1.26-.34.19.13-.51-3.93a5.62,5.62,0,0,1-2,1.7c-2.84,1.52-.33,5.77,2.53,4.32l2.14-1.1c2.28-1.16,1.11-4.62-1.27-4.65a8.84,8.84,0,0,1-3-.59l-1.33,4.82a75.08,75.08,0,0,1,11.93,3.57l.67-4.91a20.89,20.89,0,0,1-4.87-.29l-.66,4.91q7.8.23,15.55,1.22a2.47,2.47,0,0,0,2.45-2.17,2.53,2.53,0,0,0-1.79-2.74,34.74,34.74,0,0,1-4.11-1.9v4.32a.41.41,0,0,1,.21-.14l-2.41-1.84a3.08,3.08,0,0,1-.24,1.56,2.55,2.55,0,0,0,2.83,3.68l7.14-1.19L190.69,391c-1.41,1.21-3.61,1.12-5.35,1-2.91-.26-5.61-.8-8.53-.34-2.76.44-2.14,5.27.66,4.91a3.21,3.21,0,0,1,1.31,0l.67-4.91a3.78,3.78,0,0,0-3.7,3.74,2.53,2.53,0,0,0,4.27,1.77,42.7,42.7,0,0,1,4.34-3.84c1.47-1.14.61-3.83-1.11-4.18a6.41,6.41,0,0,1-3.31-1.24l-1.76,4.27a52.4,52.4,0,0,0,8.38-.82c1.71-.3,2.14-2.36,1.5-3.67l-1.22-2.5c-.2-.41-.4-.83-.61-1.24l-.2-.42c-.13-.25-.14-.12,0,.4l-1.15,1.49.22-.14-3.77-2.16a2.65,2.65,0,0,1-.24,1.84,2.52,2.52,0,0,0,3.42,3.42,43.71,43.71,0,0,1,8.51-2.87L191.06,381l-3.63,2.19,3.76,2.16a10,10,0,0,1,1.33-3.93A2.52,2.52,0,0,0,189.1,378a4.46,4.46,0,0,0,1,8.21c2.69.75,4.46-3.2,1.93-4.57a6,6,0,0,1-1-.66c-.19-.17-.37-.35-.54-.53q-.61-.76.12.45l-.34,1.26.1-.15-2.16,1.24h.19l-2.15-3.76a31.24,31.24,0,0,1-3.48,4.05c-2.3,2.26,1.2,5.74,3.54,3.53a17.92,17.92,0,0,1,4.32-3c1.8-.89,1.55-4.28-.59-4.56a8.1,8.1,0,0,1-4-1.66,2.55,2.55,0,0,0-3,.39l-2.33,1.89c-2.18,1.77.71,5.55,3,3.92a4.2,4.2,0,0,0,1.87-2.53,2.52,2.52,0,0,0-3.67-2.82,8.89,8.89,0,0,0-2.92,3.17,12.14,12.14,0,0,1-.91,1.45c-.12.13-.26.25-.39.38s-.59.1-.07.18l-.67,4.91,22.58.88-.66-4.91c-3.73.79-7.48,1.46-11.26,2l.67,4.91c1.37-.52,2.91.27,4.28.55a29.37,29.37,0,0,0,4.94.6,28.71,28.71,0,0,0,9.82-1.4,2.5,2.5,0,0,0-1.33-4.82,125.52,125.52,0,0,1-12.82,1.81,2.52,2.52,0,0,0-2.45,2.17,2.47,2.47,0,0,0,1.79,2.74l6.7,1.31v-4.82l-7.48,1a2.5,2.5,0,0,0,.66,4.91c3.17.09,6.23.94,9.37,1.3a16.84,16.84,0,0,0,8.85-1.15c2.4-1,1-4.62-1.26-4.65l-5.4-.08a2.5,2.5,0,0,0,0,5,36.87,36.87,0,0,0,8.13-.31,2.48,2.48,0,0,0,1.79-2.75,2.53,2.53,0,0,0-2.46-2.16l-6.57-.6,1.26,4.66a19.22,19.22,0,0,1,6.49-2.34c2.81-.49,2.11-4.94-.66-4.91-1.48,0-2.84-.67-4.27-1a7.48,7.48,0,0,0-5.06.48,31.25,31.25,0,0,0-3.7,2.8,17.71,17.71,0,0,1-4.28,2.26l1.93,4.57a22.59,22.59,0,0,1,7.59-3.23,2.48,2.48,0,0,0,1.79-2.74,2.54,2.54,0,0,0-2.45-2.17l-9-1,.67,4.91a52.48,52.48,0,0,1,9.66-1.58,2.52,2.52,0,0,0,1.26-4.66,23.94,23.94,0,0,1-4.67-3.85c-1.74-1.83-4.82.07-4.17,2.44l0,.16.25-1.93-.11.16,1.49-1.15-.19.06,1.93.25-.26-.14.9.89c-.6-.79-1.1-1.68-1.64-2.52l-3.93,3,1.44,1.16,3-3.92a17.5,17.5,0,0,1-4.54-4.62A2.54,2.54,0,0,0,191,377c-1.26,3,.77,5.81,2.86,7.78l.51-3.93-4.51,2.75c-1,.64-1.74,2.33-.9,3.42a21.82,21.82,0,0,0,3.76,3.92l.51-3.92-11.58,6.23c-2.28,1.23-1.11,4.56,1.26,4.66a92.69,92.69,0,0,0,11.9-.29l-1.26-.34a6.15,6.15,0,0,0,2.27,1,2.53,2.53,0,0,0,3.08-3.07,22.68,22.68,0,0,0-2.95-7.67l-.9,3.42a91,91,0,0,1,9.1-5.34c2.57-1.32,5.7-2.43,7-5.26a2.62,2.62,0,0,0-.39-3c-1.56-1.67-3.73-2.22-5.86-2.76l-7.57-1.95-.67,4.91,5.48.59c2.53.28,3.31-3.51,1.26-4.66a9.53,9.53,0,0,0-3.8-1.14v5l6.9-.23a2.5,2.5,0,0,0,0-5c-3.62-.49-7.26-.87-10.9-1.17v5l21.16-.59a2.5,2.5,0,0,0,0-5l-2-.09,1.76,4.27a1.31,1.31,0,0,1,1.43-.15c.52.3.7,1.15.86,1.76a21.91,21.91,0,0,1,.41,8,2.46,2.46,0,0,0,2.16,2.45,2.53,2.53,0,0,0,2.75-1.79l1.41-4.25H220.7a12.64,12.64,0,0,1-.42,8.36,2.48,2.48,0,0,0,1.45,3,2.52,2.52,0,0,0,3.12-1,.1.1,0,0,1,.15-.06c2.85-1.51.33-5.79-2.52-4.32a43.69,43.69,0,0,1-7.35,3c-2.2.66-4.55,1.32-5.68,3.53a2.52,2.52,0,0,0,2.16,3.76A49.21,49.21,0,0,0,223.22,395c2.69-.63,2.18-5.14-.67-4.91A63.13,63.13,0,0,0,212,391.84l2.82,3.67c1.14-2.63,3.85-3.8,6.37-4.81,1.63-.65,2.61-2.77,1.1-4.17-2.4-2.23-5.42-2.14-8.49-2a4.27,4.27,0,0,1-1.47,0,12.69,12.69,0,0,0-2-1c-1.39-.31-2.92.45-4.21,0l.6,4.57a42.83,42.83,0,0,1,7.14-3.05,2.54,2.54,0,0,0,.6-4.57,59.09,59.09,0,0,1-4.91-3.36l-.6,4.56,4.59-1.68,2.07-.76c.43-.16,1.34-.67,1.81-.56l.67-4.91a4.35,4.35,0,0,0-2.85.85,2.56,2.56,0,0,0-.51,3.93l2,2.31,3-3.93-1.16-.67a2.59,2.59,0,0,0-3,.39,3.42,3.42,0,0,0-1.24,2.91l1.84-2.41L212,378.75a2.51,2.51,0,0,0,.67,4.91l.79,0c2.65.17,3.17-3.38,1.26-4.66-2.47-1.65-5.46-1.89-8.36-1.8-2.46.07-5.34.54-7.65-.57-1.89-.9-4.31.6-3.67,2.83l.31,1.09a2.48,2.48,0,0,0,1.74,1.75c3.12.61,6.65,1.07,9.39-.93a2.53,2.53,0,0,0,1.2-2.49,2.48,2.48,0,0,0-1.79-2.08l-.75-.13v4.82L218,378a38.86,38.86,0,0,1,5.2-1.33,4.88,4.88,0,0,1,2.28.1c.8.29,1.29,1,2.24,1l-2.41-1.83a15.84,15.84,0,0,1,.31,6.21,2.56,2.56,0,0,0,1.74,3.07,2.52,2.52,0,0,0,3.08-1.74,19.68,19.68,0,0,0-6.59-18.56,2.58,2.58,0,0,0-3.54,0,2.53,2.53,0,0,0,0,3.54,14.7,14.7,0,0,1,5.31,13.69l4.82,1.33a22.09,22.09,0,0,0-.31-8.87,2.55,2.55,0,0,0-2.41-1.84h0l1.77.73c-3.62-2.86-7.82-1.65-11.87-.53l-13.78,3.8c-2.24.62-2.52,4.37,0,4.82l.75.13-.6-4.57c-1.64,1.2-3.67.79-5.54.42l1.75,1.75-.31-1.09L196.21,381c2.75,1.33,5.66,1.43,8.66,1.31,2.5-.11,5.17-.4,7.35,1.06l1.26-4.66-.79,0,.66,4.91,4.21-1.59a2.57,2.57,0,0,0,1.83-2.41l-.22.62-3,.4,1.16.67c2.53,1.47,4.87-1.84,3-3.93l-2-2.31-.51,3.93c.83-.65.11-.18.33-.17,2.8.12,3.41-4.26.66-4.91-2-.47-3.75.29-5.62,1l-5.51,2a2.54,2.54,0,0,0-.6,4.57,58.44,58.44,0,0,0,4.91,3.37l.6-4.57a50.14,50.14,0,0,0-8.33,3.55c-2,1.09-1.32,3.89.59,4.57,1.38.5,2.61.15,4,.07.34,0,.69.14.25-.08.31.15.56.4.85.57a5.17,5.17,0,0,0,2.43.66c1.83.09,4.88-.9,6.37.48l1.11-4.18c-3.65,1.46-7.7,3.26-9.35,7.11-.83,1.93.53,4.26,2.82,3.67a55.7,55.7,0,0,1,9.25-1.57l-.66-4.91a43.76,43.76,0,0,1-10.28,1.53l2.15,3.76c.27-.52.81-.66,1.39-.84,1-.33,2.06-.61,3.07-1a53.42,53.42,0,0,0,6.78-2.91l-2.52-4.32a5.12,5.12,0,0,0-1.95,1.86l4.57,1.93a17.13,17.13,0,0,0,.42-11,2.52,2.52,0,0,0-4.82,0l-1.42,4.25,4.92.67a25.45,25.45,0,0,0-.08-6.64,13.76,13.76,0,0,0-1.6-5.44A6.3,6.3,0,0,0,213,371c-1.67,1.53-.29,4.18,1.77,4.26l2,.09v-5l-21.16.59c-3.26.09-3.18,4.74,0,5,3.64.3,7.28.68,10.9,1.17v-5l-6.9.23a2.5,2.5,0,1,0,0,5,3.39,3.39,0,0,1,1.28.46l1.26-4.66-5.48-.59c-2.83-.31-3.34,4.22-.66,4.91l6.62,1.7c1.48.39,3.51.55,4.61,1.73l-.4-3a4,4,0,0,1-2,1.89c-1.31.71-2.67,1.31-4,2a91.63,91.63,0,0,0-8.26,4.91,2.54,2.54,0,0,0-.9,3.42,18.81,18.81,0,0,1,2.45,6.48l3.07-3.08a3.75,3.75,0,0,1-1.08-.49,3.77,3.77,0,0,0-2.25-.26c-1.15.1-2.31.17-3.47.22-2.48.1-5,.09-7.44,0l1.26,4.66,11.58-6.23c1.3-.7,1.76-2.94.51-3.93a17.46,17.46,0,0,1-3-2.91l-.9,3.42,4.51-2.75a2.53,2.53,0,0,0,.51-3.93c-.84-.78-2.1-1.67-1.58-2.91l-4.57.6a24,24,0,0,0,6.34,6.41c2.3,1.6,5.25-2.13,3-3.92l-1.44-1.16a2.54,2.54,0,0,0-3.28-.2,2.5,2.5,0,0,0-.65,3.23c.87,1.35,1.71,3.35,3.39,3.81a2.79,2.79,0,0,0,3.34-3.45l-4.18,2.43a29.8,29.8,0,0,0,5.68,4.63l1.26-4.66a60.07,60.07,0,0,0-11,1.76,2.48,2.48,0,0,0-1.79,2.74,2.53,2.53,0,0,0,2.45,2.17l9,1-.67-4.91a26.7,26.7,0,0,0-8.79,3.73,2.53,2.53,0,0,0-1,3.12,2.49,2.49,0,0,0,2.95,1.45,24,24,0,0,0,4.42-2.06c1.4-.86,2.55-2,3.86-2.95,1-.78,1.84-.63,3-.28a15.86,15.86,0,0,0,4.66.91l-.67-4.91a23.05,23.05,0,0,0-7.68,2.84c-2.28,1.33-1.1,4.45,1.26,4.66l6.57.6-.66-4.91a31.55,31.55,0,0,1-6.8.13v5l5.4.08-1.26-4.66c-2.15.92-4.75.72-7,.37a66.93,66.93,0,0,0-8.7-1.21l.67,4.91,7.48-1c2.45-.34,2.32-4.37,0-4.82l-6.7-1.31-.67,4.91a137.6,137.6,0,0,0,14.15-2L206,386.52a24.51,24.51,0,0,1-9.39,1.17c-3.13-.22-6.58-2.08-9.65-.92a2.51,2.51,0,0,0-1.79,2.74,2.47,2.47,0,0,0,2.45,2.17c4.22-.57,8.42-1.26,12.59-2.15,2.85-.6,2.06-4.8-.67-4.91l-22.58-.88c-2.75-.11-3.48,4.44-.66,4.91a5.63,5.63,0,0,0,5.4-1.95c1-1.09,1.51-3,2.74-3.74l-3.67-2.82.43-.45,3,3.92,2.32-1.88-3,.39a11.22,11.22,0,0,0,5.22,2.16l-.6-4.57a22.16,22.16,0,0,0-5.34,3.77L186.3,387a36.74,36.74,0,0,0,4.25-5.06c1.1-1.55-.36-3.82-2.16-3.76a3,3,0,0,0-2.44,4.43,8.77,8.77,0,0,0,3.59,3.29l1.93-4.57c.17.05.26.87.15.93l-3.42-3.42a16,16,0,0,0-2,6.46c-.2,1.93,2.26,3.07,3.76,2.16l3.64-2.19a2.51,2.51,0,0,0-1.93-4.57,49.22,49.22,0,0,0-9.71,3.38l3.42,3.42a7,7,0,0,0,.93-4.37c-.22-1.71-2-3.32-3.76-2.16s-1.82,2.93-1,4.68c.69,1.54,1.49,3,2.23,4.57l1.49-3.67a43.79,43.79,0,0,1-7,.64,2.53,2.53,0,0,0-1.77,4.27,10.44,10.44,0,0,0,5.51,2.52l-1.1-4.18a46.52,46.52,0,0,0-4.34,3.84l4.27,1.77-.15.68-1.11.64,0-.06c2.7-.21,3.52-4.13.66-4.91a6.92,6.92,0,0,0-2.64-.23l.67,4.91c2.87-.45,5.81.58,8.69.6a11,11,0,0,0,7.4-2.51,2.52,2.52,0,0,0,.39-3,2.62,2.62,0,0,0-2.82-1.15l-7.14,1.19,2.82,3.68a9.27,9.27,0,0,0,.74-5.42,2.48,2.48,0,0,0-2.41-1.83,6.24,6.24,0,0,0-2.73.82,2.52,2.52,0,0,0,0,4.32,44.31,44.31,0,0,0,5.3,2.4l.67-4.91q-7.74-1-15.55-1.22c-2.76-.08-3.48,4.39-.67,4.91a26.31,26.31,0,0,0,6.2.47,2.52,2.52,0,0,0,.66-4.92,76.42,76.42,0,0,0-11.93-3.56,2.5,2.5,0,0,0-1.33,4.82,13.28,13.28,0,0,0,4.32.77l-1.26-4.66-2.14,1.09,2.53,4.32a9.36,9.36,0,0,0,3-2.48,2.56,2.56,0,0,0-.51-3.93,3.12,3.12,0,0,0-4.27,1.08,10.64,10.64,0,0,0-1.33,3.94c-.37,1.93,1.74,4.19,3.67,2.82l1.45-1-3.42-3.42c-.28.65-.56,1.32-.84,2a2.48,2.48,0,0,0,1.45,2.95,2.53,2.53,0,0,0,3.12-1,14.63,14.63,0,0,0,2.12-3.95,10,10,0,0,0,.13-4.69c-.49-3.08-1.19-6.14-1.79-9.2-.51-2.62-4.06-2.12-4.82,0a13.29,13.29,0,0,0-.7,6.09,2.67,2.67,0,0,0,1.83,2.41l4.91,1.95c2.06.82,3.92-1.94,2.82-3.67a14.66,14.66,0,0,0-6-5.45,2.53,2.53,0,0,0-3.67,1.5q-.89,3.11-1.75,6.23a2.53,2.53,0,0,0,2.41,3.16c5,.44,7.76-6.18,3.78-9.33-1.34-1.06-3.76-.93-4.18,1.11a8.6,8.6,0,0,0,0,3.71,2.52,2.52,0,0,0,3.08,1.74,7.18,7.18,0,0,0,2.22-1.25,2.53,2.53,0,0,0,0-3.54l-1.4-1.28c-1.69-1.55-5.13-.06-4.18,2.43a20,20,0,0,0,2.76,5.1,2.58,2.58,0,0,0,3.43.9,34.67,34.67,0,0,0,5.46-3.85,2.51,2.51,0,0,0-1.1-4.18,11.88,11.88,0,0,0-4.64-.11c-1.73.27-2.11,2.38-1.5,3.67a29.8,29.8,0,0,0,2.89,4.86c1.38,1.89,4.67,1.4,4.66-1.26,0-5.76-8-5.25-11.91-5.32a2.54,2.54,0,0,0-2.41,1.83,2.6,2.6,0,0,0,1.15,2.82,36.55,36.55,0,0,0,6.69,4,2.52,2.52,0,0,0,3.42-3.42,6.63,6.63,0,0,0-3.09-3l-1.93,4.57a20.76,20.76,0,0,0,7.38,1.09,2.53,2.53,0,0,0,2.41-1.83,21.51,21.51,0,0,0,.28-4.16,2.58,2.58,0,0,0-1.83-2.41,12.6,12.6,0,0,0-6.36-.41c-2.78.49-2.13,5,.66,4.91a42.72,42.72,0,0,0,5.86-.66c2.05-.37,2.5-3.69.6-4.57a62.3,62.3,0,0,0-8.52-3.26c-2.31-.68-3.62,1.81-2.82,3.68a5.66,5.66,0,0,0,4.76,3.31,5.92,5.92,0,0,0,5.18-2.64c1-1.34-.1-3.26-1.49-3.67a8.69,8.69,0,0,0-3.36-.35c-3.16.31-3.27,4.87,0,5a19.53,19.53,0,0,0,6.66-.89c2.14-.68,2.6-4.41,0-4.82a6.77,6.77,0,0,1-2.28-.73l-1.26,4.66q7.61-.76,15.23-1.39a2.5,2.5,0,0,0,0-5,135.09,135.09,0,0,0-18.44,0,2.56,2.56,0,0,0-2.5,2.5,2.51,2.51,0,0,0,2.5,2.5,46.21,46.21,0,0,1,6.76.05l-.66-4.91-3.25,1c-3.07.93-1.8,5.64,1.33,4.82A71.48,71.48,0,0,0,195,372.87c2-1.15,1.3-5-1.26-4.66l-10.87,1.31c-3.6.43-7.24,1-10.88.77a2.45,2.45,0,0,0-2.15,1.23,3.41,3.41,0,0,0-.37,2.53c.25,1.61,2.42,2.26,3.68,1.5a8.24,8.24,0,0,0,2.58-2.51c1.29-1.92-.84-4.1-2.83-3.67a14.2,14.2,0,0,0-9.17,6.75l4.66,1.27a20.07,20.07,0,0,1,.5-3.45c.14-.6.31-1.19.49-1.78a19.46,19.46,0,0,0,.72-1.82c.31.4-1.35.11-.17.42a5.46,5.46,0,0,0,1,0h2l4.46,0,16.61.1c5.47,0,11,.15,16.44.09a64.46,64.46,0,0,0,7.34-.87,2.17,2.17,0,0,1,2.19.61,14.18,14.18,0,0,1,1.89,3.21,43.71,43.71,0,0,1,2.69,6.8,13.58,13.58,0,0,1,0,7.13c-.31,1.3-.66,2.59-1,3.87-.1.35-1.32,3.77-1.25,3.82s.83-.05.1-.15a10.91,10.91,0,0,0-2,.1l-4.46.2q-16.6.65-33.22.19c-3.14-.09-6.27-.2-9.41-.35l-2.48-.12a9.32,9.32,0,0,0-2.23-.13c-.79.19.77,0,.62.49a3.91,3.91,0,0,0-.32-.87c-.25-.69-.46-1.4-.66-2.11a28.6,28.6,0,0,1,.38-16.14c1-3.08-3.85-4.39-4.82-1.33Z" transform="translate(25.69 -272.76)"/><path class="cls-19" d="M171.56,367.3c2.51-3.45,6.33-5.74,10-7.78a22.67,22.67,0,0,1,6.07-2.5,23,23,0,0,1,7.12-.34,43.38,43.38,0,0,1,7.31,1.45,51.55,51.55,0,0,1,6.55,2c2,.84,3.64,2.35,5.59,3.3,1.34.64,3.56,1.09,4.48,2.35l1.49-3.67a46.71,46.71,0,0,1-12.2,1.23c-4.17,0-8.31.21-12.47.53-8.55.66-17.13,1.61-25.7.71l.67,4.91,23.72-5.73-1.93-4.57a6.69,6.69,0,0,0-2,1.5,2.53,2.53,0,0,0,1.76,4.27l2.72.07-.67-4.91-1.62.56c-2.57.9-2.28,4.93.67,4.91a24.93,24.93,0,0,0,3.34-.27l-1.93-4.57-1.5.76a2.52,2.52,0,0,0-1.15,2.82,2.59,2.59,0,0,0,2.41,1.83,7.44,7.44,0,0,0,2.4-.2c2.71-.6,2.17-5.16-.66-4.91a25.29,25.29,0,0,1-3,.09c-3.22-.1-3.22,4.9,0,5a25.29,25.29,0,0,0,3-.09l-.67-4.91a3.2,3.2,0,0,1-1.07,0l1.27,4.66,1.5-.75a2.51,2.51,0,0,0,1-3.13,2.58,2.58,0,0,0-3-1.44,15,15,0,0,1-2,.09l.66,4.91,1.62-.56a2.51,2.51,0,0,0-.66-4.91l-2.72-.07,1.77,4.26a3.06,3.06,0,0,1,.95-.72c2.6-1.31.76-5.21-1.92-4.56l-23.72,5.73a2.48,2.48,0,0,0-1.79,2.74,2.54,2.54,0,0,0,2.45,2.17c8.74.91,17.48-.08,26.19-.75,4.3-.32,8.6-.45,12.91-.5a49,49,0,0,0,12.6-1.4c1.43-.4,2.46-2.34,1.5-3.67a9.92,9.92,0,0,0-4.28-3.29,27.62,27.62,0,0,1-4.65-2.47c-3.55-2.38-7.73-3.46-11.85-4.5a36.78,36.78,0,0,0-13-1.28,30,30,0,0,0-11.84,4.42,32.13,32.13,0,0,0-10.15,8.64,2.51,2.51,0,0,0,.89,3.42,2.56,2.56,0,0,0,3.43-.9Z" transform="translate(25.69 -272.76)"/><path class="cls-19" d="M181.55,365.43a20,20,0,0,1,8-3.75l-1.33-4.82c-4.15,1.23-8.58,2.16-12.45,4.14l2.52,4.31c5.16-3.45,11.33-4.56,17.34-5.64l-1.93-4.57a24.56,24.56,0,0,1-5.84,2l1.93,4.57a11.82,11.82,0,0,1,4.81-.9l-1.77-4.27-.72.87c-1.14,1.36-.87,3.71,1.1,4.17l13,3.09.67-4.91a48,48,0,0,1-6-.43l-.66,4.91a25.93,25.93,0,0,1,5.43-.09v-5a59.12,59.12,0,0,0-6.52.24,2.57,2.57,0,0,0-2.5,2.5,2.53,2.53,0,0,0,2.5,2.5q6.81-.25,13.61,0v-5A42.36,42.36,0,0,1,198.06,357l1.1,4.18c.13-.11.1-.13-.11-.06a2.55,2.55,0,0,0,2.46-2.17,2.47,2.47,0,0,0-1.79-2.74l-1.46-.22a2.5,2.5,0,0,0-1.33,4.82l1.44.51a2.5,2.5,0,1,0,1.33-4.82l-1.44-.51-1.33,4.82,1.46.22.66-4.91a5.65,5.65,0,0,0-3.43,1.52,2.53,2.53,0,0,0,1.11,4.18,46.58,46.58,0,0,0,16.05,2.53c3.22-.06,3.21-4.87,0-5q-6.81-.27-13.61,0v5a59.12,59.12,0,0,1,6.52-.24,2.5,2.5,0,0,0,0-5,25.93,25.93,0,0,0-5.43.09,2.55,2.55,0,0,0-2.46,2.17,2.47,2.47,0,0,0,1.79,2.74,59.72,59.72,0,0,0,7.32.61c2.79.05,3.43-4.25.66-4.91l-13-3.09,1.1,4.18.73-.86a2.53,2.53,0,0,0-1.77-4.27,17.88,17.88,0,0,0-7.34,1.58,2.48,2.48,0,0,0-1,3.12,2.52,2.52,0,0,0,2.95,1.45,29.72,29.72,0,0,0,7-2.49,2.49,2.49,0,0,0,1-3.12,2.54,2.54,0,0,0-2.95-1.45c-6.43,1.15-13,2.45-18.53,6.15a2.5,2.5,0,0,0,2.52,4.31,31.64,31.64,0,0,1,5.37-1.88l5.89-1.75c3.1-.92,1.81-5.51-1.33-4.82a23.22,23.22,0,0,0-9.19,4.25,2.58,2.58,0,0,0-.9,3.42,2.53,2.53,0,0,0,3.42.9Z" transform="translate(25.69 -272.76)"/><path class="cls-18" d="M170,395.35a5,5,0,0,0,3.65,1.41,2.5,2.5,0,0,0,0-5,10.32,10.32,0,0,0-4.24.43c-3.11,1-1.81,5.38,1.33,4.82a173.84,173.84,0,0,0,21.77-4.89,70.12,70.12,0,0,0,10.2-4.06c2.85-1.43,5.68-3.61,6.34-6.9h-4.82c.91,2.75,3.8,3.47,6.36,2.68.48-.14,1.28-.63,1.79-.55-.42-.07.56.56.67.63a4.15,4.15,0,0,0,2.09.76,4.71,4.71,0,0,0,.75,0c.73,0,.1.05-.1-.24a2.54,2.54,0,0,0,4.31,0l-.28.35c2.8-1.6.28-5.92-2.52-4.32a4.75,4.75,0,0,0-1.51,1.45h4.31a4.77,4.77,0,0,0-3.5-2.2,2.7,2.7,0,0,0-.9,0c-.36.11,0,0,.12.1a8.06,8.06,0,0,0-1.59-1.07,5.85,5.85,0,0,0-4.18,0l-.79.27s-.69.19-.39.14c-.18,0-.27.09-.22,0l-.22-.05a.85.85,0,0,1,.62.69c-.72-2.18-4.3-2.58-4.82,0s-3.32,3.59-5.39,4.55a71.29,71.29,0,0,1-9.39,3.44,187.75,187.75,0,0,1-20,4.36l1.33,4.82a6.65,6.65,0,0,1,2.91-.25v-5c-.76,0-.1.07-.12.06-2.4-2.13-6,1.39-3.53,3.53Z" transform="translate(25.69 -272.76)"/></g><g id="Layer_8" data-name="Layer 8"><path class="cls-11" d="M534.25,570.62a41.48,41.48,0,0,1,14-1c20.28,2,32.24,18.9,34.68,22.5L582,602l-16.86-.07Z" transform="translate(25.69 -272.76)"/><path class="cls-20" d="M85.24,602.63l45.58-25.51,12.87-7.2c.7-.39.07-1.47-.63-1.08L97.47,594.35l-12.86,7.2a.63.63,0,0,0,.63,1.08Z" transform="translate(25.69 -272.76)"/><path class="cls-20" d="M192.2,591a186.82,186.82,0,0,1,30.45-2c10.13,0,20.26.34,30.38.56l61.42,1.3,34.71.73a.63.63,0,0,0,0-1.25L287.24,589c-20.55-.43-41.11-1.06-61.66-1.26-11.27-.1-22.57.21-33.71,2-.79.13-.46,1.33.33,1.21Z" transform="translate(25.69 -272.76)"/><path class="cls-20" d="M174.78,575.64q37.16-.4,74.33.12t74.3,2q20.94.82,41.86,2c.8,0,.8-1.21,0-1.25q-37.11-2-74.27-3.05t-74.32-1.18q-21-.06-41.9.16a.63.63,0,0,0,0,1.25Z" transform="translate(25.69 -272.76)"/><path class="cls-20" d="M216.88,557.62q30.19-2.67,60.52-3T338,556.13q17,1.1,34,2.91c.8.09.8-1.16,0-1.25q-30.14-3.22-60.45-4.16t-60.59.45q-17.06.78-34.06,2.29c-.79.07-.8,1.32,0,1.25Z" transform="translate(25.69 -272.76)"/><path class="cls-20" d="M204.72,561.41q30.47.89,60.94,1.38t61,.58q17.24,0,34.48,0a.63.63,0,0,0,0-1.25q-30.48.13-61-.13t-61-.92q-17.24-.37-34.46-.88a.63.63,0,0,0,0,1.25Z" transform="translate(25.69 -272.76)"/><path class="cls-20" d="M196.66,568.09l67.9,1c22.64.33,45.28.54,67.91,1.21,12.76.38,25.52.94,38.26,1.8.8,0,.8-1.2,0-1.25-22.59-1.53-45.23-2.08-67.86-2.45s-45.27-.66-67.91-1l-38.3-.56a.63.63,0,0,0,0,1.25Z" transform="translate(25.69 -272.76)"/><path class="cls-20" d="M217.79,555.54a58.06,58.06,0,0,0-15.6,20.26c-.95,2.05-1.78,4.16-2.89,6.14a25.85,25.85,0,0,1-3.93,5.14c-2.8,2.92-5.92,5.56-8,9.1a.63.63,0,0,0,1.08.63c2.09-3.62,5.36-6.26,8.18-9.27,3-3.17,4.65-6.81,6.43-10.71a57.45,57.45,0,0,1,15.58-20.41c.62-.51-.27-1.39-.88-.88Z" transform="translate(25.69 -272.76)"/><path class="cls-20" d="M239.41,557.78c-5.17,6.53-10.38,13.09-14.6,20.3-4.09,7-6.81,14.81-11.86,21.21-.49.63.38,1.52.88.89,4.94-6.27,7.67-13.81,11.6-20.67,4.25-7.43,9.57-14.16,14.87-20.84.49-.63-.39-1.52-.89-.89Z" transform="translate(25.69 -272.76)"/><path class="cls-20" d="M259.47,558.7c-10.24,12.77-12.76,30.17-24.06,42.21-.55.58.33,1.47.88.88,11.33-12.06,13.82-29.43,24.06-42.21.5-.62-.38-1.51-.88-.88Z" transform="translate(25.69 -272.76)"/><path class="cls-20" d="M282.48,557.77C278,564.83,273.31,571.83,269,579a95.51,95.51,0,0,0-5.57,10.54c-1.45,3.22-2.93,6.48-5.63,8.86-.61.54.28,1.42.88.89,2.67-2.36,4.22-5.56,5.66-8.75A98.94,98.94,0,0,1,269.78,580c4.42-7.31,9.17-14.43,13.78-21.63.44-.68-.64-1.31-1.08-.63Z" transform="translate(25.69 -272.76)"/><path class="cls-20" d="M304.77,558.61c-8.56,13-10.84,29.43-21.2,41.33-.52.61.36,1.49.89.89,10.44-12,12.76-28.5,21.39-41.59.44-.67-.64-1.3-1.08-.63Z" transform="translate(25.69 -272.76)"/><path class="cls-20" d="M330.63,555.5q-11.89,21.54-22,44c-.33.73.75,1.36,1.08.63q10.1-22.44,22-44c.39-.7-.69-1.33-1.08-.63Z" transform="translate(25.69 -272.76)"/><path class="cls-20" d="M350,558.41a221.84,221.84,0,0,1-14.62,38.88c-.35.72.72,1.36,1.08.63a223.13,223.13,0,0,0,14.75-39.18.63.63,0,0,0-1.21-.33Z" transform="translate(25.69 -272.76)"/><path class="cls-3" d="M111.15,545.93a9.63,9.63,0,0,0-5.61,2.63c-.73.71-3.47,4.14-.93,4.35,1.18.1,2.46-.65,3.49-1.13a29,29,0,0,0,3.53-1.86,11.1,11.1,0,0,0,4.53-5.1c.34-.88.45-1.94-.55-2.4s-2.22,0-3.12.29a25.23,25.23,0,0,0-6.76,3.49c-1.67,1.15-4.07,2.42-4.75,4.47s.83,3.93,2.7,4.55c2.66.89,5.58-.82,7.72-2.25a54.83,54.83,0,0,0,6.78-5.66c.59-.55-.3-1.44-.89-.89-2.81,2.63-5.7,5.38-9.23,7-1.69.79-4,1.27-5.41-.34s0-3.18,1.36-4.16c3-2.23,6.22-4.51,9.9-5.31.34-.08,1.17-.37,1.25.23,0,.36-.37,1-.52,1.28a9,9,0,0,1-1.64,2.13,17.53,17.53,0,0,1-4.76,3.06c-.51.25-1,.49-1.55.72s-1.27.66-1.7.57c-.2,0-.18.35-.1-.13a2.44,2.44,0,0,1,.36-.62,7.55,7.55,0,0,1,.93-1.18,8.22,8.22,0,0,1,5-2.52c.79-.1.8-1.35,0-1.25Z" transform="translate(25.69 -272.76)"/><path class="cls-3" d="M141,538.9a28,28,0,0,1-5.71.36,13.94,13.94,0,0,1-2.66-.25c-.16,0-1.05-.26-1.08-.46s1.11-.44,1.28-.47a26.84,26.84,0,0,1,11.11.29,3.35,3.35,0,0,1,1.89.82c.74.91-.37,1.85-1.18,2.11a20.66,20.66,0,0,1-5.33.52,33.56,33.56,0,0,1-11-1.15.63.63,0,0,0-.33,1.21,34.93,34.93,0,0,0,11.52,1.18c2.27-.09,8.11.21,7.81-3.45-.11-1.37-1.44-2-2.61-2.35a27,27,0,0,0-5.72-.8c-1.27-.06-9.69-.33-8.56,2.44.6,1.5,2.87,1.5,4.19,1.58a30.33,30.33,0,0,0,6.73-.37c.79-.13.46-1.34-.33-1.21Z" transform="translate(25.69 -272.76)"/><path class="cls-12" d="M488.64,601.17a42.29,42.29,0,0,1-6.2-24.56c.35-4.74.84-11.51,6-16.72s11.61-5.78,15.69-6.19c10.08-1,17.94,2.57,25.18,6a79.93,79.93,0,0,1,19.81,13.42c10.68,9.54,17.1,19.91,20.43,25.38.88,1.44,1.58,2.66,2.07,3.52Z" transform="translate(25.69 -272.76)"/></g><g id="Layer_5" data-name="Layer 5"><path class="cls-21" d="M109.22,602c.91-2,2.28-5,4-8.58,5.44-11.27,8.14-16.92,11.64-21.52,4.45-5.87,9-11.88,16.57-14.25,2.69-.85,4.11-.72,9-2.33,6.16-2,7.27-3.34,10.76-3.2,3.07.12,3.92,1.19,7.27.87,2.51-.24,3.34-1,5.82-1.74,5-1.57,9.48-1,12.8-.58,5.44.69,4.86,1.86,9.88,2.32,2,.19,2.45,0,10.76-.29,6.79-.26,7.82-.21,9,.58,2.64,1.75,4.47,6,3.2,9-1,2.37-3.61,3-19.49,7-6.27,1.58-9.56,2.45-12.21,5.52a11,11,0,0,0-2.91,7.28c0,.29.14,5.16,3.49,7.27,2,1.28,3.91.68,7.85.29,5.64-.57,4,.44,15.42.29,5.51-.07,8-.33,12.21.58,5.11,1.11,6.06,2.51,6.4,3.2,1.09,2.21,0,5.43-2.62,8.29Z" transform="translate(25.69 -272.76)"/><path class="cls-21" d="M340.4,602a92.81,92.81,0,0,0-12.79-22.09c-2.23-2.8-5.51-6.53-4.57-10.51a8.22,8.22,0,0,1,5.46-5.6c3.61-1.13,6.87.84,8.72,2,2.61,1.58,2.21,2.31,8.27,8.57a66.75,66.75,0,0,0,6.92,5.72c1.71,1.28,3,2.21,4.36,1.8S358.65,580,359,579a12.67,12.67,0,0,0,.3-7.06c-.87-5-1.3-7.54-2.41-9.63-2.54-4.79-7-7.25-12.33-10.22-4.77-2.65-7.29-3.11-9.32-6.32-.56-.89-2.27-3.59-1.36-6.32,1-3,4.46-4.06,5.87-4.51,4-1.26,7.61-.23,10.37.6,6.17,1.86,10.38,5.26,10.83,4.67s-2.37-2.18-2.25-4.67c.11-2.28,2.56-3.87,2.85-4.06,4.45-2.8,11.25.28,17.3,3a61.31,61.31,0,0,1,7.52,4.06,1.84,1.84,0,0,1,0-1.62c1.17-1.66,7.09.66,8.42,1.18,3.42,1.34,9.3,4.49,15.17,12.77a10.23,10.23,0,0,1,1.94,0,13.3,13.3,0,0,1,5.62,2.14c8.37,5.67,14.47,21.44,14.47,21.44a175.36,175.36,0,0,1,8,26.86Z" transform="translate(25.69 -272.76)"/><path class="cls-22" d="M167.36,553.16c-3.24,1.57-6.22,3.23-8.54,6.05-2.55,3.09-5,6.26-7.51,9.4-.5.62.38,1.51.88.88,2.45-3.06,4.87-6.14,7.34-9.18a16.65,16.65,0,0,1,3.8-3.55,38.74,38.74,0,0,1,4.66-2.52c.72-.35.09-1.43-.63-1.08Z" transform="translate(25.69 -272.76)"/><path class="cls-22" d="M195.43,552.68c-2.18.2-3.53,1.79-5,3.26a26.35,26.35,0,0,1-5.9,4.25,46.81,46.81,0,0,0-5.92,3.84c-2.14,1.72-4.17,3.6-6.23,5.42-.61.53.28,1.41.88.89,1.87-1.65,3.71-3.33,5.62-4.92a40.46,40.46,0,0,1,6-4,35.23,35.23,0,0,0,5.29-3.52c1.58-1.35,3-3.8,5.25-4,.79-.07.8-1.32,0-1.25Z" transform="translate(25.69 -272.76)"/><path class="cls-22" d="M148.61,555.75a8.34,8.34,0,0,0-2.82,2.53c-.93,1.13-1.86,2.26-2.77,3.41a68.78,68.78,0,0,0-5.05,7.07c-.42.68.66,1.31,1.08.63a69.07,69.07,0,0,1,4.85-6.82c.84-1.05,1.69-2.09,2.55-3.13a8.29,8.29,0,0,1,2.79-2.61c.73-.33.1-1.41-.63-1.08Z" transform="translate(25.69 -272.76)"/><path class="cls-22" d="M360.16,540.54a32.67,32.67,0,0,1,8.4,16.66c.14.79,1.35.46,1.21-.33a33.85,33.85,0,0,0-8.72-17.21c-.56-.59-1.44.3-.89.88Z" transform="translate(25.69 -272.76)"/><path class="cls-22" d="M385.75,538.65a42.61,42.61,0,0,1,7,17c.14.79,1.34.45,1.2-.33A43.4,43.4,0,0,0,386.83,538c-.45-.65-1.54,0-1.08.63Z" transform="translate(25.69 -272.76)"/><path class="cls-22" d="M409.65,551.62c.59,2.66,1.22,5.42.78,8.15a.63.63,0,0,0,.43.77.62.62,0,0,0,.77-.44c.48-3-.13-5.91-.77-8.81-.18-.78-1.38-.45-1.21.33Z" transform="translate(25.69 -272.76)"/></g></svg>