<svg xmlns="http://www.w3.org/2000/svg" viewBox="0 0 537.87 340.17"><defs><style>.cls-1{fill:#009c68;}.cls-2{fill:#fcbe2f;}.cls-3{fill:#284953;}.cls-4{fill:#f4a195;}.cls-5{fill:#bfc1bd;}.cls-6{fill:#4a2c60;}.cls-7{fill:#57a7dd;}.cls-8{fill:#fbbd2f;}.cls-9{fill:#207e52;}.cls-10{fill:#218b60;}.cls-11{fill:#45b175;}.cls-12{fill:#f4a091;}.cls-13{fill:#fdf2f8;}.cls-14{fill:#6fc5e1;}.cls-15{fill:#6bb96c;}.cls-16{fill:#6ac6dc;}.cls-17{fill:#393f59;}.cls-18{fill:#f8f9f2;}.cls-19{fill:#fdf3f8;}.cls-20{fill:#4a2c62;}.cls-21{fill:#f8f7f7;}.cls-22{fill:#69c2d9;}.cls-23{fill:none;stroke:#2e505b;stroke-miterlimit:10;}.cls-24{fill:#ec6735;}.cls-25{fill:#4a2c63;}.cls-26{fill:#69c5db;}.cls-27{fill:#2a7dc1;}.cls-28{fill:#4c2c60;}.cls-29{fill:#f4a096;}.cls-30{fill:#c85e78;}.cls-31{fill:#f49f97;}.cls-32{fill:#953371;}.cls-33{fill:#754b69;}.cls-34{fill:#bf5e5a;}.cls-35{fill:#fff;}.cls-36{fill:#020202;}.cls-37{fill:#423155;}.cls-38{fill:#47a0d9;}.cls-39{fill:#f6faf7;}.cls-40{fill:#4c2e64;}.cls-41{fill:#f7f6ef;}.cls-42{fill:#e4f2f4;}.cls-43{fill:#4a2c61;}</style></defs><g id="Layer_8" data-name="Layer 8"><rect class="cls-1" x="2.81" width="535.06" height="340.17"/></g><g id="Layer_20" data-name="Layer 20"><path class="cls-2" d="M424,395.22c-2.68,14.39-4.58,28.91-6.57,43.4s-4,29.21-6,43.81c-.4,3-1.31,6.44-.45,9.44.57,2,2.45,4.17,4.71,3.13a5,5,0,0,0,2.18-2.53c.68-1.42,1.23-2.91,1.77-4.38,1.2-3.31,2.16-6.7,3.1-10.08,3.83-13.89,7.67-27.76,11-41.77,3.65-15.2,7.21-30.5,13.18-45,.3-.74-.91-1.07-1.21-.33-5,12.17-8.33,24.92-11.42,37.69q-4.78,19.74-10.12,39.32c-1.78,6.48-3.36,13.06-5.62,19.4-.61,1.7-2.65,9-5.5,5.95-2.26-2.44-.91-7.13-.52-10q2.81-20.67,5.65-41.34c2.13-15.48,4.12-31,7-46.36.15-.79-1.06-1.13-1.2-.34Z" transform="translate(-39.86 -188.16)"/><path class="cls-2" d="M491,395.4c2.81,6.43,3.72,13.43,4.66,20.32a174.84,174.84,0,0,0,4.31,21c3.71,14,7.42,28.08,12.2,41.78q1.82,5.19,3.85,10.3c1,2.48,1.92,5.84,4.56,7.08a3.64,3.64,0,0,0,5.31-2.55,22.06,22.06,0,0,0,.38-4.59c0-1.95,0-3.91-.12-5.85-.47-7.24-2-14.36-3.49-21.44-1.58-7.38-3.23-14.74-4.64-22.15-3.16-16.66-5.22-33.55-7.65-50.33-.12-.79-1.32-.46-1.21.33,2.08,14.29,4,28.62,6.33,42.86s6.13,28,8.41,42.15a86.4,86.4,0,0,1,1.1,10.53c.07,1.78.06,3.57,0,5.36-.08,1.55,0,4.19-1.81,4.77-3.6,1.13-5.19-4.64-6.11-6.95q-1.93-4.89-3.67-9.85c-4.58-13.1-8.16-26.52-11.72-39.93a186.47,186.47,0,0,1-4.73-22.42c-1-7.17-1.93-14.38-4.85-21.07-.32-.73-1.4-.1-1.08.63Z" transform="translate(-39.86 -188.16)"/><path class="cls-3" d="M319,396c2.15,6.58,2.6,13.55,3.55,20.36s2.13,13.69,3.35,20.51c2.49,13.81,5.23,27.59,7,41.52.43,3.35.81,6.71,1.12,10.07a17,17,0,0,1,.24,4.49c-.26,1.35-1.1,1-1.92.23a23.8,23.8,0,0,1-1.73-1.75c-4.18-4.65-6.59-10.59-8.14-16.58-1.71-6.6-2.58-13.39-4-20.07s-3-13.38-4.6-20.06c-1.75-7.44-3.43-14.91-4.61-22.47-1.12-7.14-1.28-14.63-4.29-21.32-.32-.73-1.4-.1-1.07.63,2.85,6.36,3,13.52,4,20.31,1.09,7.17,2.64,14.26,4.29,21.32s3.36,14,4.84,21,2.36,14.1,4.16,21c1.54,5.93,3.91,11.79,7.92,16.51,1.07,1.26,3.93,5,5.74,2.84a3.82,3.82,0,0,0,.64-2.42c0-1.85-.3-3.73-.48-5.58-1.43-14.32-4.07-28.48-6.67-42.63-1.48-8.08-2.95-16.17-4.17-24.3-1.19-8-1.56-16.25-4.07-23.94-.25-.77-1.46-.44-1.21.33Z" transform="translate(-39.86 -188.16)"/><path class="cls-3" d="M251.93,398.52c-1.13,12.42-5.83,24.08-10,35.73a152.66,152.66,0,0,0-5.32,17.62c-1.34,6.06-2.12,12.23-3.14,18.35a89.15,89.15,0,0,1-4.41,17.64c-.54,1.38-1.12,2.75-1.79,4.07a4.3,4.3,0,0,1-1.25,1.72,2.52,2.52,0,0,1-2.77-.29c-2.12-1.48-2.4-4.64-2.46-7-.36-12.82,5.4-24.77,7.18-37.3A67.21,67.21,0,0,1,230,438c1.1-3.45,2.57-6.75,3.37-10.3,1.5-6.62,1.59-13.68,4.78-19.83.37-.71-.71-1.34-1.08-.63-3,5.74-3.34,12.21-4.55,18.44a62.71,62.71,0,0,1-2.88,9.54,46.55,46.55,0,0,0-2.39,9.88c-.47,3.51-1,7-1.76,10.43-.75,3.27-1.66,6.51-2.53,9.75-1.74,6.45-3.4,13-3.44,19.75,0,2.48.09,5.13,1.29,7.36,1,1.85,3.23,3.49,5.39,2.6a4.7,4.7,0,0,0,2.15-2.41c.68-1.35,1.28-2.75,1.84-4.16a68.47,68.47,0,0,0,2.85-9.41c1.48-6.4,2.29-12.93,3.37-19.4a130.29,130.29,0,0,1,4.63-18.9c4.56-13.9,10.76-27.44,12.1-42.17.07-.8-1.18-.8-1.25,0Z" transform="translate(-39.86 -188.16)"/></g><g id="Layer_19" data-name="Layer 19"><polygon class="cls-4" points="234.49 271.61 228.64 282.49 234.49 286.04 244.14 274.6 234.49 271.61"/><polygon class="cls-4" points="297.1 280.01 309.95 289.59 306.39 295.27 292.39 286.04 297.1 280.01"/></g><g id="Layer_21" data-name="Layer 21"><path class="cls-5" d="M221.35,431.7a6.28,6.28,0,0,0-.18,4.9l1.4,2.1H235l2.1-2.1c1-3.13.19-4.82-.17-5.43C234.31,426.73,223.8,427.06,221.35,431.7Z" transform="translate(-39.86 -188.16)"/><path class="cls-5" d="M205.82,481.68l1.45,1.85,46.92.39a1.77,1.77,0,0,0-.92-3.16L207,480.23Z" transform="translate(-39.86 -188.16)"/><polygon class="cls-5" points="185.87 247.22 193.12 247.22 192.32 294.45 186.79 294.45 185.87 247.22"/><path class="cls-6" d="M226.39,440l5.88-.22-.54-.94a3,3,0,0,0,.41,3.11.62.62,0,0,0,.82,0,.64.64,0,0,0,.16-.81,3.11,3.11,0,0,1-.26-1.08.63.63,0,0,0-1.25,0,15.74,15.74,0,0,0,0,2.38.64.64,0,0,0,.62.63.65.65,0,0,0,.63-.63l-.06-2.67a.63.63,0,1,0-1.25,0,12,12,0,0,0,0,3,.65.65,0,0,0,.63.63.63.63,0,0,0,.62-.63,10,10,0,0,1,.15-2.94.62.62,0,0,0-1.2-.33,7.73,7.73,0,0,0-.17,3.28c.09.63,1.06.56,1.2,0a12.18,12.18,0,0,0,.26-3.19.64.64,0,0,0-.63-.62.63.63,0,0,0-.62.62c-.1,1.08-.25,2.14-.43,3.21l1.14-.15c-1.29-2.17-3.75-3-6-3.68l-.33,1.21,4.48.83a.64.64,0,0,0,.77-.77l-.08-.27-.77.77a.55.55,0,0,1,.44.39l1-.76c-.08-.07-.05,0-.07-.14l-1.2.34.19.46a.66.66,0,0,0,.77.44.65.65,0,0,0,.44-.77l-.2-.47a.62.62,0,0,0-1.2.34,1.21,1.21,0,0,0,.39.69.63.63,0,0,0,1-.76,1.72,1.72,0,0,0-1.19-1,.64.64,0,0,0-.77.77l.08.28.77-.77-4.48-.84a.63.63,0,0,0-.33,1.21c2,.58,4.18,1.23,5.29,3.1.26.43,1.05.4,1.14-.15.21-1.17.36-2.35.48-3.54h-1.25a11,11,0,0,1-.21,2.86h1.2a6.44,6.44,0,0,1,.17-2.62l-1.2-.33a10.9,10.9,0,0,0-.2,3.27h1.25a12,12,0,0,1,0-3h-1.25l.06,2.67h1.25a15.74,15.74,0,0,1,0-2.38h-1.25a4.79,4.79,0,0,0,.43,1.71l1-.75a1.7,1.7,0,0,1-.21-1.6.63.63,0,0,0-.54-.94l-5.88.22c-.8,0-.8,1.28,0,1.25Z" transform="translate(-39.86 -188.16)"/><path class="cls-6" d="M205.82,481.21a11.83,11.83,0,0,0-2.65.43,6.19,6.19,0,0,0-2.32,1.09,5.16,5.16,0,0,0-1.28,2,6,6,0,0,0-.63,2.52c0,.8,1.28.8,1.25,0a5,5,0,0,1,.55-2.1,3.71,3.71,0,0,1,1-1.55,5,5,0,0,1,1.82-.79,10.16,10.16,0,0,1,2.26-.37c.8,0,.8-1.29,0-1.25Z" transform="translate(-39.86 -188.16)"/><path class="cls-6" d="M235.45,484.72a11.83,11.83,0,0,1,.39,1.64s0,.23,0,.12a1.11,1.11,0,0,0,0,.19l0,.42c0,.28,0,.57,0,.86a.63.63,0,0,0,1.25,0,11.31,11.31,0,0,0-.54-3.56.65.65,0,0,0-.77-.44.64.64,0,0,0-.43.77Z" transform="translate(-39.86 -188.16)"/><path class="cls-6" d="M255,482.86l.32,0-.17,0a8.69,8.69,0,0,1,1.81.44.58.58,0,0,0,.48-.06.64.64,0,0,0,.29-.37.65.65,0,0,0-.44-.77,9.38,9.38,0,0,0-2.29-.51.63.63,0,0,0-.44.19.6.6,0,0,0-.18.44.65.65,0,0,0,.18.44.67.67,0,0,0,.44.18Z" transform="translate(-39.86 -188.16)"/><ellipse class="cls-6" cx="159" cy="303.55" rx="5.35" ry="5.11"/><circle class="cls-6" cx="196.71" cy="303.79" r="5.35"/><circle class="cls-6" cx="222.99" cy="303.5" r="5.65"/><path class="cls-7" d="M175.8,255.73l19.94,1.36-2.41-3.17a50.43,50.43,0,0,0-.24,12c.14,1.94.29,3.88.36,5.83,0,.93,0,1.86,0,2.79,0,.46,0,.93-.07,1.39s0,.62-.08.92c-.08.52-.08.62,0,.29l.9-.89-.28.14,1.26-.34c-1.37.09-3.24-.56-4.7-.8-1.79-.28-3.59-.52-5.4-.62a28.11,28.11,0,0,0-4.94.15,10.7,10.7,0,0,0-2.76.46l-.36.08c.66,0,1,.22,1,.61.06-.1-.21-.76-.25-.95-1.51-6.5.49-13.3-.11-19.89a2.58,2.58,0,0,0-2.5-2.5,2.51,2.51,0,0,0-2.5,2.5c.43,4.73-.34,9.44-.4,14.17,0,3.85,0,11.87,5.73,10.94a32.83,32.83,0,0,1,6.86-.58,53.47,53.47,0,0,1,7.14,1,13.39,13.39,0,0,0,3.2.48,3.17,3.17,0,0,0,2.93-2.61,29.57,29.57,0,0,0,.31-7.16c-.21-5.32-1.16-10.75-.28-16.06a2.55,2.55,0,0,0-2.41-3.16l-19.94-1.36a2.5,2.5,0,0,0,0,5Z" transform="translate(-39.86 -188.16)"/><path class="cls-8" d="M217,244.75a326.93,326.93,0,0,1,43.12,2.06l2.93.35a8.28,8.28,0,0,0,1,.12c.22,0,.84.27.24-.12-.42-.27-.06-.33-.15,0a4.7,4.7,0,0,0,.13,1.22c.11,1,.21,2,.29,2.92.33,3.58.54,7.17.66,10.76.25,7.18.13,14.38-.18,21.57-.18,4.09-.42,8.18-.69,12.26-.13,2-.27,3.92-.4,5.88-.07,1-.15,2-.22,2.94,0,.49-.07,1-.1,1.47l-.08,1c-.09.74,0,.66.24-.25l1.1-.65c.21.07.15.08-.19,0-.15,0-.3,0-.44-.06-.6-.06-1.19-.16-1.79-.23l-2.91-.33q-3-.31-6.08-.49c-4.14-.25-8.3-.34-12.45-.32-8.32,0-16.63.51-24.94,1l2.5,2.5q0-25.35.18-50.7l.06-14.56c0-3.21-5-3.22-5,0q-.1,25.33-.21,50.66l0,14.6a2.52,2.52,0,0,0,2.5,2.5c11.15-.63,22.32-1.26,33.49-.85q4.14.15,8.28.52c1.3.11,2.59.25,3.88.4a13.44,13.44,0,0,0,3.89.31c3.26-.6,2.93-4.2,3.12-6.76.2-2.78.4-5.56.58-8.33.74-11.18,1.26-22.39.91-33.59q-.14-4.17-.43-8.32a74.66,74.66,0,0,0-.84-8.32c-.58-3.1-3.25-3.45-5.89-3.78s-5.53-.65-8.3-.92A325.86,325.86,0,0,0,217,239.75c-3.21.05-3.22,5.05,0,5Z" transform="translate(-39.86 -188.16)"/><path class="cls-9" d="M142.37,380.13a146.93,146.93,0,0,1-6-29.44c-.49-4.87-.68-10,1.48-14.43,2.42-4.92,7.4-8.09,10.33-12.72a59.06,59.06,0,0,0,2.89-5.73,45.36,45.36,0,0,1,7.54-10.92,7.33,7.33,0,0,1,2.25-1.79,6.61,6.61,0,0,1,2.61-.44,21.58,21.58,0,0,1,7.09,1.14,4.2,4.2,0,0,1,1.91,1.1c.82,1,.71,2.39.86,3.66.25,2.17,1.41,4.2,1.47,6.39a12.26,12.26,0,0,1-1.14,4.76,107.79,107.79,0,0,1-7.31,15c-1.95,3.3-4.09,6.54-5.42,10.14a82.18,82.18,0,0,0-2.33,8.78c-1.65,6.59-4.64,13.26-10.28,17-2.24,1.5-5.12,2.9-5.49,5.57,0,.2-.08.45-.28.49s-.19-.4,0-.28" transform="translate(-39.86 -188.16)"/><path class="cls-9" d="M115.54,367.31c-.31-5.83-2.51-11.74-.93-17.36.21-.74.62-1.58,1.39-1.67a1.93,1.93,0,0,1,1.26.43c3.28,2.16,5.19,5.92,6.24,9.72s1.4,7.75,2.35,11.57a37.38,37.38,0,0,0,3.36,8.72c1.39,2.56,3.08,5,4,7.74a24.89,24.89,0,0,1,1.15,6.86,54.68,54.68,0,0,1-2,17.59c.59-2.93-.73-5.94-2.57-8.3s-4.18-4.29-6.11-6.57a41.05,41.05,0,0,1-4.87-7.66,67.49,67.49,0,0,1-6.59-17,2.36,2.36,0,0,1,.19-2c.45-.54,1.6-.28,1.48.4" transform="translate(-39.86 -188.16)"/><path class="cls-9" d="M147.78,423.72a9.65,9.65,0,0,1-.55-4.34c.2-3.91,1.2-7.79,1-11.7-.08-1.31-.29-2.6-.38-3.91a37.84,37.84,0,0,1,.81-9.3,34.93,34.93,0,0,1,2.14-8,13.54,13.54,0,0,1,5.18-6.28,12.66,12.66,0,0,1,4.71-1.6,12.16,12.16,0,0,1,5,.21,5.1,5.1,0,0,1,2.27,1.18,5.57,5.57,0,0,1,1.38,3.18c.87,5.44-1.32,10.9-4,15.71a139,139,0,0,1-9.23,13.86q-3.84,5.26-7.73,10.51" transform="translate(-39.86 -188.16)"/><path class="cls-9" d="M100.17,399.26c-1-.5-1-.87-2-1.23-.07,0-1.74-.72-2-.1a1.24,1.24,0,0,0,0,.83c.42,1.77,2,3,3,4.47a34.27,34.27,0,0,1,2.17,4.22,18.53,18.53,0,0,0,6.26,7c4.46,2.95,10.09,3.9,14.28,7.24a15.93,15.93,0,0,1,2.53,2.39c.44.55,1.39,1.8,3,6,.45,1.18,1,2.77,1.61,4.69a27.38,27.38,0,0,0-9.08-19.3c-1.24-1.1-2.58-2.09-3.77-3.25-4.79-4.67-6.56-11.52-9.29-17.62a5.38,5.38,0,0,0-1.36-2.06,2,2,0,0,0-2.31-.24,2.19,2.19,0,0,0-.7,2c.1,1,.31,1.18.45,2.2s.1,2.81-.78,3.23C101.64,400,101,399.66,100.17,399.26Z" transform="translate(-39.86 -188.16)"/><path class="cls-10" d="M138.43,438.61c-.71-1.88-1.52-3.74-2.11-5.66a24.74,24.74,0,0,1-.75-5.69,2.46,2.46,0,0,1,.51-1.9,20.76,20.76,0,0,0,1.35-2.38c.87-1.8,1.54-3.69,2.5-5.44.41-.76.11-.29.07-.43-1.18-1-1.63-1.17-1.35-.4a1.49,1.49,0,0,1,.06.52,10.77,10.77,0,0,1-.16,2.6c-.33,2-.92,3.93-1.22,5.92a35.44,35.44,0,0,0-.54,6.74c0,.38.48,3.26.53,3.24l.09-.6a8.1,8.1,0,0,1-.42.7,7.28,7.28,0,0,1-.94,1.06l4.18,1.1c-.62-2.9-1.51-5.89-1.56-8.87a23.83,23.83,0,0,1,1.81-8.3,2.5,2.5,0,0,0-4.82-1.32,27.93,27.93,0,0,0-2,9.62c.06,3.44,1,6.86,1.74,10.2a2.52,2.52,0,0,0,4.18,1.1c1.49-1.45,3-3.47,2.62-5.68a14.79,14.79,0,0,1-.43-2.48A31.62,31.62,0,0,1,142,429c.37-4.13,2.17-8.29,1.7-12.46-.24-2.1-1.27-4.27-3.68-4.4s-3.8,1.68-4.75,3.61-1.56,3.67-2.49,5.43-2.22,3.23-2.19,5.41a31.29,31.29,0,0,0,.73,6.84,55,55,0,0,0,2.34,6.48,2.58,2.58,0,0,0,3.08,1.75,2.52,2.52,0,0,0,1.74-3.08Z" transform="translate(-39.86 -188.16)"/><path class="cls-10" d="M114.62,429.58c.36,0-.06,0-.16,0a2.35,2.35,0,0,0,.4.09l.32.09c.07,0,.42.18.09,0s.07,0,.15.08l.29.17c.22.12.42.27.64.41s-.35-.3-.11-.07l.33.28.5.47c.36.37.69.76,1,1.16.18.22.09.09,0-.05a2.26,2.26,0,0,1,.23.31c.18.23.34.46.51.7.31.45.6.91.88,1.38a27,27,0,0,1,1.59,3.07l3.92-3a1.41,1.41,0,0,1-.18-.17c-.12-.13-.08-.07.14.19,0-.05-.14-.24-.16-.29-.15-.28-.26-.56-.4-.83a9.73,9.73,0,0,0-1.2-1.71,15.28,15.28,0,0,0-2.34-2.14,20.31,20.31,0,0,1-2.41-2.12c-.09-.09-.17-.19-.26-.29s.32.45.06.08c-.14-.2-.28-.41-.43-.61a4.06,4.06,0,0,0-2.4-1.78,2.51,2.51,0,0,0-2.82,3.68,26.64,26.64,0,0,0,10,11.51,2.52,2.52,0,0,0,3.42-.89,2.56,2.56,0,0,0-.9-3.42c-.49-.32-1-.65-1.43-1s.27.22,0,0l-.34-.27-.66-.56a23.52,23.52,0,0,1-2.43-2.46c-.19-.22-.37-.44-.55-.67s0,0,.07.1c-.08-.14-.21-.28-.31-.42-.32-.44-.63-.89-.92-1.36a22.89,22.89,0,0,1-1.67-3.13l-2.82,3.68c.34.06-.25-.18-.35-.24-.45-.25.08.1.06.1s-.36-.49-.08-.08l.22.3a12.87,12.87,0,0,0,1.29,1.56,29.49,29.49,0,0,0,2.34,2c.38.31.76.62,1.13,1s.68.77,1.06,1.11c-.16-.14-.29-.4-.07-.08.07.11.14.21.2.32a6.85,6.85,0,0,1,.37.71,5.14,5.14,0,0,0,1.21,1.75,2.51,2.51,0,0,0,3.28.19,2.54,2.54,0,0,0,.64-3.22,27.74,27.74,0,0,0-4.16-6.69,9.85,9.85,0,0,0-6.79-3.86,2.51,2.51,0,0,0-2.5,2.5,2.56,2.56,0,0,0,2.5,2.5Z" transform="translate(-39.86 -188.16)"/><path class="cls-11" d="M150.21,439a23.36,23.36,0,0,0,1.87-5.87,28.68,28.68,0,0,1,4.73-10.48,8.07,8.07,0,0,1,4.22-2.49,29.47,29.47,0,0,1,5.78-1.64,4.7,4.7,0,0,1,1.06,0c.16,0,.66.06.49.14s0-1.14-.42-.93-.84.81-1.19,1.09c-2.72,2.14-6.11,3.28-9.09,5a27.78,27.78,0,0,0-9.43,9l4.57,1.92c1-3.59,2.55-7.64,5.44-10.14a25.27,25.27,0,0,1,4.74-3.33,33.85,33.85,0,0,1,5.79-2.16c3.06-.95,1.76-5.78-1.33-4.82a42.38,42.38,0,0,0-6.81,2.58A30.58,30.58,0,0,0,154.7,421c-3.5,3-5.5,8-6.72,12.35-.77,2.8,3.05,4.27,4.57,1.93a23.42,23.42,0,0,1,9.07-8c1.88-1,3.82-1.82,5.64-2.89s4-2.43,5.05-4.27a4.22,4.22,0,0,0-2.25-6.22c-2.27-.89-4.88-.32-7.13.37s-4.94,1.28-7,2.53a14.37,14.37,0,0,0-4.61,5,39,39,0,0,0-3.37,7.12c-.87,2.46-.91,5.08-2,7.48a2.58,2.58,0,0,0,.9,3.42,2.52,2.52,0,0,0,3.42-.89Z" transform="translate(-39.86 -188.16)"/><path class="cls-2" d="M119.73,442c5.24,1.29,10.46.16,15.74,0,2.66-.09,5.31,0,8,.1l4.05.15a14.53,14.53,0,0,1,3.52.19l-1.1-.64.17.21-.64-1.1a6.17,6.17,0,0,1,.45,1.63l1.24-2.16c.41-.12.33-.14-.24-.05l-1,.08-1.95.16-3.92.31c-2.62.2-5.23.37-7.85.5s-5.23.22-7.85.24c-1.31,0-2.61,0-3.92,0a12.61,12.61,0,0,1-3.54-.19l1.1.64a1.31,1.31,0,0,1-.3-.77c0-.23.07-.65-.07-.44l-.9.89.25-.14-1.26.35H120l-1.26-.34.21.15a2.51,2.51,0,0,0,3.42-.9,2.55,2.55,0,0,0-.89-3.42c-1.88-1.31-4.22.1-4.68,2.13a7.07,7.07,0,0,0,1.18,5.52c1.41,1.78,3.92,1.47,6,1.52s3.92.05,5.88,0c3.93-.07,7.86-.28,11.78-.55l5.88-.45c2-.16,4.3-.07,6.18-.91a2.39,2.39,0,0,0,1.24-2.16c-.17-1.45-.36-3.19-1.45-4.28s-3.05-.9-4.52-1c-3.15-.11-6.31-.26-9.47-.32a84.08,84.08,0,0,0-9.25.4,27.49,27.49,0,0,1-9.14-.19c-3.12-.77-4.46,4.05-1.33,4.82Z" transform="translate(-39.86 -188.16)"/><path class="cls-2" d="M121,445.21c2,7.53,2.26,15.42,3.29,23.12s2.14,15.4,3.36,23.07c.29,1.83.39,4,2.47,4.74a24.45,24.45,0,0,0,5.92.76,46,46,0,0,0,5.87.12c2-.12,3.77-.88,4.49-2.94.58-1.66.37-3.63.4-5.37q.06-3,.15-5.94c.12-4,.28-7.93.49-11.88.23-4.45.52-8.88.82-13.32.28-4,.18-8.45,1.93-12.15l-4.66-1.26c.72,6.8-.19,13.7-.77,20.49a86.1,86.1,0,0,1-3.85,19.8l4.91.67q.3-10.06.87-20.13c.37-6.53.65-13.05,2.28-19.42a2.53,2.53,0,0,0-3.68-2.82,32.79,32.79,0,0,0-6.18,4.79q-3.24,2.85-6.44,5.74a14.46,14.46,0,0,0-4.43,6.16c-.77,2.25-1,4.64-1.79,6.87s2.57,4.26,4.18,2.43l3.09-3.53-4.27-1.77a15.82,15.82,0,0,1-.91,4.4c-.92,2.67,3.29,4.46,4.57,1.93a5.29,5.29,0,0,1,2.69-2.66l-3.16-2.41.13,7.35c.06,3.26,4.74,3.17,5,0q.63-7.35.68-14.72a2.51,2.51,0,0,0-2.5-2.5c-4.39.44-5.71,4.29-6,8.14l4.91-.66q-1.19-4.95-2.5-9.87c-.75-2.81-1.31-6.39-4.56-7.31a2.54,2.54,0,0,0-3.16,2.41,9.74,9.74,0,0,0,.14,2.85,2.48,2.48,0,0,0,2.75,1.79,2.54,2.54,0,0,0,2.16-2.46l.13-1.19h-5l.13,5.72,4.91-.66-.35-2.43a2.51,2.51,0,0,0-3.07-1.74,2.56,2.56,0,0,0-1.75,3.07l.35,2.42a2.47,2.47,0,0,0,2.74,1.8,2.51,2.51,0,0,0,2.17-2.46l-.13-5.72a2.5,2.5,0,1,0-5,0l-.13,1.19,4.91-.66a5.53,5.53,0,0,1,0-1.52L126.41,450a12.13,12.13,0,0,1,.5,1.71c.36,1.32.71,2.65,1.06,4,.7,2.65,1.37,5.32,2,8,.7,2.9,4.68,2,4.91-.66.05-.6.12-3,1-3.14l-2.5-2.5q0,7.38-.68,14.72h5l-.13-7.35c0-1.48-1.6-3-3.16-2.41a10.43,10.43,0,0,0-5.69,5l4.57,1.92a20.68,20.68,0,0,0,1.09-5.73,2.52,2.52,0,0,0-4.27-1.77l-3.09,3.53,4.18,2.43c.74-2,1-4.08,1.56-6.11.63-2.24,2.05-3.5,3.73-5,1.9-1.71,3.81-3.42,5.73-5.1a28.48,28.48,0,0,1,5.53-4.33l-3.68-2.83c-1.69,6.63-2,13.45-2.42,20.26s-.69,13.74-.9,20.62c-.09,2.91,4,3.26,4.91.66a90.78,90.78,0,0,0,4-20.65c.6-6.94,1.55-14,.81-21a2.62,2.62,0,0,0-1.84-2.42,2.53,2.53,0,0,0-2.82,1.15c-1.68,3.56-2.09,7.35-2.37,11.23-.29,4.11-.57,8.21-.81,12.32-.5,8.33-.77,16.66-.94,25,0,.07,0,1-.06,1s.43-.38.39-.33c.28-.1.28-.13,0-.09h-.44c-1.14,0-2.28,0-3.42,0a26.6,26.6,0,0,1-6.79-.69l1.1.64-.18-.19.65,1.11c-.68-1.65-.71-3.81-1-5.57l-.9-6.09c-.62-4.19-1.25-8.38-1.82-12.58-1.12-8.24-1.33-16.7-3.51-24.76-.84-3.1-5.66-1.78-4.82,1.33Z" transform="translate(-39.86 -188.16)"/><path class="cls-2" d="M129.81,452.51,139.88,451a2.46,2.46,0,0,0,1.79-2.74,2.53,2.53,0,0,0-2.45-2.17l-7.34-.61.66,4.91a17.76,17.76,0,0,1,4.54-.33v-5a60.53,60.53,0,0,1-9.13.36v5a150.76,150.76,0,0,0,16.72-1,2.5,2.5,0,0,0,0-5,47,47,0,0,0-7.12.09l.66,4.91a3.92,3.92,0,0,1,1.2-.3l-.67-4.91c-1.9.28-3.8.61-5.68,1-2.81.57-2.11,4.9.66,4.91,3.52,0,7,.08,10.54.23L143,445.73a61.84,61.84,0,0,1-9.29,3.22,2.51,2.51,0,0,0,.66,4.91h7.37l-.67-4.91a111.37,111.37,0,0,1-15.13,3.27,2.47,2.47,0,0,0-1.79,2.74,2.51,2.51,0,0,0,2.45,2.17,60.84,60.84,0,0,0,8.32-.64l-1.33-4.82-5.67.8,1.33,4.82a32.64,32.64,0,0,1,7.39-.23l-.66-4.91-4.26,1.15c-1.71.46-2.56,2.93-1.1,4.18,2,1.66,4.66,1,7,.78,2.64-.24,5.27-.57,7.89-.95l-1.33-4.82-12.35,2.36,1.33,4.82,7.85-2c3.13-.8,1.81-5.51-1.33-4.82l-11.44,2.52c-2.71.6-2.17,5.12.67,4.91,2.49-.18,5.27-.73,7.76-.36l-1.11-4.17a10.84,10.84,0,0,1-2.05,1.16,2.49,2.49,0,0,0-1.14,2.82,2.56,2.56,0,0,0,2.41,1.83,21.22,21.22,0,0,0,8.29-1.16c2.52-.89,2.32-5.05-.66-4.92a32.11,32.11,0,0,0-9.4,1.82,2.51,2.51,0,0,0,.67,4.91l2.17.07L134.11,458a1.88,1.88,0,0,1-1.42.68l.67,4.91,2.34-.51-2.82-3.67-1.82,3.25c-1.46,2.62,1.8,4.75,3.93,3a45.93,45.93,0,0,0,4.89-4.57l-4.18-2.43a53.63,53.63,0,0,0-1.84,9.56c-.3,2.57-1.39,7.06,2.14,7.91a2.56,2.56,0,0,0,3.08-1.75q1.54-5.15,3.39-10.2l-4.91-.66.85,17a2.52,2.52,0,0,0,4.66,1.26c1.27-2,1.15-4.78,1.37-7.08l.76-7.65a2.47,2.47,0,0,0-2.17-2.45,2.52,2.52,0,0,0-2.74,1.79c-.83,2.33-.53,5.07-.54,7.51l-.05,8h5c-.48-4.29-1-8.58-1.6-12.84-.3-2.07-.64-4.12-1-6.17s-.72-4.13-2.08-5.88-3.64-.47-4.18,1.1a21.81,21.81,0,0,0-1.16,6.6c0,2.28.08,4.51,2.07,5.94,1.17.84,2.7.11,3.42-.9,2.34-3.24,3.09-7.2,3.71-11.07l-4.92-.66.29,12.69a2.49,2.49,0,0,0,2.16,2.45,2.56,2.56,0,0,0,2.75-1.79,7.48,7.48,0,0,0,.2-4.94c-.66-2.3-4.24-2.46-4.82,0a54,54,0,0,0-1.35,15.88l4.65-1.26a1.35,1.35,0,0,1-.3-.84,2.51,2.51,0,0,0-3.07-1.75,2.57,2.57,0,0,0-1.75,3.08l.59,4.17a2.46,2.46,0,0,0,2.74,1.79,2.51,2.51,0,0,0,2.17-2.45l.16-6.15a2.5,2.5,0,0,0-5,0,65.65,65.65,0,0,1-1.51,8.9l4.91.66a43.78,43.78,0,0,1,.39-7l-4.91-.66q.12,3.9.06,7.81c-.05,3.23,4.86,3.2,5,0a26.1,26.1,0,0,0-.11-3.65c-.2-2-2.66-3.48-4.27-1.77a3.79,3.79,0,0,0-1,3.82c.83,2.61,5,2.25,4.91-.66-.08-3.46-.32-6.93-2-10-1.13-2-3.84-1.3-4.56.6a1.81,1.81,0,0,1-.56.61l4.17,1.11-2.41-7.07a2.51,2.51,0,0,0-2.74-1.79,2.55,2.55,0,0,0-2.17,2.45,40.55,40.55,0,0,0-.23,8.46c.22,2.68,4.17,3.54,4.91.66a8.83,8.83,0,0,0-.25-5.52,2.62,2.62,0,0,0-2.42-1.84,2.52,2.52,0,0,0-2.41,1.84l-.35,2.26,4.91.67a10.09,10.09,0,0,0-.71-3.57,2.55,2.55,0,0,0-4.18-1.1,3.66,3.66,0,0,0-1.27,2.89l4.91-.66-1.73-6.6c-.61-2.33-4.25-2.42-4.82,0a8.77,8.77,0,0,0-.23,2.93,2.57,2.57,0,0,0,2.5,2.5,2.52,2.52,0,0,0,2.5-2.5l-.16-1.56a2.5,2.5,0,0,0-5,0,14.85,14.85,0,0,0,.38,4.7c.39,1.69,3,2.6,4.18,1.11a4.56,4.56,0,0,0,1-2h-4.82a98.7,98.7,0,0,1,2.42,11.92,2.48,2.48,0,0,0,2.74,1.79,2.51,2.51,0,0,0,2.17-2.46l0-3.87h-5l.13,3.4a2.51,2.51,0,0,0,2.17,2.46,2.48,2.48,0,0,0,2.74-1.79l.29-1.74-4.91-.67c.09,1.55.13,3.1.14,4.65,0,3,4,3.21,4.91.66l1.25-3.3-4.91-.66a22.12,22.12,0,0,1-.18,4.88,2.58,2.58,0,0,0,1.75,3.08,2.52,2.52,0,0,0,3.07-1.75,63.84,63.84,0,0,1,1.49-6.4l-4.91-.66c-.27,2.17-.64,4.33-1,6.48-.61,3.13,3.87,4.44,4.82,1.33a71.39,71.39,0,0,0,2.06-8.64,2.58,2.58,0,0,0-1.75-3.08,2.53,2.53,0,0,0-3.07,1.75,9.21,9.21,0,0,0-.28,2.91c.19,2.31,3.4,3.6,4.66,1.26l.42-.78-4.66-1.26.31,3a6.57,6.57,0,0,0,.63,2.91,2.84,2.84,0,0,0,3,1.26,7.13,7.13,0,0,0,2.32-1.31l-3.68-1.49c.44,1.45.68,3.15,2.13,4a2.45,2.45,0,0,0,2.52,0l.12-.09a2.5,2.5,0,0,0-2.53-4.32,11.73,11.73,0,0,1-2.18.68c-2.42.56-2.34,4.21,0,4.82,3.2.84,5.61-1.94,5.62-5,0-1.35-.33-2.72-.42-4.08a35.1,35.1,0,0,1,.05-4.81l-4.91.67,1.4,5.82c.42,1.77.86,3.27,2.45,4.34,1.84,1.23,4.26-.81,3.68-2.83q-1.78-6.11-3.13-12.32a2.48,2.48,0,0,0-2.74-1.79,2.56,2.56,0,0,0-2.17,2.45l0,.27.34-1.26-.16.21.9-.9-.25.11a2.52,2.52,0,0,0-.89,3.42,2.56,2.56,0,0,0,3.42.9,3.08,3.08,0,0,0,1.67-2.75l-4.91.67q1.35,6.21,3.12,12.32l3.68-2.82c.57.38.12-.18,0-.62-.17-.73-.35-1.46-.52-2.19l-1-4.36c-.69-2.88-4.7-2-4.91.66a33.69,33.69,0,0,0,0,5.77c.09.9.25,1.8.33,2.7,0,.13,0,.53,0,.64s.39-.15.68-.07v4.82a18.56,18.56,0,0,0,3.38-1.18l-2.53-4.32-.11.09h2.52l-.19-.1.9.89a8,8,0,0,1-.54-1.76,2.52,2.52,0,0,0-3.67-1.5l-.84.58c-.21.14-.81.34-.28.23l1.93.26-.21-.12.9.9c.22.43.09.2.07-.16s-.08-.76-.11-1.14l-.22-2.06a2.59,2.59,0,0,0-1.83-2.41,2.52,2.52,0,0,0-2.82,1.15l-.42.78,4.65,1.26a4.65,4.65,0,0,1,.1-1.58l-4.82-1.33a71.39,71.39,0,0,1-2.06,8.64l4.82,1.33c.5-2.59.9-5.19,1.23-7.81a2.48,2.48,0,0,0-2.17-2.46,2.52,2.52,0,0,0-2.74,1.8,63,63,0,0,0-1.49,6.39l4.82,1.33a28.1,28.1,0,0,0,.36-6.21,2.51,2.51,0,0,0-4.91-.67l-1.25,3.3,4.91.67c0-1.55,0-3.1-.14-4.65a2.51,2.51,0,0,0-2.17-2.45,2.48,2.48,0,0,0-2.74,1.79l-.29,1.74,4.91.66-.13-3.4c-.11-3.2-4.95-3.23-5,0l0,3.87,4.91-.66a98.7,98.7,0,0,0-2.42-11.92c-.61-2.24-4.39-2.51-4.82,0l.24-.2,4.18,1.1a10.59,10.59,0,0,1-.2-3.37h-5l.16,1.56h5a4.53,4.53,0,0,1,.05-1.6H127.9l1.73,6.6c.72,2.73,4.9,2.15,4.91-.67l-.19.64-4.18-1.1a6.22,6.22,0,0,1,.53,2.24,2.51,2.51,0,0,0,2.17,2.45,2.47,2.47,0,0,0,2.74-1.79l.36-2.26h-4.83a4.28,4.28,0,0,1,.26,2.86l4.91.67a40.55,40.55,0,0,1,.23-8.46l-4.91.67,2.41,7.07a2.54,2.54,0,0,0,4.18,1.1,6.84,6.84,0,0,0,1.85-2.82l-4.57.59c1.27,2.29,1.29,4.95,1.35,7.5l4.91-.67-.32,1-4.27-1.76a26.1,26.1,0,0,1,.11,3.65h5q.06-3.92-.06-7.81a2.51,2.51,0,0,0-2.17-2.46,2.47,2.47,0,0,0-2.74,1.79,51.2,51.2,0,0,0-.57,8.29c0,2.76,4.24,3.48,4.91.67A73.73,73.73,0,0,0,143.34,479h-5l-.16,6.15,4.91-.67-.59-4.17-4.82,1.33a5,5,0,0,0,.81,2c1.28,1.91,4.83,1.39,4.66-1.26a49.4,49.4,0,0,1,1.17-14.55H139.5a3,3,0,0,1-.21,2.28l4.92.67-.29-12.69a2.5,2.5,0,0,0-4.91-.67c-.55,3.46-1.1,7-3.19,9.88l3.42-.9-.27-.19.9.9c-.52-.71-.25-2.57-.17-3.5a17,17,0,0,1,.92-4.1l-4.18,1.1a6.21,6.21,0,0,1,.47,2c.2.94.38,1.89.55,2.83.34,1.82.63,3.64.89,5.46.53,3.67.94,7.35,1.35,11a2.57,2.57,0,0,0,2.5,2.5,2.54,2.54,0,0,0,2.5-2.5l.05-7.53c0-2.12-.36-4.63.36-6.66l-4.91-.67-.66,6.69-.33,3.34a4.88,4.88,0,0,1-.46,2.18l4.66,1.26-.85-17a2.51,2.51,0,0,0-4.91-.66q-1.85,5-3.39,10.19l3.07-1.75.17.05.89.9a1.6,1.6,0,0,0,.05.21,4.74,4.74,0,0,1,.06-.75c.05-.62.12-1.24.18-1.86.11-1,.22-2,.36-3.05a44,44,0,0,1,1.48-6.81c.72-2.36-2.49-4.27-4.18-2.44a45.08,45.08,0,0,1-4.89,4.58l3.93,3,1.82-3.26a2.53,2.53,0,0,0-2.83-3.67l-2.34.51c-2.76.59-2.15,5,.66,4.91a7.12,7.12,0,0,0,5-2.14,2.53,2.53,0,0,0-1.77-4.27l-2.17-.07.66,4.91a27.53,27.53,0,0,1,8.07-1.64l-.66-4.91a17.26,17.26,0,0,1-7,1l1.26,4.66a15.35,15.35,0,0,0,3.06-1.94,2.51,2.51,0,0,0-1.1-4.18c-3-.45-6.06,0-9.09.18l.66,4.91L141,457.66l-1.33-4.82-7.85,2c-3.15.81-1.79,5.42,1.33,4.82l12.35-2.36a2.52,2.52,0,0,0,1.75-3.07,2.57,2.57,0,0,0-3.08-1.75c-1.86.27-3.72.49-5.59.68-1,.09-1.94.18-2.9.25l-1.21.09-.73.05c-.55,0-.42.1.38.38l-1.11,4.18,4.26-1.15c2.83-.76,2.06-4.7-.67-4.91a38,38,0,0,0-8.72.41,2.52,2.52,0,0,0-1.74,3.08,2.56,2.56,0,0,0,3.07,1.74l5.67-.8a2.52,2.52,0,0,0,1.75-3.07,2.57,2.57,0,0,0-3.08-1.75,51,51,0,0,1-7,.46l.67,4.91a111.37,111.37,0,0,0,15.13-3.27,2.51,2.51,0,0,0-.66-4.91h-7.37l.67,4.91a71.07,71.07,0,0,0,10.49-3.72c2.38-1.12,1-4.56-1.27-4.66-3.51-.15-7-.22-10.54-.23l.67,4.91c1.88-.38,3.78-.71,5.68-1,2.79-.41,2.13-5-.66-4.92a8.1,8.1,0,0,0-2.53.48,2.53,2.53,0,0,0-1.79,2.74,2.47,2.47,0,0,0,2.46,2.17,47,47,0,0,1,7.12-.09v-5a150.76,150.76,0,0,1-16.72,1c-3.22,0-3.21,4.88,0,5a60.53,60.53,0,0,0,9.13-.36,2.57,2.57,0,0,0,2.5-2.5,2.54,2.54,0,0,0-2.5-2.5,23.66,23.66,0,0,0-5.87.5,2.5,2.5,0,0,0-1.79,2.75,2.53,2.53,0,0,0,2.46,2.17l7.34.61-.67-4.91-10.07,1.48a2.5,2.5,0,0,0-1.75,3.07,2.57,2.57,0,0,0,3.08,1.75Z" transform="translate(-39.86 -188.16)"/><path class="cls-6" d="M122.38,447.14q13.65-.21,27.29-.75c.8,0,.81-1.28,0-1.25q-13.63.54-27.29.75a.63.63,0,0,0,0,1.25Z" transform="translate(-39.86 -188.16)"/><path class="cls-6" d="M142.12,374.74,142,413a.63.63,0,0,0,1.25,0l.17-38.23a.63.63,0,0,0-1.25,0Z" transform="translate(-39.86 -188.16)"/><path class="cls-6" d="M148.55,418.54a131,131,0,0,0-4.46,18.2c-.12.79,1.08,1.13,1.2.33a131,131,0,0,1,4.47-18.2.63.63,0,0,0-1.21-.33Z" transform="translate(-39.86 -188.16)"/><path class="cls-6" d="M130.26,400a20.07,20.07,0,0,1,2.05,8.45c.23,3.14.35,6.29.45,9.43q.31,9.48.09,19a.63.63,0,0,0,1.25,0q.24-10-.12-20c-.11-3.17-.22-6.36-.5-9.53a20,20,0,0,0-2.14-8c-.38-.7-1.46-.07-1.08.63Z" transform="translate(-39.86 -188.16)"/><path class="cls-6" d="M124,423.88a41.73,41.73,0,0,1,4.56,13.79c.11.8,1.32.46,1.2-.33a42.63,42.63,0,0,0-4.68-14.1c-.38-.7-1.46-.07-1.08.64Z" transform="translate(-39.86 -188.16)"/></g><g id="Layer_15" data-name="Layer 15"><path class="cls-12" d="M303.49,354.23c2.59,1.76,5.17,3.54,7.77,5.32q5.58,3.85,11.06,7.69c.94-.42,13-5.8,22.71-9.71a21,21,0,0,1,6.84-1.61,15.57,15.57,0,0,1,7.18,1c3.14,1.31,6.69,4.19,6.25,6.33a1.78,1.78,0,0,1-.85,1.18c-.87.38-2-.54-3.29-1.52a16.36,16.36,0,0,1-2.36-2.28c-3.74,3.69-9.75,8.44-18,10-4.8.89-5.53-.21-14.86-.25-14.47-.06-24.21,2.54-24.91.34-.09-.28-.06-.75.59-1.52-3.67-.68-6.41-3.44-6.75-6.5C294.43,358.64,298.18,354.24,303.49,354.23Z" transform="translate(-39.86 -188.16)"/></g><g id="Layer_5" data-name="Layer 5"><path class="cls-13" d="M361.48,353.38a9.39,9.39,0,0,1,4.77,5.6,8.65,8.65,0,0,1-.08,4.92c-1.14,3.43-4.73,5.89-9.08,6.35,6,1.78,22.77,6.16,34.88.31,4.89-2.37,6.07-5,6.43-6,1.77-4.91-1.81-10.63-4.47-13.16C387.55,345.32,374.52,346.11,361.48,353.38Z" transform="translate(-39.86 -188.16)"/><path class="cls-14" d="M381.68,372.78v-3.27h11.66a13.14,13.14,0,0,0,2.75-3,8.65,8.65,0,0,0,1.78-4.66,9.45,9.45,0,0,0-1.1-4,23,23,0,0,0-1.94-3.78l2.33-.22a14.1,14.1,0,0,1,2.25,3.53,9.93,9.93,0,0,1,1.15,4.75,9.2,9.2,0,0,1-1.83,5,9.78,9.78,0,0,1-2.2,2.2l18.67,0c.11,1.52.22,3,.34,4.55Z" transform="translate(-39.86 -188.16)"/><path class="cls-15" d="M489.22,298.06a6.62,6.62,0,0,1,1-1l-.5.39a5.89,5.89,0,0,1,1.31-.76l-.6.25a4,4,0,0,1,1-.3l-.66.08h.27l-.66-.09.2.05-.6-.25a.5.5,0,0,1,.12.08l-.5-.39.1.09-.39-.5s.06.1.09.15l-.25-.6a1,1,0,0,1,.06.23l-.09-.66a1.41,1.41,0,0,1,0,.29l.09-.66c0,.1-.05.19-.08.29l.25-.6a1.59,1.59,0,0,1-.13.22l.39-.51a1.26,1.26,0,0,1-.2.2l.51-.4a1.68,1.68,0,0,1-.34.2l.6-.25a3.53,3.53,0,0,1-.85.21l.67-.09c-1,.12-2,.2-3,.3a1.88,1.88,0,0,0-1,.22,1.77,1.77,0,0,0-.8.52,2.53,2.53,0,0,0-.74,1.76,2.5,2.5,0,0,0,.74,1.77A2.4,2.4,0,0,0,487,299l2.83-.28a6.46,6.46,0,0,0,1.68-.31,4.42,4.42,0,0,0,1.47-.85,3.25,3.25,0,0,0,.66-.81,3.41,3.41,0,0,0-1.05-4.62c-1.44-.86-3.09-.32-4.46.37a8.76,8.76,0,0,0-1.52,1.05,6.1,6.1,0,0,0-.95.95,1.82,1.82,0,0,0-.52.8,1.8,1.8,0,0,0-.21,1,2.57,2.57,0,0,0,.73,1.77,2.53,2.53,0,0,0,1.77.73,2.45,2.45,0,0,0,1.76-.73Z" transform="translate(-39.86 -188.16)"/><path class="cls-15" d="M485.64,299.13a6.73,6.73,0,0,0-1.28-3.85,9.16,9.16,0,0,0-.79-1,7.48,7.48,0,0,0-1-.83,4.57,4.57,0,0,0-1.78-.81,4,4,0,0,0-1.84,0,3.17,3.17,0,0,0-1.7,1.14,3.37,3.37,0,0,0-.71,2,5.38,5.38,0,0,0,.17,1.38,7,7,0,0,0,1.88,3.35,6.71,6.71,0,0,0,1.71,1.28,6.38,6.38,0,0,0,2,.71,2,2,0,0,0,1,0,1.8,1.8,0,0,0,.92-.3,2.5,2.5,0,0,0,.9-3.42,2.42,2.42,0,0,0-1.49-1.15,4.31,4.31,0,0,1-1.12-.3l.6.25a4.81,4.81,0,0,1-1-.58l.51.39a5.34,5.34,0,0,1-.92-.92l.39.5a4.74,4.74,0,0,1-.58-1l.25.6a4.33,4.33,0,0,1-.31-1.12l.09.67a2.27,2.27,0,0,1,0-.45l-.09.66a.83.83,0,0,1,.06-.21l-.26.59a1.74,1.74,0,0,1,.11-.18l-.39.51a.74.74,0,0,1,.13-.12l-.51.39.16-.09-.6.26.18-.05-.67.09a1.27,1.27,0,0,1,.39,0l-.66-.09a2.42,2.42,0,0,1,.51.14l-.6-.25a3.84,3.84,0,0,1,.85.51l-.5-.39a4.78,4.78,0,0,1,.81.81l-.39-.51a5.46,5.46,0,0,1,.58,1l-.26-.6a4.3,4.3,0,0,1,.31,1.1l-.08-.66c0,.17,0,.33,0,.5a2.57,2.57,0,0,0,.73,1.77,2.5,2.5,0,0,0,3.53,0,2.56,2.56,0,0,0,.74-1.77Z" transform="translate(-39.86 -188.16)"/><path class="cls-15" d="M485.32,314.52c.22-.19.44-.38.67-.55l-.51.39a8,8,0,0,1,1.69-1l-.6.25a5.58,5.58,0,0,1,1.27-.36l-.66.09a4.43,4.43,0,0,1,1.15,0l-.67-.09a3.81,3.81,0,0,1,1,.28l-.59-.25a3.29,3.29,0,0,1,.7.41l-.5-.39a3.45,3.45,0,0,1,.5.51l-.39-.51a3.15,3.15,0,0,1,.3.5l-.25-.6a2.62,2.62,0,0,1,.13.48l-.09-.66v.25l.09-.67a1.47,1.47,0,0,1-.08.3l.26-.6a1.78,1.78,0,0,1-.17.3l.39-.51a3,3,0,0,1-.25.25l.51-.39a2.82,2.82,0,0,1-.48.27l.6-.25a5.48,5.48,0,0,1-1.44.33l.66-.09a9,9,0,0,1-2.37.08l.67.09a4.2,4.2,0,0,1-1-.26l.6.25a3.51,3.51,0,0,1-.6-.33,2.5,2.5,0,0,0-2.53,4.32,7.09,7.09,0,0,0,4.64.93c1.57-.16,3.37-.37,4.5-1.63a3.75,3.75,0,0,0,.84-3.61,5,5,0,0,0-1.76-2.48,6.28,6.28,0,0,0-4.71-1.19,9.88,9.88,0,0,0-5,2.61,2.52,2.52,0,0,0,0,3.54,2.56,2.56,0,0,0,3.53,0Z" transform="translate(-39.86 -188.16)"/><path class="cls-15" d="M482.65,312.87c-.86-1-1.76-2-2.59-3l.39.5a2.4,2.4,0,0,1-.31-.51l.25.6a1.49,1.49,0,0,1-.09-.3l.09.67a.89.89,0,0,1,0-.23l-.09.66a.19.19,0,0,1,0-.1l-.26.59a1.19,1.19,0,0,1,.09-.15l-.39.51a.49.49,0,0,1,.13-.12l-.51.39a.33.33,0,0,1,.1-.06l-.6.25.16,0-.67.09h.23l-.66-.08a1,1,0,0,1,.29.08l-.6-.25a2.26,2.26,0,0,1,.56.34l-.5-.39a6.53,6.53,0,0,1,1.17,1.12l-.39-.5a3.22,3.22,0,0,1,.34.56l-.25-.59a2.63,2.63,0,0,1,.14.5l-.09-.67v.07a1.84,1.84,0,0,0,.22,1,1.93,1.93,0,0,0,.51.81,2.57,2.57,0,0,0,1.77.73,2.53,2.53,0,0,0,1.77-.73,2.42,2.42,0,0,0,.73-1.77,5.54,5.54,0,0,0-.18-1.08,6.18,6.18,0,0,0-.43-1,5.9,5.9,0,0,0-1-1.25,10.4,10.4,0,0,0-.79-.7,5,5,0,0,0-1.84-1.05,4.41,4.41,0,0,0-.81-.13h-.2a3,3,0,0,0-1.8.63,2.77,2.77,0,0,0-.85,1,3.19,3.19,0,0,0-.37,1.57,3.76,3.76,0,0,0,.68,2c.36.49.75.94,1.15,1.4l1.89,2.23a2.51,2.51,0,0,0,3.54,0,2.51,2.51,0,0,0,.73-1.77l-.09-.66a2.48,2.48,0,0,0-.64-1.11Z" transform="translate(-39.86 -188.16)"/><path class="cls-15" d="M481.05,325.14a11.34,11.34,0,0,0-.34-1.83,10.54,10.54,0,0,0-.7-1.74,6.68,6.68,0,0,0-.65-1.09,12.53,12.53,0,0,0-1.19-1.43,2.53,2.53,0,0,0-2.44-.64,2.48,2.48,0,0,0-1.74,1.74,7.81,7.81,0,0,0-.2,1.27c0,.2,0,.41,0,.61a6.48,6.48,0,0,0,.38,1.89,10.09,10.09,0,0,0,.5,1.12,8.61,8.61,0,0,0,.72,1,5.82,5.82,0,0,0,1.43,1.23,2.6,2.6,0,0,0,1.93.25,2.56,2.56,0,0,0,1.49-1.15,2.5,2.5,0,0,0,.25-1.93,2.7,2.7,0,0,0-1.15-1.49c-.08-.06-.17-.11-.25-.18l.51.4a4.5,4.5,0,0,1-.69-.69l.39.5a4.09,4.09,0,0,1-.53-.9l.25.6a4.27,4.27,0,0,1-.29-1.06l.09.66a4,4,0,0,1,0-1l-.08.66a3.1,3.1,0,0,1,.08-.42l-4.18,1.1a9.4,9.4,0,0,1,.66.74l-.4-.51a7.06,7.06,0,0,1,1,1.7l-.25-.6a7.68,7.68,0,0,1,.5,1.82l-.09-.66v.07a1.88,1.88,0,0,0,.22,1,1.93,1.93,0,0,0,.51.81,2.57,2.57,0,0,0,1.77.73,2.53,2.53,0,0,0,1.77-.73,2.44,2.44,0,0,0,.73-1.77Z" transform="translate(-39.86 -188.16)"/><path class="cls-15" d="M482.53,334.59l1.84-1.15a13.55,13.55,0,0,1,1.76-1l-.6.25a2.57,2.57,0,0,1,.54-.16l-.66.09a1.88,1.88,0,0,1,.41,0l-.66-.09a1.65,1.65,0,0,1,.36.11l-.6-.26.26.15-.5-.39a1.34,1.34,0,0,1,.2.21l-.39-.51a1.74,1.74,0,0,1,.11.18l-.25-.6a.83.83,0,0,1,.06.21l-.09-.66a1.13,1.13,0,0,1,0,.26l.09-.67a1.2,1.2,0,0,1-.08.27l.26-.59a3.16,3.16,0,0,1-.35.59l.39-.5a3.65,3.65,0,0,1-.52.52l.51-.39a4,4,0,0,1-.75.44l.6-.25a4.19,4.19,0,0,1-1,.27l.67-.09a4.35,4.35,0,0,1-1,0l.67.09a4,4,0,0,1-.84-.23l.6.25a3.14,3.14,0,0,1-.64-.37l.51.39a2.75,2.75,0,0,1-.26-.22,2.59,2.59,0,0,0-1.77-.73,2.51,2.51,0,0,0-2.5,2.5,2.56,2.56,0,0,0,.74,1.77,5.91,5.91,0,0,0,3.76,1.58,6.1,6.1,0,0,0,3.46-.89,4.58,4.58,0,0,0,2.36-4.67,3.27,3.27,0,0,0-.86-1.55,4.13,4.13,0,0,0-1.52-.94,3.84,3.84,0,0,0-2.65.07,13.72,13.72,0,0,0-2.26,1.23L480,330.28a2.62,2.62,0,0,0-1.14,1.49,2.5,2.5,0,0,0,.25,1.93,2.48,2.48,0,0,0,3.42.89Z" transform="translate(-39.86 -188.16)"/><path class="cls-15" d="M470.74,337.54c.33-.82.66-1.64,1-2.45l-.25.6a1.74,1.74,0,0,1,.18-.33l-.39.5.11-.11-.51.39.13-.07-.6.25.09,0-.66.09h.1l-.67-.09.09,0-.59-.25.12.06-.51-.39.1.11-.39-.51a.94.94,0,0,1,.12.22L468,335a1.5,1.5,0,0,1,.09.35l-.09-.66a2.58,2.58,0,0,1,0,.68l.09-.66a2.81,2.81,0,0,1-.2.7l.25-.59a3.43,3.43,0,0,1-.37.64l.39-.51a3.3,3.3,0,0,1-.56.56l.5-.39a3.16,3.16,0,0,1-.59.35l.6-.26a3.07,3.07,0,0,1-.61.18l.67-.09H468a2,2,0,0,0-1,.21,1.85,1.85,0,0,0-.8.52,2.49,2.49,0,0,0,0,3.54,2.4,2.4,0,0,0,1.76.73,6.91,6.91,0,0,0,1-.16,5.76,5.76,0,0,0,1-.39,5.43,5.43,0,0,0,2.73-3.31,4.6,4.6,0,0,0-.3-3.49,3.25,3.25,0,0,0-1.09-1.12,2.7,2.7,0,0,0-.72-.31,3.31,3.31,0,0,0-.83-.1,3.08,3.08,0,0,0-2.63,1.69c-.28.58-.5,1.2-.74,1.8l-.55,1.34a1.89,1.89,0,0,0,0,1,1.78,1.78,0,0,0,.29.92,2.54,2.54,0,0,0,1.5,1.15,2.47,2.47,0,0,0,1.92-.25l.51-.39a2.5,2.5,0,0,0,.64-1.1Z" transform="translate(-39.86 -188.16)"/><path class="cls-15" d="M470.11,340.07l.07-.05-.51.39a1.69,1.69,0,0,1,.29-.17l-.6.25.36-.09-.66.09a2.34,2.34,0,0,1,.46,0l-.67-.08a2,2,0,0,1,.5.13l-.6-.25a2,2,0,0,1,.45.26l-.5-.39a3,3,0,0,1,.35.36l-.39-.51a3.33,3.33,0,0,1,.33.58l-.25-.59a4,4,0,0,1,.26,1l-.09-.66a5,5,0,0,1,0,.53l1.83-2.41h0l.66-.09a2.66,2.66,0,0,1-.69,0l.66.09a3,3,0,0,1-.71-.2l.6.25a3.09,3.09,0,0,1-.64-.36l.51.39a2.84,2.84,0,0,1-.49-.49l.39.51-.11-.15a1.91,1.91,0,0,0-.64-.71,2.33,2.33,0,0,0-1.85-.49,2,2,0,0,0-.93.3,2.48,2.48,0,0,0-1.15,1.49,2.55,2.55,0,0,0,.25,1.93,4.75,4.75,0,0,0,.92,1.08,5.06,5.06,0,0,0,1.17.8,5,5,0,0,0,1.33.46,7,7,0,0,0,1,.12,9.35,9.35,0,0,0,1.05-.11l.6-.26a1.87,1.87,0,0,0,.7-.64,1.33,1.33,0,0,0,.32-.55,1.9,1.9,0,0,0,.22-1,10,10,0,0,0-.16-1.34,3.55,3.55,0,0,0-.19-.71,5.84,5.84,0,0,0-.55-1.19,4.9,4.9,0,0,0-.83-1,6.7,6.7,0,0,0-.72-.53,5.64,5.64,0,0,0-.87-.39,4.44,4.44,0,0,0-1.25-.22h-.29a4.47,4.47,0,0,0-1,.15,4.13,4.13,0,0,0-1.57.91,1.77,1.77,0,0,0-.52.8,2.23,2.23,0,0,0,0,1.93,1.77,1.77,0,0,0,.52.8,2.49,2.49,0,0,0,1.76.74l.67-.09a2.52,2.52,0,0,0,1.1-.65Z" transform="translate(-39.86 -188.16)"/><path class="cls-15" d="M466,334.08a2.61,2.61,0,0,1-.52-.53l.39.5a23.55,23.55,0,0,0-1.74-2.6,5.17,5.17,0,0,0-1.94-1.21,4,4,0,0,0-2.25-.1,2.69,2.69,0,0,0-1,.43,4.14,4.14,0,0,0-.66.53,3.87,3.87,0,0,0-.54.72,3.79,3.79,0,0,0-.3,2.91,7.33,7.33,0,0,0,2.1,3.13,6.55,6.55,0,0,0,1.7,1.25,4.61,4.61,0,0,0,1.19.44,5,5,0,0,0,2,0,2.52,2.52,0,0,0,1.49-1.15,2.55,2.55,0,0,0,.25-1.93A2.52,2.52,0,0,0,465,335l-.59-.25a2.5,2.5,0,0,0-1.33,0l-.13,0,.66-.09a3.23,3.23,0,0,1-.44,0l.67.09a2.64,2.64,0,0,1-.61-.17l.6.25a4,4,0,0,1-.79-.48l.51.39a8,8,0,0,1-1.32-1.34l.39.51a4.69,4.69,0,0,1-.52-.86l.25.6a2.31,2.31,0,0,1-.15-.53l.09.67a1.37,1.37,0,0,1,0-.35l-.09.67a1.28,1.28,0,0,1,.07-.28l-.25.6a1,1,0,0,1,.16-.25l-.39.5a1,1,0,0,1,.18-.18l-.5.39.21-.12-.6.25a1.53,1.53,0,0,1,.29-.07l-.67.09h.36l-.67-.09a2.38,2.38,0,0,1,.52.15l-.6-.26a2.65,2.65,0,0,1,.54.32l-.51-.39a2.56,2.56,0,0,1,.44.43l-.4-.51c.72,1,1.11,2.17,2.09,2.94a1.83,1.83,0,0,0,.8.51,1.88,1.88,0,0,0,1,.22,2.49,2.49,0,0,0,2.5-2.5,2.38,2.38,0,0,0-.73-1.77Z" transform="translate(-39.86 -188.16)"/><path class="cls-15" d="M466.36,321.58l-.09-.19.25.6a3.46,3.46,0,0,1-.19-.7l.09.66a2.89,2.89,0,0,1,0-.83l-.09.67a3.17,3.17,0,0,1,.22-.8l-.25.6a3,3,0,0,1,.36-.62l-.39.5.14-.16-4.18-1.1a5.14,5.14,0,0,1,.21.86l-.09-.66a4.74,4.74,0,0,1,0,1.19l.09-.67a4.93,4.93,0,0,1-.31,1.14l.25-.59-.15.32a2.6,2.6,0,0,0-.25,1.93,2.54,2.54,0,0,0,1.14,1.49,2.51,2.51,0,0,0,1.93.25,2.46,2.46,0,0,0,1.49-1.15,6.73,6.73,0,0,0,.58-1.42,7.38,7.38,0,0,0,.25-1.54,5,5,0,0,0,0-.95,8,8,0,0,0-.3-1.53,2.5,2.5,0,0,0-4.18-1.1A5.13,5.13,0,0,0,462,319a7,7,0,0,0-.4,1,7.27,7.27,0,0,0-.14.79,6.65,6.65,0,0,0-.07.78,7.62,7.62,0,0,0,.12,1.07,5.12,5.12,0,0,0,.53,1.46,1.88,1.88,0,0,0,.64.7,2,2,0,0,0,.85.45,1.89,1.89,0,0,0,1,0,1.85,1.85,0,0,0,.93-.29,2.58,2.58,0,0,0,1.15-1.5l.09-.66a2.53,2.53,0,0,0-.34-1.26Z" transform="translate(-39.86 -188.16)"/><path class="cls-15" d="M463.71,320.9l-1.91-.63c-.6-.2-1.22-.37-1.81-.61l.6.25a1.08,1.08,0,0,1-.3-.16l.51.39a.54.54,0,0,1-.15-.15l.39.51a.41.41,0,0,1-.05-.09l.25.59,0-.1.09.67a.49.49,0,0,1,0-.17l-.09.66a.38.38,0,0,1,0-.1l-.25.6a.46.46,0,0,1,.09-.15l-.39.51a1.36,1.36,0,0,1,.12-.12l-.5.39a.71.71,0,0,1,.15-.08l-.6.25.17-.05-.66.09h.19l-.66-.09a1,1,0,0,1,.33.09l-.6-.26a2.66,2.66,0,0,1,.53.34l-.5-.4a6,6,0,0,1,1,1l-.39-.51a5.83,5.83,0,0,1,.64,1.07,2.59,2.59,0,0,0,1.5,1.15,2.53,2.53,0,0,0,1.92-.26,2.46,2.46,0,0,0,1.15-1.49l.09-.67a2.43,2.43,0,0,0-.34-1.26,5.67,5.67,0,0,0-.5-.86,9,9,0,0,0-1-1.22,8.32,8.32,0,0,0-1.22-1,4.76,4.76,0,0,0-1-.45,3.38,3.38,0,0,0-1.1-.17,3.32,3.32,0,0,0-2.68,1.52,3,3,0,0,0-.45,1.52,3.22,3.22,0,0,0,.4,1.55c.63,1.15,1.92,1.49,3.06,1.87l2.63.88a2.51,2.51,0,0,0,2.83-3.68,2.82,2.82,0,0,0-1.5-1.15Z" transform="translate(-39.86 -188.16)"/><path class="cls-15" d="M503.12,322.4a13.57,13.57,0,0,1-.42-1.89l.08.66a5.65,5.65,0,0,1,0-1.3l-.09.66a4.27,4.27,0,0,1,.27-1l-.25.59a3.3,3.3,0,0,1,.39-.65l-.39.5a2.65,2.65,0,0,1,.41-.41l-.5.39a1.2,1.2,0,0,1,.34-.21l-.6.25a.9.9,0,0,1,.22-.06l-.66.09h.14l-.66-.09a.31.31,0,0,1,.13,0l-.6-.25.06,0-.5-.39,0,0-.39-.5a.35.35,0,0,1,.08.13l-.25-.6a.75.75,0,0,1,0,.16l-.09-.67a10,10,0,0,1-.11,2l.08-.67a6.89,6.89,0,0,1-.45,1.8l.25-.6a4,4,0,0,1-.51.88l.39-.5a3.94,3.94,0,0,1-.5.5l.5-.39a2.84,2.84,0,0,1-.5.32,2.48,2.48,0,0,0-1.14,1.49,2.5,2.5,0,0,0,.25,1.93,2.53,2.53,0,0,0,1.49,1.15,2.76,2.76,0,0,0,1.93-.26A5.42,5.42,0,0,0,504,323a8.59,8.59,0,0,0,.6-1.77,15.54,15.54,0,0,0,.26-1.92,8.58,8.58,0,0,0,.05-1.34,3,3,0,0,0-1.16-2.29,3,3,0,0,0-2.52-.52A4,4,0,0,0,499,316.7a5.52,5.52,0,0,0-1,2,9.64,9.64,0,0,0,.35,5,2.49,2.49,0,0,0,1.15,1.49,2.53,2.53,0,0,0,1.92.26,2.56,2.56,0,0,0,1.75-3.08Z" transform="translate(-39.86 -188.16)"/><path class="cls-15" d="M502.8,325.63l.21-.28-.39.51a4.86,4.86,0,0,1,.78-.79l-.5.39a3.1,3.1,0,0,1,.7-.42l-.6.25a2.41,2.41,0,0,1,.65-.18l-.67.08a3.13,3.13,0,0,1,.53,0l-.67-.09a2.83,2.83,0,0,1,.5.13l-.6-.25a2.5,2.5,0,0,1,.5.29l-.51-.39a2.45,2.45,0,0,1,.36.36l-.39-.51a2.77,2.77,0,0,1,.22.37l-.26-.6a1.4,1.4,0,0,1,.11.4l-.09-.66a1.5,1.5,0,0,1,0,.3l.09-.66a2,2,0,0,1-.09.35l.25-.59a1.92,1.92,0,0,1-.18.31l.39-.51a2.13,2.13,0,0,1-.3.3l.51-.39a2.87,2.87,0,0,1-.48.28l.6-.26a2.67,2.67,0,0,1-.6.16l.66-.09a2.91,2.91,0,0,1-.66,0l.67.09a5.49,5.49,0,0,1-1.43-.43l.6.26-.46-.2a2.73,2.73,0,0,0-1.92-.25,2.56,2.56,0,0,0-1.5,1.14,2.51,2.51,0,0,0-.25,1.93,2.41,2.41,0,0,0,1.15,1.49,13.1,13.1,0,0,0,1.91.76,7.47,7.47,0,0,0,1.31.22,5.15,5.15,0,0,0,1.24-.1,3.91,3.91,0,0,0,1.59-.61,4.66,4.66,0,0,0,.84-.7,4.13,4.13,0,0,0,.88-1.48,3.56,3.56,0,0,0,0-2.28,4.25,4.25,0,0,0-.44-1,4.66,4.66,0,0,0-.75-.91,4.71,4.71,0,0,0-2-1.09,4.65,4.65,0,0,0-2.37.07,6.59,6.59,0,0,0-3.47,2.74,2.5,2.5,0,0,0,2.82,3.67l.6-.25a2.48,2.48,0,0,0,.89-.9Z" transform="translate(-39.86 -188.16)"/><path class="cls-15" d="M496.44,327.32c-.09-.05-.17-.12-.26-.18l.51.39a4.25,4.25,0,0,1-.67-.67l.4.5a3.82,3.82,0,0,1-.51-.87l.25.59a4.14,4.14,0,0,1-.28-1l.09.66a3.8,3.8,0,0,1,0-1l-.09.67a2.66,2.66,0,0,1,.12-.56l-3.68,1.49.21.15-.51-.39a3.64,3.64,0,0,1,.65.65l-.39-.5a4,4,0,0,1,.5.85l-.25-.6a4.54,4.54,0,0,1,.29,1.08l-.09-.67a4.1,4.1,0,0,1,0,1l.09-.66a3.49,3.49,0,0,1-.2.77,2.52,2.52,0,0,0,1.75,3.08,2.55,2.55,0,0,0,1.93-.25l.5-.39a2.44,2.44,0,0,0,.64-1.11,5.55,5.55,0,0,0,.32-1.93,8.68,8.68,0,0,0-.13-1.25,3.84,3.84,0,0,0-.16-.67,6.36,6.36,0,0,0-.83-1.72,8.24,8.24,0,0,0-.8-1,7.3,7.3,0,0,0-1-.77,2.41,2.41,0,0,0-2.23-.13,2.48,2.48,0,0,0-1.44,1.62,5.92,5.92,0,0,0-.24,1.92,6.3,6.3,0,0,0,.34,1.87,9.13,9.13,0,0,0,.49,1.11,6.6,6.6,0,0,0,.72,1,5.9,5.9,0,0,0,1.43,1.25,2.48,2.48,0,0,0,1.92.25,2.58,2.58,0,0,0,1.5-1.15,2.53,2.53,0,0,0,.25-1.92,2.73,2.73,0,0,0-1.15-1.5Z" transform="translate(-39.86 -188.16)"/><path class="cls-15" d="M499.53,340.25a7.19,7.19,0,0,1,.59-.51l-.51.4a7,7,0,0,1,1.63-.94l-.6.25a7.66,7.66,0,0,1,1.82-.49l-.67.09a5.58,5.58,0,0,1,1.08,0l-.67-.09a1.8,1.8,0,0,1,.4.1l-.6-.25a.59.59,0,0,1,.17.1l-.5-.39.17.16-.39-.5a2,2,0,0,1,.11.2l-.25-.59a1.42,1.42,0,0,1,.05.22l-.09-.66a1.82,1.82,0,0,1,0,.33l.09-.67a1.68,1.68,0,0,1-.09.32l.25-.59a1.31,1.31,0,0,1-.21.36l.39-.5-.17.17.5-.39a2,2,0,0,1-.44.26l.6-.25a3.15,3.15,0,0,1-.8.21l.67-.09a19.23,19.23,0,0,1-4.61-.15l.67.09-.77-.11a2.7,2.7,0,0,0-1.93.25,2.54,2.54,0,0,0-1.14,1.49,2.5,2.5,0,0,0,.25,1.93,2.46,2.46,0,0,0,1.49,1.15,28.23,28.23,0,0,0,4.4.4,14.72,14.72,0,0,0,2.3-.14,4.56,4.56,0,0,0,2.34-1.11,3.72,3.72,0,0,0,.21-5.28c-1.32-1.32-3.48-1.1-5.12-.65a9.89,9.89,0,0,0-4.16,2.37,2.5,2.5,0,1,0,3.54,3.54Z" transform="translate(-39.86 -188.16)"/><path class="cls-16" d="M404.21,252.86a26,26,0,0,1,8.24-4.17,27.76,27.76,0,0,1,10.28-.93c2.9.27,5,.47,7.23,2a11.61,11.61,0,0,1,4.26,5.18c1.38,3.47,0,7.35-2.87,15.1a41.12,41.12,0,0,1-5.28,9.08,4.57,4.57,0,0,1-2,1.76c-1.28.52-3.18.43-6.67-1.85-2.09-1.37-4.68-3.49-10.1-11-4.39-6.12-5-8-4.91-10.1A10,10,0,0,1,404.21,252.86Z" transform="translate(-39.86 -188.16)"/><ellipse class="cls-17" cx="414.24" cy="266.62" rx="7.96" ry="16.96" transform="translate(-117.36 107.92) rotate(-36.2)"/><ellipse class="cls-18" cx="417.32" cy="264.36" rx="4.02" ry="8.92" transform="translate(-112.51 139.22) rotate(-39.68)"/><polygon class="cls-19" points="297.92 106.9 389.02 106.03 379.96 167.22 287.49 167.22 297.92 106.9"/><polygon class="cls-14" points="389.02 106.03 392.81 108.36 383.53 167.22 379.96 167.22 389.02 106.03"/><path class="cls-13" d="M290.1,369.2l91.58.31v3.27h-92Z" transform="translate(-39.86 -188.16)"/></g><g id="Layer_6" data-name="Layer 6"><polygon class="cls-20" points="300.77 109.16 384.67 108.51 375.89 163.26 291.87 164.19 300.77 109.16"/><path class="cls-20" d="M363.31,355.79l32.29-.41a8.29,8.29,0,0,1,2.55,6.67,7.38,7.38,0,0,1-1.66,3.74l-29.94-5.34a8.26,8.26,0,0,0-.9-2.18A8.06,8.06,0,0,0,363.31,355.79Z" transform="translate(-39.86 -188.16)"/></g><g id="Layer_3" data-name="Layer 3"><path class="cls-21" d="M460.91,351.41l1.52-.81H491.9a2.93,2.93,0,0,1,1.52,1,3.41,3.41,0,0,1,.47,2.34c-.95,9.82-.75,9.85-1.4,11.69-1.34,3.73-2.34,6.54-5,8.78-5.69,4.72-15.46,4.08-19.89-.47a16,16,0,0,1-2.45-3.86,34.38,34.38,0,0,1-3.4-10.65A50.58,50.58,0,0,1,460.91,351.41Z" transform="translate(-39.86 -188.16)"/></g><g id="Layer_4" data-name="Layer 4"><path class="cls-22" d="M432.12,372.53a92.22,92.22,0,0,0,17.57,1l17.84-.27c3.22-.05,3.23-5.05,0-5l-17.35.27a89.18,89.18,0,0,1-16.73-.85,2.56,2.56,0,0,0-3.07,1.74,2.53,2.53,0,0,0,1.74,3.08Z" transform="translate(-39.86 -188.16)"/><path class="cls-22" d="M451.66,369c4-16.06,8-32.1,11.87-48.17a119.22,119.22,0,0,0,2-13c.1-.79-1.15-.79-1.25,0a118.22,118.22,0,0,1-1.78,11.84c-.9,3.86-1.89,7.7-2.84,11.54L453.83,355l-3.38,13.68c-.19.79,1,1.12,1.21.34Z" transform="translate(-39.86 -188.16)"/><path class="cls-22" d="M432.23,265.5a130.11,130.11,0,0,1,10.28,12c1.36,1.78,2.49,3.69,3.89,5.44,3.77,4.76,7.63,9.45,11.42,14.19,2.5,3.12,5.93,6.52,6.46,10.62.1.78,1.35.79,1.25,0-.5-3.82-3.07-6.77-5.37-9.68q-3-3.78-6.05-7.53c-2-2.44-3.95-4.88-5.91-7.33-1.32-1.65-2.44-3.33-3.66-5.05a110.7,110.7,0,0,0-11.43-13.5c-.56-.58-1.44.31-.88.88Z" transform="translate(-39.86 -188.16)"/><line class="cls-23" x1="448.37" y1="90.07" x2="436.46" y2="162.43"/><line class="cls-23" x1="460.61" y1="134.82" x2="448.37" y2="162.43"/><line class="cls-23" x1="428.74" y1="162.43" x2="423.75" y2="134.82"/><path class="cls-15" d="M491.58,278.35a16,16,0,0,0,3.77-4.41,13,13,0,0,0,1.28-2.91,6.85,6.85,0,0,0,.26-1.86,6.16,6.16,0,0,0-.58-2.34,2.46,2.46,0,0,0-2.16-1.23,4.56,4.56,0,0,0-4.21,2.79c-.32.67-.58,1.37-.85,2.05s-.5,1.2-.69,1.81c-.62,2-.3,4.68,2,5.37,1.74.52,3.32-.56,4.49-1.73a10.35,10.35,0,0,0,2.08-3,7.77,7.77,0,0,0,.85-4.5,3.88,3.88,0,0,0-3.82-3,4.94,4.94,0,0,0-4,2.31,16.49,16.49,0,0,0-1.88,3.87,21.77,21.77,0,0,0-1.07,4.05,2.68,2.68,0,0,0,.26,1.92,2.49,2.49,0,0,0,1.49,1.15,2.53,2.53,0,0,0,3.08-1.74,20.24,20.24,0,0,1,.53-2.43c.11-.39.24-.79.37-1.18.07-.2.14-.39.22-.58a2.49,2.49,0,0,1,.11-.29l-.07.17c.21-.34.34-.77.52-1.13a9,9,0,0,1,.53-1l.15-.22c-.26.33-.31.4-.15.2a3.06,3.06,0,0,0,.36-.36c-.34.25-.41.31-.19.16l.22-.12q-.66.25-.3.15l.21,0-.67.09a2.35,2.35,0,0,1,.53,0l-.67-.09c.1,0,.21.06.31.07-.44-.2-.54-.24-.32-.13s.12.07-.09-.08-.23-.18-.1-.06c-.27-.38-.35-.48-.25-.31s.05.05-.14-.37a2.16,2.16,0,0,1,0,.27l-.09-.67a3.37,3.37,0,0,1,0,.55l.09-.67a9.19,9.19,0,0,1-.43,1.66c-.16.47.26-.55.05-.11l-.17.36c-.13.25-.28.5-.43.74s-.16.21-.23.32-.05.08.19-.24l-.16.2a6,6,0,0,1-.54.58c-.19.19-.41.34-.6.52l.2-.15-.11.07q-.34.18.24-.09l-.24.06.67-.09a1,1,0,0,1-.24,0l.67.09.79.47a1.29,1.29,0,0,1,.33.5c.17.38.05.06,0-.05l.09.66a3.22,3.22,0,0,1,0-.76l-.09.67a15.56,15.56,0,0,1,1.06-3l.12-.31c.07-.18.31-.55,0,.06.11-.19.19-.4.3-.59.24-.39-.09,0-.1.1,0-.06.42-.37,0-.09s0,0,.09,0l-.35.14a1,1,0,0,1,.25-.06l-.66.09a1.7,1.7,0,0,1,.39,0L492,269.36c-.3-.72-.08-.13-.05.07l-.09-.67a3.57,3.57,0,0,1,0,1l.09-.67a6.22,6.22,0,0,1-.27,1.05c0,.06,0,.13-.07.2-.1.25-.07.18.09-.2a4.59,4.59,0,0,0-.24.5,12.16,12.16,0,0,1-1,1.67c-.09.14-.18.27-.28.4-.35.48.32-.38,0,0s-.41.5-.63.74a15.58,15.58,0,0,1-1.53,1.4,2.49,2.49,0,0,0-.73,1.77,2.49,2.49,0,0,0,2.5,2.5,2.94,2.94,0,0,0,1.77-.73Z" transform="translate(-39.86 -188.16)"/><path class="cls-15" d="M484.32,270.45l-.42-.35a3.21,3.21,0,0,0-1.1-.64,2.47,2.47,0,0,0-1.63.13,2.29,2.29,0,0,0-1,.77,2.72,2.72,0,0,0-.54,1.51,3.86,3.86,0,0,0,0,.68,5.54,5.54,0,0,0,1.44,3.36,3.92,3.92,0,0,0,.45.46,6.57,6.57,0,0,0,1,.73,6,6,0,0,0,2.41.7l.66-.09a1.89,1.89,0,0,0,.85-.45,2.54,2.54,0,0,0,.9-1.3,5.52,5.52,0,0,0-.72-4.72,5.43,5.43,0,0,0-1.95-1.77,6,6,0,0,0-2.69-.67,5.25,5.25,0,0,0-2.59.68,3.21,3.21,0,0,0-1.17,4.38,8.37,8.37,0,0,0,1.41,1.79c.37.41.75.82,1.15,1.2a10.43,10.43,0,0,0,4.14,2.52,2.6,2.6,0,0,0,1.93-.25,2.5,2.5,0,0,0-.6-4.57c-.22-.07-.43-.14-.64-.23l.59.25a7.51,7.51,0,0,1-1.6-1l.51.39a17,17,0,0,1-2.69-2.74l.39.51a3.21,3.21,0,0,1-.29-.46l.25.59a1.05,1.05,0,0,1-.06-.24l.09.66a.43.43,0,0,1,0-.16l-.09.66a.75.75,0,0,1,0-.16l-.25.59.08-.13-.39.5a.87.87,0,0,1,.17-.16l-.51.39a1.51,1.51,0,0,1,.28-.15l-.59.25a2.79,2.79,0,0,1,.7-.19l-.66.08a3.66,3.66,0,0,1,.81,0l-.66-.09a3.64,3.64,0,0,1,.86.23l-.6-.25a3.63,3.63,0,0,1,.64.36l-.51-.39a2.56,2.56,0,0,1,.52.52l-.39-.51a2.92,2.92,0,0,1,.41.7l-.25-.6a3.21,3.21,0,0,1,.22.79l-.09-.66a3.14,3.14,0,0,1,0,.81l.09-.67a5.05,5.05,0,0,1-.12.56l2.41-1.83-.15,0,.66.09a3.49,3.49,0,0,1-.72-.2l.6.25a3.25,3.25,0,0,1-.65-.38l.5.39a3.88,3.88,0,0,1-.64-.64l.4.51a3.47,3.47,0,0,1-.42-.72l.25.6a3.65,3.65,0,0,1-.22-.8l.09.67a3.86,3.86,0,0,1,0-.68l-4.27,1.77.43.35a2.71,2.71,0,0,0,1.77.73,2.57,2.57,0,0,0,1.76-.73,2.53,2.53,0,0,0,.74-1.77,2.42,2.42,0,0,0-.74-1.77Z" transform="translate(-39.86 -188.16)"/></g><g id="Layer_2" data-name="Layer 2"><polygon class="cls-24" points="232.25 184.62 377.94 184.62 377.94 207.03 223.61 207.03 232.25 184.62"/><path class="cls-2" d="M514.93,372.78H417.8V395.2h97.13a34.38,34.38,0,0,0,1.87-12.38A34,34,0,0,0,514.93,372.78Z" transform="translate(-39.86 -188.16)"/></g><g id="Layer_7" data-name="Layer 7"><path class="cls-25" d="M332.43,373l1.05,22.21c0,.8,1.28.8,1.25,0L333.68,373c0-.8-1.29-.81-1.25,0Z" transform="translate(-39.86 -188.16)"/><path class="cls-25" d="M417.35,373.87c1,3.36.63,6.92.5,10.37l-.42,10.82c0,.81,1.22.81,1.25,0l.44-11.25c.13-3.43.42-6.93-.56-10.27a.63.63,0,0,0-1.21.33Z" transform="translate(-39.86 -188.16)"/><path class="cls-25" d="M375.86,381.44a5.51,5.51,0,0,0-3.95,1,3.25,3.25,0,0,0-.76,3.57,3.42,3.42,0,0,0,3.08,2.06,3.3,3.3,0,0,0,3.06-1.91,3.12,3.12,0,0,0-1.1-4.09.65.65,0,0,0-.86.23.63.63,0,0,0,.23.85,1.58,1.58,0,0,1,.78,1.08,2,2,0,0,1-.09,1.19,2.32,2.32,0,0,1-.71,1,1.93,1.93,0,0,1-1.1.41,2.2,2.2,0,0,1-2.05-1.1,2,2,0,0,1,.29-2.3c.8-.8,2.11-.74,3.18-.72a.63.63,0,0,0,0-1.25Z" transform="translate(-39.86 -188.16)"/><path class="cls-25" d="M276.57,377l19.94.83,5.2.2,5.61.22c6.48.26,13,.51,19.44.4a77.73,77.73,0,0,1,1.05,11,1.18,1.18,0,0,1-.26.94,1.15,1.15,0,0,1-.78.2c-18.68.41-37.39,0-56-1.36a36.33,36.33,0,0,1,1.14-6.87,8,8,0,0,1,1.5-3.36A7.2,7.2,0,0,1,276.57,377Z" transform="translate(-39.86 -188.16)"/></g><g id="Layer_9" data-name="Layer 9"><path class="cls-26" d="M281,348l12.14-2.91a32.89,32.89,0,0,1,5.12,2.4A33.57,33.57,0,0,1,308,356a25.38,25.38,0,0,1-2,4.79c-.84,1.49-4,6.69-13.85,12-7.84,4.19-12.43,6.64-15,5C271.26,374,279.14,352.73,281,348Z" transform="translate(-39.86 -188.16)"/><path class="cls-27" d="M226.08,396.36c46.42-.36,80.54-.37,84.78,0a8.41,8.41,0,0,1,4.11,1.37,9.17,9.17,0,0,1,3.42,5.12c2.1,6.5-3.36,15.41-3.76,16.07-5.71,9.48-13.72,23.93-24.11,42.4l-15.38-9.41,16.41-32.13-63.42-.69a12.58,12.58,0,0,1-5.3-4.95C220,409.08,221.29,402,226.08,396.36Z" transform="translate(-39.86 -188.16)"/><polygon class="cls-27" points="203.18 227.76 227.49 218.09 298.29 270.12 286.63 288.46 203.18 227.76"/></g><g id="Layer_10" data-name="Layer 10"><path class="cls-6" d="M199.07,421.73l5.18-1.77q17.49-.91,36.35-1.09c15.35-.12,30.07.2,44.09.86l5.07,3.18-3.42,6-25-5.07a7.26,7.26,0,0,1-2.94,8.25l-54.77.94-4.83-1.3A5.29,5.29,0,0,1,196,429C195.07,426.72,196.23,423.59,199.07,421.73Z" transform="translate(-39.86 -188.16)"/><path class="cls-6" d="M238.82,407.66a3,3,0,0,0,.53-1.8c.06-.82,0-1.64,0-2.46,0-.37-.09-.72.35-.77a10.52,10.52,0,0,1,1.84.18,29.57,29.57,0,0,0,4.1-.13c1.32-.11,2.64-.23,4-.23.62,0,1.24,0,1.85.09s.55.13.55.63,0,.75,0,1.12a5,5,0,0,1-.09,2,2.72,2.72,0,0,1-.83.71l-1,.76-3.39,2.55-1,.77a5.91,5.91,0,0,1-.9.68c-.24.1-.1.13-.31.07s-.32-.27-.43-.37l-1-.82-3.74-3.22c-.6-.52-1.49.36-.88.88l4.06,3.5a7.12,7.12,0,0,0,1.69,1.36c.68.27,1.27-.38,1.76-.75l4.19-3.14,2-1.53a2.12,2.12,0,0,0,1.09-1.5c.08-.79,0-1.62,0-2.42a3.79,3.79,0,0,0-.23-1.95c-.34-.54-1-.56-1.58-.63a21.17,21.17,0,0,0-2.64-.08c-1.59.06-3.17.25-4.76.33a21,21,0,0,1-2.38,0,13.39,13.39,0,0,0-2.36-.17c-1.32.18-1.22,1.47-1.2,2.49,0,.55,0,1.1,0,1.65,0,.31,0,1-.18,1.24-.52.61.36,1.5.88.88Z" transform="translate(-39.86 -188.16)"/><path class="cls-6" d="M223.45,401.47l4.84.15-.63-.63a9.71,9.71,0,0,0,.47,2.72,5.59,5.59,0,0,1-.64,2.93,14,14,0,0,1-2.73,4.84h.88c-.64-.69-1.26-1.39-1.86-2.12-.3-.38-.6-.76-.89-1.15a1.5,1.5,0,0,1-.46-1.29,31.69,31.69,0,0,1,1.38-5.67c.25-.76-1-1.09-1.21-.33-.34,1.06-.65,2.13-.9,3.21a14.49,14.49,0,0,0-.57,3.24c0,1,1,1.85,1.52,2.56s1.38,1.65,2.11,2.44a.64.64,0,0,0,.88,0,15.44,15.44,0,0,0,3-5.22,8,8,0,0,0,.8-3c0-1.06-.63-2-.52-3.11a.62.62,0,0,0-.62-.62l-4.84-.15a.63.63,0,0,0,0,1.25Z" transform="translate(-39.86 -188.16)"/><path class="cls-28" d="M276.93,396.27l32.84.31a11,11,0,0,1,3.8.81,8.06,8.06,0,0,1,3.91,2.92,7,7,0,0,1,.94,2.12Z" transform="translate(-39.86 -188.16)"/><path class="cls-6" d="M285.32,428.92a135.12,135.12,0,0,0-7.62,12.29c-.38.71.69,1.34,1.08.63a131.46,131.46,0,0,1,7.62-12.28c.46-.67-.63-1.29-1.08-.64Z" transform="translate(-39.86 -188.16)"/><path class="cls-6" d="M305.59,435.07a99.9,99.9,0,0,1-10.92,18.48c-.49.64.6,1.27,1.08.63a99.57,99.57,0,0,0,10.92-18.48c.33-.73-.75-1.37-1.08-.63Z" transform="translate(-39.86 -188.16)"/><path class="cls-6" d="M41.07,499.37q103.8-1.17,207.61-1.76T456.3,497c19.34,0,38.68.05,58,0,19,0,38-.37,56.86-2.56,1.58-.18,1.59-2.69,0-2.5C537.36,495.9,503,494.51,469,494.51q-51.9,0-103.81.12-103.81.27-207.62,1.11-58.26.48-116.51,1.13a1.25,1.25,0,0,0,0,2.5Z" transform="translate(-39.86 -188.16)"/></g><g id="Layer_11" data-name="Layer 11"><polygon class="cls-21" points="196.19 157.3 251.22 157.3 231.1 208.11 184.27 208.11 196.19 157.3"/></g><g id="Layer_13" data-name="Layer 13"><polygon class="cls-29" points="224.93 157.18 239.8 156.91 242.86 141.53 224.93 142.03 224.93 157.18"/><polygon class="cls-30" points="232.17 142.31 241.13 149.49 242.47 142.31 232.17 142.31"/><path class="cls-31" d="M269.91,302.12c2.21-.57,18.11-4.56,22.28,1.95a18,18,0,0,1,1,4,25.67,25.67,0,0,1,.33,4,38,38,0,0,1-.39,6.35c-.7,5-1.11,7.82-3.28,10.52a12.92,12.92,0,0,1-3.23,2.84C281.1,335,271.69,332.9,267,327.3,261.42,320.74,262.1,309.37,269.91,302.12Z" transform="translate(-39.86 -188.16)"/></g><g id="Layer_14" data-name="Layer 14"><path class="cls-32" d="M266.73,293.76a38.32,38.32,0,0,1,9.11-1.16c3.83,0,7.75,0,11.76,2.23,1.64.92,5,2.8,5.47,6.13a6.44,6.44,0,0,1-.58,3.56c-2.38,5.35-10.7,5.93-11.35,6a4.43,4.43,0,0,0-2,1.08c-1.82,1.73-1.3,4.41-1.24,4.72a5.85,5.85,0,0,0,2.73,3.72,4.94,4.94,0,0,0-1.49,1.91c-.71,1.71-.07,3.35.25,4.72a16.14,16.14,0,0,1-.33,7.37c-.95,3.33-2.94,3.18-8.78,10.28-2.08,2.51-2.8,3.72-2.9,5.3-.13,2.06.94,2.62,1.41,5.71a14.59,14.59,0,0,1-.33,6.22c-.39,1.3-.7,1.54-3.65,6.21-2.65,4.2-3,5-3.06,6.21-.06,1.81.75,1.85,1.24,4.64a12.75,12.75,0,0,1-.42,6.87,11.16,11.16,0,0,1-3.14,4.48l-37,.33a21.83,21.83,0,0,1-4.23-9.78c-1.59-10.26,5.15-18,6.22-19.13a35.35,35.35,0,0,1,2.48-8.86c1.7-4,2.43-6.17,4.64-7.87s3.21-.95,5.39-2.82,3.07-4.27,3.89-6.46c1.51-4.07.57-4.88,2-7.54s2.57-2,5.3-5.47a20.41,20.41,0,0,0,4.39-9.77c.3-2.24-.16-2.28.25-4.06s1.3-3.81,4.88-7.46A50.36,50.36,0,0,1,266.73,293.76Z" transform="translate(-39.86 -188.16)"/><path class="cls-33" d="M289.09,311a4.52,4.52,0,0,1,1.65-.73,3.56,3.56,0,0,1,.85-.12H292l.25,0h.13c-.06,0-.05,0,0,0a.63.63,0,0,0,.33-1.21,6,6,0,0,0-4.32.95.62.62,0,1,0,.63,1.07Z" transform="translate(-39.86 -188.16)"/><path class="cls-34" d="M280.69,315.24l.15,0-.16,0a2.48,2.48,0,0,1,.59.17l-.15-.07a2.29,2.29,0,0,1,.5.3l-.12-.1a2.87,2.87,0,0,1,.39.39l-.1-.12a.64.64,0,0,1,.1.13.65.65,0,0,0,.37.28.62.62,0,0,0,.48-.06.64.64,0,0,0,.23-.86,3,3,0,0,0-2.28-1.3.63.63,0,0,0-.63.63.65.65,0,0,0,.63.62Z" transform="translate(-39.86 -188.16)"/><path class="cls-34" d="M288.49,322.22c.12,0-.16,0,0,0h.09l.23,0a2.85,2.85,0,0,1,.5.14l.13.05c.17.06-.11-.06.06,0l.27.14a5.69,5.69,0,0,1,.52.33c-.07,0,0,0,0,0l.1.08.19.18a3.39,3.39,0,0,1,.31.34s.07.13,0,0a.35.35,0,0,0,.05.08l.11.15c.06.08.11.17.16.25a.62.62,0,0,0,.85.23.64.64,0,0,0,.23-.86,5.35,5.35,0,0,0-1.38-1.54,5,5,0,0,0-2.4-.91.63.63,0,0,0-.63.62.65.65,0,0,0,.63.63Z" transform="translate(-39.86 -188.16)"/><path class="cls-35" d="M291,318.06c3.21,0,3.22-5,0-5s-3.23,5,0,5Z" transform="translate(-39.86 -188.16)"/><path class="cls-35" d="M291.46,314.85l.26-.07c-.1,0,.08,0,.1,0H292c.08,0,.09,0,0,0l.21.05a1.17,1.17,0,0,0,1.12-.22.64.64,0,0,0,0-.88,2.91,2.91,0,0,0-1.73-.51c-.42-.05-.85-.08-1.11.34a1.79,1.79,0,0,0-.14,1,2.92,2.92,0,0,0,.68,1.79,1.18,1.18,0,0,0,1.82-.1,1.78,1.78,0,0,0,.23-.67,2.82,2.82,0,0,1,.07-.31l0-.06,0,.08,0,0v0s0,0,0,0,0,0,0,0l.05,0-1-.13c0,.06,0,.07,0,0s0,0,0,0c0-.11,0,.05,0,.08l1.23-.17s0-.16,0-.09,0-.14,0,0a.52.52,0,0,1,0-.11c0,.1,0,0,0-.05l-1.17-.32a4.12,4.12,0,0,1-.12,1.65,3.09,3.09,0,0,1-.14.43s-.09.21,0,.08-.07.14-.08.14.21-.1,0-.05c.07,0,.12,0,0,0a1.88,1.88,0,0,0-.53.07.63.63,0,0,0,0,1.2,1.57,1.57,0,0,0,1.9-1.08l-1.23-.17a.33.33,0,0,1,.07-.16l0,0s-.06,0,0,0l-.11,0c.11,0-.1,0-.1,0h-.79a.63.63,0,0,0-.54.94,1,1,0,0,0,.84.48l-.44-1.07c-.05.05-.05.05,0,0s-.07,0,0,0-.07,0,0,0H291l.16,1.22c.13,0,.06,0,0,0l.17-1.23h0l-.13,0-.26-.06-.25-.09a1,1,0,0,1-.16-.08.63.63,0,0,0-.76,1,2.63,2.63,0,0,0,2,.65,2,2,0,0,0,1.15-.45,1.05,1.05,0,0,0,.2-1.31.63.63,0,0,0-1.08.63c-.06-.09,0-.17,0-.25l0,0,0,0,0,0-.28.07c-.07,0,.09,0,0,0h-.32c-.07,0,.08,0,0,0L291,317c-.16-.06.09.05-.06,0l-.13-.07-.12-.07c-.11-.07,0,.05-.05-.05l-.76,1a4.17,4.17,0,0,0,1.46.43.62.62,0,0,0,.17-1.22,1.6,1.6,0,0,0-.69,0,.63.63,0,0,0-.45.69.64.64,0,0,0,.62.54,1.25,1.25,0,0,0,1-.39.64.64,0,0,0-.45-1.07.32.32,0,0,1,.24.14l-.54.94a5.56,5.56,0,0,0,1.29-.06,1.15,1.15,0,0,0,.87-1.05.62.62,0,0,0-.54-.61.62.62,0,0,0-.68.45c0,.14.06-.09,0,0s-.11.12,0,0l-.09.09s0,0,0,0l-.06,0c-.06,0-.09,0,0,0l-.15,0c.11,0,0,0,0,0s.11,0,0,0V318c.08,0,.08,0,0,0H292l.35,0a1.12,1.12,0,0,0,.53-.27,2.2,2.2,0,0,0,.51-1,5.41,5.41,0,0,0,.22-2.19.62.62,0,0,0-.45-.6.64.64,0,0,0-.71.28,1.49,1.49,0,0,0-.16,1.2.63.63,0,0,0,.69.45.64.64,0,0,0,.54-.61,1.28,1.28,0,0,0-.19-.79.63.63,0,0,0-1-.13,1.39,1.39,0,0,0-.43.86c0,.12-.05.24-.09.36s0,0,0,0l0,.05s0,0,0,0,0,0,0,0,0,0,0,0a.5.5,0,0,1,.13-.05c-.07,0-.05,0,0,0s-.07,0,0,0,0,0,0,0,0,.07,0,0l-.13-.23c0,.06,0,0,0,0s0-.09-.05-.13-.05-.2-.07-.3l0-.13c0-.05,0-.05,0,0v-.34a1,1,0,0,1,0-.17h0a.29.29,0,0,1-.08.18l-.28.16h-.06l.22,0,.48.06.4.06.17,0h0c.06,0,.06,0,0,0v-.88s.31-.12.18-.09h-.05a4.17,4.17,0,0,0-.51-.09,2.37,2.37,0,0,0-.92.1.63.63,0,1,0,.33,1.21Z" transform="translate(-39.86 -188.16)"/><path class="cls-36" d="M292.28,316.35a.63.63,0,0,0,0-1.25.63.63,0,0,0,0,1.25Z" transform="translate(-39.86 -188.16)"/><path class="cls-36" d="M292.72,315.24a.73.73,0,0,0-.5.21.72.72,0,0,0-.19.34.69.69,0,0,0,0,.47.52.52,0,0,0,.14.22.27.27,0,0,0,.08.07l.08.06a.69.69,0,0,0,.32.08.68.68,0,0,0,.31-.08.64.64,0,0,0,.31-.54.91.91,0,0,0-.14-.51.83.83,0,0,0-.66-.38.8.8,0,0,0-.57.24.73.73,0,0,0-.12.86.78.78,0,0,0,.63.37.7.7,0,0,0,.66-.43.73.73,0,0,0-.16-.79.94.94,0,0,0-.44-.23.62.62,0,0,0-.33,0,.71.71,0,0,0-.28.16.84.84,0,0,0-.19.33.9.9,0,0,0,0,.4.81.81,0,0,0,.39.48,1.14,1.14,0,0,0,.48.12.71.71,0,0,0,.63-.37.75.75,0,0,0,.07-.53.9.9,0,0,0-.08-.21,1.29,1.29,0,0,0-.22-.3.89.89,0,0,0-.87-.28.69.69,0,0,0-.39.22.81.81,0,0,0-.19.74.87.87,0,0,0,.81.65.83.83,0,0,0,.83-.62.86.86,0,0,0-.08-.61,1.2,1.2,0,0,0-.35-.36,1,1,0,0,0-.84-.13.87.87,0,0,0-.55,1.27,1,1,0,0,0,.27.31,1,1,0,0,0,.87.2.89.89,0,0,0,.59-.64,1,1,0,0,0,0-.39,1.67,1.67,0,0,0-.08-.2.78.78,0,0,0-.32-.33.93.93,0,0,0-.43-.12.87.87,0,0,0-.45.1.9.9,0,0,0-.46.77.94.94,0,0,0,.43.8.95.95,0,0,0,1.42-.57.92.92,0,0,0-.08-.63,1,1,0,0,0-.33-.35,1.33,1.33,0,0,0-.72-.2.81.81,0,0,0-.58.2.87.87,0,0,0-.24.59,1.08,1.08,0,0,0,.84,1.1,1.15,1.15,0,0,0,.81-.13,1.07,1.07,0,0,0,.34-.33.86.86,0,0,0,.1-.63.92.92,0,0,0-.5-.62,1.09,1.09,0,0,0-.46-.12,1.23,1.23,0,0,0-.33,0,1,1,0,0,0-.78,1.07,1.14,1.14,0,0,0,.3.72,1,1,0,0,0,.92.27,1,1,0,0,0,.67-.67,1.09,1.09,0,0,0-.09-.83,1,1,0,0,0-.48-.48,1.17,1.17,0,0,0-.82-.11.77.77,0,0,0-.4.23.9.9,0,0,0-.25.58,1,1,0,0,0,.32.74,1.44,1.44,0,0,0,.64.35,1.21,1.21,0,0,0,.5,0,.91.91,0,0,0,.42-.25.88.88,0,0,0,.24-.87l-.92.7,0,0-.13-.1,0,0-.1-.13,0,.06-.06-.15a.64.64,0,0,0,0,.07l0-.16a.08.08,0,0,1,0,.07l0-.17a.64.64,0,0,1,0,.07l.06-.15a.16.16,0,0,1,0,.07l.1-.13-.05.06.12-.1-.08.05.15-.07-.1,0,.17,0h-.1l.17,0-.14,0,.15.06-.14-.08.12.09-.11-.11.1.13a.83.83,0,0,1-.08-.12l.07.15a.27.27,0,0,1,0-.12l0,.17v-.08l0,.16a.14.14,0,0,1,0-.06l-.07.15a.43.43,0,0,1,0-.07l-.1.13.06-.06-.13.1.08,0-.15.06a.47.47,0,0,1,.17,0l-.17,0a1,1,0,0,1,.25,0l-.16,0a.8.8,0,0,1,.21.05l-.15-.06.11.06-.13-.1.07.07-.1-.12a.21.21,0,0,1,0,.06l-.06-.15a.29.29,0,0,1,0,.09l0-.17V316l0-.16s0,.06,0,.09l.06-.15a.47.47,0,0,1-.06.09l.1-.13-.07.08.12-.1-.08.05.15-.06-.12,0,.17,0h-.13l.17,0-.16,0,.15.06-.11-.06a.62.62,0,0,0-.48-.06.67.67,0,0,0-.38.28.69.69,0,0,0-.06.49.7.7,0,0,0,.29.37l.11.06a1.09,1.09,0,0,0,.25.1,1.28,1.28,0,0,0,.55,0,2.34,2.34,0,0,0,.24-.09.83.83,0,0,0,.21-.16.35.35,0,0,0,.11-.13.49.49,0,0,0,.1-.15.65.65,0,0,0,.09-.23.74.74,0,0,0,0-.26.9.9,0,0,0-.2-.54.81.81,0,0,0-.31-.27,1.09,1.09,0,0,0-.34-.13,1.55,1.55,0,0,0-.74,0,1.12,1.12,0,0,0-.44.24.7.7,0,0,0-.15.19l0,.05a.62.62,0,0,0-.07.19,1.08,1.08,0,0,0,.28,1,1.27,1.27,0,0,0,.84.39,1.24,1.24,0,0,0,.27,0l.06,0a1.63,1.63,0,0,0,.19-.09.92.92,0,0,0,.39-.44.88.88,0,0,0-.36-1.11.63.63,0,0,0-.91.71.06.06,0,0,0,0,0l0-.16s0,0,0,.06l0-.17s0,0,0,.06l.06-.15a.16.16,0,0,1,0,.07l.1-.13a.23.23,0,0,1-.07.07l.13-.1-.07,0,.15-.06-.08,0,.16,0h-.12l.16,0-.14,0,.15.06a.77.77,0,0,1-.18-.1l.13.09-.1-.09.09.12a.19.19,0,0,1-.05-.09l.06.15a.19.19,0,0,1,0-.08l0,.17v-.08l0,.16a.14.14,0,0,1,0-.06l-.07.15,0,0-.1.12,0,0-.12.1s0,0,.05,0l-.15.06.08,0-.16,0h.13l-.17,0,.15,0-.15-.07a.57.57,0,0,1,.13.08l-.13-.1a.47.47,0,0,1,.1.1l-.1-.13a.27.27,0,0,1,.06.1l-.06-.15a.74.74,0,0,1,0,.14l0-.17v.12l0-.16,0,.12.06-.15a.41.41,0,0,1-.05.09l.1-.13L292,316l.12-.1-.07.05.15-.07-.06,0,.16,0h-.07l.17,0-.08,0,.15.06-.08,0,.13.09-.08-.08.09.13a.47.47,0,0,1,0-.1l.06.15a.35.35,0,0,1,0-.13l0,.16a.24.24,0,0,1,0-.12l0,.17a.2.2,0,0,1,0-.11l-.07.15.05-.09-.09.12a.46.46,0,0,1,.07-.07l-.13.1.1-.06-.15.06.13,0-.16,0a.28.28,0,0,1,.13,0l-.17,0a.2.2,0,0,1,.11,0l-.14-.06.08.05-.12-.1.06.06-.1-.13.05.08-.07-.15a.14.14,0,0,1,0,.06l0-.16v.05l0-.17a.09.09,0,0,1,0,.05l.06-.15,0,.06.09-.12-.07.07.13-.1-.1.06.15-.07-.13,0,.16,0h-.11l.17,0-.13,0,.15.07-.09-.05.13.09a.3.3,0,0,1-.08-.08l.1.13-.07-.11.06.15a.35.35,0,0,1,0-.13l0,.16a.4.4,0,0,1,0-.11l0,.17s0-.05,0-.07l-.06.15s0,0,0,0l-.1.13,0,0-.13.1h0l-.15.06h0l-.17,0a.81.81,0,0,1,.22,0l-.16,0,.17,0-.15-.06.09.05-.12-.09.07.07L292,316l0,.08L292,316l0,.06,0-.16v.06l0-.16a.64.64,0,0,0,0,.07l.06-.15,0,.06.1-.13-.05.05.13-.1-.08.05.15-.06-.09,0,.17,0h-.1l.17,0-.09,0,.15.06-.06,0,.12.1s0,0,0,0l.1.12,0-.06.06.15a.29.29,0,0,1,0-.09l0,.17v-.09l0,.16a.64.64,0,0,0,0-.07l-.06.15,0-.05-.1.13,0,0-.13.09.06,0-.15.06h.07l-.17,0h.08l-.16,0,.08,0-.15-.07,0,0-.12-.1,0,0-.09-.13,0,.05-.06-.15a.43.43,0,0,0,0,.05l0-.16v.05l0-.17a.19.19,0,0,1,0,.08l.06-.15,0,.06.09-.13,0,0,.12-.09-.05,0,.15-.06h0l.16,0h-.06l.16,0-.1,0,.15.06-.12-.07.13.1-.07-.07.1.12-.05-.07.07.15a.14.14,0,0,1,0-.06l0,.17v-.07l0,.17a.14.14,0,0,1,0-.06l-.07.15a.43.43,0,0,1,0-.07l-.09.13,0,0-.13.1.07,0-.15.06.08,0-.16,0h.11l-.17,0,.1,0-.15-.06a.67.67,0,0,1,.12.06L292,316l.08.08L292,316l0,.06-.06-.14s0,0,0,.06l0-.16a.11.11,0,0,1,0,.05l0-.17a0,0,0,0,0,0,0l.06-.15,0,.06.1-.13,0,0,.13-.1-.06,0,.15-.07h0l.16,0h0l.17,0-.06,0,.15.06-.06,0,.13.1,0-.05.09.13,0-.05.06.14,0-.06,0,.16v0l0,.16,0,0-.07.14,0,0-.1.13,0,0-.13.1,0,0-.15.06.05,0-.17,0h.08l-.17,0,.05,0-.15-.07.08.05-.13-.1a.52.52,0,0,1,.1.11l-.09-.13.08.13-.06-.15a.64.64,0,0,1,0,.07l0-.17v0l0-.17v0l.06-.15v0l.1-.12h0l.12-.1,0,0,.15-.07h0l.16,0h0l.16,0-.11,0,.15.06-.06,0,.12.1,0,0,.09.13v0l.06.15a.09.09,0,0,1,0,0l0,.17v0l0,.17a0,0,0,0,1,0,0l-.07.15v0l-.1.13h0l-.6.16.08,0-.15-.06.07,0-.13-.09,0,0-.1-.12,0,0-.06-.15h0l0-.17v0l0-.17s0,0,0,0l.07-.14h0l.1-.12h0l.12-.09h0l.14-.07h0l.17,0h0l.17,0h0l.15.06,0,0,.13.1h0l.09.12v0l.06.15v0l0,.17v0l0,.16v0l-.06.15,0,0-.1.12s0,0,0,0l-.13.1,0,0-.15.07,0,0-.17,0h0l-.16,0h0l-.15-.06,0,0-.12-.1,0,0-.1-.12,0,.05-.06-.15a.24.24,0,0,1,0,.08l0-.16v.05l.94-.54h0l.13.09h0l.1.13a0,0,0,0,1,0,0l.06.15v0l0,.17a0,0,0,0,1,0-.05l0,.17a0,0,0,0,0,0,0l-.06.15,0,0-.1.13v0l-.12.1h0l-.15.06h0l-.16,0h0a.65.65,0,0,0,.44-.18.63.63,0,0,0,.18-.45.6.6,0,0,0-.18-.44.62.62,0,0,0-.44-.18Z" transform="translate(-39.86 -188.16)"/></g><g id="Layer_16" data-name="Layer 16"><path class="cls-6" d="M182.71,362.84a21.22,21.22,0,0,1,4.06-2.5c3.38-1.58,6.26-1.81,11.55-2,8-.32,12-.48,14.83-.15,5.73.67,8.59,1,11.4,3.28,3.19,2.57,4.39,6.07,5.31,8.74a21.57,21.57,0,0,1,1.25,10,20.93,20.93,0,0,1-3.28,8.9l-5,2h0l-28.1.78a13.22,13.22,0,0,1-4.84-1.4c-3.89-2-5.58-5.5-6.56-7.5C179.28,374.67,182,365.23,182.71,362.84Z" transform="translate(-39.86 -188.16)"/><path class="cls-6" d="M201.58,390.75l4.94,29.7c.13.79,1.33.46,1.2-.33l-4.94-29.7c-.13-.79-1.34-.45-1.2.33Z" transform="translate(-39.86 -188.16)"/><path class="cls-6" d="M211.46,389.36c1,5.08,1.49,10.3,2.12,15.45L215.46,420c.09.79,1.35.8,1.25,0l-1.94-15.68c-.63-5.1-1.06-10.27-2.1-15.3-.17-.78-1.37-.45-1.21.34Z" transform="translate(-39.86 -188.16)"/><path class="cls-37" d="M267.1,458.25c.32-.67,1.18-.84,2.31-1.06,7.55-1.46,16.72,5.6,19.92,14.09.8,2.14,1.41,3.73.72,4.39C287.21,478.37,265.18,462.37,267.1,458.25Z" transform="translate(-39.86 -188.16)"/><path class="cls-37" d="M321.45,473.06l2.6,1.85c-.68,1.34-1.62,3-2.2,2.83C321.1,477.54,321.33,474.4,321.45,473.06Z" transform="translate(-39.86 -188.16)"/><path class="cls-37" d="M333.75,455.51a.9.9,0,0,0,.92.75c.64-.11.93-1.53.58-1.79S333.68,454.82,333.75,455.51Z" transform="translate(-39.86 -188.16)"/></g><g id="Layer_17" data-name="Layer 17"><path class="cls-38" d="M266.85,458.16l6.25-10.74A41.56,41.56,0,0,1,296.64,464q-3.33,5.72-6.64,11.43a83.39,83.39,0,0,0-23.15-17.29Z" transform="translate(-39.86 -188.16)"/><path class="cls-38" d="M335.7,454.16a84,84,0,0,1-14,23.93l10.15,6.44a78.8,78.8,0,0,0,14.36-22.75Z" transform="translate(-39.86 -188.16)"/><path class="cls-39" d="M264.34,475.05c1.53-2.29,3.07-4.58,4.6-6.88a13.23,13.23,0,0,1,8.19,5.56l-4.6,6.51Z" transform="translate(-39.86 -188.16)"/><path class="cls-40" d="M259.44,479.43a6.65,6.65,0,0,1,1.32-3.51,7.2,7.2,0,0,1,6.28-2.56c3.31.35,5.44,3.22,7.82,6.44,3.55,4.77,3.37,7.35,6.07,8.18,1.68.53,2.76-.15,5.34.88,1.06.42,3,1.19,3,2.41,0,.87-.94,1.73-2.26,2.27l-8.64-.23a58.82,58.82,0,0,1-7.83-7.18c-2.26-2.48-3.92-4.75-7.18-5.95A12.34,12.34,0,0,0,259.44,479.43Z" transform="translate(-39.86 -188.16)"/><path class="cls-41" d="M257.22,480.83a3.07,3.07,0,0,1,1.31-2.19c1.12-.59,2.54.14,3.42.62a55.39,55.39,0,0,1,10.19,7.17c1.81,1.68,4,3.72,6.35,6.09l10.24.48a1.58,1.58,0,0,1,.66.74,1.69,1.69,0,0,1,0,1.32l-19.66.61a28.41,28.41,0,0,0-8-7.7,8.83,8.83,0,0,1-4.07-4.21A6.91,6.91,0,0,1,257.22,480.83Z" transform="translate(-39.86 -188.16)"/><path class="cls-42" d="M342,482.59a27.72,27.72,0,0,0,6-8.36,13.37,13.37,0,0,0,7,4.22c7.15,1.54,15.8-3.8,20.79-13.63l2.78,2.18a39.29,39.29,0,0,1-1.8,5.8c-1.36,3.39-2.59,5.09-8,12.65-5.68,8-7.1,10-10.09,10.62a9.53,9.53,0,0,1-4.66-.23,16.22,16.22,0,0,0-4.38-8.27Z" transform="translate(-39.86 -188.16)"/><path class="cls-43" d="M350.42,483.65a10.27,10.27,0,0,0,1.81-3.39,10.14,10.14,0,0,0,.45-3.39,22.51,22.51,0,0,0,7-2.41c3.52-1.92,4.8-3.91,9.64-7.53,1.29-1,3-3.54,4.75-3.24a2.69,2.69,0,0,1,1.31.65,2.76,2.76,0,0,1,.74,2.06c-.28.59-.77,1.57-1.39,2.78,0,0-8.3,16.32-18.54,24.35a2.73,2.73,0,0,1-1.7.67,3.07,3.07,0,0,1-1.92-.93,20,20,0,0,1-3.1-3.32l-2.58-3.39Z" transform="translate(-39.86 -188.16)"/></g></svg>