<svg xmlns="http://www.w3.org/2000/svg" viewBox="0 0 750 500"><defs><style>.cls-1{fill:#fcbe2f;}.cls-2{fill:#9c9390;}.cls-3{fill:#e8dee4;}.cls-4{fill:#c7bcb9;}.cls-24,.cls-28,.cls-34,.cls-38,.cls-5,.cls-50{fill:none;stroke-miterlimit:10;}.cls-5{stroke:#e0d5d0;}.cls-6{fill:#7a7472;}.cls-7{fill:#aba09c;}.cls-8{fill:#d6cbc8;}.cls-39,.cls-9{fill:#ededed;}.cls-9{opacity:0.1;}.cls-10{fill:#918a88;opacity:0.5;}.cls-11{fill:#362d2c;}.cls-12{fill:#544544;}.cls-13,.cls-45{fill:#fff;}.cls-13{opacity:0.05;}.cls-14{fill:#cd8f4d;}.cls-15{fill:#a17140;}.cls-16{fill:#6275ac;}.cls-17{fill:#36476c;}.cls-18{fill:#596a9c;}.cls-19{fill:#6d85b8;}.cls-20{fill:#4d5b90;}.cls-21{fill:#fe7a63;}.cls-22{fill:#441b15;}.cls-23{fill:#fdfcff;}.cls-24{stroke:#54211a;stroke-width:0.29px;}.cls-25{fill:#75332f;}.cls-26{fill:#69c5db;}.cls-27{fill:#fffdf8;}.cls-28{stroke:#0d0000;}.cls-28,.cls-34,.cls-38{stroke-width:0.5px;}.cls-29{fill:#e8705a;}.cls-30{fill:#db5f48;}.cls-31{fill:#0d0000;}.cls-32{fill:#e85b41;}.cls-33{fill:#226999;}.cls-34{stroke:#4c4d66;}.cls-35{fill:#2a7dc1;}.cls-36{fill:#5d5e72;}.cls-37{fill:#4c4d66;}.cls-38{stroke:#5d5e72;}.cls-40{fill:#858585;}.cls-41{fill:#dedede;}.cls-42{fill:#c2c2c2;}.cls-43{fill:#adafaf;}.cls-44{fill:#966938;}.cls-46{fill:#40a86c;}.cls-47{fill:#49c07c;}.cls-48{fill:#9e453d;}.cls-49{fill:#261908;}.cls-49,.cls-53{opacity:0.2;}.cls-50{stroke:#ededed;}.cls-51{fill:#d20023;}.cls-52{fill:#f7ece7;}.cls-53{fill:#1f1f1f;}.cls-54{fill:#9e9e9e;}.cls-55{fill:#4a2c60;}</style></defs><g id="BACKGROUND"><rect class="cls-1" width="750" height="500"/></g><g id="OBJECTS"><rect class="cls-2" x="75.49" y="90.84" width="67.81" height="116.85" transform="translate(258.66 39.86) rotate(90)"/><rect class="cls-3" x="80.63" y="95.98" width="57.53" height="106.57" transform="translate(258.66 39.86) rotate(90)"/><rect class="cls-2" x="179.28" y="126.51" width="48.51" height="74.85" transform="translate(407.07 327.86) rotate(180)"/><rect class="cls-3" x="182.96" y="130.18" width="41.15" height="67.49" transform="translate(407.07 327.86) rotate(180)"/><rect class="cls-2" x="119.28" y="191.68" width="42.31" height="32.64" transform="translate(280.88 416.01) rotate(180)"/><rect class="cls-3" x="122.49" y="194.89" width="35.9" height="26.22" transform="translate(280.88 416.01) rotate(180)"/><rect class="cls-2" x="133.61" y="232.84" width="32.89" height="39.1" transform="translate(300.11 504.77) rotate(180)"/><rect class="cls-3" x="137.45" y="236.68" width="25.21" height="31.41" transform="translate(300.11 504.77) rotate(180)"/><rect class="cls-2" x="181.89" y="196.51" width="53.9" height="73.92" transform="translate(442.31 24.63) rotate(90)"/><rect class="cls-3" x="185.98" y="200.6" width="45.72" height="65.75" transform="translate(442.31 24.63) rotate(90)"/><rect class="cls-2" x="48.51" y="176.49" width="46.39" height="74.61" transform="translate(285.5 142.09) rotate(90)"/><rect class="cls-3" x="52.03" y="180.01" width="39.35" height="67.57" transform="translate(285.5 142.09) rotate(90)"/><rect class="cls-4" x="357.48" y="103.42" width="249.49" height="308.98"/><line class="cls-5" x1="445.93" y1="103.42" x2="445.93" y2="414.37"/><line class="cls-5" x1="518.53" y1="103.42" x2="518.53" y2="414.37"/><line class="cls-5" x1="606.97" y1="124.89" x2="357.48" y2="124.89"/><line class="cls-5" x1="606.97" y1="258.89" x2="357.48" y2="258.89"/><line class="cls-5" x1="606.97" y1="392.9" x2="357.48" y2="392.9"/><rect class="cls-6" x="347.48" y="87.8" width="269.49" height="15.61"/><rect class="cls-2" x="357.48" y="103.42" width="48.91" height="308.98"/><rect class="cls-7" x="374.13" y="103.85" width="15.61" height="308.54"/><rect class="cls-2" x="558.07" y="103.42" width="48.91" height="308.98"/><rect class="cls-7" x="574.71" y="103.42" width="15.61" height="308.98"/><rect class="cls-8" y="401.26" width="750" height="13.11"/><path class="cls-9" d="M396.3,131.34H43a23.59,23.59,0,0,0-23.59,23.59v168.9A23.59,23.59,0,0,0,43,347.41H399.22L690.16,346V204.62l-288.1-72.57A23.78,23.78,0,0,0,396.3,131.34Z"/><path class="cls-10" d="M322.39,408.43c-3-.43-9.83.15-11.29-5.27,0,0-.73-.14-1.65-.24l-2.31-5.87,1.77-.74h0l1.21-.51-1.86-4.46-1.49.66c-3.89-7.81-12.51-25-21.16-41.6l20.66,9.87,8.43,8.55,1.76-1.39,3.52,4.32h0a3.57,3.57,0,0,0,.3,4.36c.7.86,3.17,4,3.17,4l1.25,1.56,23.74-13.61-1.25-1.57s-3-3.46-5.87-2.33-8.46,5-12.42,1c0,0-1,.35-2.06.84l-3.13-4.37,4-3.18L323.57,354l-1.63,1.33c-12-14.52-48.25-57.77-55.63-57.77a131,131,0,0,0-18.16,2c9.66-2.51,41.08-25.79,46.48-29.82a4.82,4.82,0,0,0,.95,1.34c.59.42,1.1-.74,1.1-.74s1.79,1.17,2.48,1.09,1-1,1-1a10.41,10.41,0,0,0,2.47.26c.6-.13.59-1.41.59-1.41a15,15,0,0,0,2.48-.28c1-.24.91-1.87.91-1.87l9.8-1.76v-3.63l-9.14,1.75a9.93,9.93,0,0,0-3.05-2.28c-.94-.36-4.68-1.89-5.76-1.78-1.95.2-7,3.47-7,3.47l-37,18.06,0-5.2h-.83c-.17-5.81-.87-25.38-2.32-27.26-2.28-3-9.72-8.42-11.58-9.77a69.83,69.83,0,0,0-11.29-6.14h0c-1.35-.62-2.53-1.13-3.35-1.48,4.3-2.38,5.76-7.84,5.83-9.5,0-.62.13-1.9.24-3.53a3.7,3.7,0,0,0,2.76-4.47,1.53,1.53,0,0,0-.74-1c2.55-4.45,7.34-13.18,6.14-14.21-1.61-1.39-5.36-1.4-5.36-1.4s3.67-6.44,1.28-7.57-12.29,1.67-12.29,1.67.79-4.29-1.5-4.66c-3.67-.59-12.49,8.06-12.49,8.06s-4.21-.3-5.11.84c-2.23,2.81.3,26.18,3.77,29a8.5,8.5,0,0,0,2.55,1.38l.23,5.25h0l-.33.12-3.89,1.07.13.32-.15.06,0-.38L169.9,242.51l-.29-1.21-7.7,2.11.38,1.32c-8.12,2.28-14.89,4.39-16.08,5.36-1,.54-1,3.43-.44,7.25.2,1.66.44,2.94.44,2.94h.07A174,174,0,0,0,151.81,281c1.55,4.2,4.45,15.29,4.45,15.29-2.82,2.14-.17,9-.17,9s-2.89,1-2.83,2,2.24.5,2.24.5a2.57,2.57,0,0,0-.75,1.51c0,.82,1.73,1.12,1.73,1.12s-.82,2.43.06,2.87,9-3.27,8.45-5.15-1.37-9.13-1.37-9.13-1.24-30.63-2.8-38.09c0-.24-.12-.46-.19-.69h34c-.93,15.74-1.74,35.28-2.11,44.91h0v0c-.15,3.67-.23,5.89-.23,5.89s-7.26,23.78,6.76,23.78h28.56l64.14,58.33,4.86,8.22,2-.85,1.41,4.49c-.05-.16-.07-.25-.07-.25s-2.28.64-1.79,3.5c.18,1.09.76,5.05.76,5.05l.3,2h27.37l-.3-2S325.43,408.87,322.39,408.43ZM242.55,300.52c0-1,0-2,0-3.14a4.82,4.82,0,0,0,4.15,2.42h0Zm7.3-19.1-7.37.15v-.07Zm51.64-16.84-7.95,1.52h0Z"/><polygon class="cls-11" points="488.14 351.57 468.25 361.58 456.77 361.58 488.14 346.93 488.14 351.57"/><polygon class="cls-11" points="488.14 351.57 508.04 361.58 519.52 361.58 488.14 346.93 488.14 351.57"/><polygon class="cls-11" points="660.41 351.57 640.51 361.58 629.03 361.58 660.41 346.93 660.41 351.57"/><polygon class="cls-11" points="660.41 351.57 680.31 361.58 691.78 361.58 660.41 346.93 660.41 351.57"/><rect class="cls-11" x="457.07" y="200.49" width="245.19" height="151.53"/><rect class="cls-12" x="451.68" y="200.49" width="245.19" height="151.53"/><rect class="cls-11" x="456.77" y="205.58" width="235.02" height="141.35"/><path class="cls-11" d="M490.61,356.33"/><polygon class="cls-13" points="555.82 346.93 482.08 346.93 526.13 205.58 599.87 205.58 555.82 346.93"/><polygon class="cls-13" points="622.7 346.93 574.27 346.93 618.32 205.58 666.75 205.58 622.7 346.93"/><path class="cls-14" d="M120.91,415.36h0a3.55,3.55,0,0,1-3.43-4.51l8.79-31.46h12.54l-14.65,33.83A3.54,3.54,0,0,1,120.91,415.36Z"/><path class="cls-14" d="M359.1,415.36h0a3.55,3.55,0,0,0,3.42-4.51l-8.78-31.46H341.19l14.65,33.83A3.57,3.57,0,0,0,359.1,415.36Z"/><path class="cls-14" d="M43.82,415.36h0a3.55,3.55,0,0,1-3.42-4.51l8.79-31.46H61.73L47.08,413.22A3.54,3.54,0,0,1,43.82,415.36Z"/><path class="cls-15" d="M282,415.36h0a3.55,3.55,0,0,0,3.42-4.51l-8.79-31.46H264.11l14.65,33.83A3.54,3.54,0,0,0,282,415.36Z"/><path class="cls-16" d="M159,314.61H378.87a0,0,0,0,1,0,0v82.11a0,0,0,0,1,0,0H174.79A24.75,24.75,0,0,1,150,372V323.53A8.92,8.92,0,0,1,159,314.61Z" transform="translate(528.9 711.32) rotate(180)"/><path class="cls-17" d="M143.75,314.61H350a13.64,13.64,0,0,1,13.64,13.64v54.82A13.64,13.64,0,0,1,350,396.71H159.57A24.75,24.75,0,0,1,134.83,372V323.53A8.92,8.92,0,0,1,143.75,314.61Z" transform="translate(498.48 711.32) rotate(180)"/><path class="cls-18" d="M46,334.89H309.91l-12.27-60.12c-1.63-8-9.44-14.49-17.44-14.49H45.28c-8,0-13.16,6.49-11.53,14.49Z"/><path class="cls-19" d="M141,334.89h193.1a17.87,17.87,0,0,1,17.87,17.86v35.34a8.63,8.63,0,0,1-8.63,8.62H123.1v-44A17.86,17.86,0,0,1,141,334.89Z"/><path class="cls-17" d="M239.19,334.89h-5.91a17.86,17.86,0,0,1,17.86,17.86v35.34a8.62,8.62,0,0,1-8.62,8.62h5.91a8.62,8.62,0,0,0,8.62-8.62V352.75A17.86,17.86,0,0,0,239.19,334.89Z"/><path class="cls-20" d="M130.1,362.06H351.93a0,0,0,0,1,0,0v25.72a8.93,8.93,0,0,1-8.93,8.93H130.1a0,0,0,0,1,0,0V362.06A0,0,0,0,1,130.1,362.06Z"/><path class="cls-17" d="M33.45,272.25v62.64h52l-13-60.72a17.58,17.58,0,0,0-17.18-13.89H45.43A12,12,0,0,0,33.45,272.25Z"/><path class="cls-16" d="M70.21,314.61h75.1a0,0,0,0,1,0,0v82.11a0,0,0,0,1,0,0H86A24.75,24.75,0,0,1,61.29,372V323.53A8.92,8.92,0,0,1,70.21,314.61Z" transform="translate(206.6 711.32) rotate(180)"/><path class="cls-17" d="M33.45,314.61h71.9a24.75,24.75,0,0,1,24.75,24.74v48.44a8.92,8.92,0,0,1-8.92,8.92H42.37a8.92,8.92,0,0,1-8.92-8.92Z"/><rect class="cls-17" x="145.31" y="376.51" width="206.62" height="1.66"/><path class="cls-21" d="M207.74,236.21s-45.18,11.23-48.44,13.88c-1.63,1.32,0,10.19,0,10.19h30.08Z"/><path class="cls-21" d="M266.77,281.34l37.84-18.46,3.92,6.25s-40.69,30.67-48.75,30.67-6.5-18.18-6.5-18.18Z"/><polygon class="cls-21" points="319.36 394.83 325.88 411.44 315.16 411.44 310.73 397.37 319.36 394.83"/><path class="cls-22" d="M317.63,410.3c-3,0-4.55-5.47-4.55-5.47a2.85,2.85,0,0,0-1.79,3.49c.18,1.1.76,5.06.76,5.06h27.37s-.9-4.51-3.94-4.95-9.83.15-11.29-5.27c0,0-4.32-.81-5.37,0S320.86,410.27,317.63,410.3Z"/><polygon class="cls-23" points="312.05 413.38 339.42 413.38 339.72 415.36 312.35 415.36 312.05 413.38"/><line class="cls-24" x1="330.92" y1="408.09" x2="329.38" y2="413.38"/><polygon class="cls-21" points="335.61 359.99 344.82 372.89 337.64 377.37 328.5 366.13 335.61 359.99"/><path class="cls-22" d="M339.85,374.66c-2.55,1.5-6.78-2.92-6.78-2.92a3.59,3.59,0,0,0,.3,4.36c.7.86,3.17,4,3.17,4l23.74-13.62s-3-3.46-5.87-2.33-8.46,5-12.42,1c0,0-4.15,1.45-4.66,2.67S342.63,373,339.85,374.66Z"/><polygon class="cls-23" points="336.54 380.11 360.28 366.49 361.53 368.06 337.79 381.67 336.54 380.11"/><line class="cls-24" x1="350.28" y1="366.13" x2="351.57" y2="371.49"/><path class="cls-25" d="M236,191.07s9.89-2.8,12.29-1.67S247,197,247,197s3.75,0,5.36,1.4-7.65,16.79-7.65,16.79l-6.27,9.23s-12,4.51-17.78-.12c-3.47-2.78-6-26.15-3.77-29,.9-1.14,5.11-.84,5.11-.84s8.82-8.65,12.5-8.06C236.81,186.78,236,191.07,236,191.07Z"/><path class="cls-26" d="M252.39,238.41s9.4,6.69,12,10.08c1.7,2.2,2.37,28.88,2.37,28.88L251,278Z"/><polygon class="cls-27" points="250.04 281.55 267.6 281.37 267.55 275.74 249.88 275.92 250.04 281.55"/><path class="cls-26" d="M205.4,311.11h50.27s-.13-66-.52-69.66-18.27-10.88-18.27-10.88l-13.41.33s-11.36,3.95-13.41,6S205.4,311.11,205.4,311.11Z"/><line class="cls-28" x1="242.16" y1="280.84" x2="216.24" y2="299.65"/><line class="cls-28" x1="243.99" y1="289.23" x2="234.5" y2="300.4"/><polygon class="cls-27" points="205.4 311.11 205.63 305.19 255.53 300.08 255.59 304.38 205.4 311.11"/><path class="cls-27" d="M236.88,230.57l4.65,2s-4.57,9.64-11.72,9.26-10.56-9.75-10.56-9.75l4.22-1.16Z"/><path class="cls-25" d="M218.87,204.26s1,16.65,1.4,17.77,5.58,3.13,5.58,3.13l-.26-21.29Z"/><path class="cls-29" d="M222.92,218.49l.55,12.44a6.7,6.7,0,0,0,6.77,6.41h0a6.7,6.7,0,0,0,6.64-6.77l-.12-12.22Z"/><path class="cls-29" d="M223.94,213s-4.91-1.72-5.44.85S220,219,224,218.4Z"/><path class="cls-29" d="M241.53,212.86s4.87-1.81,5.46.74-1.39,5.15-5.4,4.63Z"/><path class="cls-30" d="M222.5,214s-2.56-1.09-2.93.25,1.24,2.13,1.24,2.13,1-.68,1.15-.38a3,3,0,0,1,0,1.2s1.14,1,1.47-.22S223.66,214.35,222.5,214Z"/><path class="cls-21" d="M223.1,204c1.22-5.89,10.31-5.13,10.31-5.13s9.07-.94,10.41,4.92.26,15.68.17,17.81-2.45,10.56-10.25,10.64-10.34-7.51-10.47-9.64S221.87,209.88,223.1,204Z"/><path class="cls-28" d="M235.47,226.44a5,5,0,0,1-2.88-.58,15.11,15.11,0,0,1-2.48-1.66"/><path class="cls-29" d="M233.16,228.59c.21-.47-2.66-1.2-2.62-.71S232.91,229.15,233.16,228.59Z"/><path class="cls-25" d="M246.64,205.23s-7.39-.19-9.21-1c0,0,2,2.49,0,3.85-3.19,2.1-16.25-5.53-16.25-5.53s2.35-6.7,17.07-5.79C243.39,197.09,247.51,202.56,246.64,205.23Z"/><path class="cls-25" d="M229.41,202.82s-.51,4.1-1.32,5.38c-.69,1.09-4.46,2.62-4.46,2.62s.34,6.53-1,6.21-1.19-14.48-1.19-14.48Z"/><path class="cls-31" d="M230.41,215.36c0,.88-.37,1.6-.85,1.6s-.88-.7-.89-1.58.37-1.6.85-1.61S230.4,214.48,230.41,215.36Z"/><path class="cls-32" d="M223.58,220.55c-.06-.93,4.69-1.09,4.74,0S223.67,222,223.58,220.55Z"/><path class="cls-25" d="M225.64,211.86c-.25-.64,1-1.79,1.43-1.89a13.71,13.71,0,0,1,3.79.21,2.23,2.23,0,0,1,.85,1.07C231.71,211.59,225.79,212.26,225.64,211.86Z"/><path class="cls-31" d="M236.73,215.29c0,.89.4,1.6.88,1.59s.87-.72.86-1.6-.4-1.59-.88-1.59S236.72,214.41,236.73,215.29Z"/><path class="cls-32" d="M243.66,220.35c0-.93-4.71-1-4.74.05S243.6,221.8,243.66,220.35Z"/><path class="cls-25" d="M241.43,211.7c.23-.65-1.06-1.77-1.47-1.86a13.76,13.76,0,0,0-3.78.28,2.26,2.26,0,0,0-.83,1.1C235.35,211.55,241.28,212.1,241.43,211.7Z"/><path class="cls-29" d="M234.11,215.47c.61-.12.88,4.39,2.67,5.05s-.29,1.75-2.14,1.45C233.85,221.84,233.85,215.52,234.11,215.47Z"/><line class="cls-28" x1="255.39" y1="281.57" x2="255.39" y2="252.3"/><polygon class="cls-26" points="219.25 232.09 178.27 243.87 181.92 260.28 217.6 260.28 219.25 232.09"/><polygon class="cls-27" points="179.82 260.28 175 243.41 182.7 241.3 187.28 260.28 179.82 260.28"/><path class="cls-33" d="M205.4,311.11h70.21c4.34,0,46.39,85.2,46.39,85.2l-12.28,5.13-39.38-66.55H213.72C208.89,334.89,205.4,311.11,205.4,311.11Z"/><path class="cls-34" d="M310.73,398.56s-38.33-66.85-39.53-67.47-34.32.3-34.32.3"/><path class="cls-35" d="M281,321.37l46.75,47.44L338.87,360s-50.6-62.45-59.47-62.45c-17,0-74,13.57-74,13.57s-7.26,23.78,6.76,23.78h27.12S274.45,323.82,281,321.37Z"/><polygon class="cls-36" points="327.79 368.81 340.82 358.49 336.66 353.98 323.68 364.55 327.79 368.81"/><polygon class="cls-37" points="309.72 401.44 323.21 395.79 321.35 391.33 307.39 397.5 309.72 401.44"/><path class="cls-38" d="M212.88,309.38s-5.66,14.24,0,19.06,66.45-9.58,69.4-9.53,44.78,45,44.78,45"/><line class="cls-28" x1="281.04" y1="321.37" x2="276.37" y2="316.94"/><line class="cls-28" x1="270.34" y1="334.89" x2="266.77" y2="327.9"/><line class="cls-28" x1="236.88" y1="324.71" x2="232.79" y2="331.09"/><line class="cls-28" x1="240.77" y1="325.49" x2="239.99" y2="329.53"/><path class="cls-38" d="M217.85,308.25a68,68,0,0,1-1,8.69c-.63,2.17-6.46,4.43-6.46,4.43"/><line class="cls-28" x1="207.74" y1="260.28" x2="208.39" y2="248.49"/><path class="cls-21" d="M176.71,299.06s.8,7.25,1.37,9.13-7.56,5.59-8.45,5.15-.06-2.87-.06-2.87-1.76-.3-1.73-1.12a2.57,2.57,0,0,1,.75-1.51s-2.18.48-2.24-.5,2.83-2,2.83-2-2.65-6.9.17-9Z"/><path class="cls-21" d="M169.35,296.31s-2.9-11.09-4.45-15.29-8.87-29.21-5.6-30.93,13.06,3.41,14.61,10.88,2.8,38.09,2.8,38.09Z"/><path class="cls-28" d="M173.75,260.28a11.05,11.05,0,0,0-3-5.19"/><polygon class="cls-12" points="303.4 266.71 329.54 261.72 329.54 265.35 304.42 269.87 303.4 266.71"/><path class="cls-21" d="M319.74,267.11s.09,1.63-.91,1.87a15,15,0,0,1-2.48.28s0,1.28-.59,1.41a10.41,10.41,0,0,1-2.47-.26s-.34.95-1,1-2.48-1.09-2.48-1.09-.51,1.16-1.1.74-2.32-3.64-1.6-4,2.11.9,2.11.9,0-1.54.52-1.65,2.27,1.25,2.27,1.25,0-1.2.68-1.38,2.1,1,2.1,1,.18-1.23.83-1.36,2,1.7,2,1.7Z"/><path class="cls-21" d="M304.61,262.88l1.29,3.35,10.57-2s2.69,2.06,4.26,1.21-2-3.71-3.38-4.24c-.94-.36-4.68-1.89-5.76-1.78C309.64,259.61,304.61,262.88,304.61,262.88Z"/><line class="cls-28" x1="266.17" y1="281.34" x2="262.26" y2="283.47"/><line class="cls-28" x1="169.68" y1="293.03" x2="169.35" y2="296.31"/><line class="cls-28" x1="304.61" y1="262.88" x2="302.37" y2="265.36"/><path class="cls-28" d="M316.47,264.22s-2.12.57-3.15-.19"/><path class="cls-14" d="M675.76,415.36h0a3.32,3.32,0,0,0,3.2-4.21l-8.22-29.42H659l13.69,31.63A3.34,3.34,0,0,0,675.76,415.36Z"/><path class="cls-14" d="M727.27,415.36h0a3.31,3.31,0,0,0,3.19-4.21l-8.21-29.42H710.53l13.69,31.63A3.33,3.33,0,0,0,727.27,415.36Z"/><path class="cls-14" d="M429.65,415.36h0a3.32,3.32,0,0,1-3.2-4.21l8.21-29.42h11.73l-13.7,31.63A3.31,3.31,0,0,1,429.65,415.36Z"/><path class="cls-15" d="M484.12,415.36h0a3.31,3.31,0,0,1-3.19-4.21l8.21-29.42h11.72l-13.69,31.63A3.33,3.33,0,0,1,484.12,415.36Z"/><rect class="cls-39" x="426.32" y="361.58" width="235.79" height="34.93"/><rect class="cls-40" x="662.11" y="361.58" width="68.48" height="34.93"/><rect class="cls-41" x="436.6" y="369.12" width="102.77" height="19.84"/><rect class="cls-41" x="549.07" y="369.12" width="102.77" height="19.84"/><path class="cls-42" d="M500.2,373.22H475.76a4.1,4.1,0,0,1-4.1-4.1H504.3A4.1,4.1,0,0,1,500.2,373.22Z"/><path class="cls-42" d="M612.67,373.22H588.24a4.09,4.09,0,0,1-4.1-4.1h32.63A4.09,4.09,0,0,1,612.67,373.22Z"/><rect class="cls-43" x="338.28" y="401.26" width="171.97" height="2.5"/><rect class="cls-43" x="324.74" y="373.36" width="192.75" height="3.64"/><polygon class="cls-44" points="513.25 415.36 518.56 415.36 501.97 377 496.66 377 513.25 415.36"/><polygon class="cls-44" points="327.69 415.36 322.38 415.36 338.97 377 344.28 377 327.69 415.36"/><rect class="cls-44" x="340.26" y="377" width="161.7" height="3.31"/><rect class="cls-39" x="298.36" y="401.26" width="179.56" height="2.5"/><rect class="cls-45" x="291.77" y="373.36" width="192.75" height="3.64"/><polygon class="cls-14" points="480.92 415.36 486.23 415.36 469.64 377 464.33 377 480.92 415.36"/><polygon class="cls-14" points="295.36 415.36 290.05 415.36 306.64 377 311.95 377 295.36 415.36"/><rect class="cls-14" x="307.94" y="377" width="161.7" height="3.31"/><path class="cls-46" d="M374.85,320.1c-1.89,3-3.22,10.24-3.22,18.69s1.33,15.69,3.22,18.7c1.89-3,3.22-10.24,3.22-18.7S376.74,323.11,374.85,320.1Z"/><path class="cls-46" d="M364,323.72c-1.15,3.35-.81,10.7,1.1,18.94s4.86,15,7.38,17.47c1.15-3.35.81-10.7-1.11-18.93S366.48,326.22,364,323.72Z"/><ellipse class="cls-46" cx="381.81" cy="343" rx="19.87" ry="3.22" transform="translate(-41.65 633.01) rotate(-76.34)"/><path class="cls-47" d="M371.06,325.73c-1.63,3.15-2.38,10.47-1.69,18.89S372,360.15,374.08,363c1.64-3.14,2.39-10.46,1.7-18.89S373.19,328.57,371.06,325.73Z"/><path class="cls-47" d="M379.58,325.73c1.64,3.15,2.38,10.47,1.7,18.89s-2.6,15.53-4.72,18.37c-1.64-3.14-2.38-10.46-1.7-18.89S377.45,328.57,379.58,325.73Z"/><polygon class="cls-48" points="386.16 360.3 363.55 360.3 363.11 354.69 386.6 354.69 386.16 360.3"/><polygon class="cls-48" points="383.2 373.36 366.48 373.36 365.44 360.3 384.25 360.3 383.2 373.36"/><polygon class="cls-49" points="365.44 360.3 384.25 360.3 384.05 362.72 365.63 362.72 365.44 360.3"/><path class="cls-39" d="M159.55,297.8a2.75,2.75,0,0,1-1.44,3.57c-1.27.38-2.69-.6-3.17-2.2s.17-3.2,1.45-3.58S159.08,296.2,159.55,297.8Z"/><ellipse class="cls-39" cx="159.55" cy="297.8" rx="2.4" ry="3.02" transform="translate(-78.53 58.1) rotate(-16.62)"/><path class="cls-42" d="M159.07,296.09a1.09,1.09,0,0,0-1.41-.47c-.64.19-1,.72-.92,1.17a1.09,1.09,0,0,0,1.41.47C158.79,297.06,159.2,296.54,159.07,296.09Z"/><path class="cls-39" d="M170.09,295.28c-.49,1.59-1.91,2.57-3.18,2.19a2.77,2.77,0,0,1-1.42-3.59c.48-1.59,1.9-2.57,3.17-2.19S170.57,293.69,170.09,295.28Z"/><path class="cls-39" d="M172.39,296c-.49,1.59-1.91,2.57-3.18,2.19a3.1,3.1,0,0,1,1.76-5.78C172.24,292.78,172.87,294.38,172.39,296Z"/><path class="cls-42" d="M170.62,293.59c.14-.45-.27-1-.91-1.17s-1.27,0-1.41.47.27,1,.91,1.16S170.49,294,170.62,293.59Z"/><path class="cls-39" d="M177.86,298.49c-.49,1.59-1.91,2.57-3.18,2.19a2.77,2.77,0,0,1-1.42-3.59c.48-1.59,1.9-2.57,3.17-2.19S178.34,296.89,177.86,298.49Z"/><path class="cls-39" d="M180.16,299.19c-.49,1.59-1.91,2.57-3.18,2.19a3.1,3.1,0,0,1,1.76-5.78C180,296,180.64,297.59,180.16,299.19Z"/><path class="cls-42" d="M178.39,296.8c.14-.45-.27-1-.91-1.17s-1.27,0-1.41.47.27,1,.91,1.16S178.26,297.25,178.39,296.8Z"/><path class="cls-39" d="M172,298.14a2.47,2.47,0,1,1-4.47,1.77c-.61-1.55-.11-3.21,1.13-3.69S171.4,296.59,172,298.14Z"/><path class="cls-39" d="M174.25,297.26c.61,1.55.11,3.2-1.13,3.68s-2.73-.37-3.34-1.92-.11-3.2,1.13-3.69S173.64,295.71,174.25,297.26Z"/><path class="cls-42" d="M171.38,296.48c-.17-.43-.81-.59-1.44-.34s-1,.8-.81,1.24.82.59,1.44.34S171.56,296.92,171.38,296.48Z"/><path class="cls-39" d="M175.46,302.59c-.29,1.64-1.59,2.78-2.89,2.54s-2.13-1.75-1.84-3.39a2.47,2.47,0,1,1,4.73.85Z"/><path class="cls-39" d="M177.83,303a2.47,2.47,0,1,1-4.73-.85c.29-1.64,1.59-2.78,2.9-2.54S178.13,301.37,177.83,303Z"/><path class="cls-42" d="M175.8,300.85c.08-.47-.39-.94-1.05-1.06s-1.26.16-1.34.63.38.93,1,1.05S175.72,301.31,175.8,300.85Z"/><path class="cls-39" d="M163.73,293.61c.61,1.55.11,3.2-1.13,3.69s-2.73-.37-3.34-1.92-.11-3.21,1.12-3.69A2.76,2.76,0,0,1,163.73,293.61Z"/><path class="cls-39" d="M166,292.73c.61,1.55.1,3.2-1.13,3.69a2.78,2.78,0,0,1-3.35-1.93c-.61-1.55-.1-3.2,1.13-3.69S165.35,291.18,166,292.73Z"/><path class="cls-42" d="M163.1,292c-.17-.43-.82-.59-1.44-.34s-1,.8-.82,1.24a1.09,1.09,0,0,0,1.44.34C162.91,293,163.27,292.39,163.1,292Z"/><path class="cls-39" d="M165.55,298.19c.58,1.56,0,3.2-1.21,3.66s-2.72-.43-3.3-2,0-3.2,1.21-3.66S165,296.63,165.55,298.19Z"/><path class="cls-39" d="M167.8,297.35c.58,1.57,0,3.21-1.2,3.67s-2.73-.43-3.31-2,0-3.2,1.21-3.66S167.22,295.79,167.8,297.35Z"/><path class="cls-42" d="M165,296.52c-.16-.44-.8-.61-1.43-.38s-1,.78-.84,1.22.8.61,1.43.38S165.12,297,165,296.52Z"/><path class="cls-39" d="M155.57,303c0,1.67-1.08,3-2.41,3s-2.4-1.35-2.4-3,1.07-3,2.4-3A2.76,2.76,0,0,1,155.57,303Z"/><ellipse class="cls-39" cx="155.57" cy="303.02" rx="2.4" ry="3.02"/><path class="cls-42" d="M155.59,301.25c0-.47-.55-.85-1.22-.85s-1.21.38-1.21.85.54.86,1.21.86S155.59,301.72,155.59,301.25Z"/><path class="cls-39" d="M161.92,303.57c-.75,1.48-2.32,2.2-3.5,1.61s-1.54-2.29-.79-3.78,2.32-2.21,3.5-1.61S162.67,302.08,161.92,303.57Z"/><path class="cls-39" d="M164.07,304.65c-.75,1.49-2.32,2.21-3.51,1.61a2.77,2.77,0,0,1-.79-3.78c.75-1.48,2.32-2.21,3.51-1.61S164.82,303.16,164.07,304.65Z"/><path class="cls-42" d="M162.74,302c.21-.42-.1-1-.7-1.3s-1.26-.21-1.47.21.1,1,.7,1.31A1.09,1.09,0,0,0,162.74,302Z"/><path class="cls-39" d="M168.94,302.59c-.15,1.66-1.35,2.91-2.67,2.79s-2.27-1.57-2.12-3.23,1.34-2.9,2.67-2.78S169.09,300.93,168.94,302.59Z"/><path class="cls-39" d="M171.33,302.81c-.15,1.66-1.34,2.91-2.67,2.79s-2.27-1.57-2.12-3.23a2.76,2.76,0,0,1,2.67-2.78C170.53,299.71,171.48,301.15,171.33,302.81Z"/><path class="cls-42" d="M169.12,300.83c0-.47-.46-.9-1.13-1s-1.24.27-1.29.74.47.9,1.13,1S169.08,301.3,169.12,300.83Z"/><path class="cls-39" d="M180.74,302.8c-.45,1.61-1.85,2.62-3.13,2.27s-2-1.95-1.51-3.55,1.85-2.62,3.13-2.27S181.18,301.2,180.74,302.8Z"/><path class="cls-39" d="M183.05,303.45c-.44,1.6-1.84,2.62-3.12,2.26s-2-1.94-1.51-3.55,1.84-2.62,3.12-2.26S183.5,301.84,183.05,303.45Z"/><path class="cls-42" d="M181.23,301.1c.13-.45-.29-1-.94-1.14s-1.27,0-1.4.49.3,1,.94,1.15S181.1,301.56,181.23,301.1Z"/><path class="cls-39" d="M178.45,305.76c-.44,1.6-1.84,2.62-3.12,2.26s-2-1.94-1.51-3.55,1.85-2.62,3.12-2.26S178.9,304.15,178.45,305.76Z"/><path class="cls-39" d="M180.77,306.4c-.44,1.61-1.84,2.62-3.12,2.26s-2-1.94-1.51-3.55,1.84-2.62,3.12-2.26A2.76,2.76,0,0,1,180.77,306.4Z"/><path class="cls-42" d="M179,304.06c.13-.46-.3-1-.94-1.15s-1.27,0-1.4.5.3,1,.94,1.14S178.82,304.51,179,304.06Z"/><path class="cls-39" d="M171.69,304.51c.34,1.63-.44,3.17-1.74,3.44s-2.63-.84-3-2.47.44-3.17,1.74-3.44S171.35,302.87,171.69,304.51Z"/><path class="cls-39" d="M174.05,304c.33,1.63-.45,3.17-1.75,3.44s-2.63-.84-3-2.47.44-3.17,1.74-3.44S173.71,302.39,174.05,304Z"/><path class="cls-42" d="M171.35,302.77c-.09-.46-.7-.73-1.36-.59s-1.11.62-1,1.08.7.72,1.36.59S171.45,303.23,171.35,302.77Z"/><polygon class="cls-32" points="179.96 334.89 152.83 334.89 149.4 306.8 183.39 306.8 179.96 334.89"/><polygon class="cls-45" points="163.68 334.89 158.26 334.89 156.2 306.8 163 306.8 163.68 334.89"/><polygon class="cls-45" points="174.53 334.89 169.11 334.89 169.79 306.8 176.59 306.8 174.53 334.89"/><path class="cls-32" d="M152.39,302.6c-1.93,0-3.27,1.91-3,4.19h6.8C156,304.51,154.32,302.6,152.39,302.6Z"/><path class="cls-45" d="M159.39,302.6c-1.93,0-3.36,1.91-3.19,4.19H163C162.94,304.51,161.33,302.6,159.39,302.6Z"/><path class="cls-32" d="M166.39,302.6c-1.93,0-3.45,1.91-3.39,4.19h6.79C169.85,304.51,168.33,302.6,166.39,302.6Z"/><path class="cls-45" d="M173.4,302.6c-1.94,0-3.55,1.91-3.61,4.19h6.8C176.76,304.51,175.33,302.6,173.4,302.6Z"/><path class="cls-32" d="M180.4,302.6c-1.93,0-3.64,1.91-3.81,4.19h6.8C183.67,304.51,182.33,302.6,180.4,302.6Z"/><path class="cls-50" d="M184.85,299.73l3-.38a1.44,1.44,0,0,1,1.62,1.26l2.93,24.52"/><path class="cls-51" d="M199.25,334.05h-13.2a5.14,5.14,0,0,1-1.2-3.31V313a5.13,5.13,0,0,1,1.76-3.87l1-.88h10.1l1,.88a5.15,5.15,0,0,1,1.75,3.87v17.71A5.14,5.14,0,0,1,199.25,334.05Z"/><rect class="cls-52" x="190.49" y="314.08" width="9.96" height="14.56"/><rect class="cls-52" x="184.76" y="314.08" width="3.6" height="14.56"/><path class="cls-45" d="M186.83,308.28h11.65a.6.6,0,0,0,.6-.6h0a.6.6,0,0,0-.6-.6H186.83a.6.6,0,0,0-.6.6h0A.59.59,0,0,0,186.83,308.28Z"/><path class="cls-45" d="M186.05,334.05h13.2a.85.85,0,0,1-.84.84H186.89a.85.85,0,0,1-.84-.84Z"/><ellipse class="cls-46" cx="71.36" cy="288.29" rx="9.5" ry="55.15"/><path class="cls-46" d="M39.24,243.82c-3.41,9.89-2.4,31.57,3.25,55.86s14.32,44.19,21.75,51.56c3.42-9.89,2.41-31.57-3.25-55.86S46.68,251.19,39.24,243.82Z"/><ellipse class="cls-46" cx="91.89" cy="300.7" rx="58.61" ry="9.5" transform="translate(-222.01 318.99) rotate(-76.34)"/><path class="cls-47" d="M60.2,249.76c-4.84,9.28-7,30.87-5,55.73s7.66,45.81,13.92,54.2c4.84-9.29,7-30.88,5-55.74S66.46,258.14,60.2,249.76Z"/><path class="cls-47" d="M85.31,249.76c4.84,9.28,7,30.87,5,55.73s-7.66,45.81-13.93,54.2c-4.83-9.29-7-30.88-5-55.74S79.05,258.14,85.31,249.76Z"/><path class="cls-40" d="M103.55,323.83c0,.95,0,1.88,0,2.82,0,1.72,0,3.4-.07,5.07,0,1.24-.07,2.45-.1,3.65-1.89,54.6-16.67,80-16.67,80H58s-3.52-6.06-7.36-18.64c-.5-1.6-1-3.32-1.48-5.14-1.48-5.47-2.94-11.94-4.22-19.39q-.84-4.92-1.53-10.42c-1-7.87-1.75-16.68-2.09-26.4-.12-3.7-.19-7.55-.19-11.54Z"/><rect class="cls-40" x="37.67" y="318.52" width="69.28" height="5.31"/><path class="cls-53" d="M103.54,323.83q0,6-.18,11.55H41.26q-.18-5.56-.18-11.55Z"/><path class="cls-54" d="M46.93,372.52a6.23,6.23,0,0,1-2-.33q-.84-4.92-1.53-10.42a5.63,5.63,0,0,1,3.57-1.16C54.6,360.61,54.58,372.52,46.93,372.52Z"/><path class="cls-54" d="M57.18,349.56a1.28,1.28,0,0,0,0,2.55A1.28,1.28,0,0,0,57.18,349.56Z"/><path class="cls-54" d="M78.44,347.86a1.28,1.28,0,0,0,0,2.55A1.28,1.28,0,0,0,78.44,347.86Z"/><path class="cls-54" d="M68.19,376.34v.43a.85.85,0,0,0,1.7,0v-.43A.85.85,0,0,0,68.19,376.34Z"/><path class="cls-54" d="M87.75,368.69c-3.29,0-3.29,5.1,0,5.1S91,368.69,87.75,368.69Z"/><path class="cls-54" d="M74.14,360.19c-3.28,0-3.29,5.1,0,5.1S77.43,360.19,74.14,360.19Z"/><path class="cls-54" d="M95.44,350.83a1.28,1.28,0,0,0,0,2.55A1.28,1.28,0,0,0,95.44,350.83Z"/><path class="cls-54" d="M71.59,399.73A2.59,2.59,0,0,0,69,402.28v.43a2.55,2.55,0,1,0,5.1,0v-.43A2.58,2.58,0,0,0,71.59,399.73Z"/><path class="cls-54" d="M52.88,393.78v.42a2.56,2.56,0,0,1-2.29,2.52c-.5-1.6-1-3.32-1.48-5.14a2.41,2.41,0,0,1,1.22-.35A2.57,2.57,0,0,1,52.88,393.78Z"/><path class="cls-54" d="M83.07,392.08a2.59,2.59,0,0,0-2.55,2.55v.42a2.57,2.57,0,0,0,2.55,2.55,2.59,2.59,0,0,0,2.55-2.55v-.42A2.57,2.57,0,0,0,83.07,392.08Z"/><path class="cls-54" d="M94.55,383.57c-3.28,0-3.29,5.1,0,5.1S97.84,383.57,94.55,383.57Z"/><path class="cls-54" d="M67.76,380.17a2.59,2.59,0,0,0-2.55,2.55v.43a2.56,2.56,0,0,0,5.11,0v-.43A2.59,2.59,0,0,0,67.76,380.17Z"/><path class="cls-54" d="M66.91,341.48c-3.28,0-3.28,5.1,0,5.1S70.2,341.48,66.91,341.48Z"/><path class="cls-54" d="M47.26,337.23H47a1.39,1.39,0,0,0-1.38,1.37A1.41,1.41,0,0,0,47,340h.23a1.38,1.38,0,0,0,0-2.75Z"/><path class="cls-54" d="M89.92,337.23a1.28,1.28,0,0,0,0,2.55A1.28,1.28,0,0,0,89.92,337.23Z"/><path class="cls-54" d="M83.64,409.08a.85.85,0,0,0,0,1.7A.85.85,0,0,0,83.64,409.08Z"/><path class="cls-54" d="M60.71,402.25l-.28-.29a.85.85,0,0,0-1.2,1.21l.28.28C60.28,404.22,61.49,403,60.71,402.25Z"/><path class="cls-54" d="M50.76,376.77a.85.85,0,0,0,0,1.7A.85.85,0,0,0,50.76,376.77Z"/><path class="cls-54" d="M53.88,383.29v.57a1.7,1.7,0,0,0,3.4,0v-.57A1.7,1.7,0,0,0,53.88,383.29Z"/><path class="cls-54" d="M59,339.35a.85.85,0,0,0,0,1.7A.85.85,0,0,0,59,339.35Z"/><path class="cls-54" d="M66,323.83a2.46,2.46,0,0,1-4.9,0Z"/><path class="cls-54" d="M45.06,328.9H45a.88.88,0,0,0-.82.62,1.2,1.2,0,0,0,0,.65.87.87,0,0,0,.82.62h.08a.74.74,0,0,0,.79-.93A.76.76,0,0,0,45.06,328.9Z"/><path class="cls-54" d="M103.53,326.65c0,1.72,0,3.4-.07,5.07a3.17,3.17,0,0,1-2.24.83c-4.39,0-4.39-6.8,0-6.8A3.17,3.17,0,0,1,103.53,326.65Z"/><path class="cls-54" d="M75.13,331.42v.28a1.71,1.71,0,0,0,3.41,0v-.28A1.71,1.71,0,0,0,75.13,331.42Z"/><path class="cls-54" d="M66.18,409.08a1.7,1.7,0,0,0,0,3.4A1.7,1.7,0,0,0,66.18,409.08Z"/><rect class="cls-55" y="414.37" width="750" height="85.63"/><path class="cls-6" d="M138.81,58h0a13.53,13.53,0,0,1,13.53,13.53V85.07a0,0,0,0,1,0,0H125.29a0,0,0,0,1,0,0V71.55A13.53,13.53,0,0,1,138.81,58Z"/><rect class="cls-6" x="137.53" width="2.57" height="64.2"/><path class="cls-6" d="M213.43,110.2H186.37V96.67A13.52,13.52,0,0,1,199.9,83.15h0a13.52,13.52,0,0,1,13.53,13.52Z"/><rect class="cls-6" x="198.61" width="2.57" height="89.33"/><path class="cls-6" d="M724.05,110.2H697V96.67a13.52,13.52,0,0,1,13.53-13.52h0a13.52,13.52,0,0,1,13.52,13.52Z"/><rect class="cls-6" x="709.24" width="2.57" height="89.33"/><path class="cls-6" d="M273.9,62.43h-27V48.91a13.52,13.52,0,0,1,13.52-13.53h0A13.53,13.53,0,0,1,273.9,48.91Z"/><rect class="cls-6" x="259.09" width="2.57" height="41.56"/><path class="cls-6" d="M692.61,62.43H665.56V48.91a13.52,13.52,0,0,1,13.52-13.53h0a13.53,13.53,0,0,1,13.53,13.53Z"/><rect class="cls-6" x="677.8" width="2.57" height="41.56"/></g></svg>