<svg id="Layer_1" data-name="Layer 1" xmlns="http://www.w3.org/2000/svg" viewBox="0 0 2000 1500"><defs><style>.cls-1{fill:#009c68;}.cls-2{fill:#47b489;}.cls-3{fill:#182834;}.cls-13,.cls-18,.cls-4{fill:none;stroke-miterlimit:10;}.cls-4{stroke:#12100b;}.cls-13,.cls-4{stroke-width:0.75px;}.cls-5{fill:#9fbde4;}.cls-6{fill:#557bbd;}.cls-7{fill:#fff;}.cls-8{fill:#2a7dc1;}.cls-9{fill:#4a2c60;}.cls-10{fill:#eb856d;}.cls-11{fill:#fcbe31;}.cls-12{fill:#ec6735;}.cls-13{stroke:#182834;}.cls-14{fill:#f7c5aa;}.cls-15{fill:#ffde00;}.cls-16{fill:#f4bbaa;}.cls-17{fill:#d9e9f9;}.cls-18{stroke:#557bbd;}</style></defs><rect class="cls-1" width="2000" height="1500"/><path class="cls-2" d="M474,1011.56s-2.85-344.1,46.58-497c0,0,36.12,95.42,19,220.31S486.36,940.92,474,1011.56Z"/><path class="cls-3" d="M540,731.52c-19.34,38.74-42.15,91.5-64.19,159.41-2.23,70.49-1.82,120.63-1.82,120.63,12.36-70.64,48.48-151.77,65.59-276.65C539.74,733.77,539.86,732.65,540,731.52Z"/><path class="cls-2" d="M461.58,1011.56S517.71,799.67,591.8,704.22c0,0,9.45,67.56-20,135.33S477.74,959.92,461.58,1011.56Z"/><path class="cls-2" d="M489.73,1011.56S477.65,755.07,362.5,583.11c0,0-18.25,85,52.14,234.88C470.79,937.56,489.73,1011.56,489.73,1011.56Z"/><path class="cls-4" d="M362.5,583.11S452,762.85,489.73,1011.56"/><path class="cls-4" d="M520.58,514.6s-30.36,227.6-46.58,497"/><path class="cls-4" d="M591.8,704.22s-69.39,121.63-130.22,307.34"/><polygon class="cls-5" points="404.56 936.84 436.88 1320.48 522.42 1320.48 554.74 936.84 404.56 936.84"/><polygon class="cls-6" points="461.58 1320.48 549.06 1004.26 522.42 1320.48 461.58 1320.48"/><rect class="cls-5" x="836.84" y="179.52" width="406.31" height="776.55"/><rect class="cls-7" x="849.67" y="192.35" width="380.66" height="750.9"/><rect class="cls-5" x="1035.19" y="184.87" width="9.62" height="765.86"/><rect class="cls-5" x="843.41" y="562.99" width="393.19" height="9.62"/><path class="cls-5" d="M1452.23,1207.46h9.62V295.62a37,37,0,0,0-37-37H1394a36.71,36.71,0,0,0-26.14,10.82l-60.17,60.18,6.8,6.8,60.17-60.17a27.15,27.15,0,0,1,19.34-8h30.92a27.36,27.36,0,0,1,27.34,27.34Z"/><path class="cls-3" d="M1345.19,346.41l-17.51,67.88-94.76-94.76L1300.8,302c7.92-2,20.74,4.44,30.34,14.05h0C1340.74,325.67,1347.23,338.49,1345.19,346.41Z"/><rect class="cls-3" x="1311.82" y="298.75" width="43.51" height="29.77" transform="translate(168.83 1034.84) rotate(-45)"/><rect class="cls-5" x="1419.51" y="1060.24" width="72.68" height="260.24"/><polygon class="cls-6" points="1492.19 1104.78 1492.19 1320.48 1455.85 1320.48 1492.19 1104.78"/><polygon class="cls-8" points="822.44 1025.79 784.87 1025.79 740.01 1320.48 763.38 1320.48 822.44 1025.79"/><polygon class="cls-8" points="920.61 1025.79 883.05 1025.79 868.18 1320.48 891.55 1320.48 920.61 1025.79"/><polygon class="cls-9" points="953.34 1025.79 990.91 1025.79 1005.77 1320.48 982.4 1320.48 953.34 1025.79"/><polygon class="cls-8" points="1043.16 980.02 1080.72 980.02 1133.95 1320.48 1110.57 1320.48 1043.16 980.02"/><polygon class="cls-9" points="784.87 1025.79 781.79 1046.05 818.38 1046.05 822.44 1025.79 784.87 1025.79"/><polygon class="cls-9" points="1043.16 980.02 1056.23 1046.05 1091.05 1046.05 1080.72 980.02 1043.16 980.02"/><path class="cls-8" d="M1024.86,724.47c-31.25,84.53-61.56,184.62-80,206.14s-141.44,23.57-164,44.07-28.62,51.11-28.62,51.11h292a104,104,0,0,0,101.94-83.53L1199,678.4c6.06-30.22-19.64-57.46-50.12-52.91C1102.84,632.38,1049.18,658.7,1024.86,724.47Z"/><polygon class="cls-9" points="882.02 1046.05 918.62 1046.05 920.61 1025.79 883.05 1025.79 882.02 1046.05"/><path class="cls-9" d="M1005.42,992.32A132.25,132.25,0,0,0,1135.1,886.06L1168,721.85l-1.46.28C1084.3,738,1016.91,796.6,988,875.21c-12,32.64-22.65,58-30.9,67.61-18.45,21.53-141.43,23.58-164,44.07-1.91,1.74-3.67,3.57-5.35,5.43Z"/><path class="cls-10" d="M841.23,556.08,768.4,748.36l60.24,60.31,67.66-126.3S887.46,632.78,841.23,556.08Z"/><path class="cls-11" d="M841.23,556.08c-20.09,4.4-64,172.1-64,172.1l77.22,71.15,62.64-133.87S883.49,546.82,841.23,556.08Z"/><path class="cls-3" d="M904.09,628l-71,151.65,21.35,19.66,62.64-133.87S912.33,648.56,904.09,628Z"/><path class="cls-7" d="M707.84,905.51l-96.66,202.93L709,1177.51,816.17,954.15s134,35.2,202.34,5.62c45-19.47,62-112.31,62-112.31H799.79A101.86,101.86,0,0,0,707.84,905.51Z"/><path class="cls-12" d="M707.84,905.51l-96.66,202.93L709,1177.51,816.17,954.15s134,35.2,202.34,5.62c45-19.47,62-112.31,62-112.31H799.79A101.86,101.86,0,0,0,707.84,905.51Z"/><path class="cls-11" d="M1080.54,847.46H863.78s21.16-128.72,21.68-147.07-44.23-144.31-44.23-144.31l239.31-42.87S1121.42,653.5,1080.54,847.46Z"/><path class="cls-3" d="M1080.54,513.21l-13.67,94.39a991.41,991.41,0,0,1-13,239.86h26.72C1121.42,653.5,1080.54,513.21,1080.54,513.21Z"/><path class="cls-13" d="M1092,513.21"/><ellipse class="cls-3" cx="660.28" cy="1142.75" rx="20.99" ry="59.88" transform="matrix(0.57, -0.82, 0.82, 0.57, -654.54, 1028.21)"/><path class="cls-3" d="M710.31,1150c-7.53-10.48-19.31-21.6-33.17-31.3-15.18-10.63-30.72-18.17-43.76-21.25l.55-2.34c13.33,3.14,29.17,10.82,44.59,21.62,14.08,9.86,26.06,21.18,33.74,31.87Z"/><path class="cls-14" d="M697.56,680s12.49-10.37,33.65-14.78c0,0,81.25,111.76,97.43,143.5,0,0-18.46,30-50.83,25.57C739,829,697.56,680,697.56,680Z"/><path class="cls-14" d="M900.81,482.9l8.7,61S920.64,565.5,939,565.5c21.76,0,41.16-15.34,42.92-34.63L939.16,416.33Z"/><path class="cls-3" d="M939,579.93c-16.74,0-28.66-10.55-35.7-19.41l1.88-1.5c6.71,8.44,18,18.5,33.82,18.5,22.87,0,43.63-13.06,51.66-32.5l2.23.92C984.5,566.27,962.85,579.93,939,579.93Z"/><path class="cls-3" d="M769,640.56,664,487.83c-15.87,33.4-13.21,59.83-13.21,59.83l105,152.73S753.15,674,769,640.56Z"/><path class="cls-7" d="M650.82,547.66,756,700.39a283.88,283.88,0,0,1,109.11-75.16L759.93,472.5A283.88,283.88,0,0,0,650.82,547.66Z"/><path class="cls-2" d="M678,549.85a264.33,264.33,0,0,1,74.27-51.16l80.89,117.43a307.48,307.48,0,0,0-74.27,51.16Z"/><path class="cls-15" d="M742,642.7l16.93,24.58a307.48,307.48,0,0,1,74.27-51.16l-68.1-98.86Z"/><path class="cls-14" d="M739.42,563l-38.37,23.32c3.65-12.31,7.59-26.21,8-30.3.86-7.79-5.38-12.31-5.38-12.31L682,588l-8.21,45.15L697.56,680l33.65-14.78c-.41-16.41-7-38.57-7-38.57s19.29-23.39,20.11-36.11S739.42,563,739.42,563Z"/><polygon class="cls-16" points="645.57 1223.93 685.66 1160.53 628.48 1120.49 601.92 1188.23 645.57 1223.93"/><path class="cls-11" d="M488.11,1136s10.64-26.4,121.64,32.28l41.51,46.68s1.07,22.49-29.42,54.76Z"/><path class="cls-3" d="M488.11,1136c-7.73,7.73,15.94,43.93,52.87,80.85s73.13,60.6,80.86,52.87-15.94-43.93-52.87-80.86S495.84,1128.24,488.11,1136Z"/><path class="cls-3" d="M629.62,1259.76c-6.82-23.2-34.27-54.1-56.1-75.93-6.52-6.52-40.42-39.73-67.07-52.65l1-2.17c27,13.1,61.16,46.55,67.73,53.12,22,22,49.75,53.26,56.71,76.95Z"/><path class="cls-10" d="M1127,773l66.49-43.7a315.71,315.71,0,0,0-12-53.73l-79.7,28.32Z"/><path class="cls-14" d="M1147.58,700.39c-45.43,0-157.29,56.26-157.29,56.26l17.64,39.68s129.6-7.94,164.87-28.22S1198.37,700.39,1147.58,700.39Z"/><path class="cls-11" d="M1087.28,709c-27.33-70.53-51-189.58-6.74-195.83,30.54-4.3,81.68,63.58,117.83,156.16Z"/><path class="cls-3" d="M1086.16,709.48c-13.55-35-29.88-92.13-31.35-138.25l2.4-.08c1.46,45.82,17.71,102.69,31.19,137.46Z"/><path class="cls-10" d="M907.68,531.05c34.45-29.78,28.68-71.79,28.68-71.79l.37-38.19-.33.05L900.81,482.9Z"/><path class="cls-14" d="M888.9,357.26c-56,5.73-74.94,62.6-48.49,121.67s56.43,43.2,77.59,16.75,30.15-73.05,20.28-102.27C927.7,362.11,901.64,356,888.9,357.26Z"/><path class="cls-3" d="M807.35,353.73c-21,10.68-33.5,52.9-13.67,74.06s45,10.45,66.57-8.37c17.35-15.12,29.09-35.71,29.09-35.71s5.37,24.59,22.49,37.47,39.67,28.2,39.67,28.2,11.15-56.35,7-77.13c-6.17-31.3-33.5-23.81-33.5-23.81s-8-20.33-29.09-18.07c-37,4-54.73,44.08-54.73,44.08S830.71,341.83,807.35,353.73Z"/><path class="cls-14" d="M944,791.92,910.5,851.43S922,856.08,929,845.16s22.48-40,22.48-40Z"/><circle class="cls-3" cx="871.59" cy="443.39" r="4.89"/><path class="cls-3" d="M841.23,449.47a4.9,4.9,0,1,0,4.89,4.9A4.89,4.89,0,0,0,841.23,449.47Z"/><path class="cls-14" d="M923.73,438.24s-7.49-33.81,6.17-39.1,15.87,29.42,6.61,44.25Z"/><path class="cls-3" d="M929,845.16c7.05-10.92,22.48-40,22.48-40L944,799.85l-16.15,46.89A16.54,16.54,0,0,0,929,845.16Z"/><path class="cls-3" d="M860,492.11l-.36-2.38c.14,0,13.93-2.3,24.85-17.92l2,1.38C874.91,489.7,860.59,492,860,492.11Z"/><path class="cls-14" d="M968.69,873.25l-17.8-15a19.35,19.35,0,0,1-6.88-14.8v-51.5l46.28-35.27,17.64,39.68-27.55,34.6S982.8,871.71,968.69,873.25Z"/><polygon class="cls-3" points="954.04 860.88 956.02 862.55 956.02 808.67 954.04 808.67 954.04 860.88"/><path class="cls-3" d="M967.7,872.41l1,.84a8,8,0,0,0,1-.2V821.67h-2Z"/><polygon class="cls-3" points="701.05 586.31 687 594.11 709.09 556.01 701.05 586.31"/><path class="cls-3" d="M742,571.2l-28.29,19.43,1.13,1.64,27.68-19C742.33,572.55,742.16,571.86,742,571.2Z"/><path class="cls-3" d="M744.06,582.12l-26.51,23,1.29,1.5,25.44-22C744.23,583.73,744.15,582.92,744.06,582.12Z"/><path class="cls-3" d="M884.27,700.55c-.07-.52-7.1-52.58-31.58-107.79l2.2-1c24.63,55.55,31.7,107.93,31.76,108.46Z"/><polygon class="cls-16" points="780.1 1134.5 780.1 1260.96 832.41 1260.96 840.34 1134.5 780.1 1134.5"/><polygon class="cls-3" points="780.1 1213.36 833.49 1243.79 840.34 1134.5 780.1 1134.5 780.1 1213.36"/><path class="cls-11" d="M852.94,1320.48H751.34c0-38.36,28.76-59.51,28.76-59.51h52.31S852.27,1287.42,852.94,1320.48Z"/><rect class="cls-3" x="751.94" y="1312.22" width="100.33" height="2.4"/><path class="cls-3" d="M813.36,960l2.81-5.84s82.88,21.76,151.52,16.67h0S876.47,931,809,931Z"/><polygon class="cls-3" points="709.04 1177.51 789.93 1008.84 759.33 962.77 672.25 1151.54 709.04 1177.51"/><path class="cls-12" d="M754.25,985.81v217H863.78v-217A54.77,54.77,0,0,0,809,931h0A54.76,54.76,0,0,0,754.25,985.81Z"/><rect class="cls-3" x="754.25" y="1184.37" width="109.53" height="2.4"/><path class="cls-10" d="M850.1,477.33a31.13,31.13,0,0,0,8.91,2.35c4.1.25,5.13-4.63,5.13-4.63Z"/><rect class="cls-17" x="1076.26" y="789.56" width="22.04" height="530.92"/><rect class="cls-17" x="1527.67" y="789.56" width="22.04" height="530.92"/><rect class="cls-17" x="1032.61" y="778.25" width="560.74" height="22.61"/><path class="cls-6" d="M1253.38,764h0a14.25,14.25,0,0,0,14.26,14.25h189.83A14.25,14.25,0,0,0,1471.73,764H1253.38Z"/><path class="cls-5" d="M1540.33,565.08h0l-74.68,205.18h0a14.24,14.24,0,0,0,18.27-8.52l64.93-178.38A14.28,14.28,0,0,0,1540.33,565.08Z"/><line class="cls-18" x1="322.67" y1="1320.48" x2="1757.33" y2="1320.48"/></svg>