<svg xmlns="http://www.w3.org/2000/svg" viewBox="0 0 801.73 579.92"><defs><style>.cls-1{fill:#2e4b9b;}.cls-2,.cls-8{fill:#d1e09a;}.cls-2{stroke:#090909;}.cls-10,.cls-11,.cls-12,.cls-13,.cls-17,.cls-18,.cls-19,.cls-2,.cls-20,.cls-21,.cls-23,.cls-24,.cls-25,.cls-26,.cls-27,.cls-28,.cls-29,.cls-3,.cls-30,.cls-4,.cls-5,.cls-6,.cls-7,.cls-9{stroke-miterlimit:10;}.cls-3{fill:#fccc35;stroke:#020202;}.cls-4{fill:#aed5a8;}.cls-4,.cls-6,.cls-7{stroke:#010101;}.cls-5{fill:#93c3b6;stroke:#060606;}.cls-6{fill:#f49c5a;}.cls-7{fill:#e93c8c;}.cls-9{fill:#faf9e1;}.cls-10,.cls-11,.cls-12,.cls-13,.cls-23,.cls-24,.cls-25,.cls-26,.cls-27,.cls-28,.cls-30,.cls-9{stroke:#0a0c0b;}.cls-10,.cls-23,.cls-24,.cls-25,.cls-26,.cls-27,.cls-28,.cls-9{stroke-width:0.15px;}.cls-10{fill:#a5ced9;}.cls-11{fill:#8ebeba;}.cls-12{fill:#f7bcbe;}.cls-13{fill:#eb6b5b;}.cls-14{fill:#090707;}.cls-15,.cls-18,.cls-19,.cls-21,.cls-24{fill:#fff;}.cls-16{fill:#0a0c0b;}.cls-17,.cls-20,.cls-29{fill:none;}.cls-17{stroke:#fff;}.cls-18{stroke:#0d100f;}.cls-18,.cls-19{opacity:0.64;}.cls-19,.cls-20,.cls-21{stroke:#080a0a;}.cls-22{fill:#080a0a;}.cls-23{fill:#caa57d;}.cls-25{fill:#577d32;}.cls-27{fill:#aedbe4;}.cls-28{fill:#e13565;}.cls-29{stroke:#000;stroke-width:0.25px;}.cls-30{fill:#61602b;}</style></defs><g id="Layer_7" data-name="Layer 7"><rect class="cls-1" width="801.73" height="579.92"/></g><g id="Layer_1" data-name="Layer 1"><path class="cls-2" d="M81.4,536.38c.42,8.13,23.53,12.39,27.69,33.8,2.36,12.15-3.72,17.74-1,28.61,3.31,13.37,16.84,22.37,35.37,30.16,49.35,20.75,100,18.5,113.89,17.68A408.57,408.57,0,0,0,368.6,624.27c54.73-19.37,81.11-42.33,108.7-48.37,12.88-2.81,23.8-11.35,35.88-16.64,1.37-.6,5-2.16,5.2-4.68.29-3-4.32-5.47-6.76-7.28-10.27-7.59-10.29-24.1-10.92-27C493.82,488.22,79.61,501.76,81.4,536.38Z" transform="translate(121.68 -137.72)"/><path class="cls-3" d="M124.33,414.71c-3.73,2.21-11.18,8-23.77,12.16-7.47,2.47-12.55,3-21,7.51-6.28,3.37-10.12,6.67-13,10.87-1.8,2.68-4,6-3.88,10.36.17,5.77,4.31,10.13,7,12.94,4.6,4.84,7,4.43,8.8,8.29a14,14,0,0,1,.26,10.87c-2.2,5.44-6.48,4.84-12.69,11.39-2.88,3-7.21,7.62-7.5,14-.32,6.83,4.16,11.92,6.21,14.24a29,29,0,0,0,16.57,9.06l256.78.62c-.7-9.53-6.55-75.24-61.58-113.24C214.89,381.14,138.75,406.13,124.33,414.71Z" transform="translate(121.68 -137.72)"/><path class="cls-4" d="M268.57,448.46,286.84,537H507.09a61.17,61.17,0,0,0,13.61-7.29c8-5.69,9.92-7.69,10.7-9.73a14.08,14.08,0,0,0,.21-9c-2.23-6.37-8.91-6.87-19.09-12.23-16.63-8.75-17.91-17.46-35.43-23.27a68.06,68.06,0,0,0-7.1-1.92C446.24,468.42,315.72,453.71,268.57,448.46Z" transform="translate(121.68 -137.72)"/><path class="cls-5" d="M268.57,448.46l263,62.57c-1.64-6.17-4.39-9.62-6.51-11.61-4.27-4-8.15-4.08-11.89-8.49-1.52-1.79-4.53-5.3-4.25-9.34.46-6.51,9-8.19,10.15-11.91,3.12-10.26-46.91-46.61-105.25-55.21C352.17,405.37,299.16,429.93,268.57,448.46Z" transform="translate(121.68 -137.72)"/><path class="cls-6" d="M125.07,266c-1.44,1.22-10.28,8.9-8.6,16.91,1.34,6.4,8.65,9.44,17.1,12.95,4,1.68,11.15,4.24,36.53,9.24,8.74,1.73,14.55,2.74,16.18,6.94s-1.75,8.9-2.31,9.71c-5.74,8.22-16.65,8-32.83,10.17-22,2.93-12.2,4.68-53.17,13.41-10.23,2.18-19.47,3.9-24,11.55-.38.64-4.15,7.17-1.85,13.87.76,2.22,2.46,5.24,16.18,13,9.52,5.34,14.28,8,21.27,10.63,9.6,3.6,14.11,3.8,16.18,7.86s.39,8.83-1.38,12.49l144.24,33.75c26-7.6,53.74-14.81,83.22-21.27q32.25-7.06,62.32-12A716.81,716.81,0,0,0,277,323.4,716.77,716.77,0,0,0,125.07,266Z" transform="translate(121.68 -137.72)"/><path class="cls-7" d="M125.07,266a182.29,182.29,0,0,1,40.63-9.53c44.58-5.08,54.68-5,54.68-5,6.59,0,16.86.36,19.57-5,2-4-1.07-9.27-1.51-10-6.63-11.39-23.12-7.82-27.09-16.55-1.16-2.57-1.69-7.17,3.51-15.56a200.33,200.33,0,0,1,24.08-6c8.69-1.6,18.42-2.8,50.17-3,56.85-.36,38.25,3.42,63.21,3a52.74,52.74,0,0,1,25.09,6.53c5.41,3.06,6.35,5.07,6.52,6.52.65,5.56-9.09,11.44-15.05,15.05-3.94,2.38-9.43,5.17-15.55,11-1.83,1.75-3.2,3.28-3,5,.39,3.81,7.87,6,12,7,19.05,4.88,40.89,5.42,56.68,6.53,0,0,16.49,1.15,39.64,8.52,4.92,1.57,11.52,3.91,13.54,9.54,2.2,6.13-2.28,12.72-2.51,13-3.73,5.32-16.08,8-40.63,13-6.1,1.26-14.77,3.05-21.57,10-2.16,2.21-4.27,4.43-4,7,.51,5.24,10.41,8.49,29.6,13,22.32,5.3,34.79,7.06,53.18,12,22.56,6.11,28.44,10.14,30.6,16.06,2.93,8-2.14,16.46-2.51,17.05-3.81,6.15-9.87,8.57-21.57,13.05-13.05,5-18.22,4.53-23.58,10.53-1.35,1.52-5.5,6.16-4.51,11,1,5.12,7.19,7.81,12.54,10,30.61,12.74,39.23,12.43,45.15,21.07.78,1.15,6.39,9.61,3.51,18.56a19.15,19.15,0,0,1-6.52,9L413.86,414.47Z" transform="translate(121.68 -137.72)"/><path class="cls-8" d="M263.26,549.2" transform="translate(121.68 -137.72)"/></g><g id="Layer_4" data-name="Layer 4"><path class="cls-9" d="M383.61,455.23c5.5,1,9.88,1.69,12.79,2.13,6,.92,8.9,1.24,10.88,3.71a10.89,10.89,0,0,1,2,5.16c.22,1.29.33,3.06-.56,7.18s-1.55,4.74-2.69,9.08-1.71,6.51-1.46,8.87a28.29,28.29,0,0,0,2.92,8.86c1.36,2.85,2.26,3.86,1.91,4.26-.81.9-7.15-1.54-11.11-6.17-5.82-6.79-2.59-13.73-5.9-25.72A50.42,50.42,0,0,0,383.61,455.23Z" transform="translate(121.68 -137.72)"/><path d="M390.41,462.77A109.82,109.82,0,0,0,406,465.6c.6.06.6-.88,0-.94a106.11,106.11,0,0,1-15.32-2.8.47.47,0,0,0-.25.91Z" transform="translate(121.68 -137.72)"/><path d="M392.43,470.29c5,2.37,10,5.41,15.6,5.89.6.05.6-.88,0-.93-5.4-.47-10.31-3.48-15.12-5.76-.54-.26-1,.55-.48.8Z" transform="translate(121.68 -137.72)"/><path d="M394.2,476.41l9.54,4.28c.54.24,1-.56.47-.81l-9.54-4.28c-.55-.24-1,.56-.47.81Z" transform="translate(121.68 -137.72)"/></g><g id="Layer_5" data-name="Layer 5"><path class="cls-10" d="M392.92,476.19c-1.5-.45-3.22,1.12-4.74,2.53a22.38,22.38,0,0,0-4.74,6.31c-3.77,7.49-5.66,11.23-4.18,14.37,1.64,3.5,6.6,6,9.63,4.74,3.77-1.6,2.13-8.07,7.11-11.13,3-1.86,5.67-.75,6.23-2.29.75-2.05-4.1-3.64-6.79-10C394.42,478.36,394.28,476.6,392.92,476.19Z" transform="translate(121.68 -137.72)"/><rect class="cls-11" x="434.21" y="140.62" width="111.09" height="51.58" rx="9.96"/><rect class="cls-11" x="569.08" y="140.62" width="111.09" height="51.58" rx="9.96"/><rect class="cls-12" x="444.1" y="147.47" width="91.31" height="37.88" rx="7.31"/><rect class="cls-12" x="578.97" y="147.47" width="91.31" height="37.88" rx="7.31"/><line class="cls-12" x1="545.3" y1="166.41" x2="569.08" y2="166.41"/><line class="cls-12" x1="476.46" y1="156.79" x2="489.75" y2="170.7"/><line class="cls-12" x1="494.4" y1="156.79" x2="506.06" y2="166.41"/><line class="cls-12" x1="459.7" y1="161.05" x2="470.93" y2="170.54"/><polyline class="cls-12" points="594.55 161.6 605.67 177.19 605.67 156.79 619.08 171.8"/><line class="cls-12" x1="624.62" y1="156.79" x2="639.09" y2="171.8"/><rect class="cls-13" x="170.4" y="282.28" width="95.5" height="52.97"/><line class="cls-13" x1="265.9" y1="308.76" x2="294.39" y2="308.76"/><line class="cls-13" x1="189.66" y1="297.43" x2="245.03" y2="297.43"/><ellipse class="cls-14" cx="218.15" cy="305.06" rx="16.06" ry="7.62"/><rect class="cls-13" x="294.39" y="282.28" width="95.5" height="52.97"/><line class="cls-13" x1="313.65" y1="297.43" x2="369.02" y2="297.43"/><ellipse class="cls-14" cx="342.14" cy="305.06" rx="16.06" ry="7.62"/><ellipse class="cls-15" cx="270.53" cy="222.95" rx="29.8" ry="25.64"/><circle class="cls-16" cx="270.53" cy="222.95" r="9.25"/><ellipse class="cls-15" cx="350.19" cy="222.95" rx="29.8" ry="25.64"/><circle class="cls-16" cx="350.19" cy="222.95" r="9.25"/><path class="cls-17" d="M110.62,332.93c1.4-1.88,13.64-17.69,34.54-17.79,16.08-.08,26.77,9.19,29.31,11.51" transform="translate(121.68 -137.72)"/><path class="cls-17" d="M199.59,325.61a46.73,46.73,0,0,1,23-7.33c4.15-.18,14.7-.49,25.12,6.28a39.67,39.67,0,0,1,11.52,11.51" transform="translate(121.68 -137.72)"/><ellipse class="cls-18" cx="505.46" cy="268.96" rx="40.34" ry="36.72"/><ellipse class="cls-19" cx="608.91" cy="268.96" rx="40.34" ry="36.72"/><path class="cls-20" d="M424.13,406.68a11.79,11.79,0,0,1,22.47,1.72" transform="translate(121.68 -137.72)"/><polygon class="cls-21" points="344.33 118.98 365.66 107.73 391.55 109.74 405.96 118.98 386.28 130.63 358.97 130.63 344.33 118.98"/><polygon class="cls-21" points="427.25 119.18 447.74 107.73 473.85 107.73 494.31 119.18 472.64 130.63 442.12 130.63 427.25 119.18"/><polyline class="cls-20" points="348.2 104.92 365.33 99.3 388.69 99.3 396.76 104.92"/><polyline class="cls-20" points="433.14 104.92 446.94 99.3 470.23 99.3 485.09 107.73"/><ellipse class="cls-22" cx="372.48" cy="124.49" rx="12.85" ry="6.95"/><ellipse class="cls-22" cx="460.78" cy="124.49" rx="12.85" ry="6.95"/></g><g id="Layer_3" data-name="Layer 3"><path class="cls-16" d="M98,647.29A47.65,47.65,0,0,0,98.18,661c2.13,13.47,10.43,27.42,15.35,26.45,3.39-.67,4.42-8.26,5.4-15.47.57-4.22,2.72-20.48-4.27-24a7.83,7.83,0,0,0-5.11-.42Z" transform="translate(121.68 -137.72)"/><path class="cls-16" d="M449.32,624a65.15,65.15,0,0,1,35.39,0c3.3,1,17.79,5.24,17.47,9.69-.4,5.52-23.8,13.3-40.43,3.57A33.55,33.55,0,0,1,449.32,624Z" transform="translate(121.68 -137.72)"/><path class="cls-23" d="M191.77,513a7.81,7.81,0,0,0-5,3c-3.52,5.4,4.06,15,5.08,16.26,2.62,3.31,6.28,7.93,12.87,9,8.57,1.35,14.8-4.5,15.58-5.25s6.48-6.44,5.59-11.52C224.64,517.52,211.07,511.87,191.77,513Z" transform="translate(121.68 -137.72)"/><path class="cls-24" d="M337.92,507.52l30.89-1.11,9.3-16.07a16.12,16.12,0,0,1,7.56,1.26c1.6.7,5.73,2.49,7.25,6.78a10.05,10.05,0,0,1,.47,4.57l-10.08,17.49a159.13,159.13,0,0,1-18.6,6.78,157.37,157.37,0,0,1-22.54,4.88Q340.05,519.81,337.92,507.52Z" transform="translate(121.68 -137.72)"/><path class="cls-25" d="M431.26,519,318.71,566.23c-30.5,25.7-83.76,62.42-157.45,75.58a316.61,316.61,0,0,1-54.62,4.91,16,16,0,0,0,0,6.81,17.11,17.11,0,0,0,7.24,10.22,272.43,272.43,0,0,0,184.39-54.08l11.92-.85,108.16-57.06c5.58,16,12.3,33,20.44,50.67q6.07,13.16,12.35,25.12c4.65,5.88,12,6.08,14.91,3,2.09-2.21,2.23-6.4.42-10.22Q448.88,569.64,431.26,519Z" transform="translate(121.68 -137.72)"/><path class="cls-26" d="M325.32,513.6h14.26a29.6,29.6,0,0,0,5.16,18.09,44.85,44.85,0,0,1-.67,15.69c-3.13,14-12.2,22.3-15.31,25.07a53.64,53.64,0,0,1-14.06,8.9c-1.64.76-22.71,10.39-27.66,5.64C283.05,583.17,287,567.6,325.32,513.6Z" transform="translate(121.68 -137.72)"/><path class="cls-27" d="M327,476.12c6.67-3.08,14.74,2.09,18.58,6.27a18.14,18.14,0,0,1,5,10.67c.62,7.55-4.4,13-6.7,15.47-1.79,1.93-3.7,4-7,5-.39.12-5.53,1.68-10.14-.69-8.66-4.45-7.64-18.72-7.48-20.55C319.61,488.35,320.39,479.18,327,476.12Z" transform="translate(121.68 -137.72)"/><path class="cls-28" d="M304.18,477.39a19.58,19.58,0,0,1-12.18-.87c-1.91-.82-7.41-3.15-9.24-8.92-.19-.58-2.09-6.89,1.63-10.87,3.22-3.45,8.41-2.75,11.85-2.28,1.3.17,9.26,1.37,13.92,8.15a17.35,17.35,0,0,1,1.84,3.48c2.42-.13,5.87-.26,10-.22,8.17.08,12.32.15,15.76,1.85,1.4.69,7.6,3.59,8.81,9.46.27,1.33.76,3.73-.55,5.54-3.07,4.26-12.7.58-13.91,3.37-.84,1.93,3.65,3.85,3.48,8.16-.17,3.94-4.12,6.87-4.68,7.28a14.49,14.49,0,0,1-4.35,2.07c-6.44,1.73-22.37-.47-25.55-11.42C299.06,485.42,303,479.07,304.18,477.39Z" transform="translate(121.68 -137.72)"/><path d="M236.61,644.5c2.89-2.51,5.13-5.66,7.47-8.68,1-1.36,2.12-2.69,3.22-4,9.51-11.36,20.8-21.07,32-30.73,6.39-5.49,12.91-11.06,20.62-14.46a15.56,15.56,0,0,1-2.71,5,114.13,114.13,0,0,1-11.41,13,308.62,308.62,0,0,1-49.07,40.18" transform="translate(121.68 -137.72)"/><path d="M169.38,645.07c2.25-.08,5.53.54,6.86-1.72A1.51,1.51,0,0,0,175,641.1a38.38,38.38,0,0,0-6,.5c-1.68.26-1.26,3,.4,2.94l1.67,0v-3c-1.09.11-2.18.19-3.27.25a1.51,1.51,0,0,0-.76,2.79c4.45,3.39,8.84,6.92,11.37,12,.54,1.09,2.55.92,2.74-.35a41.59,41.59,0,0,0,.29-8.78c-.13-2-.54-3.87-2.52-4.81a1.52,1.52,0,0,0-2.2,1.7,17.24,17.24,0,0,0,1,3.21l2.51-1.46c-1.74-1.89-2.71-5-5.33-5.76l-.4,2.94,4.27-.31c1.91-.14,1.93-3.14,0-3l-4.27.31a1.51,1.51,0,0,0-.4,3c.3.08,1.33,2,1.57,2.31.72,1,1.63,1.8,2.43,2.68,1,1,3.09-.05,2.51-1.46a18,18,0,0,1-1-3.21l-2.2,1.69c2.15,1,1.11,8.4.85,10.2l2.74-.36c-2.76-5.58-7.6-9.4-12.44-13.1l-.76,2.8c1.09-.06,2.18-.14,3.27-.25,1.88-.17,2-3,0-3l-1.67,0,.4,3a33,33,0,0,1,5.25-.39l-1.3-2.26c-.24.4-3.75.22-4.27.23-1.92.07-1.93,3.07,0,3Z" transform="translate(121.68 -137.72)"/><path class="cls-24" d="M195.9,508.91l39.84-16.51L276.3,505l15.54-1.7,2.92-4.86,37.16,7.77a65.2,65.2,0,0,1,2.92,30.12c-2.48,17.29-11.5,28.71-15.79,34-6.1,7.53-8.35,7.5-32.31,26.24-14.36,11.23-21.53,16.85-27.2,22.34-14.88,14.44-14.6,18.82-27.69,29.39a128.47,128.47,0,0,1-25.26,15.79,142.24,142.24,0,0,1-30.12,10.69,89.34,89.34,0,0,0-3.16-26.23c-5.3-19.13-11.9-17.3-23.8-43-2.23-4.8-4.58-10.45-10.2-12.87-3.14-1.35-5.34-.86-13.85-2.91-5.38-1.31-8.26-2-8.26-2.92,0-2.13,15.61-3.8,20.89-4.37,9.93-1.06,10.87-.5,22.59-1.7a159.82,159.82,0,0,0,18.22-2.67A143.71,143.71,0,0,0,193.47,574c10.64-3.53,18.09-6.94,32.55-13.6,9-4.17,13.67-6.32,18.7-9.23,7-4,11.64-6,16-10.69a38,38,0,0,0,5.83-8.26l-26.23-10.69-18.22,11.91A14.33,14.33,0,0,0,221.4,523c-2.08-4-5.86-5.61-8.74-6.8-10.6-4.36-20.24-1-20.89-3.16C191.57,512.39,192.22,511.21,195.9,508.91Z" transform="translate(121.68 -137.72)"/><path class="cls-29" d="M333.73,536.1l-9.8-2.82a20.74,20.74,0,0,1-4.07,8,10.68,10.68,0,0,0,9.78,5.33" transform="translate(121.68 -137.72)"/><path class="cls-30" d="M192,477.1" transform="translate(121.68 -137.72)"/><path class="cls-27" d="M197.46,517l-30.55,13.71a22.75,22.75,0,0,0-5.92,1.56,15.1,15.1,0,0,0-6.7,4.52,12.75,12.75,0,0,0-2.49,5.77c-.27,1.7-.63,4,.78,5.45a4.37,4.37,0,0,0,2.65,1.25,8.7,8.7,0,0,1,.31-4.52,8.41,8.41,0,0,1,2-3.27,10.18,10.18,0,0,0-1.87,3.21,8.5,8.5,0,0,0-.31,4.72c1,2.9,10.05,3.23,21.91.72a72,72,0,0,1,39.21-22.9c1.71-1.86,1.94-3.18,1.77-4.08C217.27,517.65,199.8,517,197.46,517Z" transform="translate(121.68 -137.72)"/><path class="cls-27" d="M176.11,545.17c-2,.6-4.36,1.59-4.52,3.11-.18,1.72,2.6,2.93,2.18,4.21s-3.65,1.26-4.36,1.25c-1.74,0-4.27,0-5.61-1.87-1.52-2.07-.46-5-.16-5.77.89-2.39,2.76-3.91,4.68-5.45a20.11,20.11,0,0,1,2.18-1.56" transform="translate(121.68 -137.72)"/><path class="cls-16" d="M360.86,623.87" transform="translate(121.68 -137.72)"/></g><g id="Layer_6" data-name="Layer 6"><path d="M197.73,516.72c-.09-.57,1.53-1.81,2.51-2a3,3,0,0,0,1.09-.43,3.05,3.05,0,0,0,.58-.52c.33-.38,1.57-.48,5.49.65a7,7,0,0,1-1.66.18c-1.78,0-3.35-.77-3.3-1s3.79.35,6.9,1.24a21.43,21.43,0,0,1,7.62,3.35,17.75,17.75,0,0,1,3.6,3.61,2.38,2.38,0,0,1,.76.77,2.48,2.48,0,0,1,.3.71,2,2,0,0,0,0,.57,2.22,2.22,0,0,0,.28.92,17.44,17.44,0,0,0-5.1,2c.4-.66,1.54-2.75.73-4.59-.68-1.55-2.39-2.15-3.55-2.51C205.94,517.26,197.92,517.91,197.73,516.72Z" transform="translate(121.68 -137.72)"/><path d="M297.91,609.9c-.33-.63,2.15-1.87,4.61-5.45,1.33-1.94,1-2.19,2.39-4,1.19-1.58,2.8-2.81,4-4.34a23,23,0,0,0,3-5c1.37-2.81,3.77-7.26,8.32-14.74a30.71,30.71,0,0,1-2.65,9.08c-1,2.22-1.53,2.53-4.16,7-1.65,2.81-1.62,3-4.49,8.08-3.32,5.88-4.37,7.47-6.49,8.58S298.2,610.45,297.91,609.9Z" transform="translate(121.68 -137.72)"/></g></svg>