<svg id="_Layer_" data-name="&lt;Layer&gt;" xmlns="http://www.w3.org/2000/svg" viewBox="0 0 2858.04 1780"><defs><style>.cls-1{fill:#009c68;}.cls-2{fill:#fcecdb;opacity:0.6;}.cls-3{fill:#82b378;}.cls-4{fill:#ffb27d;}.cls-5{fill:#bc3f3f;}.cls-6{fill:#4a75cb;}.cls-7{fill:#233862;}.cls-8{fill:#ed985f;}.cls-9{fill:#2c3a64;}.cls-10{fill:#2b478b;}.cls-11{fill:#739af0;}.cls-12{fill:#ee9849;}.cls-13{fill:#bbd4ff;}.cls-14{fill:#678fe5;}.cls-15{fill:#b56f40;}.cls-16{fill:#99592e;}.cls-17{fill:#74acbe;}.cls-18{fill:#578e9b;}.cls-19{fill:#e58638;}.cls-20{fill:#fff0e6;}.cls-21{fill:#163560;}.cls-22{fill:#5fabb7;}.cls-23{fill:#ef9e67;}.cls-24{fill:#a53d38;}.cls-25{fill:#c45446;}.cls-26{fill:#912f2f;}.cls-27{fill:#d9935c;}.cls-28{fill:#f1a34f;}.cls-29,.cls-34{fill:#d86713;}.cls-30{fill:#cb7d45;}.cls-31{fill:#b64c41;}.cls-32{fill:#466aa5;}.cls-33{fill:#d37129;}.cls-34{opacity:0.4;}.cls-35{fill:#f9ddbf;}.cls-36{fill:#2e3552;}</style></defs><rect class="cls-1" width="2858.04" height="1780"/><path class="cls-2" d="M264.14,1574.16s-311.58-334.53-52.69-696.72c229.7-321.36,497.51-299.39,694-169,83.68,55.54,325,6.84,530.32-320.15,280-445.92,1250.82-175.47,1073.82,510.6-85.66,332,260.68,344.08,84.21,676Z" transform="translate(10.04)"/><path class="cls-3" d="M2516.31,1570.43h-98.72c-5.29-4.49,3.67-14.68,13-15.37,4.06-.3,9.2.55,15.07,1.79,1.35-18,9.11-99.16,38.35-95.9,32.88,3.65,0,35.72-9.29,54.71-6.89,14.06-14.15,34.23-17.47,43.75,2.67.58,5.43,1.14,8.26,1.66,4.35-13.37,20.57-58.38,41.18-55.75,24.21,3.06,14.48,21.11-2.68,31.82-12.58,7.87-28,19.07-35.39,24.48a105.77,105.77,0,0,0,19.31,1.55C2504.86,1562.76,2513.12,1567.75,2516.31,1570.43Z" transform="translate(10.04)"/><path class="cls-3" d="M364.37,1566.91c-3.92-6.16-15.72-22.14-31.44-20-17.12,2.31,18.92,13.6,29.95,20.08a18.39,18.39,0,0,1-6.1-.71c-7.38-2.63-20,2.41-24,4.18H403a11.11,11.11,0,0,0-5-6.42c-1.16-.71-3.47-.81-6.47-.58,4.18-4.92,7.08-20.64-4.55-16.6-8.49,3-8.46,12.56-7.63,18.25-1.81.28-3.64.57-5.45.83-3.49-17.82-15.86-70-40.92-71.43-25.41-1.41,21.55,54.15,37.18,71.93C368.09,1566.65,366.16,1566.83,364.37,1566.91Z" transform="translate(10.04)"/><polygon class="cls-4" points="2161.88 1448.9 2154.25 1481.02 2144.12 1523.61 2112.46 1523.61 2110.57 1482.81 2109.11 1451.33 2161.88 1448.9"/><path class="cls-5" d="M2252.16,749.82s25.05-26.8,41.34-5.79,34.34,35.21,59.33,51.37-22.09,142.87-53.39,140.27S2140.39,833.17,2252.16,749.82Z" transform="translate(10.04)"/><path class="cls-6" d="M2127.43,737.07c6.25-4.67,63.83-24.43,120-5s-43.48,73.6-43.48,73.6l-32.28,1.39Z" transform="translate(10.04)"/><path class="cls-7" d="M2089.9,1570.4s0-15.5,2.21-20.66,10.3-26.13,10.3-26.13h31.66s5.89,19.14,6.26,25.4,0,21.39,0,21.39Z" transform="translate(10.04)"/><path class="cls-7" d="M2290.91,1570.4s0-15.5-2.21-20.66-10.31-26.13-10.31-26.13h-31.65s-5.89,19.14-6.26,25.4,0,21.39,0,21.39Z" transform="translate(10.04)"/><path class="cls-4" d="M2164.08,700.47s-1.12,34.51-5.54,50l-35,75.36,131.61-31.28-31.39-43.36s-9.47-46.28-4.51-63.4S2164.08,700.47,2164.08,700.47Z" transform="translate(10.04)"/><path class="cls-8" d="M2163.88,705.23s10.41,25,30,24.5S2218,707,2218,707Z" transform="translate(10.04)"/><path class="cls-9" d="M2152.18,685s-6.33-31.61-10.74-41.18-8.1-52.27,40.86-54.48c0,0,18.77,2.21,29.08-4,0,0,0,6.26-2.58,8.47A32.55,32.55,0,0,1,2239,604.38c13.25,14.73-8.83,66.27-7.73,78.41Z" transform="translate(10.04)"/><path class="cls-4" d="M2191.65,720.05c-14.21-.25-40.35-19.16-40.35-42.58V640.92c0-8.56,6-15.55,13.25-15.55h54.19c7.29,0,13.26,7,13.26,15.55V675.4C2232,700,2207.94,720.34,2191.65,720.05Z" transform="translate(10.04)"/><path class="cls-9" d="M2151.3,660.43s.08-22,17.47-25.34,56.32,10.71,61.85-5.31-75.25-15.73-79.32-5.52S2151.3,660.43,2151.3,660.43Z" transform="translate(10.04)"/><path class="cls-10" d="M2212,1041c8.71-27.12,8.54,112.26-26.44,269-5.34,23.93-17.29,81.62-25.87,137.46H2088c-1-45.09-5.82-108-8.86-155.18-9.55-147.79,14.75-258.69,14.75-258.69Z" transform="translate(10.04)"/><path class="cls-10" d="M2303.9,1292.32c-.79,45.19-10,105.22-10.79,149.22h-72.7c-4.89-31.94-12.65-64.83-18.22-91.37-4-18.84-6.83-34.47-6.79-44.29.09-19.19-12.06-74.53-19.28-123.33a1.42,1.42,0,0,1,0-.2c-.28-1.87-.55-3.75-.81-5.6-9.68-68.6-6.27-135.74-6.27-135.74l122.67-7.66S2306,1171.81,2303.9,1292.32Z" transform="translate(10.04)"/><path class="cls-7" d="M2084.15,1090.48s27.6,33.44,102.58,28.61,110.75-17.87,110.75-17.87Z" transform="translate(10.04)"/><path class="cls-11" d="M2297.48,1101.22c-24.49,3.33-191.12,12-213.33-10.74s36.26-332.78,36.26-332.78,6.62-1.91,17.8-4c5.69-1.07,12.57-2.18,20.35-3.12.09,2.42,2,39,32.36,54.07,0,0,36.45-14.6,32.88-53.48,0-.45-.09-.89-.16-1.33q7.31.78,14.74,2a208.77,208.77,0,0,1,30.16,7.47S2322,1097.9,2297.48,1101.22Z" transform="translate(10.04)"/><path class="cls-11" d="M2085.55,941.15c-1,1.29,5.66,10.83,15,23.1,19.28,25.2,50.12,61.87,50.12,61.87a125.93,125.93,0,0,1-2.15,20.45c-42.36-20-71-38.74-90-53.78-26.69-21.14-34.35-35-34.35-35,42.8-181,97.72-199.91,97.72-199.91L2139.85,867S2088.55,937.22,2085.55,941.15Z" transform="translate(10.04)"/><path class="cls-12" d="M2238.38,751.87l-11,33.58-14.71,21.61-21.12,11.45-19.88-11.45-33.42-53.38c5.69-1.07,12.57-2.18,20.35-3.12.09,2.42,2,39,32.36,54.07,0,0,36.45-14.6,32.88-53.48,0-.45-.09-.89-.16-1.33Q2230.95,750.6,2238.38,751.87Z" transform="translate(10.04)"/><path class="cls-4" d="M2150.71,1026.12c0,.36,0,.7-.05,1-.09,2.3-.23,4.44-.39,6.39a34.69,34.69,0,0,1-3.52,4.14,36.88,36.88,0,0,1-6.2,5c-1.07-.51-2.14-1-3.19-1.56-36.29-18-61.53-34.68-78.8-48.35,11-3.38,26.31-11.08,42-28.56C2119.86,989.45,2150.71,1026.12,2150.71,1026.12Z" transform="translate(10.04)"/><path class="cls-11" d="M2361.08,951.12s-7.38,14-33.67,35.67c-18.69,15.4-47,34.66-88.94,55.49a126.44,126.44,0,0,1-2.54-20.41s30.13-37.26,48.92-62.82c9.14-12.45,15.6-22.11,14.59-23.38-2.39-3-34.54-45.29-48.89-64.15l-6.81-9,18.15-107.27S2314.83,770.91,2361.08,951.12Z" transform="translate(10.04)"/><path class="cls-4" d="M2327.41,986.79c-17.06,14-42.09,31.3-78.22,50-.9.46-1.8.93-2.72,1.39a50.37,50.37,0,0,1-9.12-18.12c.6-.75,1.38-1.73,2.34-2.91,8.66-10.8,30.4-38.08,45.16-58.15C2300.88,976.22,2316.39,983.62,2327.41,986.79Z" transform="translate(10.04)"/><path class="cls-4" d="M2223.64,749.82a291.62,291.62,0,0,0-65.08.74,1.16,1.16,0,0,1,0-.13S2218.79,713.17,2223.64,749.82Z" transform="translate(10.04)"/><polygon class="cls-13" points="2173.27 855.2 2172.03 855.2 2171.12 797.13 2174.24 797.13 2173.27 855.2"/><path class="cls-12" d="M2161.86,853.69c-1.12,1.7-3.65,7.31-2,7.9s4.62.63,5.42-.16S2164,850.48,2161.86,853.69Z" transform="translate(10.04)"/><polygon class="cls-13" points="2230.3 855.2 2229.06 855.2 2228.15 797.13 2231.27 797.13 2230.3 855.2"/><path class="cls-12" d="M2218.89,853.69c-1.12,1.7-3.66,7.31-2,7.9s4.62.63,5.41-.16S2221,850.48,2218.89,853.69Z" transform="translate(10.04)"/><path class="cls-6" d="M2171.63,807.06l-51.22-49.36s-11.53-8.18,6.7-20.42S2171.63,807.06,2171.63,807.06Z" transform="translate(10.04)"/><path class="cls-6" d="M2212.62,807.06l51.22-49.36s11.53-8.18-6.7-20.42S2212.62,807.06,2212.62,807.06Z" transform="translate(10.04)"/><path class="cls-14" d="M2276.9,1047.32c-10,.84-18.3-1.66-24.72-7.4a32.12,32.12,0,0,1-3-3.08c-5.06-5.92-7.9-13.36-9.5-19.64a66.48,66.48,0,0,1-2-12.94l0-1.44H2154.9l0,1.54c.33,8.89-1.11,16.52-4.29,22.8a32.36,32.36,0,0,1-6,8.41,34.78,34.78,0,0,1-7.28,5.58c-11.07,6.41-23.4,6.17-23.55,6.17l-1.53-.06v35h166.24v-35Z" transform="translate(10.04)"/><path class="cls-14" d="M2299.44,935.67s-46.11-60.51-9.61-78.12c14.49-7,34.88,76,24,83.84s-28.93,17.66-28.93,17.66Z" transform="translate(10.04)"/><path class="cls-14" d="M2090.86,925.69s16-76,2-68.14-34.88,76-24,83.84,28.93,17.66,28.93,17.66Z" transform="translate(10.04)"/><path class="cls-5" d="M2293,935.49c-21.06-26.14-28.92-68.58-27.85-112.38a513.68,513.68,0,0,1,5.61-63.61L2288,773c-.07.25-9.91,18.24-10.67,50.25-.7,29.26-2.08,51.55,14.46,102.49Z" transform="translate(10.04)"/><path class="cls-7" d="M2133.1,1463.67l-37.1,0c-3.29.37-8.43-4.44-8.43-11.31,0,0-.07-16.48-1.16-19.41-4.78-12.84,2.32-13.53,9.2-13.53h67.69c6.87,0-3.66,21.24-3.66,28.11l2.44,9C2162.08,1463.4,2140,1463.67,2133.1,1463.67Z" transform="translate(10.04)"/><path class="cls-7" d="M2144.21,1481l-10.14,42.6h-31.65l-1.89-40.8C2105.25,1484.54,2121.13,1489,2144.21,1481Z" transform="translate(10.04)"/><polygon class="cls-4" points="2239.07 1448.9 2246.7 1480.53 2256.84 1522.48 2288.5 1522.48 2290.38 1482.3 2291.84 1451.3 2239.07 1448.9"/><path class="cls-7" d="M2247.77,1463.67l37.1,0c3.29.37,8.43-4.44,8.43-11.31,0,0,.08-16.48,1.16-19.41,4.78-12.84-2.32-13.53-9.2-13.53h-67.69c-6.87,0,3.66,21.24,3.66,28.11l-2.44,9C2218.79,1463.4,2240.9,1463.67,2247.77,1463.67Z" transform="translate(10.04)"/><path class="cls-7" d="M2236.66,1481l10.13,42.6h31.66l1.89-40.8C2275.62,1484.54,2259.74,1489,2236.66,1481Z" transform="translate(10.04)"/><path class="cls-9" d="M824.89,623.15c-2.49-2.71-8.06-5.79-15.39-8.29,12.88-5.8,23.84-12.63,16.26-16.8-3.28-1.81-7.19-1.55-11.32,0,6.35-6.42,9.4-12,3.22-13.4-9.4-2.19-19.19,9.92-26,21.09,4.43-9.58,6.72-19.07-1.54-19.22-9.53-.16-11.39,12.48-11.22,23.4-.79,0-1.58,0-2.37,0-2.68-12.09-7.89-27.11-16.76-23.1-4.46,2-4.31,6.35-2,11.37-4.19-3.22-8.34-4.34-11.64-.93-5,5.2,1.15,11.37,9.32,16.52a50.38,50.38,0,0,0-16.08,9.36c-27.72,24.21,2.51,79,2.51,79l79.15-2C845.84,660.67,833.87,632.91,824.89,623.15Z" transform="translate(10.04)"/><path class="cls-10" d="M744.17,1000.51l-47.27,6c-31.08,3.91-59.18-14-62.43-39.82L616.49,824c-3.26-25.82,10.35-46.17,41.6-47.45,18.52-.76,49.42-4.84,82.66-15.9,29.48-9.81,32.78,17.33,36,43.15l18,142.65C798,972.26,775.25,996.59,744.17,1000.51Z" transform="translate(10.04)"/><path class="cls-7" d="M681.66,1578s0-15.2,2.17-20.26,10.11-25.64,10.11-25.64h31s5.77,18.78,6.14,24.92,0,21,0,21Z" transform="translate(10.04)"/><path class="cls-7" d="M878.82,1578s0-15.2-2.16-20.26-10.12-25.64-10.12-25.64h-31s-5.78,18.78-6.14,24.92,0,21,0,21Z" transform="translate(10.04)"/><path class="cls-15" d="M754.42,724.74s-1.1,33.85-5.43,49L714.7,797.68,843.78,817,813,774.46s-9.3-45.39-4.42-62.18S754.42,724.74,754.42,724.74Z" transform="translate(10.04)"/><path class="cls-16" d="M754.23,729.41s10.21,24.58,29.43,24,23.61-22.29,23.61-22.29Z" transform="translate(10.04)"/><path class="cls-15" d="M781.46,744c-13.93-.25-39.57-18.8-39.57-41.77V666.33c0-8.39,5.85-15.25,13-15.25H808c7.15,0,13,6.86,13,15.25v33.82C821,724.24,797.44,744.23,781.46,744Z" transform="translate(10.04)"/><path class="cls-12" d="M685.55,1051.53s5.43,165.91-2.69,260.57.06,226.4.06,226.4,26,14.32,54.14,0c0,0,30.89-182.88,30.7-226.4-.21-46.35,33.62-253.34,33.62-253.34Z" transform="translate(10.04)"/><path class="cls-12" d="M877.7,1538.49s-26,14.33-54.14,0c0,0-30.88-182.87-30.69-226.4.09-19.57-5.89-67.81-12.84-117-9.49-67.28-20.78-136.33-20.78-136.33l120.31-7.52s-9.92,166.19-1.8,260.84S877.7,1538.49,877.7,1538.49Z" transform="translate(10.04)"/><path class="cls-17" d="M856.88,782.49v.07a341.79,341.79,0,0,0-43.88-8.1c-12,15.91-20.58,19.61-31.54,23.94C763.84,796,749,774.25,749,773.76c-25.59,2.62-40.07,8-40.07,8-9.74,4.08-22.52,80.16-24.51,122.42-.25,5.31-.34,10.07-.22,14.1,1,36.25,2.5,71.47-2.17,110.49-6.14,51.27,4.26,50.36,4.26,50.36s14,2.74,33.52,5.33c17.65,2.36,39.83,4.61,60.23,4.61,46.8,0,98.09-9.94,98.09-9.94,14.77.19-4.14-91.87-6.9-147.25-.64-12.87-1.23-24.61-1.79-35.34,17.73,15.28,69.91,43.12,71.1,46.67,0,0-11.39,20.79-14.85,31.87-13.28,42.54-36.13,70.66-36.13,70.66,3.11,11.8,2.24,17,2.24,17,36.14-28.39,59.44-52.54,74.31-71.07,20.91-26.05,25.2-41,25.2-41C910.84,786.92,856.88,782.49,856.88,782.49Z" transform="translate(10.04)"/><path class="cls-18" d="M719.8,1084.46c-19.52-2.59-33.52-5.33-33.52-5.33s-10.4.91-4.26-50.36c4.67-39,3.21-74.24,2.17-110.49-.12-4,0-8.79.22-14.1,3,4.79,36.31,58.6,45.28,98.59C736.22,1032,726.37,1066.31,719.8,1084.46Z" transform="translate(10.04)"/><path class="cls-19" d="M792.87,1312.09c.09-19.57-5.89-67.81-12.84-117,7.21-29.37,24.76-57.65,24.76-57.65C827,1199.74,792.87,1312.09,792.87,1312.09Z" transform="translate(10.04)"/><path class="cls-15" d="M889.55,1045.74s-19.5-18-27.44-7.94-9.39,26-3.25,24.91,18.78-6.86,20.58-4,9.9,8.41,12.35,4S889.55,1045.74,889.55,1045.74Z" transform="translate(10.04)"/><path class="cls-15" d="M889.55,1045.74c3.11,11.8,2.24,17,2.24,17,36.14-28.39,59.44-52.54,74.31-71.07-11.21-.83-21.58-3.33-40.42-16.61C910.13,1022.52,889.55,1045.74,889.55,1045.74Z" transform="translate(10.04)"/><path class="cls-18" d="M936,939.55c-2.89-2.41-49.23-27.93-66.78-43.17,0,0,17.51-13.13,28.35,6S936,939.55,936,939.55Z" transform="translate(10.04)"/><path class="cls-18" d="M991.3,950.7s-4.29,14.94-25.2,41C941.9,991.36,991.3,950.7,991.3,950.7Z" transform="translate(10.04)"/><path class="cls-9" d="M741.89,680.87s9.66-29.52,41.35-24.92,34.43,11.38,37.8,19.23,9.86-28.7,9.86-28.7l-37.37-11.11s-45.22,5.15-48.47,12.73l-3.25,7.58Z" transform="translate(10.04)"/><path class="cls-10" d="M684.71,995.35l.54-25.16c35.86-27.22,50.45-59.49,51.83-115.3,1-42.32-13.17-76.83-13.27-77.18,0,0,6.34-1.52,8.5-1.89,2.33-.4,9.46-1.22,9.46-1.22.44,1.48,9.89,35.88,8.85,80.24C749.24,914.31,723.54,965.87,684.71,995.35Z" transform="translate(10.04)"/><path class="cls-17" d="M784.12,988.07C772,989.89,710,1004.3,665.73,1009.88c-24.94,3.14-44.2,3.5-45.69-2.78-4.11-17.43,9.88-128.41,32.13-173.07s63.47-54.33,63.47-54.33l11.73,70.73L667.75,969.17l14.51.26,99.63,1.77Z" transform="translate(10.04)"/><rect class="cls-7" x="798.04" y="943.94" width="32.3" height="50.45" rx="4.94"/><rect class="cls-10" x="798.04" y="948.01" width="32.3" height="50.45" rx="4.94"/><path class="cls-15" d="M770.24,975.1s32.78-22.59,43.53-14.74,11.6,26.53-33,28.08Z" transform="translate(10.04)"/><path class="cls-15" d="M784.12,988.07C772,989.89,710,1004.3,665.73,1009.88c3.87-18.87,10-31.71,16.53-40.45l99.63,1.77Z" transform="translate(10.04)"/><path class="cls-9" d="M816.19,684.09a9.69,9.69,0,0,0-7.59-3.22h-16c-3,0-5.15.87-6.3,2.59a5.86,5.86,0,0,0-.9,2.65,14.87,14.87,0,0,0-7.09.12,5.87,5.87,0,0,0-.91-2.77c-1.14-1.72-3.27-2.59-6.3-2.59H755.19a9.7,9.7,0,0,0-7.6,3.22,8.19,8.19,0,0,0-1.49,7c1.82,9,12.2,10.17,17.39,10.17,1.6,0,2.71-.11,2.92-.13,4.85,0,8.27-2.78,10.75-8.71a15.55,15.55,0,0,0,1.21-4.9,13.73,13.73,0,0,1,7-.15,15.76,15.76,0,0,0,1.22,5.05c2.48,5.93,5.9,8.7,10.76,8.71.2,0,1.31.13,2.91.13,5.19,0,15.57-1.15,17.39-10.17A8.19,8.19,0,0,0,816.19,684.09Zm-40,7.94c-2.31,5.51-5.43,8.07-9.82,8.07h-.07a31.79,31.79,0,0,1-8.85-.42c-5.92-1.2-9.4-4.16-10.33-8.78a7.2,7.2,0,0,1,1.27-6.15,8.62,8.62,0,0,1,6.79-2.84h15.95c2.66,0,4.49.71,5.43,2.12a5.08,5.08,0,0,1,.75,2.49,9.82,9.82,0,0,0-1.4.52.62.62,0,0,0,.26,1.19.63.63,0,0,0,.26,0,8.55,8.55,0,0,1,.85-.33A15.38,15.38,0,0,1,776.2,692Zm40.45-1.12c-.93,4.62-4.41,7.58-10.33,8.78a31.79,31.79,0,0,1-8.85.42h-.06c-4.4,0-7.52-2.56-9.82-8.07a15.33,15.33,0,0,1-1.11-4.28c.31.13.61.26.91.42a.63.63,0,1,0,.59-1.11,10.35,10.35,0,0,0-1.51-.64,4.91,4.91,0,0,1,.75-2.38c.94-1.41,2.76-2.12,5.42-2.12h16a8.61,8.61,0,0,1,6.78,2.84A7.14,7.14,0,0,1,816.65,690.91Z" transform="translate(10.04)"/><path class="cls-20" d="M768.71,720.78s17.53-1.91,25.69,0c0,0-4.34,7.11-11.46,7.11S770.45,725.29,768.71,720.78Z" transform="translate(10.04)"/><path class="cls-21" d="M1283.72,666.1c-8.55-2.81-17.83-1.44-24.19.24,1.32-2,4.44-3.32,4.44-3.32-4.1.21-12.2,6-12.2,6-59.75-10.19-52,73.2-47,91.93s-23.88,73-43.8,99.53c-55.87,74.33,33.47,151.73,33.47,151.73,72.43,60.84,39.52-57.12,39.52-57.12-4.49-15,49.92-110.19,81.94-141.85,6.31-15,4.8-39,4.67-40.92,2.18,18.83,1.1,29.86-.55,36.28C1345.45,773.51,1306.37,673.55,1283.72,666.1Z" transform="translate(10.04)"/><path class="cls-5" d="M1432.41,940.16c0,8.05-4,18.37-9.84,29-14.41,26.5-39.6,54.9-39.6,54.9l-14.59-20.79s8.87-22,14.76-40.18c3.54-10.92,6-20.43,4.79-22.93-3.19-6.68-66.4-81.46-66.4-81.46l-17.18-57.86s42.05,2.22,60,28.44S1432.41,918.44,1432.41,940.16Z" transform="translate(10.04)"/><path class="cls-4" d="M1422.57,969.16c-14.41,26.5-39.6,54.9-39.6,54.9l-14.59-20.79s8.87-22,14.76-40.18C1390.22,967.28,1402.48,971.27,1422.57,969.16Z" transform="translate(10.04)"/><polygon class="cls-4" points="1257.88 1461.64 1273.01 1525.36 1295.67 1525.23 1296.5 1461.64 1257.88 1461.64"/><polygon class="cls-4" points="1448.49 1464.36 1491.54 1525.36 1508.31 1503.82 1482.4 1455.97 1448.49 1464.36"/><path class="cls-4" d="M1307.36,819.52c.19.09-18.17,9.62-32,5.84-13-3.54-21.48-20.38-21.3-20.42,5.5-1.09,7.08-8.66,7-41.14l2.49.49,41.81,8.28s-.95,13.16-1,25.56C1304.35,808.54,1305,818.41,1307.36,819.52Z" transform="translate(10.04)"/><path class="cls-22" d="M1240.28,688.77s15.88-25.61,45.39-10.3C1285.67,678.47,1270.38,678.89,1240.28,688.77Z" transform="translate(10.04)"/><path class="cls-23" d="M1305.35,772.57s-.95,13.16-1,25.56c-23.4-.66-35.77-22-40.83-33.84Z" transform="translate(10.04)"/><path class="cls-21" d="M1254.93,765.75s-15.85-16.57-22-32.23c-4.4-11.18-7.16-55.35,37.28-57.87a59.9,59.9,0,0,1,26.2,4.3c10.65,4.44,26.94,15.39,19.37,55.94l-1.38,13.47Z" transform="translate(10.04)"/><path class="cls-24" d="M1494.24,1489.88s-11.12,1.92-20.24,2.61c-2,.16-4,.25-5.64.25-4.39,0-12.31-1.66-17.62-2.89l-.4-.1c-2.33-.55-4.12-1-4.78-1.17l-.28-.07s-55.43-61.71-86.51-160.62c-.72-2.31-1.49-4.63-2.3-7-17-49.62-52.29-111.88-70.87-168.26-3-9-5.62-17.42-8-25.42-.77-2.56-1.51-5.07-2.21-7.55-13.71-47.6-17.67-78.84-21.32-112.23l111.75,28.43S1412.74,1239.29,1494.24,1489.88Z" transform="translate(10.04)"/><path class="cls-4" d="M1312.67,779.18s-54.09,11.84-60.94-22-18.45-55,15.8-64,43.59,2.55,48.62,13.28S1326.57,775.23,1312.67,779.18Z" transform="translate(10.04)"/><path class="cls-21" d="M1292.08,687.38s-6.87,42.66-28.49,53.12-32.75,6.35-32.75,6.35,14.69-17.42,13.43-42.41C1244.27,704.44,1277.06,670.76,1292.08,687.38Z" transform="translate(10.04)"/><path class="cls-21" d="M1289.05,691.34s12.88,6.62,17.32,14.69,9.23,25.54,14.27,23.9c0,0,5.76-29.22-9.89-41.94C1294.15,674.51,1289.05,691.34,1289.05,691.34Z" transform="translate(10.04)"/><path class="cls-4" d="M1262.21,1521.8a61.44,61.44,0,0,1-2.89,26.12s-3.71,16.9,12.93,17.21,20.73-1.25,18.85-11.62-5.47-28.28-5.47-28.28Z" transform="translate(10.04)"/><path class="cls-25" d="M1259.32,1547.92s-3.69,17.75-1.81,26.23c0,0,5.64,2,17.73,2,11.46,0,18.2-2,18.2-2s-.42-19.28-3.48-26.66C1290,1547.49,1278.16,1565.19,1259.32,1547.92Z" transform="translate(10.04)"/><path class="cls-4" d="M1538.38,1555.21s-30.69-34.06-40.11-51.39l-22.82,11.69,51,47.9,11.93-1.58Z" transform="translate(10.04)"/><path class="cls-25" d="M1557.87,1575.17s-33,0-38.63-.63-10.2-8.79-16.32-21c-2.51-5-8.13-7.77-13.9-9.29l.11,29.94h-9.07l-8-31.72c-5.43-10-.43-19,3.39-26.92,4.45,0,16.41,3,39.08,28.57,7.45,8.38,15.68,11.38,23.85,11.13a1.73,1.73,0,0,0,.33.17C1557.56,1563.86,1557.87,1575.17,1557.87,1575.17Z" transform="translate(10.04)"/><path class="cls-26" d="M1474,1492.49c-2,.16-4,.25-5.64.25-4.39,0-12.31-1.66-17.62-2.89l-.4-.1-4.78-1.17-.28-.07s-55.43-61.71-86.51-160.62c-.72-2.31-1.49-4.63-2.3-7-17-49.62-52.29-111.88-70.87-168.26-3-9-5.62-17.42-8-25.42-.77-2.56-1.51-5.07-2.21-7.55l19.76-15s59.34,96.09,77.71,186.52C1388.09,1366.15,1453.65,1463.33,1474,1492.49Z" transform="translate(10.04)"/><path class="cls-24" d="M1297.22,1299.63c.33,44-1.89,145.07-7.62,186.93,0,0-5.43,4.81-18.9,4.86-13.79.06-20-5-20-5-14.37-72.77-24.59-133-32-184.88-6.11-42.58-11.53-79.09-15.7-110.52-3.7-27.84-6.41-51.71-7.72-72.29q-.26-4.18-.45-8.19c-.16-3.53-.29-7-.35-10.27s-.08-6.61-.06-9.76l.48,0,27.77-2.7,87.72-8.56C1308.94,1156.23,1297,1274.07,1297.22,1299.63Z" transform="translate(10.04)"/><path class="cls-26" d="M1270.7,1491.42a34.3,34.3,0,0,1-20-5c-14.37-72.77-24.59-133-32-184.88-6.11-42.58-11.53-79.09-15.7-110.52-3.7-27.84-6.41-51.71-7.72-72.29-.15-10.13-.26-19.85-.38-28.27s-.26-15.76-.49-20.79l28.26,18.09,29.73,19s-42.18,38.37-31.81,110.91S1256.28,1481.15,1270.7,1491.42Z" transform="translate(10.04)"/><path class="cls-5" d="M1381.25,1098.86c-33.65,8.75-190.69,26-192-13.32-.34-9.6,0-21.18.76-33.72,2.34-38.86,8.71-86.87,11.77-113.29,1.4-12.11-3.25-66.34.32-95.9a66.83,66.83,0,0,1,2.17-11.3c6.78-22.3,37.26-28.35,52.91-28.88l47.2-1.61s48.76,54.46,55.54,71.19,9,74,14.27,101.75S1397.62,1094.61,1381.25,1098.86Z" transform="translate(10.04)"/><path class="cls-24" d="M1288.51,965.94s-26.25,80.6-98.54,85.88c2.34-38.86,8.71-86.87,11.77-113.29,1.4-12.11-3.25-66.34.32-95.9.94.2,1.79.73,2.77.91C1284.44,858.92,1295.74,949.13,1288.51,965.94Z" transform="translate(10.04)"/><rect class="cls-10" x="1261.69" y="879.76" width="84.32" height="128.33" transform="translate(117.35 -132.78) rotate(6.08)"/><polygon class="cls-21" points="1278.76 875.66 1273.38 875.23 1260.74 1002.74 1265.17 1003.27 1278.76 875.66"/><path class="cls-4" d="M1198,932.15s59.15,18.08,115.69,26.17c0,0,18.66,8.06,9.9,10.27-2.25.57-115.47,25.25-132.25,9.24Z" transform="translate(10.04)"/><path class="cls-5" d="M1257.14,802.45s-31.11.17-44.39,15.32c-24.24,27.66-29,145.29-21.39,160.06,3.29,6.35,28.52,6.87,39.17-23.9C1236.05,938,1260.17,831.46,1257.14,802.45Z" transform="translate(10.04)"/><path class="cls-4" d="M1308.14,957.49s6.95-.65,8.27-2.87c2.64-4.44,6.81-4.38,10.28-5s7.38-4.39,8.08-3.63-2.57,5-4.38,6.53a15.24,15.24,0,0,0,6.19-.95c2.47-1.18,10-10.9,11.18-6.81,3.12,10.76-.12,21.1-8.75,21.94-9.31.91-32.42,5.37-32.42,5.37Z" transform="translate(10.04)"/><path class="cls-27" d="M1615.64,1003.37c-44.19-11.25-92.76-79.8-92.76-79.8l12.44-10.79c12.88,15.18,66.44,41.34,66.44,41.34-.28-13.9.08-26.58,1-38.11,5.94-78.42,35.5-104.55,43.57-110.28a19.27,19.27,0,0,1,2-1.32s0,.57.08,1.65c.11,2.33.33,7,.55,13.47C1650.61,867.52,1652.57,1012.77,1615.64,1003.37Z" transform="translate(10.04)"/><path class="cls-27" d="M1535.32,912.78c-.18-1.86-1.43-28.8-6.78-33.93s-15.92-12.11-19-11.55-13.35,17.72-8.48,29.54,21.78,26.73,21.78,26.73Z" transform="translate(10.04)"/><path class="cls-28" d="M1546.3,915.91l-29.1,1.21a1.73,1.73,0,0,1-1.82-1.67L1513.06,860a1.75,1.75,0,0,1,1.67-1.82l29.1-1.22a1.75,1.75,0,0,1,1.83,1.67l2.32,55.5A1.75,1.75,0,0,1,1546.3,915.91Z" transform="translate(10.04)"/><path class="cls-29" d="M1538.74,916.22l-26.4,1.11a3.11,3.11,0,0,1-3.23-3l-2.21-52.79a3.11,3.11,0,0,1,3-3.23l26.39-1.1a3.09,3.09,0,0,1,3.23,3l2.21,52.78A3.1,3.1,0,0,1,1538.74,916.22Z" transform="translate(10.04)"/><path class="cls-27" d="M1507.37,869.36s7.94-8.85,15.87-2.09-.52,21.23-7.41,25.18-9.09,6-9.09,6Z" transform="translate(10.04)"/><path class="cls-30" d="M1711.86,1459.28c-2.69,10.7-5.65,20.89-8.67,30.38-.65,2-1.28,4-1.93,6-.33,1-.65,1.94-1,2.89-.64,1.87-1.27,3.72-1.89,5.52-.82,2.34-1.63,4.63-2.44,6.85q-.88,2.46-1.76,4.82c-9,24-16.47,39.26-16.47,39.26l-17.86-1.23s6.71-31.88,8-77.56c0-1.63.09-3.27.12-4.94q.1-5.31.11-10.83c0-1.51,0-3,0-4.58-.36-39.34-5.23-85.83-20.77-130.22A847.19,847.19,0,0,1,1619,1225.25c-21.39-98.5-16.36-163.21-16.36-163.21L1703,1073.8l4.69.54c.42,46.14,1.6,108.77,2.64,157.74.18,8.5.35,16.59.52,24.11.69,31.44,1.21,52.94,1.21,52.94C1731.41,1350.71,1724.4,1409.41,1711.86,1459.28Z" transform="translate(10.04)"/><path class="cls-7" d="M1683.1,717.18s23.77,20.23,2,43.52c0,0,18.16,1.78,24.3-3.25a16.81,16.81,0,0,1-2.33,3.55s20.3.73,28.68-5.6,3-110.18-53.34-98.57c0,0-47.75-3.6-43.31,51.65s-13.58,55.25-13.58,55.25,5,2.47,7.44,2.47c0,0,3.54-1.35,4.24-3.3,0,0-.7,3.07-1.61,4.05,0,0,19.46,1.84,29.18-5.5S1685.88,728.58,1683.1,717.18Z" transform="translate(10.04)"/><path class="cls-27" d="M1759.79,1050.77c-19-42.57-28.07-54.61-28.38-68-.25-10.59,5-22,15.11-50a104.57,104.57,0,0,0,5.06-20.25c8-54-23.22-112.43-42.64-116.41-5.4-1.43-14.56-20.94-14.45-52.38l-2.43.48-40.89,8.09s.94,12.87,1,25c0,10.1-.52,20.38-2.8,21.59-2.95.26-5.62.8-5.62.8s-34.61,24.3-36.84,57.26c-3,44,28.05,96.21.53,184.21C1579.29,1131,1770.27,1074.3,1759.79,1050.77Z" transform="translate(10.04)"/><path class="cls-30" d="M1651.17,752.25s.94,12.87,1,25c22.88-.65,35-21.52,39.93-33.08Z" transform="translate(10.04)"/><path class="cls-7" d="M1696.28,739.7s12-18.94,14.87-35.14c2.06-11.56-3.83-54.43-46.91-48.26a58.46,58.46,0,0,0-24.28,9.18c-9.35,6.31-22.85,19.95-7.76,57.36l3.92,12.64Z" transform="translate(10.04)"/><path class="cls-27" d="M1643.53,763.73s54.14.89,54.17-32.83,7-56.31-27.51-58.31-41.29,10.87-44,22.12S1629.45,762.63,1643.53,763.73Z" transform="translate(10.04)"/><path class="cls-7" d="M1645.54,671.77s14.82,39.56,37.56,45.41,32.62-.25,32.62-.25-17.45-13.86-21.07-38C1694.65,678.88,1656.72,652.94,1645.54,671.77Z" transform="translate(10.04)"/><path class="cls-7" d="M1649.21,675s-11.07,8.83-13.77,17.42-3.91,26.26-9.06,25.66c0,0-11.17-26.89,1.38-42.1C1641.07,659.83,1649.21,675,1649.21,675Z" transform="translate(10.04)"/><path class="cls-27" d="M1830.19,1096l-16.25,4.87s-53.61-88.94-58.49-112.09c-1.58-7.53-5.48-22.61-10-39.5-9.42-35-21.56-77.8-21.56-77.8l-4-17.33-13.65-59.09s26.13,2.67,41.41,9.06c5.06,2.11,8.92,4.63,10.27,7.59,11.23,24.68,22.44,87,30.32,131.44,4.39,24.77,7.74,44,9.49,48.07C1802.57,1002.58,1817.46,1065.12,1830.19,1096Z" transform="translate(10.04)"/><path class="cls-7" d="M1647.15,676.32s10.56,41.42,39.26,54.69c0,0-28.7-25.45-31.13-52.8S1647.15,676.32,1647.15,676.32Z" transform="translate(10.04)"/><path class="cls-27" d="M1769.48,1450.63c-5.78,61.63-31.21,101.49-31.21,101.49l-8.68,7.9s-7.91-45.12-13.62-96.79c-5.44-49.1-12.9-101.06-21.34-116.93-12.61-23.7-21.91-72.17-28.6-123.37-11.06-84.73-15-177-15-177l101.84-5c10.24,17.22,14.7,45.46,15.76,77.57,1.12,33.77-1.54,71.81-5.23,105.81-5.15,47.6-12.32,87.27-14,96.19a.08.08,0,0,1,0,0,5.39,5.39,0,0,0,.67,3.41C1770.36,1364,1773.29,1409.91,1769.48,1450.63Z" transform="translate(10.04)"/><path class="cls-12" d="M1650.63,909.26c-2.29,55.94-10.66,111.33-35,107.77-29.85-4.36-37.63-32.23-39.22-52.94a119,119,0,0,1,.44-23s14.69-.07,17.07-2.26c11.28-10.43,7.93-112.66,13.52-123.27s41.83-17.43,41.83-17.43S1652.91,854,1650.63,909.26Z" transform="translate(10.04)"/><path class="cls-19" d="M1650.63,909.26c-2.29,55.94-10.66,111.33-35,107.77-29.85-4.36-37.63-32.23-39.22-52.94,7.33-.37,20.24-2.16,25.36-10,7.34-11.19,30.25-83.26,30.25-83.26S1641,887,1650.63,909.26Z" transform="translate(10.04)"/><path class="cls-7" d="M1711.86,1459.28c-2.69,10.7-5.65,20.89-8.67,30.38-.65,2-1.28,4-1.93,6-.33,1-.65,1.94-1,2.89-.64,1.87-1.27,3.72-1.89,5.52-.82,2.34-1.63,4.63-2.44,6.85q-.88,2.46-1.76,4.82c-9,24-16.47,39.26-16.47,39.26l-17.86-1.23s6.71-31.88,8-77.56c0-1.63.09-3.27.12-4.94q.1-5.31.11-10.83c0-1.51,0-3,0-4.58-.36-39.34-5.23-85.83-20.77-130.22A847.19,847.19,0,0,1,1619,1225.25c10.61,2.19,20,0,47.08-2.32,2.85-.24,16.48,16.64,29.94,39,.7,31.44,16.12,47.23,16.12,47.23C1731.41,1350.71,1724.4,1409.41,1711.86,1459.28Z" transform="translate(10.04)"/><path class="cls-10" d="M1769.48,1450.63c-5.78,61.63-31.21,101.49-31.21,101.49l-8.68,7.9s-7.91-45.12-13.62-96.79c-5.44-49.1-12.9-101.06-21.34-116.93-12.61-23.7-21.91-72.17-28.6-123.37,9.37,3.9,41.27,14,97.39,1.34-5.15,47.6-12.32,87.27-14,96.19a.08.08,0,0,1,0,0,5.39,5.39,0,0,0,.67,3.41C1770.36,1364,1773.29,1409.91,1769.48,1450.63Z" transform="translate(10.04)"/><path class="cls-10" d="M1789,1150.73s-21.3,6.58-52.69,10.93c-38.86,5.37-93.19,7.31-141.71-10.93,0,0-4-72.2,7.5-109.83S1619,985.24,1619,985.24s46.06,11.55,92.84,2.6a152.87,152.87,0,0,0,19.62-5.07s28.85,61.26,36.79,87.52S1789,1150.73,1789,1150.73Z" transform="translate(10.04)"/><path class="cls-7" d="M1789,1150.73s-21.3,6.58-52.69,10.93c-57.56-32.64-29.49-170-29.49-170,1.7-1.39,3.37-2.67,5-3.84a152.87,152.87,0,0,0,19.62-5.07s28.85,61.26,36.79,87.52S1789,1150.73,1789,1150.73Z" transform="translate(10.04)"/><path class="cls-12" d="M1836.1,1013.31c0,14-14.33,22.69-29.72,26.89-14.79,4-30.55,4-35.47.69-8.5-5.7-22.36-69.05-26.4-88.33-.73-3.5-1.14-5.54-1.14-5.54s-11,26.37-11.4,28.82c-.16,1.11-.29,2.63-.39,4-.11,1.62-.18,3-.18,3s-60,30.27-112.45,2.47c0,0-21.34-123.32-12.08-144.55,4.6-10.55,28.61-32.31,38.22-41.7,2.16-2.11,2-6.29,1.11-10.11a4.42,4.42,0,0,1,5.41-5.24c6.17,1.61,17.29,1.33,29.2-2.58a70.33,70.33,0,0,0,17.86-8.73,2.73,2.73,0,0,1,4.23,1.94c.9,7.35,3.13,20.78,7.18,20.78,5.59,0,43.71,4.65,46.5,9.36,1,1.64,10.89,24.07,23.4,53.77l0,.08C1803.49,914,1836.1,995.33,1836.1,1013.31Z" transform="translate(10.04)"/><path class="cls-19" d="M1743.37,947s-11,26.37-11.4,28.82c-.16,1.11-.29,2.63-.39,4a54.43,54.43,0,0,1-18.38,9.67c-18.69,5.66-26.81-30.17-25.7-48.05s27.56-68.9,36.36-70S1743.37,947,1743.37,947Z" transform="translate(10.04)"/><path class="cls-19" d="M1744.51,952.56c-.73-3.5-1.14-5.54-1.14-5.54A28.44,28.44,0,0,1,1744.51,952.56Z" transform="translate(10.04)"/><path class="cls-31" d="M1667.86,998.83c-34.12,0-48.19-11.74-49.23-12.54l-2.2-16.07c.32.24,46.11,27.74,117,1.41l-1.5,12.17C1704.64,993.93,1685.58,998.83,1667.86,998.83Z" transform="translate(10.04)"/><path class="cls-19" d="M1836.1,1013.31c0,14-14.33,22.69-29.72,26.89,21.21-25.25-25.19-178-26.38-181.94C1803.49,914,1836.1,995.33,1836.1,1013.31Z" transform="translate(10.04)"/><path class="cls-19" d="M1710.08,795.05s-28.54,18.07-50.14,13.8c0,0-5.18-3.28,2-6.57,6.71-3.09,22.33-12.22,18.9-21.22a70.33,70.33,0,0,0,17.86-8.73,2.73,2.73,0,0,1,4.23,1.94C1703.8,781.62,1706,795.05,1710.08,795.05Z" transform="translate(10.04)"/><path class="cls-7" d="M1688,1570h-11.4c-3.82-.61-6.64-1.71-10.55-2.22-6-.78-8.69,1.66-9.23,2.22l-.1.11h-48.42c-1.22-1.74,0-5.77,1.1-8.73a6.86,6.86,0,0,1,4.53-4.14c5.14-1.49,15.26-2.82,24.53-11.21,5.21-4.71,25.18-17.32,25.18-17.32l.1,0c.44,0,2.53.65,11.61,8.32,4.69,4,12.69-5.59,12.69-5.59a11.44,11.44,0,0,1,2.63,3.56,12,12,0,0,1,1,7.43c-.73,4.36,1.61,12.47,3.47,18,1.13,3.33,2.08,5.68,2.08,5.68S1697.82,1568.73,1688,1570Z" transform="translate(10.04)"/><path class="cls-32" d="M1690.69,1534.93c-2.72,1.92-8.47,5.69-12.27,6.19-5.15.67-14.76-12.45-14.76-12.45l.1,0c.44,0,2.53.65,11.61,8.32,4.69,4,12.69-5.59,12.69-5.59A11.44,11.44,0,0,1,1690.69,1534.93Z" transform="translate(10.04)"/><path class="cls-32" d="M1688,1570h-11.4c-3.82-.61-6.64-1.71-10.55-2.22-6-.78-8.69,1.66-9.23,2.22l-.1.11h-48.42c-1.22-1.74,0-5.77,1.1-8.73,1.47-1.31,1.88,5.68,2.7,6.79s39.49.4,41.72-1.22,8.94-4.47,18.28-2.23c8.13,1.94,20.11-3,23.08-4.37,1.13,3.33,2.08,5.68,2.08,5.68S1697.82,1568.73,1688,1570Z" transform="translate(10.04)"/><path class="cls-7" d="M1748.83,1570h-11.4c-3.81-.61-6.63-1.71-10.55-2.22-5.94-.78-8.68,1.66-9.22,2.22l-.11.11h-48.41c-1.22-1.74-.05-5.77,1.1-8.73a6.86,6.86,0,0,1,4.53-4.14c5.13-1.49,15.25-2.82,24.52-11.21,5.22-4.71,25.18-17.32,25.18-17.32l.11,0c.44,0,2.52.65,11.6,8.32,4.7,4,12.7-5.59,12.7-5.59a11.51,11.51,0,0,1,2.62,3.56,12,12,0,0,1,1,7.43c-.72,4.36,1.61,12.47,3.47,18,1.13,3.33,2.08,5.68,2.08,5.68S1758.64,1568.73,1748.83,1570Z" transform="translate(10.04)"/><path class="cls-32" d="M1751.5,1534.93c-2.72,1.92-8.46,5.69-12.27,6.19-5.14.67-14.76-12.45-14.76-12.45l.11,0c.44,0,2.52.65,11.6,8.32,4.7,4,12.7-5.59,12.7-5.59A11.51,11.51,0,0,1,1751.5,1534.93Z" transform="translate(10.04)"/><path class="cls-32" d="M1748.83,1570h-11.4c-3.81-.61-6.63-1.71-10.55-2.22-5.94-.78-8.68,1.66-9.22,2.22l-.11.11h-48.41c-1.22-1.74-.05-5.77,1.1-8.73,1.47-1.31,1.88,5.68,2.69,6.79s39.49.4,41.73-1.22,8.93-4.47,18.28-2.23c8.13,1.94,20.11-3,23.07-4.37,1.13,3.33,2.08,5.68,2.08,5.68S1758.64,1568.73,1748.83,1570Z" transform="translate(10.04)"/><path class="cls-33" d="M1870.46,1165.24a16.5,16.5,0,0,0-10.52-12.26c-8.77-3.26-23.14-6.19-40.8-1-29.81,8.76-32.73,27.09-30.75,40.27s-3.88,34.18-3,49.13,5.14,52.49,27.21,50.52,93.23-21.1,93.23-21.1,12.29-23.39-13-57.28C1877.87,1193.42,1872.42,1175.11,1870.46,1165.24Z" transform="translate(10.04)"/><path class="cls-33" d="M1856.79,1148l-5.9.53a13.24,13.24,0,0,0-3.39-6.64c-2.08-2-5-2.69-8.56-2.1-3.4.54-5.84,2.1-7.08,4.62-1.75,3.53-.78,8.08-.77,8.13l-5.76,1.33c-.07-.31-1.73-7.71,1.29-13.92,2.07-4.3,5.77-6.77,10.9-7.74,5.29-.84,9.76.45,13.3,3.84C1855.7,1140.71,1856.75,1147.68,1856.79,1148Z" transform="translate(10.04)"/><path class="cls-28" d="M1920.44,1267.46s-71.16,19.17-93.26,21.1S1800.82,1253,1800,1238s5-35.92,3-49.13a36.55,36.55,0,0,1-.45-8.06c.57-11.75,7.15-25.11,31.16-32.16a64,64,0,0,1,40.84,1,16.53,16.53,0,0,1,10.52,12.23c.26,1.15.5,2.55.81,3.93,2.54,10.49,8.4,26.77,21.59,44.38C1932.75,1244.08,1920.44,1267.46,1920.44,1267.46Z" transform="translate(10.04)"/><path class="cls-34" d="M1810.75,1241.18l42.89-9.7s10,30.71-10.29,36.31S1814.67,1261.49,1810.75,1241.18Z" transform="translate(10.04)"/><path class="cls-33" d="M1810.75,1241.18s9.9,9.54,23.27,6.18,19.62-15.88,19.62-15.88Z" transform="translate(10.04)"/><path class="cls-34" d="M1862.34,1229.51l42.89-9.7s10,30.71-10.29,36.31S1866.27,1249.82,1862.34,1229.51Z" transform="translate(10.04)"/><path class="cls-33" d="M1862.34,1229.51s9.9,9.54,23.27,6.17,19.62-15.87,19.62-15.87Z" transform="translate(10.04)"/><path class="cls-34" d="M1885.09,1161.93c.26,1.15.5,2.55.81,3.93-5.67,11.7-16.42,26.65-34.61,30.12-30.93,6-48.72-15.14-48.72-15.14.57-11.75,7.15-25.11,31.16-32.16a64,64,0,0,1,40.84,1A16.53,16.53,0,0,1,1885.09,1161.93Z" transform="translate(10.04)"/><path class="cls-29" d="M1851.73,1202.46h0a3.62,3.62,0,0,1-4.32-2.72l-.72-3.2a3.62,3.62,0,0,1,2.72-4.32h0a3.63,3.63,0,0,1,4.32,2.73l.72,3.2A3.61,3.61,0,0,1,1851.73,1202.46Z" transform="translate(10.04)"/><path class="cls-27" d="M1829,1093.29s4.94,11.64,10.08,14.89,10,11,11.1,17.32c2,11.54-6.87,18.69-13.37,18.69s-12.71-8.86-16.53-30c-.21-1.17-6.38-13.3-6.38-13.3Z" transform="translate(10.04)"/><path class="cls-35" d="M1924.61,296.18c-79.24,0-143.71,64.47-143.71,143.71s64.47,143.7,143.71,143.7,143.7-64.46,143.7-143.7S2003.85,296.18,1924.61,296.18Zm0,278c-74.07,0-134.34-60.26-134.34-134.33s60.27-134.34,134.34-134.34,134.33,60.27,134.33,134.34S1998.68,574.22,1924.61,574.22Z" transform="translate(10.04)"/><path class="cls-35" d="M1924.61,330.94a5.73,5.73,0,1,0-5.73-5.72A5.72,5.72,0,0,0,1924.61,330.94Z" transform="translate(10.04)"/><path class="cls-35" d="M1924.61,550.68a5.73,5.73,0,1,0,5.72,5.73A5.72,5.72,0,0,0,1924.61,550.68Z" transform="translate(10.04)"/><path class="cls-35" d="M2034.47,435.08a5.73,5.73,0,1,0,5.73,5.73A5.73,5.73,0,0,0,2034.47,435.08Z" transform="translate(10.04)"/><path class="cls-35" d="M1978.07,531.78a5.73,5.73,0,1,0,8.09-.19A5.72,5.72,0,0,0,1978.07,531.78Z" transform="translate(10.04)"/><path class="cls-35" d="M2015.56,496.14a5.73,5.73,0,1,0,8.09-.19A5.72,5.72,0,0,0,2015.56,496.14Z" transform="translate(10.04)"/><path class="cls-35" d="M2022.19,391.3a5.73,5.73,0,1,0-7.65-2.68A5.73,5.73,0,0,0,2022.19,391.3Z" transform="translate(10.04)"/><path class="cls-35" d="M1985.32,342.41a5.73,5.73,0,1,0,1.7,7.92A5.72,5.72,0,0,0,1985.32,342.41Z" transform="translate(10.04)"/><path class="cls-35" d="M1823,433.17a5.73,5.73,0,1,0,5.73,5.72A5.73,5.73,0,0,0,1823,433.17Z" transform="translate(10.04)"/><path class="cls-35" d="M1871.35,529.67a5.73,5.73,0,1,0,8.1.19A5.72,5.72,0,0,0,1871.35,529.67Z" transform="translate(10.04)"/><path class="cls-35" d="M1833.86,494a5.73,5.73,0,1,0,8.1.19A5.73,5.73,0,0,0,1833.86,494Z" transform="translate(10.04)"/><path class="cls-35" d="M1835.33,389.38a5.73,5.73,0,1,0-2.68-7.65A5.72,5.72,0,0,0,1835.33,389.38Z" transform="translate(10.04)"/><path class="cls-35" d="M1872.2,340.49a5.73,5.73,0,1,0,7.92,1.71A5.73,5.73,0,0,0,1872.2,340.49Z" transform="translate(10.04)"/><path class="cls-35" d="M1978.6,397.87l-46.82,32.36a5.29,5.29,0,0,0-.52-.29l-5-88.45V430a5.72,5.72,0,1,0,8.25,5.13,6,6,0,0,0-.07-.85Z" transform="translate(10.04)"/><rect class="cls-36" x="102.92" y="1570.43" width="2677.7" height="7.1" rx="3.03"/></svg>